<?xml version="1.0" encoding="utf-8" ?><svg xmlns="http://www.w3.org/2000/svg" xmlns:xlink="http://www.w3.org/1999/xlink" width="467" height="467" viewBox="0 0 467 467"><path fill="#2B2A2A" d="M0 0L467 0L467 467L242.49 467L224.039 467L0 467L0 239.541L0 227.209L0 0Z"/><path fill="white" d="M0 0L467 0L467 467L242.49 467C243.06 466.559 243.852 466.451 244.539 466.274C252.794 466.272 261.214 465.151 269.363 463.908C313.752 457.029 355.187 437.405 388.632 407.42C435.307 365.812 463.216 307.13 466.038 244.666C468.989 183.268 447.453 123.208 406.159 77.6754C365.028 32.044 307.48 4.58668 246.134 1.32498C183.574 -2.19415 122.253 19.749 76.128 62.1591C30.8541 103.498 3.82304 161.105 0.963104 222.347C0.593751 223.839 0.590632 225.836 0 227.209L0 0Z"/><path fill="white" d="M0 239.541C0.417401 240.788 0.296122 243.83 0.923099 244.683C3.66271 306.608 31.1105 364.851 77.1261 406.382C110.153 436.416 151.158 456.263 195.203 463.533C203.348 464.882 212.464 466.303 220.719 466.265C221.655 466.439 223.293 466.448 224.039 467L0 467L0 239.541Z"/><path fill="#C8C2C4" d="M0 227.209C0.590632 225.836 0.593751 223.839 0.963104 222.347C0.867075 229.795 0.988445 237.237 0.923099 244.683C0.296122 243.83 0.417401 240.788 0 239.541L0 227.209Z"/><path fill="#898984" d="M220.719 466.265C225.7 466.218 230.695 466.343 235.68 466.324C238.592 466.313 241.65 466.049 244.539 466.274C243.852 466.451 243.06 466.559 242.49 467L224.039 467C223.293 466.448 221.655 466.439 220.719 466.265Z"/><path fill="white" d="M223.081 23.3657C339.298 17.6394 438.157 107.202 443.898 223.418C449.64 339.635 360.091 438.506 243.875 444.263C127.637 450.021 28.7442 360.451 23.0014 244.213C17.2587 127.974 106.841 29.0931 223.081 23.3657Z"/><path fill="#2B2A2A" d="M234.196 47.4332C234.257 47.4907 234.321 47.5451 234.378 47.6055C238.822 52.2631 242.739 57.7374 246.681 62.8333C261.518 82.0155 270.761 100.436 274.009 124.62C274.794 130.466 275.41 136.299 275.287 142.204C275.113 150.598 273.884 159.048 272.487 167.315C271.616 172.32 270.683 177.313 269.689 182.295C269.098 185.32 268.662 188.611 267.569 191.496C266.437 194.486 263.853 197.172 262.005 199.773C259.849 202.808 257.762 206.022 255.976 209.288C243.909 231.354 238.444 255.42 237.354 280.422C240.388 280.591 243.421 280.881 246.45 281.125C248.885 260.63 253.895 243.502 266.433 226.773C276.547 213.278 290.877 200.858 308.121 198.441C318.716 196.956 330.585 199.15 339.191 205.749C345.987 210.876 350.45 218.509 351.586 226.946C352.691 235.56 350.757 244.29 346.116 251.63C344.392 254.344 342.293 256.831 340.316 259.363C343.854 256.923 346.746 253.736 349.069 250.13C354.354 241.89 356.1 231.87 353.914 222.329C351.839 213.073 346.108 205.051 338.025 200.086C328.009 193.855 314.576 192.655 303.24 195.411C275.233 202.22 254.936 229.864 247.134 256.304C245.964 260.268 244.86 264.361 244.138 268.433C243.868 269.956 243.628 274.708 243.034 275.69C242.93 275.249 242.899 274.833 242.899 274.381C242.893 270.092 243.727 265.626 244.331 261.378C247.983 235.723 258.144 208.784 276.701 190.132C288.985 177.785 304.286 169.683 322.032 169.665C339.266 169.647 357.964 173.821 370.489 186.456C378.751 194.758 383.352 206.019 383.268 217.732C383.295 230.239 378.289 242.231 369.377 251.007C357.89 262.238 345.768 264.021 330.52 263.902C332.235 260.575 333.659 257.228 334.206 253.499C335.108 247.736 333.647 241.852 330.153 237.181C325.657 231.177 318.67 227.909 311.371 226.892C301.051 225.453 289.831 228.535 281.57 234.837C267.543 245.54 261.224 264.245 258.901 281.102C260.659 280.904 262.411 280.668 264.158 280.393C275.06 278.613 283.245 272.7 289.599 263.819C294.437 266.777 299.03 270.225 303.66 273.498C310.656 278.471 317.684 283.399 324.744 288.281C318.777 294.773 314.831 301.256 307.867 307.231C297.643 316.003 284.465 321.388 271.237 323.518C268.806 323.91 266.077 324.514 263.617 324.323C267.792 335.271 273.987 344.908 285.052 349.834C292.411 353.11 301.194 353.684 308.758 350.738C314.656 348.441 318.284 344.783 320.826 339.054C321.582 339.299 322.317 339.565 323.026 339.926C326.475 341.685 328.626 345.002 329.768 348.613C331.884 355.306 330.664 363.432 327.439 369.575C324.071 375.992 318.284 380.246 311.406 382.317C301.026 385.442 288.819 383.478 279.402 378.354C260.921 368.297 253.504 343.806 247.934 324.94C245.988 324.726 243.992 324.757 242.035 324.711C244.414 333.408 247.35 341.943 250.826 350.263C252.21 353.578 256.177 360.018 256.657 363.017C257.124 365.941 255.683 372.088 255.22 375.159C251.849 397.505 248.041 408.036 235.207 426.493C234.959 426.894 234.803 427.131 234.397 427.38C232.498 426.023 229.121 420.239 227.775 418.082C218.601 403.372 215.832 390.282 213.178 373.366C212.669 370.122 211.316 365.322 212.188 362.162C213.08 358.924 215.473 355.675 216.828 352.531C220.901 343.082 224.56 333.334 226.883 323.297C225.055 323.27 223.184 322.918 221.37 322.681C220.481 326.65 219.057 330.579 217.77 334.437C212.141 351.318 204.724 370.722 187.753 379.105C178.168 383.84 166.122 385.41 155.884 381.897C149.194 379.601 143.8 375.122 140.725 368.708C137.665 362.328 136.736 354.584 139.12 347.84C140.722 343.307 143.485 340.932 147.748 338.93C147.947 339.484 148.175 340.015 148.427 340.546C150.912 345.79 155.227 349.192 160.668 351.072C168.664 353.835 177.69 352.792 185.203 349.072C196.172 343.641 201.989 333.082 205.778 321.958C192.091 322.54 186.849 323.864 177.373 333.938C173.728 330.182 169.441 326.793 165.507 323.33L145.282 305.51C148.383 302.559 151.218 299.45 154.541 296.724C171.255 283.018 188.669 280.481 209.647 279.499C207.803 269.977 205.542 260.663 200.957 252.025C195.256 241.283 186.771 232.187 174.883 228.549C165.634 225.718 155.156 225.648 146.461 230.308C140.97 233.251 136.761 238.082 135.009 244.107C133.014 250.967 134.784 257.631 138.085 263.747C133.45 263.996 128.742 264.004 124.143 263.303C112.175 261.594 101.409 255.113 94.2969 245.338C87.0134 235.283 83.9942 222.759 85.8962 210.49C87.7923 198.76 94.3208 188.283 104.016 181.412C117.609 171.6 139.572 167.672 155.995 170.375C175.213 173.539 190.635 186.517 201.708 201.896C215.021 220.386 221.873 242.728 224.764 265.108C225.251 268.877 226.382 273.827 225.774 277.56L225.529 277.45C225.385 273.729 224.858 269.921 224.057 266.282C218.565 241.326 205.392 217.321 183.429 203.266C171.561 195.671 157.112 191.996 143.157 195.119C133.288 197.328 124.636 202.661 119.212 211.337C114.105 219.567 112.512 229.502 114.789 238.916C116.616 246.699 121.569 255.053 128.466 259.336C122.098 252.22 117.556 244.338 116.76 234.644C116.056 226.069 118.625 217.187 124.257 210.618C130.903 202.865 140.809 198.772 150.876 198.09C165.331 197.112 178.557 203.309 189.228 212.66C207.996 229.106 220.255 254.601 221.86 279.459C224.939 279.361 228.098 279.703 231.184 279.794C231.07 255.972 223.669 229.087 212.136 208.273C210.552 205.413 208.678 202.626 206.749 199.989C204.855 197.4 202.42 194.72 201.214 191.715C199.875 188.378 199.383 184.533 198.699 181.014C197.631 175.697 196.656 170.361 195.776 165.01C194.537 157.185 193.433 149.291 193.338 141.356C193.275 117.514 200.348 94.1993 213.647 74.412C217.552 68.6399 221.694 63.0321 226.063 57.6031C228.764 54.2179 231.652 50.9359 234.196 47.4332Z"/><path fill="white" d="M290.357 266.907C291.597 267.088 303.094 275.711 304.858 277.07C303.027 279.425 301.057 281.669 298.959 283.79C293.973 288.904 288.065 293.03 281.546 295.949C269.487 301.279 252.42 302.801 239.315 302.125C228.21 301.553 217.255 299.877 206.099 299.952C189.904 300.062 175.302 303.721 163.551 315.624C163.201 316.087 162.997 316.398 162.461 316.655C160.223 315.575 151.53 306.973 149.176 304.738C154.708 300.103 157.816 296.588 164.208 292.641C176.549 285.021 190.407 282.898 204.592 282.016C212.406 281.473 220.248 281.454 228.065 281.96C237.889 282.623 247.639 283.94 257.509 283.421C272.817 282.615 280.309 278.067 290.357 266.907Z"/><path fill="white" d="M234.614 72.1851C235.029 76.8096 235.004 81.567 235.178 86.2111C235.553 96.164 235.82 106.121 235.978 116.079C236.374 148.913 236.15 181.766 236.15 214.601L236.12 255.648C236.133 262.816 236.339 270.001 236.222 277.167C236.208 278.01 236.3 279.467 235.856 280.184L234.979 280.289C234.158 280.192 233.296 280.173 232.59 279.708C232.066 275.172 232.516 268.729 232.518 263.976L232.516 230.411L232.512 159.568C232.341 138.458 232.55 117.346 233.138 96.2438C233.308 90.8883 233.244 76.2666 234.614 72.1851Z"/><path fill="white" d="M216.72 322.339L220.702 322.76C217.492 333.908 212.126 345.167 204.872 354.263C197.546 363.449 187.043 371.265 175.065 372.558C168.028 373.318 160.697 371.639 155.141 367.125C150.18 363.094 147.166 356.862 146.558 350.559C146.26 348.491 145.746 345.131 146.776 343.256C147.308 344.009 147.233 348.001 147.404 349.121C147.765 351.612 148.486 354.037 149.545 356.321C152.17 361.965 156.655 365.99 162.511 368.086C169.877 370.723 178.002 369.455 184.922 366.096C201.999 357.805 210.843 339.365 216.72 322.339Z"/><path fill="white" d="M248.747 324.874C250.081 324.994 251.469 324.947 252.81 324.965C253.292 326.424 253.812 327.87 254.369 329.302C260.101 344.212 269.808 360.032 284.985 366.69C291.971 369.754 299.87 370.613 307.063 367.72C315.035 364.514 320.504 357.071 321.183 348.505C321.341 346.673 320.895 343.649 321.585 342.039C321.926 343.233 321.975 344.457 322.07 345.69C322.757 350.59 321.302 356.642 318.828 360.889C315.66 366.329 310.011 370.299 303.955 371.877C295.296 374.134 285.987 371.788 278.424 367.351C264.23 359.024 252.874 340.695 248.747 324.874Z"/><path fill="white" d="M232.531 323.938L236.102 324.066C236.241 339.129 236.195 354.194 235.965 369.256C235.685 379.993 235.305 390.727 234.826 401.457C234.778 401.818 234.69 402.178 234.617 402.535C232.159 399.988 232.517 332.285 232.531 323.938Z"/><path fill="#2B2A2A" d="M59.9107 297.709C59.9794 296.487 60.0608 295.266 60.1548 294.046C60.2446 293.007 60.4301 291.832 61.3243 291.163C62.5661 290.233 64.5542 290.751 65.9673 290.967C68.5964 291.928 70.4362 293.915 71.6116 296.42C71.6971 296.603 71.7788 296.788 71.8566 296.974C71.3998 297.753 70.808 298.575 70.4877 299.415C70.5829 300.247 70.4943 301.172 70.9512 301.872L71.466 301.825C71.3834 300.816 71.4254 299.806 72.0603 298.962C72.8465 297.917 74.0824 297.782 75.2831 297.606L76.7258 297.674C78.3967 297.795 80.0479 298.109 81.6464 298.61C83.4145 299.03 85.1774 299.425 86.9649 299.754C87.0021 298.121 86.6748 294.498 87.9281 293.337C88.8092 292.52 90.5691 292.509 91.7033 292.608C93.941 292.804 95.6046 293.919 96.9701 295.657C99.1737 298.462 100.117 304.024 102.364 306.046L102.713 305.823C103.068 303.465 102.254 298.531 104.377 297.015C105.049 296.535 105.822 296.481 106.61 296.658C108.836 297.156 111.086 298.874 112.201 300.825C114.878 305.508 114.552 311.617 116.598 316.66C117.486 313.957 117.981 307.946 120.783 306.584C121.878 306.052 123.704 306.323 124.788 306.778C126.67 307.567 127.717 309.344 128.39 311.182C131.152 318.719 124.571 329.289 132.512 332.972C134.015 333.669 137.97 334.4 138.657 335.792L138.47 336.168C136.995 336.46 132.358 333.646 128.509 334.046C123.268 334.592 109.934 342.449 106.311 340.249C105.976 340.046 105.839 339.778 105.726 339.405C105.314 338.049 106.206 336.604 106.975 335.584C107.911 334.342 109.35 333.042 109.263 331.387C108.908 330.69 108.438 330.407 107.714 330.181C103.635 328.903 98.9218 332.198 94.9855 333.066C93.4083 333.118 91.8299 333.123 90.2524 333.08C89.712 333.787 89.1511 333.975 88.2974 334.129C90.3006 334.542 92.1402 334.538 94.1724 334.43C94.5937 334.408 94.4238 334.412 94.9192 334.449C89.8867 335.8 85.394 338.944 80.0299 339.213C79.0846 339.26 78.2035 339.302 77.4605 338.639C76.2716 335.858 80.9164 333.041 81.0412 330.432C81.0709 329.813 80.8708 329.402 80.3983 329C77.9075 326.885 68.6693 331.184 65.0413 331.305C62.6335 331.386 59.306 331.179 57.5175 329.383C56.7389 328.601 56.1722 327.495 56.2453 326.369C56.4427 323.324 61.9991 321.753 64.0182 319.972C64.0892 319.909 64.1578 319.844 64.2277 319.78C60.2953 316.275 56.7666 318.67 52.4975 317.346C51.3104 316.978 50.2135 316.036 49.6555 314.925C47.7974 311.223 53.3819 310.911 54.2421 308.296C53.828 305.667 46.9797 302.68 45.0169 300.16C44.467 299.454 43.8714 298.467 44.1155 297.53C44.2761 296.914 44.764 296.487 45.2796 296.159C47.644 294.655 50.4589 295.353 52.9863 295.95C55.2823 296.629 57.5436 297.318 59.9107 297.709Z"/><path fill="#2B2A2A" d="M59.9107 297.709C59.9794 296.487 60.0608 295.266 60.1548 294.046C60.2446 293.007 60.4301 291.832 61.3243 291.163C62.5661 290.233 64.5542 290.751 65.9673 290.967C68.5964 291.928 70.4362 293.915 71.6116 296.42C71.6971 296.603 71.7788 296.788 71.8566 296.974C71.3998 297.753 70.808 298.575 70.4877 299.415C70.5829 300.247 70.4943 301.172 70.9512 301.872L71.466 301.825C71.537 301.889 71.6087 301.952 71.679 302.017C72.3497 302.631 72.7735 303.47 73.4725 304.07C75.4136 305.735 78.0374 306.679 80.1049 308.222C80.7862 308.895 81.2656 309.423 81.6759 310.294L81.6521 310.995C80.0694 312.222 76.9596 314.122 76.7232 316.26C76.6491 316.93 76.7672 317.351 77.1903 317.878C78.2379 319.182 80.7366 319.655 82.3173 319.873C84.5225 319.62 89.0919 319.167 90.9046 320.694C91.1996 320.943 91.346 321.277 91.5106 321.616C91.422 321.954 91.4717 322.074 91.1725 322.277C91.1226 322.327 91.0739 322.378 91.0229 322.427C89.0605 324.306 84.3542 325.396 84.1633 328.526C84.1057 329.471 84.4105 330.459 85.086 331.135C86.3662 332.418 88.5118 332.84 90.2524 333.08C89.712 333.787 89.1511 333.975 88.2974 334.129C90.3006 334.542 92.1402 334.538 94.1724 334.43C94.5937 334.408 94.4238 334.412 94.9192 334.449C89.8867 335.8 85.394 338.944 80.0299 339.213C79.0846 339.26 78.2035 339.302 77.4605 338.639C76.2716 335.858 80.9164 333.041 81.0412 330.432C81.0709 329.813 80.8708 329.402 80.3983 329C77.9075 326.885 68.6693 331.184 65.0413 331.305C62.6335 331.386 59.306 331.179 57.5175 329.383C56.7389 328.601 56.1722 327.495 56.2453 326.369C56.4427 323.324 61.9991 321.753 64.0182 319.972C64.0892 319.909 64.1578 319.844 64.2277 319.78C60.2953 316.275 56.7666 318.67 52.4975 317.346C51.3104 316.978 50.2135 316.036 49.6555 314.925C47.7974 311.223 53.3819 310.911 54.2421 308.296C53.828 305.667 46.9797 302.68 45.0169 300.16C44.467 299.454 43.8714 298.467 44.1155 297.53C44.2761 296.914 44.764 296.487 45.2796 296.159C47.644 294.655 50.4589 295.353 52.9863 295.95C55.2823 296.629 57.5436 297.318 59.9107 297.709Z"/><path fill="white" d="M85.7177 324.242C83.0779 322.818 80.3098 321.421 77.7558 319.861C73.4164 317.21 51.146 303.123 49.6037 300.109C49.3868 299.685 49.4333 299.87 49.6102 299.368C50.1905 299.306 50.6073 299.46 51.102 299.748C53.014 300.861 54.8714 302.576 56.6665 303.894C59.0193 305.621 73.6888 316.249 75.4306 316.265C75.6593 313.053 78.194 312.831 79.8816 310.58C79.9549 309.766 79.7671 309.654 79.3364 308.985C76.357 307.79 72.2525 305.546 70.7089 302.643C70.098 301.494 70.1521 300.637 70.4877 299.415C70.5829 300.247 70.4943 301.172 70.9512 301.872L71.466 301.825C71.537 301.889 71.6087 301.952 71.679 302.017C72.3497 302.631 72.7735 303.47 73.4725 304.07C75.4136 305.735 78.0374 306.679 80.1049 308.222C80.7862 308.895 81.2656 309.423 81.6759 310.294L81.6521 310.995C80.0694 312.222 76.9596 314.122 76.7232 316.26C76.6491 316.93 76.7672 317.351 77.1903 317.878C78.2379 319.182 80.7366 319.655 82.3173 319.873C84.5225 319.62 89.0919 319.167 90.9046 320.694C91.1996 320.943 91.346 321.277 91.5106 321.616C91.422 321.954 91.4717 322.074 91.1725 322.277C91.1226 322.327 91.0739 322.378 91.0229 322.427C89.0605 324.306 84.3542 325.396 84.1633 328.526C84.1057 329.471 84.4105 330.459 85.086 331.135C86.3662 332.418 88.5118 332.84 90.2524 333.08C89.712 333.787 89.1511 333.975 88.2974 334.129C86.6536 333.67 85.0359 332.949 83.9215 331.61C83.1652 330.701 82.7606 329.575 82.8816 328.389C83.0801 326.443 84.2848 325.376 85.7177 324.242Z"/><path fill="#2B2A2A" d="M86.5778 320.971C87.5281 321.062 89.1989 320.999 89.9523 321.581C89.415 322.055 88.8238 322.678 88.0951 322.821C87.0881 323.019 85.3386 322.752 84.5127 322.144C84.1341 321.866 84.2161 321.85 84.1389 321.43C84.8872 320.933 85.6954 321.025 86.5778 320.971Z"/><path fill="white" d="M76.3207 301.459C76.6858 301.451 76.9991 301.452 77.3429 301.593C79.2417 302.374 81.2559 304.188 82.9509 305.373C85.881 307.416 88.8459 309.409 91.8443 311.351C99.6835 316.301 107.738 320.901 115.985 325.137C119.942 327.173 124.137 328.875 127.982 331.108C128.836 331.603 129.722 332.07 130.12 333.018C126.863 332.881 122.32 330.046 119.416 328.578C105.481 321.534 90.6979 313.493 78.3234 303.947C77.3771 303.217 76.4783 302.704 76.3207 301.459Z"/><path fill="#2B2A2A" d="M52.7092 294.556C52.2635 294.323 52.2497 294.426 52.0743 293.912C53.2898 292.151 56.7549 292.151 58.5053 291.046C59.1768 290.623 59.3708 290.202 59.5501 289.454C58.5909 285.861 50.9789 284.694 47.936 283.428C46.1708 282.698 44.5392 281.679 43.108 280.414C41.6279 279.087 40.1545 277.362 40.1275 275.273C40.1151 274.316 40.4014 273.377 41.1378 272.732C43.3517 270.792 46.9433 272.352 49.5455 272.326C50.1505 272.32 50.5758 272.309 50.9895 271.844C50.8949 267.815 45.6706 266.334 43.2951 263.757C42.309 262.687 41.9088 261.52 41.9976 260.068C42.2671 255.662 47.3552 258.865 49.5195 256.947C51.209 253.918 46.3748 248.587 46.4046 245.029C46.4115 244.204 46.6689 243.383 47.292 242.817C47.9227 242.243 48.6547 241.878 49.5178 241.934C53.2055 242.175 57.8537 248.917 60.2183 251.627C61.1369 250.151 62.4136 248.226 63.8998 247.289C64.507 246.905 65.1481 246.729 65.8557 246.914C67.3625 247.307 68.5728 248.921 69.333 250.193C72.2704 255.108 69.4392 261.253 68.1846 266.361C70.6444 264.793 71.588 262.48 73.5439 260.483C74.0591 259.957 74.7049 259.429 75.4851 259.509C76.7574 259.64 78.1388 261.174 78.7861 262.168C82.6008 268.023 75.4641 276.461 74.171 282.651C76.8893 280.829 79.3708 277.083 82.868 277.034C83.8521 277.016 84.7995 277.407 85.4856 278.113C86.8128 279.481 87.1215 281.626 87.0436 283.447C86.8479 288.022 83.7771 291.067 80.5926 293.946C79.3614 294.006 78.2004 294.135 76.9867 294.357L77.1732 294.993C79.0446 295.327 80.6721 295.565 82.316 296.589C83.0395 296.9 84.0585 297.455 84.4066 298.18L84.1389 298.525C83.135 298.535 82.3269 297.694 81.4335 297.9L81.6464 298.61C80.0479 298.109 78.3967 297.795 76.7258 297.674L75.2831 297.606C74.0824 297.782 72.8465 297.917 72.0603 298.962C71.4254 299.806 71.3834 300.816 71.466 301.825L70.9512 301.872C70.4943 301.172 70.5829 300.247 70.4877 299.415C70.808 298.575 71.3998 297.753 71.8566 296.974C71.7788 296.788 71.6971 296.603 71.6116 296.42C70.4362 293.915 68.5964 291.928 65.9673 290.967C64.5542 290.751 62.5661 290.233 61.3243 291.163C60.4301 291.832 60.2446 293.007 60.1548 294.046C60.0608 295.266 59.9794 296.487 59.9107 297.709C57.5436 297.318 55.2823 296.629 52.9863 295.95L52.7092 294.556Z"/><path fill="white" d="M66.8226 289.826L67.1322 289.757C66.3016 287.046 64.2071 283.681 62.9807 280.993C60.7469 276.095 49.2424 249.96 50.5178 246.925L50.8644 246.87C53.1174 250.203 55.0433 257.793 56.5705 261.876C58.475 266.969 69.9352 295.198 73.7499 296.627L74.4201 296.582C75.086 295.495 75.8039 294.847 76.9867 294.357L77.1732 294.993C79.0446 295.327 80.6721 295.565 82.316 296.589C83.0395 296.9 84.0585 297.455 84.4066 298.18L84.1389 298.525C83.135 298.535 82.3269 297.694 81.4335 297.9L81.6464 298.61C80.0479 298.109 78.3967 297.795 76.7258 297.674L75.2831 297.606C74.0824 297.782 72.8465 297.917 72.0603 298.962C71.4254 299.806 71.3834 300.816 71.466 301.825L70.9512 301.872C70.4943 301.172 70.5829 300.247 70.4877 299.415C70.808 298.575 71.3998 297.753 71.8566 296.974C71.7788 296.788 71.6971 296.603 71.6116 296.42C70.4362 293.915 68.5964 291.928 65.9673 290.967C64.5542 290.751 62.5661 290.233 61.3243 291.163C60.4301 291.832 60.2446 293.007 60.1548 294.046C60.0608 295.266 59.9794 296.487 59.9107 297.709C57.5436 297.318 55.2823 296.629 52.9863 295.95L52.7092 294.556C53.5555 294.819 54.5151 295.248 55.4064 295.108C55.5603 294.903 55.7341 294.637 55.9441 294.478C56.4215 294.116 56.7934 294.085 57.3611 294.146C57.4695 294.485 57.582 294.817 57.703 295.152C59.5263 294.396 58.7485 291.229 60.7147 289.978C62.3972 288.908 64.9803 289.461 66.8226 289.826Z"/><path fill="white" d="M82.316 296.589C83.0395 296.9 84.0585 297.455 84.4066 298.18L84.1389 298.525C83.135 298.535 82.3269 297.694 81.4335 297.9L81.6464 298.61C80.0479 298.109 78.3967 297.795 76.7258 297.674C76.7445 297.275 76.7915 297.118 76.9372 296.76C78.7656 296.245 80.4757 297.168 82.316 296.589Z"/><path fill="#2B2A2A" d="M382.23 249.23L382.417 249.458C383.136 255.368 382.61 261.432 382.79 267.375C383.148 279.177 386.085 292.42 381.823 303.792C377.058 316.508 363.954 322.675 352.421 327.987C351.845 328.28 351.607 328.512 350.957 328.415C350.943 328.339 350.92 328.263 350.917 328.186C350.877 327.044 354.201 320.108 354.609 317.618C355.434 312.589 355.539 307.458 356.416 302.416C359.916 282.318 368.522 264.327 382.23 249.23Z"/><path fill="white" d="M376.888 264.976C377.218 265.536 377.106 265.837 377.066 266.478C375.947 284.153 369.275 303.012 360.376 318.215C358.861 320.803 357.185 324.179 354.935 326.161L354.62 325.865C354.631 325.084 362.139 311.732 363.169 309.318C367.345 299.525 371.042 289.9 373.725 279.568C374.954 274.832 375.565 269.945 376.817 265.237L376.888 264.976Z"/><path fill="#2B2A2A" d="M424.084 300.231C424.353 300.254 424.198 300.21 424.498 300.479C422.087 310.384 419.611 320.075 410.721 326.176C407.245 328.562 403.308 330.088 399.296 331.312C384.649 335.78 370.761 334.117 356.033 331.405C354.762 331.076 353.468 330.96 352.166 330.813C354.788 329.251 357.771 328.285 360.467 326.847C366.23 323.774 371.447 319.741 377.688 317.609C382.364 316.012 387.344 315.511 392.151 314.425C403.871 311.777 414.189 306.981 424.084 300.231Z"/><path fill="white" d="M414.477 310.273L414.589 310.47L414.412 310.884C399.502 322.658 378.873 330.587 359.816 331.024L359.646 330.617C360.891 329.569 367.083 329.048 369.068 328.629C374.243 327.558 379.354 326.193 384.374 324.542C395.075 320.99 404.887 316.152 414.477 310.273Z"/><path fill="#2B2A2A" d="M406.541 254.448C407.744 257.403 409.39 260.146 410.613 263.094C414.197 271.736 415.443 282.017 411.678 290.826C407.203 301.297 396.95 308.463 386.652 312.513C384.053 313.535 381.362 314.316 378.68 315.089C382.203 311.379 383.326 308.156 387.938 305.35C387.491 305.131 387.058 305.059 386.575 304.957L385.616 305.462L385.332 305.319C385.793 303.201 386.252 301.089 386.536 298.938C386.816 296.821 386.863 294.572 387.407 292.508C389.747 290.117 392.151 287.736 394.231 285.111C401.249 276.254 404.935 265.52 406.541 254.448Z"/><path fill="white" d="M386.575 304.957C395.999 298.212 404.715 290.6 406.641 278.478C406.756 277.753 406.708 276.91 407.186 276.324L407.42 276.398C407.772 282.902 403.174 291.683 398.954 296.396C395.904 299.802 391.955 303.122 387.938 305.35C387.491 305.131 387.058 305.059 386.575 304.957Z"/><path fill="#2B2A2A" d="M347.293 330.544C348.077 330.408 348.539 330.344 349.293 330.624L349.464 331.013C347.937 332.659 340.315 334.872 337.84 335.761L336.322 336.284C335.603 336.117 335.561 336.056 335.061 335.505C335.019 335.153 334.919 334.943 335.102 334.614C336.014 332.97 345.125 331.062 347.293 330.544Z"/><path fill="white" d="M94.9855 333.066C95.6361 333.565 95.9022 333.689 96.7332 333.547C99.3663 333.097 103.528 331.212 106.072 332.696C106.561 332.982 106.568 333.21 106.743 333.719L106.425 334.034C105.017 334.003 103.549 333.465 102.228 332.991C100.039 332.205 97.0476 335.063 94.9192 334.449C94.4238 334.412 94.5937 334.408 94.1724 334.43C92.1402 334.538 90.3006 334.542 88.2974 334.129C89.1511 333.975 89.712 333.787 90.2524 333.08C91.8299 333.123 93.4083 333.118 94.9855 333.066Z"/><path fill="#2B2A2A" d="M356.923 334.307C357.766 334.152 358.627 334.468 359.168 335.132C359.71 335.796 359.847 336.703 359.525 337.497C359.203 338.292 358.475 338.848 357.623 338.948C356.365 339.097 355.215 338.22 355.026 336.966C354.837 335.713 355.677 334.536 356.923 334.307Z"/></svg>