<svg viewBox="2.344 4.609 157.861 35.392" xmlns="http://www.w3.org/2000/svg"><path d="M19.688 40H4.278q-.8 0-1.367-.566t-.567-1.368q0-.82.567-1.386t1.367-.567h15.41q.8 0 1.367.567t.567 1.386q0 .801-.567 1.368T19.688 40m0-24.141H4.278q-.8 0-1.367-.566t-.567-1.368.567-1.367 1.367-.566h15.41q.8 0 1.367.566t.567 1.367-.567 1.368-1.367.566m0 12.071H4.278q-.8 0-1.367-.566t-.567-1.368.567-1.377 1.367-.576h15.41q.8 0 1.367.576t.567 1.377-.567 1.368-1.367.566M28.439 40q-.8 0-1.367-.566t-.566-1.368v-12.07q0-.8.566-1.377t1.367-.576h10.47q1.913 0 3.007-1.21 1.016-1.231 1.016-2.872 0-.761-.352-1.728t-1.22-1.67-2.452-.703h-2.246q-.8 0-1.377-.567t-.576-1.367.576-1.367 1.377-.567h2.246q2.598 0 4.356 1.163t2.646 2.988.89 3.818q0 3.067-1.974 5.43-.507.586-1.308 1.172t-1.944.976-2.666.391h-8.515v10.137q0 .8-.567 1.367t-1.386.567zm0-24.141q-.8 0-1.367-.566t-.566-1.368.566-1.367 1.367-.566q.82 0 1.387.566t.567 1.367-.567 1.368-1.387.566M53.812 40q-.8 0-1.367-.566t-.566-1.368v-12.07q0-.8.566-1.377t1.367-.576h10.47q1.914 0 3.007-1.21 1.016-1.231 1.016-2.872 0-.761-.352-1.728t-1.22-1.67-2.452-.703q-.8 0-1.367-.567t-.566-1.367.566-1.367 1.367-.567q2.579 0 4.336 1.163t2.657 2.988.898 3.818q0 3.067-1.973 5.43-.507.586-1.308 1.162t-1.944.977-2.666.4h-8.515v10.137q0 .8-.576 1.367t-1.377.567zm16.407 0q-1.074 0-1.738-1.094l-2.559-5.176q-.195-.449-.195-.878 0-1.153 1.074-1.72.43-.195.88-.195 1.171 0 1.737 1.094l2.54 5.176q.195.45.195.879 0 1.152-1.074 1.719-.43.195-.86.195m18.81-29.375q-.762 0-1.387-.566-.566-.606-.566-1.368 0-.78.566-1.386l2.13-2.13q.605-.566 1.386-.566.762 0 1.348.586t.585 1.368q0 .761-.585 1.347l-2.13 2.13q-.605.585-1.347.585M90.065 40q3.887 0 7.06-1.895t5.069-5.078 1.894-7.03q0-3.731-1.914-7.071-1.855-3.145-5-5.02-.488-.254-.976-.254-1.074 0-1.66.938-.293.488-.293.996 0 1.074.957 1.66 2.363 1.406 3.691 3.73t1.328 5.02q0 2.793-1.367 5.088t-3.672 3.662-5.117 1.367q-2.774 0-5.078-1.367t-3.672-3.662-1.367-5.088q0-.82.117-1.621l.039-.332q0-.625-.41-1.191-.547-.723-1.504-.723-.664 0-1.22.41t-.733 1.21q-.157 1.114-.157 2.247 0 3.848 1.885 7.031t5.069 5.078T90.065 40m31.78 0h-10.743q-.8 0-1.367-.566t-.566-1.368v-12.07q0-.8.566-1.377t1.367-.576h10.742q1.934 0 3.008-1.21 1.016-1.231 1.016-2.872 0-.761-.342-1.728t-1.22-1.67-2.462-.703h-10.742q-.8 0-1.367-.567t-.566-1.367.566-1.367 1.367-.567h10.742q2.598 0 4.356 1.163t2.646 2.988.889 3.818q0 3.067-1.973 5.43-.254.293-.586.586 1.27 1.191 1.914 2.783t.645 3.272q0 3.066-1.973 5.41-.508.605-1.308 1.181t-1.944.977-2.666.4zm0-3.887q1.933 0 3.007-1.21 1.016-1.231 1.016-2.872 0-.761-.342-1.728t-1.22-1.67-2.462-.703h-8.808v8.183zM135.966 40q-.41 0-.82-.176-1.114-.547-1.114-1.758 0-.41.176-.84l11.152-24.12q.645-1.133 1.777-1.133t1.739 1.133l7.988 17.305q.195.41.195.82 0 1.191-1.133 1.738-.43.195-.84.195-1.171 0-1.718-1.132l-6.23-13.496-9.395 20.352Q137.06 40 135.966 40m22.305-.059q-.801 0-1.367-.566t-.567-1.367.567-1.367 1.367-.567 1.367.567.566 1.367-.566 1.367-1.367.566" style="fill:#000"/></svg>