<?xml version="1.0" encoding="UTF-8" standalone="no"?>
<svg
   xmlns:dc="http://purl.org/dc/elements/1.1/"
   xmlns:cc="http://creativecommons.org/ns#"
   xmlns:rdf="http://www.w3.org/1999/02/22-rdf-syntax-ns#"
   xmlns:svg="http://www.w3.org/2000/svg"
   xmlns="http://www.w3.org/2000/svg"
   viewBox="0 0 209.33333 208"
   height="208"
   width="209.33333"
   xml:space="preserve"
   id="svg2"
   version="1.1"><metadata
     id="metadata8"><rdf:RDF><cc:Work
         rdf:about=""><dc:format>image/svg+xml</dc:format><dc:type
           rdf:resource="http://purl.org/dc/dcmitype/StillImage" /></cc:Work></rdf:RDF></metadata><defs
     id="defs6" /><g
     transform="matrix(1.3333333,0,0,-1.3333333,0,208)"
     id="g10"><g
       transform="scale(0.1)"
       id="g12"><path
         id="path14"
         style="fill:#64604f;fill-opacity:1;fill-rule:evenodd;stroke:none"
         d="m 788.129,1559.75 c 430.521,0 779.531,-349.01 779.531,-779.535 C 1567.66,349.695 1218.65,0.691406 788.129,0.691406 357.605,0.691406 8.60156,349.695 8.60156,780.215 c 0,430.525 349.00344,779.535 779.52744,779.535" /><path
         id="path16"
         style="fill:#4e4a3d;fill-opacity:1;fill-rule:nonzero;stroke:none"
         d="m 788.129,1509.95 c 403.021,0 729.731,-326.71 729.731,-729.735 0,-403.024 -326.71,-729.7384 -729.731,-729.7384 -403.027,0 -729.7384,326.7144 -729.7384,729.7384 0,403.025 326.7114,729.735 729.7384,729.735" /><path
         id="path18"
         style="fill:#4e4a3d;fill-opacity:1;fill-rule:evenodd;stroke:none"
         d="m 788.129,1440.37 c 364.591,0 660.151,-295.56 660.151,-660.155 0,-364.594 -295.56,-660.152 -660.151,-660.152 -364.594,0 -660.156,295.558 -660.156,660.152 0,364.595 295.562,660.155 660.156,660.155" /><path
         id="path20"
         style="fill:none;stroke:#595647;stroke-width:28.3465004;stroke-linecap:butt;stroke-linejoin:miter;stroke-miterlimit:22.92560005;stroke-dasharray:none;stroke-opacity:1"
         d="M 788.043,1441.65 V 121.352" /><path
         id="path22"
         style="fill:none;stroke:#595647;stroke-width:28.3465004;stroke-linecap:butt;stroke-linejoin:miter;stroke-miterlimit:22.92560005;stroke-dasharray:none;stroke-opacity:1"
         d="M 719.039,1438.04 857.047,124.969" /><path
         id="path24"
         style="fill:none;stroke:#595647;stroke-width:28.3465004;stroke-linecap:butt;stroke-linejoin:miter;stroke-miterlimit:22.92560005;stroke-dasharray:none;stroke-opacity:1"
         d="M 650.789,1427.23 925.293,135.777" /><path
         id="path26"
         style="fill:none;stroke:#595647;stroke-width:28.3465004;stroke-linecap:butt;stroke-linejoin:miter;stroke-miterlimit:22.92560005;stroke-dasharray:none;stroke-opacity:1"
         d="M 584.043,1409.34 992.039,153.66" /><path
         id="path28"
         style="fill:none;stroke:#595647;stroke-width:28.3465004;stroke-linecap:butt;stroke-linejoin:miter;stroke-miterlimit:22.92560005;stroke-dasharray:none;stroke-opacity:1"
         d="M 519.535,1384.58 1056.55,178.426" /><path
         id="path30"
         style="fill:none;stroke:#595647;stroke-width:28.3465004;stroke-linecap:butt;stroke-linejoin:miter;stroke-miterlimit:22.92560005;stroke-dasharray:none;stroke-opacity:1"
         d="M 457.965,1353.21 1118.12,209.797" /><path
         id="path32"
         style="fill:none;stroke:#595647;stroke-width:28.3465004;stroke-linecap:butt;stroke-linejoin:miter;stroke-miterlimit:22.92560005;stroke-dasharray:none;stroke-opacity:1"
         d="M 400.016,1315.58 1176.07,247.43" /><path
         id="path34"
         style="fill:none;stroke:#595647;stroke-width:28.3465004;stroke-linecap:butt;stroke-linejoin:miter;stroke-miterlimit:22.92560005;stroke-dasharray:none;stroke-opacity:1"
         d="M 346.316,1272.09 1229.77,290.914" /><path
         id="path36"
         style="fill:none;stroke:#595647;stroke-width:28.3465004;stroke-linecap:butt;stroke-linejoin:miter;stroke-miterlimit:22.92560005;stroke-dasharray:none;stroke-opacity:1"
         d="M 297.453,1223.23 1278.63,339.777" /><path
         id="path38"
         style="fill:none;stroke:#595647;stroke-width:28.3465004;stroke-linecap:butt;stroke-linejoin:miter;stroke-miterlimit:22.92560005;stroke-dasharray:none;stroke-opacity:1"
         d="M 253.969,1169.53 1322.12,393.477" /><path
         id="path40"
         style="fill:none;stroke:#595647;stroke-width:28.3465004;stroke-linecap:butt;stroke-linejoin:miter;stroke-miterlimit:22.92560005;stroke-dasharray:none;stroke-opacity:1"
         d="M 216.336,1111.58 1359.75,451.43" /><path
         id="path42"
         style="fill:none;stroke:#595647;stroke-width:28.3465004;stroke-linecap:butt;stroke-linejoin:miter;stroke-miterlimit:22.92560005;stroke-dasharray:none;stroke-opacity:1"
         d="M 184.965,1050.01 1391.12,512.996" /><path
         id="path44"
         style="fill:none;stroke:#595647;stroke-width:28.3465004;stroke-linecap:butt;stroke-linejoin:miter;stroke-miterlimit:22.92560005;stroke-dasharray:none;stroke-opacity:1"
         d="M 160.199,985.504 1415.88,577.508" /><path
         id="path46"
         style="fill:none;stroke:#595647;stroke-width:28.3465004;stroke-linecap:butt;stroke-linejoin:miter;stroke-miterlimit:22.92560005;stroke-dasharray:none;stroke-opacity:1"
         d="M 142.316,918.758 1433.77,644.25" /><path
         id="path48"
         style="fill:none;stroke:#595647;stroke-width:28.3465004;stroke-linecap:butt;stroke-linejoin:miter;stroke-miterlimit:22.92560005;stroke-dasharray:none;stroke-opacity:1"
         d="M 131.508,850.508 1444.57,712.5" /><path
         id="path50"
         style="fill:none;stroke:#595647;stroke-width:28.3465004;stroke-linecap:butt;stroke-linejoin:miter;stroke-miterlimit:22.92560005;stroke-dasharray:none;stroke-opacity:1"
         d="M 127.891,781.504 H 1448.19" /><path
         id="path52"
         style="fill:none;stroke:#595647;stroke-width:28.3465004;stroke-linecap:butt;stroke-linejoin:miter;stroke-miterlimit:22.92560005;stroke-dasharray:none;stroke-opacity:1"
         d="M 131.508,712.5 1444.57,850.508" /><path
         id="path54"
         style="fill:none;stroke:#595647;stroke-width:28.3465004;stroke-linecap:butt;stroke-linejoin:miter;stroke-miterlimit:22.92560005;stroke-dasharray:none;stroke-opacity:1"
         d="M 142.316,644.25 1433.77,918.758" /><path
         id="path56"
         style="fill:none;stroke:#595647;stroke-width:28.3465004;stroke-linecap:butt;stroke-linejoin:miter;stroke-miterlimit:22.92560005;stroke-dasharray:none;stroke-opacity:1"
         d="M 160.199,577.508 1415.88,985.504" /><path
         id="path58"
         style="fill:none;stroke:#595647;stroke-width:28.3465004;stroke-linecap:butt;stroke-linejoin:miter;stroke-miterlimit:22.92560005;stroke-dasharray:none;stroke-opacity:1"
         d="M 184.965,512.996 1391.12,1050.01" /><path
         id="path60"
         style="fill:none;stroke:#595647;stroke-width:28.3465004;stroke-linecap:butt;stroke-linejoin:miter;stroke-miterlimit:22.92560005;stroke-dasharray:none;stroke-opacity:1"
         d="M 216.336,451.43 1359.75,1111.58" /><path
         id="path62"
         style="fill:none;stroke:#595647;stroke-width:28.3465004;stroke-linecap:butt;stroke-linejoin:miter;stroke-miterlimit:22.92560005;stroke-dasharray:none;stroke-opacity:1"
         d="M 253.969,393.477 1322.12,1169.53" /><path
         id="path64"
         style="fill:none;stroke:#595647;stroke-width:28.3465004;stroke-linecap:butt;stroke-linejoin:miter;stroke-miterlimit:22.92560005;stroke-dasharray:none;stroke-opacity:1"
         d="M 297.453,339.777 1278.63,1223.23" /><path
         id="path66"
         style="fill:none;stroke:#595647;stroke-width:28.3465004;stroke-linecap:butt;stroke-linejoin:miter;stroke-miterlimit:22.92560005;stroke-dasharray:none;stroke-opacity:1"
         d="M 346.316,290.918 1229.77,1272.09" /><path
         id="path68"
         style="fill:none;stroke:#595647;stroke-width:28.3465004;stroke-linecap:butt;stroke-linejoin:miter;stroke-miterlimit:22.92560005;stroke-dasharray:none;stroke-opacity:1"
         d="M 400.016,247.43 1176.07,1315.58" /><path
         id="path70"
         style="fill:none;stroke:#595647;stroke-width:28.3465004;stroke-linecap:butt;stroke-linejoin:miter;stroke-miterlimit:22.92560005;stroke-dasharray:none;stroke-opacity:1"
         d="M 457.965,209.797 1118.12,1353.21" /><path
         id="path72"
         style="fill:none;stroke:#595647;stroke-width:28.3465004;stroke-linecap:butt;stroke-linejoin:miter;stroke-miterlimit:22.92560005;stroke-dasharray:none;stroke-opacity:1"
         d="M 519.535,178.426 1056.55,1384.58" /><path
         id="path74"
         style="fill:none;stroke:#595647;stroke-width:28.3465004;stroke-linecap:butt;stroke-linejoin:miter;stroke-miterlimit:22.92560005;stroke-dasharray:none;stroke-opacity:1"
         d="M 584.043,153.664 992.039,1409.35" /><path
         id="path76"
         style="fill:none;stroke:#595647;stroke-width:28.3465004;stroke-linecap:butt;stroke-linejoin:miter;stroke-miterlimit:22.92560005;stroke-dasharray:none;stroke-opacity:1"
         d="M 650.789,135.781 925.293,1427.23" /><path
         id="path78"
         style="fill:none;stroke:#595647;stroke-width:28.3465004;stroke-linecap:butt;stroke-linejoin:miter;stroke-miterlimit:22.92560005;stroke-dasharray:none;stroke-opacity:1"
         d="M 719.039,124.973 857.047,1438.04" /><path
         id="path80"
         style="fill:none;stroke:#595647;stroke-width:28.3465004;stroke-linecap:butt;stroke-linejoin:miter;stroke-miterlimit:22.92560005;stroke-dasharray:none;stroke-opacity:1"
         d="M 788.043,121.355 V 1441.66" /><path
         id="path82"
         style="fill:#c38a31;fill-opacity:1;fill-rule:evenodd;stroke:none"
         d="m 790.875,1375.89 c 88.852,-104.63 126.906,-166.78 135.855,-288.43 3.016,-40.98 -9.078,-110.026 -24.656,-181.362 -57.16,-68.008 -93.64,-171.313 -93.64,-287.008 0,-3.211 0.035,-6.418 0.097,-9.613 v -0.348 c 0,-47.68 7.535,-93.191 20.707,-134.828 11.969,-37.832 25.348,-69.836 40.559,-96.102 -13.789,-106.062 -22.02,-143.207 -78.922,-218.14 -56.898,74.933 -65.133,112.078 -78.922,218.14 15.215,26.266 28.59,58.27 40.563,96.102 13.168,41.637 20.707,87.148 20.707,134.828 v 0.348 c 0.062,3.195 0.093,6.402 0.093,9.613 0,115.695 -36.48,219 -93.636,287.008 -15.582,71.336 -27.676,140.382 -24.66,181.362 8.953,121.65 47.003,183.8 135.855,288.43" /><path
         id="path84"
         style="fill:#4e4a3d;fill-opacity:1;fill-rule:nonzero;stroke:none"
         d="m 796.793,1380.74 c 44.754,-52.71 76.762,-94.81 98.836,-139.3 22.195,-44.74 34.191,-91.56 38.742,-153.44 1.551,-21.08 -0.75,-49.14 -5.418,-80.95 -4.629,-31.519 -11.578,-66.784 -19.394,-102.57 -0.321,-1.488 -1.055,-2.781 -2.059,-3.789 -28.285,-33.8 -51.406,-76.57 -67.328,-125.378 -15.434,-47.309 -24.07,-100.27 -24.07,-156.223 l -0.008,-4.754 c 0.015,-1.488 0.043,-3.055 0.078,-4.711 l -0.004,-0.309 v -0.187 h 0.027 c 0,-23.008 1.785,-45.484 5.121,-67.231 3.473,-22.585 8.633,-44.429 15.231,-65.285 5.969,-18.871 12.219,-36.113 18.793,-51.734 6.594,-15.664 13.605,-29.945 21.078,-42.852 0.937,-1.613 1.219,-3.437 0.918,-5.14 C 870.391,323.523 864.82,287.418 853.75,255 c -11.172,-32.727 -27.797,-61.363 -56.793,-99.555 -2.547,-3.355 -7.336,-4.015 -10.691,-1.465 -0.614,0.465 -1.141,1 -1.571,1.594 C 755.762,193.699 739.16,222.313 728,255 c -11.09,32.484 -16.664,68.668 -23.625,122.207 -0.227,1.742 0.152,3.418 0.969,4.82 h -0.008 c 7.473,12.907 14.48,27.188 21.074,42.852 6.574,15.621 12.828,32.863 18.793,51.734 6.598,20.856 11.762,42.696 15.231,65.285 3.336,21.747 5.121,44.223 5.121,67.231 h 0.027 v 0.348 l 0.004,0.148 h -0.004 c 0.031,1.656 0.059,3.23 0.07,4.711 l -0.004,4.754 c 0,55.953 -8.636,108.914 -24.07,156.223 -16,49.042 -39.265,91.996 -67.742,125.875 -0.828,0.988 -1.363,2.121 -1.617,3.3 l -0.031,-0.008 c -7.813,35.786 -14.766,71.047 -19.391,102.57 -4.668,31.81 -6.969,59.87 -5.418,80.95 4.555,61.88 16.547,108.7 38.746,153.44 22.082,44.52 54.113,86.64 98.91,139.39 2.731,3.23 7.559,3.63 10.785,0.9 0.356,-0.3 0.684,-0.64 0.973,-0.99 z m 85.113,-146.06 c -20.433,41.19 -50.023,80.7 -91.031,129.36 -41.004,-48.66 -70.598,-88.17 -91.031,-129.36 -21.278,-42.9 -32.793,-87.98 -37.188,-147.76 -1.461,-19.9 0.778,-46.86 5.297,-77.65 4.481,-30.551 11.219,-64.84 18.824,-99.766 29.196,-35.184 53,-79.324 69.356,-129.457 15.937,-48.848 24.851,-103.418 24.851,-160.957 l -0.054,-4.871 c -0.016,-1.711 -0.039,-3.336 -0.071,-4.867 v -0.223 h 0.032 c 0,-23.75 -1.844,-46.988 -5.301,-69.512 -3.598,-23.426 -8.945,-46.043 -15.77,-67.621 -6.004,-18.969 -12.429,-36.644 -19.332,-53.047 -6.504,-15.449 -13.367,-29.554 -20.625,-42.328 6.676,-51.113 12.114,-85.894 22.633,-116.707 9.82,-28.762 24.199,-54.367 48.379,-87.125 24.18,32.758 38.559,58.363 48.379,87.125 10.519,30.813 15.961,65.594 22.633,116.707 -7.262,12.766 -14.121,26.879 -20.621,42.328 -6.907,16.403 -13.34,34.078 -19.336,53.047 -6.828,21.582 -12.168,44.199 -15.766,67.629 -3.461,22.516 -5.305,45.754 -5.305,69.504 h 0.032 v 0.031 0.219 c -0.028,1.527 -0.055,3.144 -0.067,4.84 l -0.058,4.871 c 0,57.539 8.914,112.109 24.851,160.957 16.36,50.133 40.16,94.273 69.36,129.457 7.601,34.926 14.339,69.215 18.824,99.766 4.515,30.79 6.758,57.75 5.293,77.65 -4.395,59.78 -15.91,104.86 -37.188,147.76 z m -65.734,-625.231 -0.004,-0.133 0.004,0.133" /><path
         id="path86"
         style="fill:#4e4a3d;fill-opacity:1;fill-rule:nonzero;stroke:none"
         d="m 790.875,246.289 h -0.215 c -3.414,46.43 -5.41,100.711 -5.324,166.504 v 664.077 c -0.109,131.81 4.754,200.24 5.223,211.51 h 0.316 0.316 c 0.469,-11.27 5.332,-79.7 5.223,-211.51 V 412.793 C 796.504,347 794.508,292.719 791.09,246.289 h -0.215" /><path
         id="path88"
         style="fill:#c38a31;fill-opacity:1;fill-rule:evenodd;stroke:none"
         d="m 1064.29,989.336 c 290.95,0 239.97,-343.297 14.12,-309.379 50.52,65.129 -8.55,136.16 -99.601,109.133 -71.516,-21.231 -105.633,-116.258 -105.633,-191.711 0,-46.742 10.429,-89.672 27.836,-123.379 45.402,-85.43 149.398,-65.023 154.578,-14.297 35,-3.754 50.11,-40.465 44.14,-77.344 -16.41,-101.476 -149.117,-98.98 -206.125,-34.816 -25.085,28.242 -45.296,71.129 -63.949,131.93 -13.172,42.929 -20.707,89.859 -20.707,139.019 0,204.813 114.317,370.844 255.341,370.844" /><path
         id="path90"
         style="fill:#4e4a3d;fill-opacity:1;fill-rule:nonzero;stroke:none"
         d="m 1064.29,997.246 c 104.4,0 166.47,-43.324 193.23,-98.398 12.2,-25.106 17.02,-52.602 15.14,-79.524 -1.87,-26.926 -10.43,-53.332 -24.98,-76.265 -31.38,-49.461 -90.46,-82.911 -170.34,-70.914 -4.19,0.613 -7.1,4.609 -6.51,8.925 0.23,1.66 0.95,3.125 1.99,4.266 11.34,14.793 16.48,29.727 16.51,43.379 0.03,11.672 -3.69,22.508 -10.44,31.543 -6.9,9.25 -17,16.707 -29.57,21.387 -18.32,6.832 -41.83,7.738 -68.414,-0.149 -30.476,-9.047 -53.828,-32.699 -70.265,-62.535 -20.036,-36.352 -29.797,-81.742 -29.797,-121.582 0,-22.359 2.441,-43.785 6.922,-63.645 l 0.062,-0.289 c 4.629,-20.433 11.399,-39.215 19.883,-55.656 l 0.012,0.012 c 13.441,-25.293 32.289,-40.606 51.898,-48.196 14.484,-5.613 29.402,-7.042 42.849,-5.199 13.16,1.809 24.82,6.75 33.14,13.946 6.96,6.011 11.5,13.601 12.37,22.152 0.43,4.332 4.18,7.484 8.39,7.039 0.94,-0.094 1.99,-0.246 3.14,-0.434 18.27,-2.949 31.54,-13.847 39.71,-28.921 7.84,-14.473 10.83,-32.79 8.84,-51.391 l -0.03,-0.234 c -0.2,-1.844 -0.45,-3.68 -0.75,-5.497 -4.24,-26.203 -15.73,-46.066 -31.6,-60.171 -13.22,-11.747 -29.38,-19.403 -46.84,-23.348 -17.16,-3.875 -35.672,-4.156 -53.918,-1.207 -32.961,5.332 -65.129,21.332 -86.945,45.89 -13.059,14.7 -24.789,33.09 -35.618,55.579 -10.726,22.277 -20.589,48.566 -30.011,79.285 -6.832,22.25 -12.168,45.57 -15.77,69.726 -3.453,23.211 -5.301,47.18 -5.301,71.672 0,104.063 29.129,198.403 76.227,266.801 47.625,69.168 113.652,111.953 186.786,111.953 z m 179.57,-105.441 c -24.38,50.168 -81.92,89.629 -179.57,89.629 -67.888,0 -129.536,-40.239 -174.325,-105.282 -45.32,-65.824 -73.352,-156.91 -73.352,-257.66 0,-23.719 1.785,-46.898 5.121,-69.328 3.473,-23.289 8.633,-45.805 15.231,-67.316 9.23,-30.075 18.801,-55.637 29.113,-77.059 10.211,-21.211 21.133,-38.394 33.16,-51.934 19.422,-21.863 48.297,-36.14 78.02,-40.949 16.355,-2.644 32.952,-2.386 48.342,1.082 15.08,3.41 28.92,9.918 40.07,19.825 13.28,11.8 22.91,28.566 26.51,50.847 0.26,1.563 0.47,3.11 0.64,4.629 l 0.02,0.238 c 1.66,15.438 -0.7,30.422 -6.97,42.004 -5.26,9.707 -13.39,17.028 -24.3,20.059 -2.75,-9.418 -8.4,-17.66 -16.14,-24.348 -10.48,-9.062 -24.91,-15.25 -40.98,-17.457 -15.798,-2.172 -33.278,-0.504 -50.223,6.059 -22.754,8.812 -44.543,26.414 -59.922,55.355 l 0.011,0.012 -0.043,0.086 c -9.136,17.687 -16.406,37.777 -21.343,59.531 l -0.082,0.324 c -4.754,21.067 -7.34,43.696 -7.34,67.227 0,42.25 10.426,90.527 31.828,129.367 18.297,33.211 44.625,59.625 79.375,69.942 29.839,8.855 56.629,7.683 77.829,-0.219 15.35,-5.723 27.8,-14.985 36.46,-26.571 8.8,-11.796 13.64,-25.941 13.61,-41.183 -0.04,-13.652 -3.99,-28.113 -12.55,-42.442 66.77,-5.921 116.07,23.305 142.79,65.426 13.13,20.696 20.84,44.485 22.53,68.731 1.69,24.246 -2.61,48.922 -13.52,71.375" /><path
         id="path92"
         style="fill:#4e4a3d;fill-opacity:1;fill-rule:nonzero;stroke:none"
         d="M 827.07,694.293 C 811.41,638.738 813.449,578.309 827.285,523.645 890.891,272.367 1098.96,321.746 1061.91,453.988 1086.13,328.91 898.781,291.59 839.379,526.25 c -13.422,53.027 -15.434,111.531 -0.309,165.168 19.176,88.609 107.977,211.887 217.39,200.637 111.41,-13.028 132.69,-128.481 63.12,-194.418 87.94,60.113 55.71,212.793 -83.72,207.043 C 938.891,900.66 851.223,800.328 827.07,694.293" /><path
         id="path94"
         style="fill:#c38a31;fill-opacity:1;fill-rule:evenodd;stroke:none"
         d="m 517.316,989.336 c -290.953,0 -239.976,-343.297 -14.125,-309.379 -50.515,65.129 8.555,136.16 99.606,109.133 C 674.313,767.859 708.43,672.832 708.43,597.379 708.43,550.637 698,507.707 680.59,474 635.191,388.57 531.195,408.977 526.02,459.703 c -35.008,-3.754 -50.118,-40.465 -44.149,-77.344 16.414,-101.476 149.121,-98.98 206.125,-34.816 25.09,28.242 45.297,71.129 63.953,131.93 13.172,42.929 20.707,89.859 20.707,139.019 0,204.813 -114.32,370.844 -255.34,370.844" /><path
         id="path96"
         style="fill:#4e4a3d;fill-opacity:1;fill-rule:nonzero;stroke:none"
         d="m 517.316,981.434 c -97.656,0 -155.195,-39.461 -179.57,-89.629 -10.91,-22.453 -15.215,-47.129 -13.527,-71.375 1.691,-24.246 9.41,-48.035 22.535,-68.731 26.719,-42.125 76.019,-71.347 142.789,-65.426 -8.555,14.329 -12.516,28.79 -12.547,42.442 -0.039,15.242 4.805,29.387 13.609,41.183 8.649,11.586 21.11,20.848 36.461,26.571 21.2,7.902 47.989,9.074 77.829,0.219 34.753,-10.317 61.074,-36.731 79.371,-69.942 21.402,-38.84 31.828,-87.117 31.828,-129.367 0,-23.531 -2.582,-46.16 -7.34,-67.227 l -0.082,-0.324 c -4.934,-21.754 -12.203,-41.844 -21.34,-59.531 l -0.043,-0.086 0.016,-0.012 c -15.387,-28.941 -37.172,-46.543 -59.93,-55.355 -16.941,-6.563 -34.426,-8.227 -50.215,-6.059 -16.074,2.207 -30.504,8.395 -40.992,17.457 -7.734,6.688 -13.391,14.93 -16.141,24.348 -10.902,-3.031 -19.027,-10.352 -24.285,-20.059 -6.273,-11.582 -8.633,-26.566 -6.976,-42.004 l 0.023,-0.238 c 0.164,-1.519 0.379,-3.066 0.629,-4.629 3.605,-22.281 13.238,-39.047 26.52,-50.847 11.152,-9.907 24.988,-16.415 40.066,-19.825 15.391,-3.468 31.988,-3.726 48.348,-1.082 29.714,4.809 58.593,19.086 78.011,40.949 12.032,13.54 22.953,30.723 33.164,51.934 10.313,21.422 19.883,46.984 29.11,77.059 6.597,21.511 11.761,44.027 15.23,67.316 3.34,22.43 5.121,45.609 5.121,69.328 0,100.75 -28.031,191.836 -73.347,257.66 -44.789,65.043 -106.438,105.282 -174.325,105.282 z M 324.082,898.848 c 26.762,55.074 88.832,98.398 193.234,98.398 73.133,0 139.161,-42.785 186.786,-111.953 47.093,-68.398 76.222,-162.738 76.222,-266.801 0,-24.492 -1.844,-48.461 -5.301,-71.672 -3.597,-24.156 -8.941,-47.476 -15.765,-69.726 -9.426,-30.719 -19.289,-57.004 -30.012,-79.285 -10.828,-22.489 -22.558,-40.879 -35.617,-55.579 -21.816,-24.558 -53.984,-40.558 -86.945,-45.89 -18.25,-2.949 -36.762,-2.668 -53.914,1.207 -17.461,3.945 -33.625,11.601 -46.84,23.348 -15.879,14.105 -27.371,33.968 -31.61,60.171 -0.297,1.817 -0.543,3.653 -0.742,5.497 l -0.031,0.234 c -1.996,18.601 0.996,36.918 8.832,51.391 8.164,15.074 21.445,25.972 39.711,28.921 1.148,0.188 2.207,0.34 3.152,0.434 4.199,0.445 7.957,-2.707 8.387,-7.039 0.871,-8.551 5.406,-16.141 12.367,-22.152 8.324,-7.196 19.984,-12.137 33.141,-13.946 13.445,-1.843 28.359,-0.414 42.847,5.199 19.61,7.59 38.454,22.903 51.895,48.196 l 0.012,-0.012 c 8.484,16.441 15.254,35.223 19.886,55.656 l 0.059,0.289 c 4.484,19.86 6.922,41.286 6.922,63.645 0,39.84 -9.758,85.23 -29.789,121.582 -16.442,29.836 -39.793,53.488 -70.27,62.535 -26.59,7.887 -50.094,6.981 -68.418,0.149 -12.57,-4.68 -22.672,-12.137 -29.574,-21.387 -6.746,-9.035 -10.461,-19.871 -10.434,-31.543 0.032,-13.652 5.172,-28.586 16.516,-43.379 1.035,-1.141 1.75,-2.606 1.977,-4.266 0.597,-4.316 -2.313,-8.312 -6.5,-8.925 -79.883,-11.997 -138.965,21.453 -170.336,70.914 -14.551,22.933 -23.11,49.339 -24.989,76.265 -1.878,26.922 2.946,54.418 15.141,79.524" /><path
         id="path98"
         style="fill:#4e4a3d;fill-opacity:1;fill-rule:nonzero;stroke:none"
         d="M 754.535,694.293 C 770.195,638.738 768.156,578.309 754.32,523.645 690.715,272.367 482.645,321.746 519.691,453.988 495.484,328.91 682.82,291.59 742.223,526.25 c 13.425,53.027 15.433,111.531 0.312,165.168 C 723.359,780.027 634.563,903.305 525.137,892.055 413.734,879.027 392.453,763.574 462.027,697.637 374.086,757.75 406.32,910.43 545.75,904.68 642.711,900.66 730.383,800.328 754.535,694.293" /><path
         id="path100"
         style="fill:#4e4a3d;fill-opacity:1;fill-rule:nonzero;stroke:none"
         d="m 612.66,466.59 c 20.449,22.848 33.59,31.648 64.25,35.848 34.992,3.789 70.215,-0.899 105.039,-4.215 52.465,-4.789 91.629,-6.864 143.946,4.609 30.441,7.742 52.425,17.25 78.725,34.309 29.08,20.004 48.05,44.691 69.04,72.699 -36.36,25.562 -72.72,51.121 -109.082,76.68 -10.765,-14.364 -20.48,-24.954 -35.398,-35.215 -11.864,-7.7 -21.485,-11.746 -35.219,-15.242 -33.402,-7.325 -65.207,-4.426 -98.914,-1.348 -48.004,4.574 -86.344,3.715 -135.082,-1.555 -28.977,-3.972 -50.613,-10.012 -77.016,-22.66 -29.355,-15.109 -48.789,-30.789 -70.633,-55.203 L 612.66,466.59" /><path
         id="path102"
         style="fill:#ffffff;fill-opacity:1;fill-rule:nonzero;stroke:none"
         d="m 565.383,520.266 c 14.601,15.16 27.273,25.011 46.129,34.679 19.383,9.278 35.191,13.532 56.461,16.446 42.277,4.574 79.019,0.039 120.886,-3.957 42.829,-3.907 77.602,-1.172 120.192,8.171 21.629,5.497 37.094,12.129 55.777,24.247 19.465,13.367 32.457,26.367 47.012,44.742 l -45.211,32.5 c -10.481,-13.231 -19.281,-22.153 -33.301,-31.774 -12.66,-8.207 -22.957,-12.558 -37.609,-16.285 -34.52,-7.566 -66.574,-4.703 -101.387,-1.531 -47.305,4.512 -85.441,3.664 -133.437,-1.531 -28.094,-3.848 -49.028,-9.668 -74.625,-21.934 -25.293,-12.973 -42.516,-26.191 -62.102,-46.531 13.742,-12.414 27.477,-24.828 41.215,-37.242" /><path
         id="path104"
         style="fill:#ed1c24;fill-opacity:1;fill-rule:nonzero;stroke:none"
         d="m 612.02,478.121 c 8.918,9.27 16.535,15.367 28.054,21.27 12.266,5.879 22.442,8.386 35.906,10.23 35.563,3.852 71.293,-0.812 106.688,-4.191 51.492,-4.696 90.133,-6.825 141.469,4.433 29.523,7.516 50.828,16.719 76.333,33.262 25.57,17.539 44.42,40.5 63.53,64.633 l -46.29,32.469 c -15.08,-19.043 -28.569,-32.512 -48.737,-46.356 -19.496,-12.644 -35.602,-19.551 -58.168,-25.301 -43.641,-9.562 -78.797,-12.351 -122.664,-8.347 -41.141,3.922 -77.723,8.48 -119.239,3.984 -20.367,-2.793 -35.507,-6.836 -54.074,-15.723 -18,-9.242 -30.078,-18.632 -44.023,-33.121 13.738,-12.41 27.48,-24.82 41.215,-37.242" /></g></g></svg>