<?xml version="1.0" encoding="UTF-8"?>
<svg id="Layer_1" xmlns="http://www.w3.org/2000/svg" version="1.1" viewBox="0 0 566.93 566.93">
  <!-- Generator: Adobe Illustrator 29.7.1, SVG Export Plug-In . SVG Version: 2.1.1 Build 8)  -->
  <defs>
    <style>
      .st0 {
        fill: none;
        stroke: #636256;
        stroke-miterlimit: 22.93;
        stroke-width: 10.31px;
      }

      .st1 {
        fill: #fff;
      }

      .st2, .st3 {
        fill: #57564a;
      }

      .st4 {
        fill: #e30613;
      }

      .st3, .st5, .st6 {
        fill-rule: evenodd;
      }

      .st5 {
        fill: #6f6d60;
      }

      .st6 {
        fill: #ca9a43;
      }
    </style>
  </defs>
  <path class="st5" d="M283.24,0c156.55,0,283.46,126.91,283.46,283.47s-126.91,283.46-283.46,283.46S-.23,440.02-.23,283.47,126.68,0,283.24,0"/>
  <path class="st2" d="M283.24,18.11c146.55,0,265.36,118.81,265.36,265.36s-118.8,265.36-265.36,265.36S17.88,430.02,17.88,283.47,136.68,18.11,283.24,18.11"/>
  <path class="st3" d="M283.24,43.41c132.58,0,240.05,107.48,240.05,240.06s-107.48,240.06-240.05,240.06S43.18,416.04,43.18,283.47,150.66,43.41,283.24,43.41"/>
  <line class="st0" x1="283.2" y1="42.94" x2="283.2" y2="523.05"/>
  <line class="st0" x1="258.11" y1="44.26" x2="308.3" y2="521.74"/>
  <line class="st0" x1="233.29" y1="48.19" x2="333.11" y2="517.81"/>
  <line class="st0" x1="209.02" y1="54.69" x2="357.39" y2="511.3"/>
  <line class="st0" x1="185.57" y1="63.7" x2="380.84" y2="502.3"/>
  <line class="st0" x1="163.18" y1="75.1" x2="403.23" y2="490.89"/>
  <line class="st0" x1="142.1" y1="88.79" x2="424.31" y2="477.21"/>
  <line class="st0" x1="122.58" y1="104.6" x2="443.83" y2="461.39"/>
  <line class="st0" x1="104.81" y1="122.37" x2="461.6" y2="443.63"/>
  <line class="st0" x1="89" y1="141.9" x2="477.41" y2="424.1"/>
  <line class="st0" x1="75.31" y1="162.97" x2="491.1" y2="403.02"/>
  <line class="st0" x1="63.9" y1="185.36" x2="502.51" y2="380.64"/>
  <line class="st0" x1="54.9" y1="208.82" x2="511.51" y2="357.18"/>
  <line class="st0" x1="48.4" y1="233.09" x2="518.01" y2="332.91"/>
  <line class="st0" x1="44.47" y1="257.9" x2="521.94" y2="308.09"/>
  <line class="st0" x1="43.15" y1="283" x2="523.26" y2="283"/>
  <line class="st0" x1="44.47" y1="308.09" x2="521.94" y2="257.9"/>
  <line class="st0" x1="48.4" y1="332.91" x2="518.01" y2="233.09"/>
  <line class="st0" x1="54.9" y1="357.18" x2="511.51" y2="208.82"/>
  <line class="st0" x1="63.9" y1="380.64" x2="502.51" y2="185.36"/>
  <line class="st0" x1="75.31" y1="403.02" x2="491.1" y2="162.97"/>
  <line class="st0" x1="89" y1="424.1" x2="477.41" y2="141.89"/>
  <line class="st0" x1="104.81" y1="443.62" x2="461.6" y2="122.37"/>
  <line class="st0" x1="122.58" y1="461.39" x2="443.83" y2="104.6"/>
  <line class="st0" x1="142.1" y1="477.2" x2="424.31" y2="88.79"/>
  <line class="st0" x1="163.18" y1="490.89" x2="403.23" y2="75.1"/>
  <line class="st0" x1="185.57" y1="502.3" x2="380.84" y2="63.69"/>
  <line class="st0" x1="209.02" y1="511.3" x2="357.39" y2="54.69"/>
  <line class="st0" x1="233.29" y1="517.81" x2="333.11" y2="48.19"/>
  <line class="st0" x1="258.11" y1="521.74" x2="308.3" y2="44.26"/>
  <line class="st0" x1="283.2" y1="523.05" x2="283.2" y2="42.94"/>
  <path class="st6" d="M284.24,66.86c32.31,38.05,46.15,60.65,49.4,104.88,1.1,14.9-3.3,40.01-8.97,65.95-20.79,24.73-34.05,62.3-34.05,104.37,0,1.17.01,2.33.04,3.5v.13c0,17.34,2.74,33.89,7.53,49.03,4.35,13.76,9.22,25.4,14.75,34.95-5.01,38.57-8.01,52.08-28.7,79.32-20.69-27.25-23.68-40.76-28.7-79.32,5.53-9.55,10.4-21.19,14.75-34.95,4.79-15.14,7.53-31.69,7.53-49.03v-.13c.02-1.16.04-2.33.04-3.5,0-42.07-13.27-79.64-34.05-104.37-5.66-25.94-10.06-51.05-8.97-65.95,3.26-44.24,17.09-66.84,49.4-104.88"/>
  <path class="st2" d="M293.43,345.56v.05s0-.05,0-.05ZM317.34,118.21c-7.43-14.98-18.19-29.35-33.1-47.04-14.91,17.7-25.67,32.06-33.1,47.04-7.74,15.6-11.92,31.99-13.52,53.73-.53,7.24.28,17.04,1.93,28.24,1.63,11.11,4.08,23.58,6.85,36.28,10.62,12.79,19.27,28.85,25.22,47.08,5.79,17.76,9.04,37.61,9.04,58.53l-.02,1.77c0,.62-.01,1.21-.03,1.77v.08h.01c0,8.64-.67,17.09-1.93,25.28-1.31,8.52-3.25,16.74-5.73,24.59-2.18,6.9-4.52,13.32-7.03,19.29-2.36,5.62-4.86,10.75-7.5,15.39,2.43,18.59,4.4,31.23,8.23,42.44,3.57,10.46,8.8,19.77,17.59,31.68,8.79-11.91,14.02-21.22,17.59-31.68,3.83-11.2,5.8-23.85,8.23-42.44-2.64-4.64-5.13-9.77-7.5-15.39-2.51-5.97-4.85-12.39-7.03-19.29-2.48-7.85-4.42-16.07-5.73-24.59-1.26-8.19-1.93-16.64-1.93-25.27h.01v-.09c-.01-.56-.02-1.14-.02-1.76l-.02-1.77c0-20.92,3.24-40.77,9.04-58.53,5.95-18.23,14.6-34.28,25.22-47.08,2.76-12.7,5.21-25.17,6.85-36.28,1.64-11.2,2.46-21,1.93-28.24-1.6-21.74-5.79-38.13-13.52-53.73ZM286.39,65.09c16.27,19.17,27.91,34.48,35.94,50.65,8.07,16.27,12.43,33.3,14.09,55.8.56,7.67-.27,17.87-1.97,29.43-1.68,11.46-4.21,24.29-7.05,37.3-.12.54-.38,1.01-.75,1.38-10.29,12.29-18.69,27.84-24.48,45.59-5.61,17.2-8.75,36.46-8.75,56.81v1.73c0,.54.01,1.11.03,1.71v.11s0,.07,0,.07h.01c0,8.37.65,16.54,1.86,24.45,1.26,8.21,3.14,16.16,5.54,23.74,2.17,6.86,4.44,13.13,6.83,18.81,2.4,5.7,4.95,10.89,7.66,15.58.34.59.44,1.25.33,1.87-2.53,19.4-4.55,32.53-8.58,44.32-4.06,11.9-10.11,22.31-20.65,36.2-.93,1.22-2.67,1.46-3.89.53-.22-.17-.41-.37-.57-.58-10.52-13.86-16.56-24.27-20.62-36.15-4.03-11.81-6.06-24.97-8.59-44.44-.08-.63.05-1.24.35-1.75h0c2.72-4.69,5.27-9.89,7.66-15.58,2.39-5.68,4.66-11.95,6.83-18.81,2.4-7.58,4.28-15.53,5.54-23.74,1.21-7.91,1.86-16.08,1.86-24.45h.01v-.18s0,0,0,0c.01-.6.02-1.17.03-1.71v-1.73c0-20.35-3.14-39.6-8.75-56.81-5.82-17.83-14.28-33.45-24.63-45.77-.3-.36-.5-.77-.59-1.2h-.01c-2.84-13.01-5.37-25.83-7.05-37.3-1.7-11.57-2.53-21.77-1.97-29.43,1.66-22.5,6.02-39.53,14.09-55.8,8.03-16.19,19.68-31.5,35.97-50.69.99-1.17,2.75-1.32,3.92-.33.13.11.25.23.35.36Z"/>
  <path class="st2" d="M284.24,477.62h-.08c-1.24-16.88-1.97-36.62-1.94-60.55v-241.48c-.04-47.93,1.73-72.82,1.9-76.91h.23c.17,4.09,1.94,28.98,1.9,76.91v241.48c.03,23.92-.69,43.66-1.94,60.55h-.08Z"/>
  <path class="st6" d="M383.66,207.42c105.8,0,87.26,124.84,5.14,112.5,18.37-23.68-3.11-49.51-36.22-39.68-26.01,7.72-38.41,42.28-38.41,69.71,0,17,3.79,32.61,10.12,44.87,16.51,31.07,54.33,23.64,56.21,5.2,12.73,1.37,18.22,14.71,16.05,28.12-5.97,36.9-54.23,35.99-74.96,12.66-9.12-10.27-16.47-25.87-23.25-47.97-4.79-15.61-7.53-32.68-7.53-50.55,0-74.48,41.57-134.85,92.85-134.85"/>
  <path class="st2" d="M448.96,242.89c-8.86-18.24-29.79-32.59-65.3-32.59-24.69,0-47.1,14.63-63.39,38.28-16.48,23.94-26.67,57.06-26.67,93.69,0,8.63.65,17.05,1.86,25.21,1.26,8.47,3.14,16.66,5.54,24.48,3.36,10.94,6.84,20.23,10.59,28.02,3.71,7.71,7.68,13.96,12.06,18.89,7.06,7.95,17.56,13.14,28.37,14.89,5.95.96,11.98.87,17.58-.39,5.48-1.24,10.51-3.61,14.57-7.21,4.83-4.29,8.33-10.39,9.64-18.49.09-.57.17-1.13.23-1.68v-.09c.61-5.61-.25-11.06-2.53-15.27-1.91-3.53-4.87-6.19-8.83-7.29-1,3.42-3.05,6.42-5.87,8.85-3.82,3.3-9.06,5.55-14.91,6.35-5.74.79-12.1.18-18.26-2.2-8.28-3.2-16.2-9.61-21.79-20.13h0s-.02-.03-.02-.03c-3.32-6.43-5.97-13.74-7.76-21.65l-.03-.12c-1.73-7.66-2.67-15.89-2.67-24.45,0-15.36,3.79-32.92,11.57-47.04,6.65-12.08,16.23-21.68,28.86-25.43,10.85-3.22,20.59-2.79,28.3.08,5.58,2.08,10.11,5.45,13.26,9.66,3.2,4.29,4.96,9.43,4.95,14.98-.01,4.96-1.45,10.22-4.56,15.43,24.28,2.15,42.21-8.47,51.92-23.79,4.77-7.52,7.58-16.17,8.19-24.99.62-8.82-.95-17.79-4.92-25.95M383.66,204.54c37.96,0,60.53,15.75,70.27,35.78,4.44,9.13,6.19,19.13,5.51,28.92-.68,9.79-3.79,19.39-9.09,27.73-11.41,17.99-32.89,30.15-61.94,25.79-1.52-.22-2.58-1.68-2.36-3.25.08-.6.34-1.14.72-1.55,4.12-5.38,5.99-10.81,6.01-15.77.01-4.24-1.34-8.18-3.79-11.47-2.51-3.36-6.18-6.07-10.75-7.78-6.66-2.48-15.21-2.81-24.88.05-11.08,3.29-19.57,11.89-25.55,22.74-7.28,13.22-10.83,29.72-10.83,44.21,0,8.13.89,15.92,2.52,23.14l.02.11c1.68,7.43,4.15,14.26,7.23,20.24h0c4.89,9.19,11.74,14.76,18.87,17.52,5.27,2.04,10.69,2.56,15.58,1.89,4.78-.66,9.02-2.45,12.05-5.07,2.53-2.19,4.18-4.95,4.5-8.06.16-1.58,1.52-2.72,3.05-2.56.34.03.73.09,1.14.16,6.64,1.07,11.47,5.04,14.44,10.52,2.85,5.26,3.94,11.92,3.21,18.69v.08c-.08.67-.18,1.34-.28,2-1.54,9.53-5.72,16.75-11.49,21.88-4.81,4.27-10.68,7.06-17.03,8.49-6.24,1.41-12.97,1.51-19.61.44-11.98-1.94-23.68-7.76-31.62-16.69-4.75-5.35-9.01-12.03-12.95-20.21-3.9-8.1-7.49-17.66-10.91-28.83-2.48-8.09-4.42-16.57-5.73-25.35-1.26-8.44-1.93-17.16-1.93-26.06,0-37.84,10.59-72.15,27.72-97.02,17.32-25.15,41.33-40.71,67.92-40.71Z"/>
  <path class="st2" d="M297.4,314.71c-5.7,20.2-4.95,42.18.08,62.05,23.13,91.37,98.79,73.42,85.32,25.33,8.8,45.48-59.32,59.05-80.92-26.28-4.88-19.28-5.61-40.56-.11-60.06,6.97-32.22,39.26-77.05,79.05-72.96,40.51,4.74,48.25,46.72,22.95,70.7,31.98-21.86,20.26-77.38-30.45-75.29-35.26,1.46-67.14,37.95-75.92,76.5"/>
  <path class="st6" d="M184.76,207.42c-105.8,0-87.26,124.84-5.14,112.5-18.37-23.68,3.11-49.51,36.22-39.68,26.01,7.72,38.41,42.28,38.41,69.71,0,17-3.79,32.61-10.12,44.87-16.51,31.07-54.33,23.64-56.21,5.2-12.73,1.37-18.22,14.71-16.05,28.12,5.97,36.9,54.23,35.99,74.95,12.66,9.12-10.27,16.47-25.87,23.26-47.97,4.79-15.61,7.53-32.68,7.53-50.55,0-74.48-41.57-134.85-92.85-134.85"/>
  <path class="st2" d="M114.49,240.33c9.73-20.03,32.3-35.78,70.27-35.78,26.59,0,50.6,15.56,67.92,40.71,17.12,24.87,27.72,59.18,27.72,97.02,0,8.91-.67,17.62-1.93,26.06-1.31,8.78-3.25,17.26-5.73,25.35-3.43,11.17-7.01,20.73-10.91,28.83-3.94,8.18-8.2,14.87-12.95,20.21-7.93,8.93-19.63,14.75-31.62,16.69-6.64,1.07-13.37.97-19.61-.44-6.35-1.43-12.23-4.22-17.03-8.49-5.77-5.13-9.95-12.35-11.49-21.88-.11-.66-.2-1.33-.27-2v-.08c-.74-6.76.35-13.43,3.2-18.69,2.97-5.48,7.8-9.44,14.44-10.52.42-.07.8-.12,1.15-.16,1.53-.16,2.89.98,3.05,2.56.32,3.11,1.97,5.87,4.5,8.06,3.03,2.62,7.27,4.41,12.05,5.07,4.89.67,10.31.15,15.58-1.89,7.13-2.76,13.98-8.33,18.87-17.53h0c3.09-5.97,5.55-12.8,7.23-20.23l.02-.11c1.63-7.22,2.52-15.01,2.52-23.14,0-14.49-3.55-30.99-10.83-44.21-5.98-10.85-14.47-19.45-25.55-22.74-9.67-2.87-18.22-2.54-24.88-.05-4.57,1.7-8.24,4.41-10.75,7.78-2.45,3.29-3.8,7.23-3.79,11.47.01,4.96,1.88,10.39,6,15.77.38.41.64.95.72,1.55.22,1.57-.84,3.02-2.36,3.25-29.05,4.36-50.53-7.8-61.94-25.79-5.29-8.34-8.4-17.94-9.09-27.73-.68-9.79,1.07-19.79,5.51-28.92M184.76,210.29c-35.51,0-56.44,14.35-65.3,32.59-3.97,8.16-5.53,17.14-4.92,25.95.62,8.82,3.42,17.47,8.19,24.99,9.72,15.32,27.64,25.94,51.92,23.79-3.11-5.21-4.55-10.47-4.56-15.43-.01-5.54,1.75-10.69,4.95-14.98,3.14-4.21,7.68-7.58,13.26-9.66,7.71-2.87,17.45-3.3,28.3-.08,12.64,3.75,22.21,13.36,28.86,25.43,7.78,14.12,11.57,31.68,11.57,47.04,0,8.56-.94,16.79-2.67,24.45l-.03.12c-1.79,7.91-4.44,15.22-7.76,21.65l-.02.03h0c-5.59,10.53-13.52,16.93-21.79,20.13-6.16,2.39-12.52,2.99-18.26,2.2-5.85-.8-11.09-3.05-14.91-6.35-2.81-2.43-4.87-5.43-5.87-8.85-3.97,1.1-6.92,3.76-8.83,7.29-2.28,4.21-3.14,9.66-2.54,15.27v.09c.07.55.15,1.12.24,1.68,1.31,8.1,4.81,14.2,9.64,18.49,4.06,3.6,9.09,5.97,14.57,7.21,5.6,1.26,11.63,1.36,17.58.39,10.81-1.75,21.31-6.94,28.37-14.89,4.37-4.92,8.35-11.17,12.06-18.89,3.75-7.79,7.23-17.09,10.59-28.02,2.4-7.82,4.28-16.01,5.54-24.48,1.21-8.16,1.86-16.58,1.86-25.21,0-36.64-10.19-69.76-26.67-93.69-16.29-23.65-38.7-38.28-63.39-38.28Z"/>
  <path class="st2" d="M271.02,314.71c5.7,20.2,4.95,42.18-.08,62.05-23.13,91.37-98.79,73.42-85.32,25.33-8.8,45.48,59.32,59.05,80.92-26.28,4.88-19.28,5.61-40.56.11-60.06-6.97-32.22-39.26-77.05-79.05-72.96-40.51,4.74-48.25,46.72-22.95,70.7-31.98-21.86-20.26-77.38,30.45-75.29,35.26,1.46,67.14,37.95,75.92,76.5"/>
  <path class="st2" d="M219.43,397.51c7.43-8.31,12.21-11.51,23.36-13.04,12.72-1.38,25.53.33,38.2,1.53,19.08,1.74,33.32,2.5,52.34-1.68,11.07-2.82,19.06-6.27,28.63-12.48,10.57-7.27,17.47-16.25,25.11-26.44-13.22-9.29-26.44-18.59-39.67-27.88-3.91,5.22-7.45,9.07-12.87,12.81-4.31,2.8-7.81,4.27-12.81,5.54-12.15,2.66-23.71,1.61-35.97.49-17.46-1.66-31.4-1.35-49.12.57-10.54,1.44-18.4,3.64-28.01,8.24-10.67,5.5-17.74,11.2-25.68,20.07l36.49,32.26Z"/>
  <path class="st1" d="M202.24,377.99c5.31-5.51,9.92-9.09,16.77-12.61,7.05-3.37,12.8-4.92,20.53-5.98,15.37-1.66,28.73-.02,43.96,1.44,15.57,1.42,28.22.43,43.71-2.97,7.87-2,13.49-4.41,20.28-8.82,7.08-4.86,11.8-9.59,17.09-16.27l-16.44-11.82c-3.81,4.81-7.01,8.06-12.11,11.55-4.6,2.99-8.35,4.57-13.68,5.92-12.55,2.75-24.21,1.71-36.87.56-17.2-1.64-31.07-1.33-48.52.56-10.22,1.4-17.83,3.52-27.14,7.98-9.2,4.72-15.46,9.52-22.58,16.92,5,4.51,9.99,9.03,14.99,13.54"/>
  <path class="st4" d="M219.2,393.32c3.24-3.37,6.01-5.59,10.2-7.73,4.46-2.14,8.16-3.05,13.06-3.72,12.93-1.4,25.93.3,38.8,1.52,18.72,1.71,32.78,2.48,51.44-1.61,10.74-2.73,18.48-6.08,27.76-12.1,9.3-6.38,16.15-14.73,23.1-23.5l-16.83-11.81c-5.48,6.92-10.39,11.82-17.72,16.86-7.09,4.6-12.95,7.11-21.15,9.2-15.87,3.48-28.65,4.49-44.6,3.04-14.96-1.43-28.26-3.08-43.36-1.45-7.41,1.02-12.91,2.49-19.66,5.72-6.55,3.36-10.94,6.78-16.01,12.04,5,4.51,9.99,9.03,14.99,13.54"/>
</svg>