<?xml version="1.0" encoding="UTF-8" standalone="no"?>
<svg
   xmlns:dc="http://purl.org/dc/elements/1.1/"
   xmlns:cc="http://creativecommons.org/ns#"
   xmlns:rdf="http://www.w3.org/1999/02/22-rdf-syntax-ns#"
   xmlns:svg="http://www.w3.org/2000/svg"
   xmlns="http://www.w3.org/2000/svg"
   viewBox="0 0 209.33333 209.33333"
   height="209.33333"
   width="209.33333"
   xml:space="preserve"
   id="svg2"
   version="1.1"><metadata
     id="metadata8"><rdf:RDF><cc:Work
         rdf:about=""><dc:format>image/svg+xml</dc:format><dc:type
           rdf:resource="http://purl.org/dc/dcmitype/StillImage" /></cc:Work></rdf:RDF></metadata><defs
     id="defs6" /><g
     transform="matrix(1.3333333,0,0,-1.3333333,0,209.33333)"
     id="g10"><g
       transform="scale(0.1)"
       id="g12"><path
         id="path14"
         style="fill:#4e4a3d;fill-opacity:1;fill-rule:evenodd;stroke:none"
         d="m 784.672,1528.29 c 409.578,0 741.598,-333.99 741.598,-745.981 0,-411.993 -332.02,-745.9809 -741.598,-745.9809 -409.578,0 -741.6017,333.9879 -741.6017,745.9809 0,411.991 332.0237,745.981 741.6017,745.981" /><path
         id="path16"
         style="fill:none;stroke:#64604f;stroke-width:28.3465004;stroke-linecap:butt;stroke-linejoin:miter;stroke-miterlimit:22.92560005;stroke-dasharray:none;stroke-opacity:1"
         d="M 781.949,1353.92 V 211.637" /><path
         id="path18"
         style="fill:none;stroke:#64604f;stroke-width:28.3465004;stroke-linecap:butt;stroke-linejoin:miter;stroke-miterlimit:22.92560005;stroke-dasharray:none;stroke-opacity:1"
         d="M 722.25,1350.8 841.652,214.766" /><path
         id="path20"
         style="fill:none;stroke:#64604f;stroke-width:28.3465004;stroke-linecap:butt;stroke-linejoin:miter;stroke-miterlimit:22.92560005;stroke-dasharray:none;stroke-opacity:1"
         d="M 663.203,1341.44 900.699,224.117" /><path
         id="path22"
         style="fill:none;stroke:#64604f;stroke-width:28.3465004;stroke-linecap:butt;stroke-linejoin:miter;stroke-miterlimit:22.92560005;stroke-dasharray:none;stroke-opacity:1"
         d="M 605.457,1325.97 958.445,239.59" /><path
         id="path24"
         style="fill:none;stroke:#64604f;stroke-width:28.3465004;stroke-linecap:butt;stroke-linejoin:miter;stroke-miterlimit:22.92560005;stroke-dasharray:none;stroke-opacity:1"
         d="M 549.645,1304.55 1014.25,261.016" /><path
         id="path26"
         style="fill:none;stroke:#64604f;stroke-width:28.3465004;stroke-linecap:butt;stroke-linejoin:miter;stroke-miterlimit:22.92560005;stroke-dasharray:none;stroke-opacity:1"
         d="M 496.379,1277.41 1067.52,288.156" /><path
         id="path28"
         style="fill:none;stroke:#64604f;stroke-width:28.3465004;stroke-linecap:butt;stroke-linejoin:miter;stroke-miterlimit:22.92560005;stroke-dasharray:none;stroke-opacity:1"
         d="M 446.242,1244.84 1117.66,320.715" /><path
         id="path30"
         style="fill:none;stroke:#64604f;stroke-width:28.3465004;stroke-linecap:butt;stroke-linejoin:miter;stroke-miterlimit:22.92560005;stroke-dasharray:none;stroke-opacity:1"
         d="M 399.781,1207.22 1164.12,358.34" /><path
         id="path32"
         style="fill:none;stroke:#64604f;stroke-width:28.3465004;stroke-linecap:butt;stroke-linejoin:miter;stroke-miterlimit:22.92560005;stroke-dasharray:none;stroke-opacity:1"
         d="M 357.512,1164.95 1206.39,400.613" /><path
         id="path34"
         style="fill:none;stroke:#64604f;stroke-width:28.3465004;stroke-linecap:butt;stroke-linejoin:miter;stroke-miterlimit:22.92560005;stroke-dasharray:none;stroke-opacity:1"
         d="M 319.887,1118.49 1244.02,447.07" /><path
         id="path36"
         style="fill:none;stroke:#64604f;stroke-width:28.3465004;stroke-linecap:butt;stroke-linejoin:miter;stroke-miterlimit:22.92560005;stroke-dasharray:none;stroke-opacity:1"
         d="M 287.328,1068.35 1276.58,497.207" /><path
         id="path38"
         style="fill:none;stroke:#64604f;stroke-width:28.3465004;stroke-linecap:butt;stroke-linejoin:miter;stroke-miterlimit:22.92560005;stroke-dasharray:none;stroke-opacity:1"
         d="M 260.188,1015.09 1303.72,550.477" /><path
         id="path40"
         style="fill:none;stroke:#64604f;stroke-width:28.3465004;stroke-linecap:butt;stroke-linejoin:miter;stroke-miterlimit:22.92560005;stroke-dasharray:none;stroke-opacity:1"
         d="M 238.762,959.273 1325.14,606.289" /><path
         id="path42"
         style="fill:none;stroke:#64604f;stroke-width:28.3465004;stroke-linecap:butt;stroke-linejoin:miter;stroke-miterlimit:22.92560005;stroke-dasharray:none;stroke-opacity:1"
         d="M 223.289,901.527 1340.61,664.031" /><path
         id="path44"
         style="fill:none;stroke:#64604f;stroke-width:28.3465004;stroke-linecap:butt;stroke-linejoin:miter;stroke-miterlimit:22.92560005;stroke-dasharray:none;stroke-opacity:1"
         d="M 213.938,842.48 1349.97,723.082" /><path
         id="path46"
         style="fill:none;stroke:#64604f;stroke-width:28.3465004;stroke-linecap:butt;stroke-linejoin:miter;stroke-miterlimit:22.92560005;stroke-dasharray:none;stroke-opacity:1"
         d="M 210.809,782.781 H 1353.09" /><path
         id="path48"
         style="fill:none;stroke:#64604f;stroke-width:28.3465004;stroke-linecap:butt;stroke-linejoin:miter;stroke-miterlimit:22.92560005;stroke-dasharray:none;stroke-opacity:1"
         d="M 213.938,723.082 1349.97,842.48" /><path
         id="path50"
         style="fill:none;stroke:#64604f;stroke-width:28.3465004;stroke-linecap:butt;stroke-linejoin:miter;stroke-miterlimit:22.92560005;stroke-dasharray:none;stroke-opacity:1"
         d="M 223.289,664.035 1340.61,901.531" /><path
         id="path52"
         style="fill:none;stroke:#64604f;stroke-width:28.3465004;stroke-linecap:butt;stroke-linejoin:miter;stroke-miterlimit:22.92560005;stroke-dasharray:none;stroke-opacity:1"
         d="M 238.762,606.289 1325.14,959.273" /><path
         id="path54"
         style="fill:none;stroke:#64604f;stroke-width:28.3465004;stroke-linecap:butt;stroke-linejoin:miter;stroke-miterlimit:22.92560005;stroke-dasharray:none;stroke-opacity:1"
         d="M 260.188,550.477 1303.72,1015.09" /><path
         id="path56"
         style="fill:none;stroke:#64604f;stroke-width:28.3465004;stroke-linecap:butt;stroke-linejoin:miter;stroke-miterlimit:22.92560005;stroke-dasharray:none;stroke-opacity:1"
         d="M 287.328,497.211 1276.58,1068.36" /><path
         id="path58"
         style="fill:none;stroke:#64604f;stroke-width:28.3465004;stroke-linecap:butt;stroke-linejoin:miter;stroke-miterlimit:22.92560005;stroke-dasharray:none;stroke-opacity:1"
         d="m 319.887,447.07 924.133,671.42" /><path
         id="path60"
         style="fill:none;stroke:#64604f;stroke-width:28.3465004;stroke-linecap:butt;stroke-linejoin:miter;stroke-miterlimit:22.92560005;stroke-dasharray:none;stroke-opacity:1"
         d="M 357.512,400.613 1206.39,1164.95" /><path
         id="path62"
         style="fill:none;stroke:#64604f;stroke-width:28.3465004;stroke-linecap:butt;stroke-linejoin:miter;stroke-miterlimit:22.92560005;stroke-dasharray:none;stroke-opacity:1"
         d="m 399.781,358.34 764.339,848.88" /><path
         id="path64"
         style="fill:none;stroke:#64604f;stroke-width:28.3465004;stroke-linecap:butt;stroke-linejoin:miter;stroke-miterlimit:22.92560005;stroke-dasharray:none;stroke-opacity:1"
         d="M 446.242,320.719 1117.66,1244.85" /><path
         id="path66"
         style="fill:none;stroke:#64604f;stroke-width:28.3465004;stroke-linecap:butt;stroke-linejoin:miter;stroke-miterlimit:22.92560005;stroke-dasharray:none;stroke-opacity:1"
         d="m 496.379,288.16 571.141,989.25" /><path
         id="path68"
         style="fill:none;stroke:#64604f;stroke-width:28.3465004;stroke-linecap:butt;stroke-linejoin:miter;stroke-miterlimit:22.92560005;stroke-dasharray:none;stroke-opacity:1"
         d="M 549.645,261.016 1014.25,1304.55" /><path
         id="path70"
         style="fill:none;stroke:#64604f;stroke-width:28.3465004;stroke-linecap:butt;stroke-linejoin:miter;stroke-miterlimit:22.92560005;stroke-dasharray:none;stroke-opacity:1"
         d="M 605.457,239.594 958.445,1325.97" /><path
         id="path72"
         style="fill:none;stroke:#64604f;stroke-width:28.3465004;stroke-linecap:butt;stroke-linejoin:miter;stroke-miterlimit:22.92560005;stroke-dasharray:none;stroke-opacity:1"
         d="M 663.203,224.121 900.699,1341.45" /><path
         id="path74"
         style="fill:none;stroke:#64604f;stroke-width:28.3465004;stroke-linecap:butt;stroke-linejoin:miter;stroke-miterlimit:22.92560005;stroke-dasharray:none;stroke-opacity:1"
         d="M 722.25,214.766 841.652,1350.8" /><path
         id="path76"
         style="fill:none;stroke:#64604f;stroke-width:28.3465004;stroke-linecap:butt;stroke-linejoin:miter;stroke-miterlimit:22.92560005;stroke-dasharray:none;stroke-opacity:1"
         d="M 781.949,211.641 V 1353.93" /><path
         id="path78"
         style="fill:#c38a31;fill-opacity:1;fill-rule:evenodd;stroke:none"
         d="m 784.785,1377.17 c 88.852,-104.63 126.906,-166.78 135.856,-288.43 3.015,-40.98 -9.078,-110.029 -24.657,-181.365 -57.164,-68.008 -93.64,-171.312 -93.64,-287.008 0,-3.211 0.035,-6.418 0.097,-9.613 v -0.348 c 0,-47.679 7.536,-93.191 20.707,-134.828 11.969,-37.832 25.344,-69.836 40.559,-96.101 -13.789,-106.063 -22.023,-143.207 -78.922,-218.141 -56.898,74.934 -65.133,112.078 -78.922,218.141 15.215,26.265 28.59,58.269 40.563,96.101 13.168,41.637 20.707,87.149 20.707,134.828 v 0.348 c 0.062,3.195 0.094,6.402 0.094,9.613 0,115.696 -36.481,219 -93.641,287.008 -15.578,71.336 -27.672,140.385 -24.656,181.365 8.953,121.65 47.004,183.8 135.855,288.43" /><path
         id="path80"
         style="fill:#4e4a3d;fill-opacity:1;fill-rule:evenodd;stroke:none"
         d="m 790.703,1382.02 c 44.754,-52.71 76.762,-94.81 98.832,-139.3 22.199,-44.74 34.192,-91.57 38.746,-153.44 1.551,-21.08 -0.75,-49.14 -5.418,-80.95 -4.629,-31.521 -11.578,-66.787 -19.394,-102.572 -0.321,-1.488 -1.055,-2.781 -2.059,-3.789 -28.285,-33.801 -51.406,-76.571 -67.328,-125.379 -15.434,-47.309 -24.07,-100.27 -24.07,-156.223 l -0.008,-4.754 c 0.016,-1.488 0.043,-3.054 0.078,-4.711 l -0.004,-0.308 -0.004,-0.188 h 0.031 c 0,-23.008 1.786,-45.484 5.122,-67.23 3.472,-22.586 8.632,-44.43 15.23,-65.285 5.969,-18.871 12.219,-36.114 18.793,-51.735 6.594,-15.664 13.605,-29.945 21.078,-42.851 0.938,-1.614 1.219,-3.438 0.918,-5.141 -6.945,-53.363 -12.516,-89.469 -23.586,-121.887 -11.172,-32.726 -27.797,-61.363 -56.793,-99.554 -2.547,-3.356 -7.336,-4.016 -10.695,-1.465 -0.609,0.461 -1.137,1 -1.567,1.594 -28.937,38.125 -45.535,66.738 -56.695,99.425 -11.094,32.485 -16.664,68.668 -23.625,122.207 -0.226,1.743 0.153,3.418 0.969,4.821 h -0.008 c 7.469,12.906 14.481,27.187 21.074,42.851 6.575,15.621 12.828,32.864 18.793,51.735 6.598,20.855 11.762,42.695 15.231,65.285 3.336,21.746 5.121,44.222 5.121,67.23 h 0.027 v 0.348 l 0.004,0.148 h -0.004 c 0.031,1.657 0.055,3.231 0.071,4.711 l -0.004,4.754 c 0,55.953 -8.637,108.914 -24.071,156.223 -16,49.043 -39.265,91.996 -67.742,125.875 -0.828,0.988 -1.363,2.121 -1.617,3.301 l -0.031,-0.008 c -7.813,35.785 -14.766,71.047 -19.391,102.572 -4.668,31.81 -6.969,59.87 -5.418,80.95 4.555,61.87 16.547,108.7 38.746,153.44 22.082,44.51 54.113,86.64 98.91,139.39 2.731,3.22 7.559,3.62 10.785,0.9 0.356,-0.31 0.684,-0.64 0.973,-0.99 z m 85.113,-146.07 c -20.433,41.19 -50.023,80.7 -91.031,129.37 -41.008,-48.67 -70.597,-88.17 -91.031,-129.37 -21.277,-42.9 -32.793,-87.98 -37.188,-147.75 -1.464,-19.9 0.778,-46.86 5.293,-77.65 4.485,-30.554 11.223,-64.843 18.829,-99.769 29.195,-35.183 52.996,-79.324 69.355,-129.457 15.937,-48.847 24.852,-103.418 24.852,-160.957 l -0.055,-4.871 c -0.016,-1.711 -0.039,-3.336 -0.07,-4.867 v -0.223 h 0.031 c 0,-23.75 -1.844,-46.988 -5.301,-69.511 -3.598,-23.426 -8.945,-46.043 -15.77,-67.622 -6.003,-18.968 -12.429,-36.644 -19.332,-53.05 -6.503,-15.446 -13.367,-29.551 -20.625,-42.325 6.676,-51.113 12.114,-85.894 22.633,-116.707 9.821,-28.761 24.196,-54.367 48.379,-87.125 24.18,32.758 38.559,58.364 48.379,87.125 10.52,30.813 15.961,65.594 22.633,116.707 -7.262,12.766 -14.121,26.879 -20.621,42.325 -6.906,16.406 -13.34,34.082 -19.336,53.05 -6.828,21.582 -12.168,44.2 -15.766,67.629 -3.461,22.516 -5.304,45.754 -5.304,69.504 h 0.031 v 0.032 0.218 c -0.028,1.528 -0.055,3.145 -0.071,4.84 l -0.054,4.871 c 0,57.539 8.914,112.11 24.851,160.957 16.36,50.133 40.161,94.274 69.36,129.457 7.601,34.926 14.34,69.215 18.824,99.769 4.516,30.79 6.758,57.75 5.293,77.65 -4.395,59.77 -15.91,104.85 -37.188,147.75 z m -65.734,-625.223 -0.004,-0.133 0.004,0.133" /><path
         id="path82"
         style="fill:#005d28;fill-opacity:1;fill-rule:nonzero;stroke:none"
         d="m 784.785,247.566 h -0.215 c -3.418,46.43 -5.41,100.711 -5.324,166.504 v 664.08 c -0.109,131.81 4.754,200.24 5.223,211.5 h 0.316 0.317 c 0.468,-11.26 5.332,-79.69 5.222,-211.5 V 414.07 C 790.414,348.277 788.418,293.996 785,247.566 h -0.215" /><path
         id="path84"
         style="fill:#c38a31;fill-opacity:1;fill-rule:evenodd;stroke:none"
         d="m 1058.2,990.613 c 290.95,0 239.97,-343.297 14.12,-309.379 50.52,65.129 -8.55,136.157 -99.601,109.133 -71.516,-21.23 -105.633,-116.258 -105.633,-191.711 0,-46.742 10.43,-89.672 27.836,-123.379 45.402,-85.433 149.398,-65.023 154.578,-14.297 35,-3.753 50.11,-40.464 44.14,-77.343 -16.41,-101.477 -149.117,-98.981 -206.124,-34.817 -25.086,28.243 -45.297,71.129 -63.95,131.93 -13.171,42.926 -20.707,89.859 -20.707,139.02 0,204.812 114.317,370.843 255.341,370.843" /><path
         id="path86"
         style="fill:#4e4a3d;fill-opacity:1;fill-rule:evenodd;stroke:none"
         d="m 1058.2,998.523 c 104.4,0 166.47,-43.324 193.23,-98.398 12.2,-25.105 17.02,-52.602 15.14,-79.523 -1.87,-26.926 -10.43,-53.332 -24.98,-76.266 -31.38,-49.461 -90.46,-82.91 -170.34,-70.914 -4.19,0.609 -7.1,4.609 -6.51,8.926 0.23,1.66 0.95,3.125 1.99,4.265 11.34,14.793 16.48,29.727 16.51,43.379 0.03,11.668 -3.69,22.508 -10.44,31.543 -6.9,9.25 -17,16.707 -29.57,21.387 -18.32,6.828 -41.83,7.738 -68.417,-0.149 -30.473,-9.046 -53.825,-32.699 -70.262,-62.535 -20.035,-36.351 -29.797,-81.742 -29.797,-121.582 0,-22.359 2.441,-43.785 6.922,-63.644 l 0.058,-0.289 c 4.629,-20.434 11.403,-39.215 19.887,-55.657 l 0.012,0.012 c 13.441,-25.293 32.289,-40.605 51.898,-48.195 14.485,-5.613 29.403,-7.043 42.848,-5.199 13.151,1.808 24.821,6.75 33.141,13.945 6.96,6.012 11.5,13.598 12.37,22.152 0.43,4.332 4.18,7.485 8.39,7.039 0.94,-0.093 1.99,-0.246 3.14,-0.433 18.27,-2.949 31.54,-13.848 39.71,-28.922 7.84,-14.473 10.83,-32.789 8.84,-51.391 l -0.03,-0.234 c -0.2,-1.844 -0.46,-3.68 -0.75,-5.496 -4.24,-26.203 -15.73,-46.067 -31.6,-60.172 -13.22,-11.746 -29.38,-19.402 -46.84,-23.348 -17.16,-3.875 -35.672,-4.156 -53.918,-1.207 -32.961,5.332 -65.129,21.332 -86.945,45.891 -13.059,14.699 -24.789,33.09 -35.617,55.578 -10.727,22.277 -20.59,48.566 -30.016,79.285 -6.828,22.25 -12.164,45.57 -15.766,69.727 -3.453,23.211 -5.3,47.175 -5.3,71.672 0,104.062 29.128,198.402 76.226,266.8 47.625,69.168 113.649,111.953 186.786,111.953 z m 179.57,-105.441 c -24.38,50.164 -81.92,89.629 -179.57,89.629 -67.887,0 -129.536,-40.238 -174.325,-105.281 -45.32,-65.825 -73.352,-156.91 -73.352,-257.66 0,-23.719 1.786,-46.899 5.122,-69.329 3.472,-23.293 8.628,-45.808 15.23,-67.316 9.227,-30.074 18.801,-55.637 29.113,-77.059 10.211,-21.211 21.133,-38.394 33.16,-51.933 19.418,-21.863 48.297,-36.145 78.02,-40.949 16.355,-2.645 32.952,-2.387 48.342,1.082 15.08,3.41 28.92,9.918 40.07,19.824 13.28,11.801 22.91,28.566 26.51,50.848 0.26,1.558 0.47,3.109 0.64,4.628 l 0.02,0.239 c 1.65,15.437 -0.7,30.418 -6.97,42.004 -5.26,9.707 -13.39,17.027 -24.3,20.058 -2.75,-9.418 -8.4,-17.664 -16.14,-24.347 -10.48,-9.063 -24.91,-15.25 -40.985,-17.457 -15.792,-2.172 -33.273,-0.504 -50.218,6.058 -22.754,8.813 -44.543,26.414 -59.922,55.356 l 0.012,0.011 -0.043,0.086 c -9.137,17.688 -16.411,37.778 -21.344,59.531 l -0.082,0.321 c -4.754,21.07 -7.344,43.699 -7.344,67.23 0,42.25 10.43,90.528 31.832,129.367 18.297,33.207 44.621,59.625 79.375,69.942 29.839,8.855 56.629,7.683 77.829,-0.219 15.35,-5.723 27.8,-14.984 36.46,-26.574 8.8,-11.793 13.64,-25.938 13.61,-41.18 -0.04,-13.652 -3.99,-28.113 -12.55,-42.441 66.77,-5.922 116.07,23.304 142.79,65.426 13.13,20.695 20.84,44.484 22.53,68.73 1.69,24.246 -2.61,48.922 -13.52,71.375" /><path
         id="path88"
         style="fill:#4e4a3d;fill-opacity:1;fill-rule:evenodd;stroke:none"
         d="m 820.98,695.57 c -15.66,-55.554 -13.621,-115.984 0.215,-170.648 63.606,-251.277 271.675,-201.899 234.625,-69.66 24.22,-125.074 -163.129,-162.395 -222.531,72.265 -13.422,53.028 -15.434,111.532 -0.309,165.168 19.176,88.61 107.973,211.887 217.4,200.637 111.4,-13.027 132.68,-128.484 63.11,-194.418 87.94,60.113 55.71,212.793 -83.72,207.043 C 932.801,901.938 845.133,801.602 820.98,695.57" /><path
         id="path90"
         style="fill:#c38a31;fill-opacity:1;fill-rule:evenodd;stroke:none"
         d="m 511.227,990.613 c -290.957,0 -239.977,-343.297 -14.125,-309.379 -50.52,65.129 8.554,136.157 99.605,109.133 71.516,-21.23 105.633,-116.258 105.633,-191.711 0,-46.742 -10.434,-89.672 -27.84,-123.379 -45.398,-85.433 -149.395,-65.023 -154.574,-14.297 -35.004,-3.753 -50.113,-40.464 -44.145,-77.343 16.414,-101.477 149.121,-98.981 206.125,-34.817 25.09,28.243 45.297,71.129 63.953,131.93 13.172,42.926 20.707,89.859 20.707,139.02 0,204.812 -114.32,370.843 -255.339,370.843" /><path
         id="path92"
         style="fill:#4e4a3d;fill-opacity:1;fill-rule:evenodd;stroke:none"
         d="m 511.227,982.711 c -97.657,0 -155.196,-39.465 -179.571,-89.629 -10.91,-22.453 -15.218,-47.129 -13.527,-71.375 1.691,-24.246 9.41,-48.035 22.531,-68.73 26.723,-42.129 76.024,-71.348 142.789,-65.426 -8.554,14.328 -12.511,28.789 -12.543,42.441 -0.039,15.242 4.805,29.387 13.61,41.18 8.648,11.59 21.109,20.851 36.461,26.574 21.199,7.902 47.988,9.074 77.828,0.219 34.754,-10.317 61.074,-36.735 79.371,-69.942 21.398,-38.839 31.828,-87.117 31.828,-129.367 0,-23.531 -2.586,-46.16 -7.34,-67.23 l -0.082,-0.321 c -4.934,-21.753 -12.203,-41.843 -21.34,-59.531 l -0.043,-0.086 0.016,-0.011 c -15.387,-28.942 -37.172,-46.543 -59.93,-55.356 -16.941,-6.562 -34.426,-8.226 -50.215,-6.058 -16.074,2.207 -30.504,8.394 -40.992,17.457 -7.734,6.683 -13.39,14.929 -16.14,24.347 -10.907,-3.031 -19.028,-10.351 -24.286,-20.058 -6.273,-11.586 -8.632,-26.567 -6.976,-42.004 l 0.023,-0.239 c 0.164,-1.519 0.379,-3.07 0.629,-4.628 3.606,-22.282 13.238,-39.047 26.52,-50.848 11.152,-9.906 24.988,-16.414 40.066,-19.824 15.391,-3.469 31.988,-3.727 48.348,-1.082 29.715,4.804 58.593,19.086 78.011,40.949 12.028,13.539 22.95,30.722 33.165,51.933 10.312,21.422 19.882,46.985 29.109,77.059 6.598,21.508 11.762,44.023 15.23,67.316 3.34,22.43 5.118,45.61 5.118,69.329 0,100.75 -28.028,191.835 -73.344,257.66 -44.789,65.043 -106.438,105.281 -174.324,105.281 z M 317.992,900.125 c 26.762,55.074 88.828,98.398 193.235,98.398 73.132,0 139.16,-42.785 186.785,-111.953 47.09,-68.398 76.222,-162.738 76.222,-266.8 0,-24.497 -1.843,-48.461 -5.3,-71.672 -3.598,-24.157 -8.942,-47.477 -15.766,-69.727 -9.426,-30.719 -19.289,-57.004 -30.012,-79.285 -10.828,-22.488 -22.558,-40.879 -35.617,-55.578 -21.816,-24.559 -53.984,-40.559 -86.945,-45.891 -18.25,-2.949 -36.762,-2.668 -53.914,1.207 -17.465,3.946 -33.625,11.602 -46.84,23.348 -15.879,14.105 -27.371,33.969 -31.61,60.172 -0.296,1.816 -0.542,3.652 -0.742,5.496 l -0.031,0.234 c -1.996,18.602 0.996,36.918 8.832,51.391 8.164,15.074 21.445,25.973 39.711,28.922 1.148,0.187 2.207,0.34 3.152,0.433 4.2,0.446 7.957,-2.707 8.387,-7.039 0.871,-8.554 5.406,-16.14 12.367,-22.152 8.321,-7.195 19.985,-12.137 33.141,-13.945 13.445,-1.844 28.359,-0.414 42.848,5.199 19.609,7.59 38.453,22.902 51.894,48.195 l 0.012,-0.012 c 8.484,16.442 15.254,35.223 19.887,55.657 l 0.058,0.289 c 4.481,19.859 6.922,41.285 6.922,63.644 0,39.84 -9.758,85.231 -29.789,121.582 -16.441,29.836 -39.793,53.489 -70.27,62.535 -26.589,7.887 -50.093,6.977 -68.421,0.149 -12.567,-4.68 -22.668,-12.137 -29.571,-21.387 -6.75,-9.035 -10.461,-19.875 -10.433,-31.543 0.031,-13.652 5.171,-28.586 16.515,-43.379 1.035,-1.14 1.746,-2.605 1.977,-4.265 0.597,-4.317 -2.313,-8.317 -6.5,-8.926 -79.883,-11.996 -138.965,21.453 -170.336,70.914 -14.551,22.934 -23.11,49.34 -24.988,76.266 -1.879,26.921 2.945,54.418 15.14,79.523" /><path
         id="path94"
         style="fill:#4e4a3d;fill-opacity:1;fill-rule:evenodd;stroke:none"
         d="M 748.445,695.57 C 764.105,640.016 762.066,579.586 748.23,524.922 684.625,273.645 476.555,323.023 513.602,455.262 489.391,330.188 676.73,292.867 736.133,527.527 c 13.422,53.028 15.433,111.532 0.312,165.168 C 717.27,781.305 628.473,904.582 519.047,893.332 407.645,880.305 386.363,764.848 455.934,698.914 367.996,759.027 400.23,911.707 539.66,905.957 636.621,901.938 724.293,801.602 748.445,695.57" /><path
         id="path96"
         style="fill:#4e4a3d;fill-opacity:1;fill-rule:evenodd;stroke:none"
         d="m 606.57,467.867 c 20.446,22.848 33.59,31.649 64.25,35.848 34.993,3.789 70.215,-0.899 105.039,-4.215 52.465,-4.789 91.629,-6.863 143.942,4.605 30.445,7.747 52.429,17.254 78.726,34.313 29.083,20.004 48.053,44.691 69.043,72.699 -36.36,25.563 -72.722,51.121 -109.082,76.68 -10.765,-14.363 -20.48,-24.957 -35.398,-35.215 -11.863,-7.699 -21.485,-11.746 -35.219,-15.242 -33.402,-7.324 -65.207,-4.426 -98.914,-1.348 -48.004,4.574 -86.344,3.715 -135.086,-1.554 -28.973,-3.973 -50.609,-10.016 -77.012,-22.661 -29.355,-15.109 -48.789,-30.789 -70.632,-55.203 L 606.57,467.867" /><path
         id="path98"
         style="fill:#ffffff;fill-opacity:1;fill-rule:nonzero;stroke:none"
         d="m 559.293,521.543 c 14.602,15.16 27.273,25.012 46.129,34.68 19.383,9.277 35.191,13.531 56.461,16.441 42.277,4.578 79.019,0.043 120.887,-3.953 42.824,-3.906 77.601,-1.172 120.187,8.172 21.633,5.496 37.098,12.129 55.781,24.246 19.465,13.367 32.457,26.367 47.012,44.742 l -45.211,32.5 c -10.48,-13.23 -19.281,-22.152 -33.301,-31.773 -12.66,-8.207 -22.957,-12.559 -37.609,-16.285 -34.52,-7.567 -66.574,-4.704 -101.387,-1.532 -47.304,4.512 -85.441,3.66 -133.437,-1.531 -28.094,-3.848 -49.028,-9.668 -74.625,-21.934 -25.293,-12.972 -42.516,-26.191 -62.102,-46.531 13.742,-12.418 27.473,-24.828 41.215,-37.242" /><path
         id="path100"
         style="fill:#ed1c24;fill-opacity:1;fill-rule:nonzero;stroke:none"
         d="m 605.93,479.398 c 8.918,9.274 16.535,15.368 28.05,21.27 12.266,5.879 22.446,8.387 35.907,10.23 35.566,3.852 71.297,-0.812 106.691,-4.191 51.492,-4.699 90.133,-6.824 141.465,4.434 29.527,7.515 50.832,16.718 76.34,33.261 25.567,17.539 44.417,40.5 63.527,64.633 l -46.29,32.469 c -15.081,-19.043 -28.569,-32.512 -48.737,-46.356 -19.496,-12.644 -35.602,-19.55 -58.168,-25.3 -43.641,-9.563 -78.801,-12.352 -122.664,-8.348 -41.141,3.922 -77.723,8.48 -119.238,3.984 -20.368,-2.793 -35.508,-6.836 -54.075,-15.722 -18,-9.242 -30.078,-18.633 -44.023,-33.121 13.738,-12.411 27.48,-24.821 41.215,-37.243" /><path
         id="path102"
         style="fill:#4e4a3d;fill-opacity:1;fill-rule:evenodd;stroke:none"
         d="m 782.039,1561.02 c 430.521,0 779.531,-349 779.531,-779.528 C 1561.57,350.973 1212.56,1.96484 782.039,1.96484 351.516,1.96484 2.51172,350.973 2.51172,781.492 c 0,430.528 349.00428,779.528 779.52728,779.528 z m 0,-42.67 c 406.951,0 736.851,-329.9 736.851,-736.858 0,-406.953 -329.9,-736.8553 -736.851,-736.8553 -406.957,0 -736.8593,329.9023 -736.8593,736.8553 0,406.958 329.9023,736.858 736.8593,736.858" /><path
         id="path104"
         style="fill:#c38a31;fill-opacity:1;fill-rule:evenodd;stroke:none"
         d="m 682.645,79.9375 c 1.636,2.7344 -1.93,12.8242 -5.125,18.4336 -2.262,-6.0781 -13.559,-18.5859 -19.286,-18.0156 -2.882,0.2851 -6.23,1.6211 -8.3,3.75 l -0.211,0.2109 -0.168,0.2617 c -1.395,2.0977 -4.91,9.6094 -5.934,10.5547 -4.785,3.207 -12.113,2.4531 -14.57,8.4262 -0.867,2.101 -0.336,6.082 -0.153,8.339 0.157,1.883 0.993,5.786 0.95,7.336 -0.196,0.532 -1.512,1.063 -3.157,1.817 -2.836,-2.055 -1.949,-7.895 -4.652,-8.707 -3.277,-0.985 -5.769,7.222 -14.184,9.629 -0.578,0.164 -6.675,1.836 -8.738,-0.825 -2.066,-2.664 1.629,-7.484 -0.324,-9.425 -1.566,-1.551 -4.379,1.078 -8.883,0.175 -3.156,-0.621 -6.746,-2.914 -8.34,-6.675 -1.968,-4.637 -0.465,-10.4847 3.453,-13.5785 2.543,-2.0117 5.145,-0.3007 6.758,-2.3125 1.66,-2.0703 -0.32,-4.3007 0.664,-7.8593 1.227,-4.4336 6.375,-8.4375 10.528,-7.8946 4.234,0.5508 5.39,5.5508 8.343,5.2461 2.52,-0.2539 1.801,-4.8203 5.59,-8.5859 2.649,-2.6367 7.215,-4.7422 11.395,-3.9063 5.422,1.0821 6.273,6.3203 10.457,5.9532 1.762,-0.1485 1.773,-1.0899 7.441,-4.4532 3.344,-1.9804 5.012,-2.9726 6.051,-3.0273 4.543,-0.2383 6.281,5.7539 12.016,9.2344 1.918,1.1679 8.332,0.5781 13.125,1.2929 0,0 3.14,1.0743 5.254,4.6055" /><path
         id="path106"
         style="fill:#c38a31;fill-opacity:1;fill-rule:evenodd;stroke:none"
         d="m 658.543,83.5469 c 4.047,-0.4024 15.258,12.414 16.184,16.5041 1.246,5.504 -3.961,7.398 -4.305,13.57 -0.586,10.328 12.418,16.629 9.875,22.594 -1.129,2.652 -3.852,1.773 -6.055,5.625 -2.558,4.469 -0.219,7.965 -2.551,10.148 -2.961,2.766 -8.406,-1.3 -10.441,0.989 -2.289,2.57 3.941,8.398 2.449,17.132 -0.101,0.598 -1.242,6.899 -4.5,7.633 -3.265,0.738 -5.957,-4.726 -8.527,-3.777 -2.055,0.758 -0.93,4.465 -3.668,8.191 -1.922,2.614 -5.508,4.907 -9.539,4.739 -4.973,-0.207 -9.531,-4.114 -10.594,-9.04 -0.691,-3.195 1.945,-4.828 0.852,-7.171 -1.125,-2.418 -3.961,-1.571 -6.7,-4.008 -3.418,-3.043 -4.765,-9.481 -2.488,-13.043 2.313,-3.629 7.262,-2.52 8.266,-5.352 0.855,-2.422 -3.516,-3.734 -5.235,-8.836 -1.203,-3.554 -1.101,-8.636 1.442,-12.097 3.301,-4.493 8.328,-3.008 9.808,-6.985 0.622,-1.675 -0.211,-2.09 -0.757,-8.734 -0.321,-3.91 -0.485,-5.867 -0.082,-6.836 1.746,-4.262 7.824,-3.254 13.394,-6.9883 1.867,-1.25 4.109,-7.3672 6.809,-11.4414 0,0 2.312,-2.4141 6.363,-2.8164" /><path
         id="path108"
         style="fill:#c38a31;fill-opacity:1;fill-rule:evenodd;stroke:none"
         d="m 573.441,105.48 c 2.039,2.446 0.098,12.969 -2.179,19.012 -3.184,-5.652 -16.301,-16.238 -21.871,-14.777 -2.801,0.734 -5.899,2.574 -7.61,5 l -0.172,0.242 -0.129,0.281 c -1.05,2.293 -3.343,10.266 -4.21,11.356 -4.219,3.914 -11.579,4.316 -13.071,10.601 -0.523,2.211 0.621,6.059 1.156,8.258 0.45,1.84 1.887,5.559 2.086,7.102 -0.113,0.554 -1.328,1.285 -2.836,2.289 -3.121,-1.59 -3.16,-7.496 -5.957,-7.875 -3.39,-0.461 -4.566,8.039 -12.503,11.726 -0.543,0.254 -6.305,2.864 -8.758,0.555 -2.457,-2.309 0.437,-7.645 -1.793,-9.258 -1.793,-1.289 -4.16,1.75 -8.746,1.563 -3.215,-0.121 -7.121,-1.825 -9.285,-5.289 -2.668,-4.27 -2.098,-10.282 1.289,-13.95 2.199,-2.382 5.035,-1.105 6.308,-3.343 1.32,-2.305 -0.984,-4.2 -0.57,-7.868 0.519,-4.57 4.976,-9.328 9.164,-9.445 4.269,-0.113 6.187,4.641 9.059,3.879 2.453,-0.644 1.023,-5.039 4.179,-9.355 2.207,-3.016 6.383,-5.809 10.645,-5.641 5.523,0.219 7.187,5.262 11.258,4.246 1.714,-0.422 1.582,-1.355 6.656,-5.5624 2.988,-2.4766 4.484,-3.7188 5.5,-3.9336 4.449,-0.9492 7.101,4.6992 13.316,7.238 2.074,0.856 8.317,-0.73 13.16,-0.777 0,0 3.274,0.57 5.914,3.726" /><path
         id="path110"
         style="fill:#c38a31;fill-opacity:1;fill-rule:evenodd;stroke:none"
         d="m 550.199,112.82 c 3.93,-1.031 17.012,9.871 18.567,13.766 2.093,5.246 -2.754,7.93 -2.133,14.078 1.043,10.293 14.867,14.481 13.289,20.77 -0.699,2.793 -3.527,2.355 -5.098,6.5 -1.828,4.816 1.028,7.906 -0.933,10.425 -2.493,3.196 -8.504,0.032 -10.161,2.61 -1.855,2.898 5.208,7.676 5.102,16.539 -0.008,0.609 -0.148,7.008 -3.25,8.238 -3.109,1.242 -6.621,-3.734 -9.016,-2.394 -1.91,1.07 -0.214,4.554 -2.336,8.664 -1.492,2.882 -4.675,5.707 -8.679,6.172 -4.949,0.574 -10.063,-2.571 -11.883,-7.266 -1.176,-3.051 1.168,-5.078 -0.277,-7.219 -1.489,-2.211 -4.161,-0.933 -7.246,-2.91 -3.852,-2.473 -6.188,-8.617 -4.5,-12.496 1.718,-3.945 6.777,-3.625 7.328,-6.578 0.468,-2.524 -4.055,-3.141 -6.547,-7.906 -1.746,-3.325 -2.446,-8.36 -0.473,-12.176 2.559,-4.953 7.754,-4.274 8.594,-8.434 0.351,-1.75 -0.535,-2.031 -2.113,-8.508 -0.926,-3.812 -1.395,-5.718 -1.153,-6.738 1.063,-4.48 7.219,-4.437 12.137,-9 1.648,-1.527 2.906,-7.914 4.937,-12.363 0,0 1.911,-2.742 5.844,-3.774" /><path
         id="path112"
         style="fill:#c38a31;fill-opacity:1;fill-rule:evenodd;stroke:none"
         d="m 469.574,147.793 c 2.399,2.098 2.129,12.793 0.824,19.117 -4.031,-5.082 -18.64,-13.484 -23.914,-11.172 -2.652,1.16 -5.425,3.465 -6.73,6.129 l -0.137,0.266 -0.082,0.301 c -0.68,2.429 -1.695,10.656 -2.383,11.871 -3.558,4.531 -10.761,6.074 -11.25,12.519 -0.172,2.262 1.559,5.883 2.434,7.973 0.73,1.746 2.73,5.195 3.172,6.687 -0.024,0.567 -1.113,1.477 -2.445,2.7 -3.333,-1.079 -4.293,-6.903 -7.114,-6.844 -3.422,0.078 -3.254,8.656 -10.519,13.539 -0.496,0.34 -5.778,3.812 -8.563,1.918 -2.789,-1.895 -0.762,-7.617 -3.219,-8.863 -1.972,-0.989 -3.832,2.379 -8.39,2.914 -3.199,0.382 -7.32,-0.688 -10,-3.77 -3.301,-3.805 -3.68,-9.828 -0.91,-13.98 1.8,-2.7 4.8,-1.879 5.711,-4.289 0.941,-2.485 -1.633,-3.993 -1.793,-7.68 -0.207,-4.598 3.453,-9.996 7.57,-10.766 4.199,-0.785 6.84,3.617 9.555,2.414 2.32,-1.019 0.222,-5.14 2.664,-9.894 1.707,-3.328 5.394,-6.738 9.629,-7.235 5.492,-0.648 7.921,4.071 11.789,2.43 1.625,-0.683 1.343,-1.586 5.699,-6.531 2.566,-2.918 3.848,-4.379 4.816,-4.75 4.25,-1.633 7.754,3.531 14.285,5.066 2.184,0.524 8.098,-2.019 12.879,-2.824 0,0 3.321,0.051 6.422,2.754" /><path
         id="path114"
         style="fill:#c38a31;fill-opacity:1;fill-rule:evenodd;stroke:none"
         d="m 447.766,158.676 c 3.726,-1.633 18.347,7.09 20.492,10.695 2.89,4.848 -1.477,8.258 0.097,14.238 2.637,10.004 16.954,11.977 16.379,18.434 -0.257,2.871 -3.117,2.875 -4.023,7.219 -1.051,5.039 2.254,7.644 0.707,10.441 -1.961,3.547 -8.395,1.36 -9.621,4.168 -1.383,3.152 6.344,6.766 7.621,15.535 0.09,0.602 0.949,6.946 -1.918,8.649 -2.879,1.715 -7.125,-2.653 -9.281,-0.957 -1.719,1.355 0.5,4.535 -0.953,8.925 -1.02,3.079 -3.723,6.368 -7.61,7.454 -4.797,1.339 -10.336,-0.965 -12.867,-5.325 -1.641,-2.82 0.359,-5.191 -1.406,-7.082 -1.817,-1.949 -4.254,-0.265 -7.613,-1.742 -4.192,-1.836 -7.461,-7.543 -6.399,-11.637 1.082,-4.164 6.129,-4.64 6.211,-7.64 0.066,-2.567 -4.492,-2.469 -7.707,-6.781 -2.242,-3.016 -3.719,-7.879 -2.371,-11.957 1.754,-5.29 6.992,-5.434 7.172,-9.672 0.074,-1.789 -0.848,-1.926 -3.418,-8.075 -1.516,-3.621 -2.274,-5.429 -2.192,-6.472 0.344,-4.594 6.434,-5.516 10.579,-10.789 1.39,-1.766 1.632,-8.274 2.941,-12.985 0,0 1.453,-3.011 5.18,-4.644" /><path
         id="path116"
         style="fill:#c38a31;fill-opacity:1;fill-rule:evenodd;stroke:none"
         d="m 373.605,205.832 c 2.7,1.695 4.102,12.305 3.805,18.758 -4.777,-4.395 -20.519,-10.406 -25.367,-7.297 -2.438,1.562 -4.813,4.27 -5.691,7.102 l -0.09,0.289 -0.035,0.308 c -0.289,2.504 -0.008,10.793 -0.493,12.098 -2.808,5.031 -9.683,7.683 -9.156,14.125 0.184,2.265 2.461,5.566 3.649,7.496 0.996,1.609 3.511,4.703 4.179,6.105 0.067,0.567 -0.867,1.633 -1.988,3.051 -3.461,-0.543 -5.324,-6.148 -8.102,-5.644 -3.363,0.609 -1.859,9.054 -8.269,15.015 -0.438,0.41 -5.113,4.668 -8.156,3.235 -3.051,-1.434 -1.946,-7.407 -4.571,-8.25 -2.097,-0.668 -3.41,2.949 -7.828,4.187 -3.097,0.879 -7.336,0.465 -10.465,-2.16 -3.859,-3.238 -5.175,-9.129 -3.086,-13.668 1.352,-2.945 4.446,-2.602 4.969,-5.129 0.539,-2.598 -2.242,-3.683 -2.976,-7.301 -0.918,-4.507 1.851,-10.414 5.796,-11.812 4.024,-1.434 7.321,2.496 9.817,0.887 2.129,-1.375 -0.586,-5.114 1.082,-10.192 1.164,-3.551 4.273,-7.496 8.379,-8.656 5.324,-1.496 8.461,2.785 12.023,0.562 1.496,-0.933 1.082,-1.781 4.606,-7.347 2.078,-3.281 3.117,-4.922 4.015,-5.442 3.942,-2.277 8.211,2.274 14.903,2.77 2.238,0.172 7.683,-3.262 12.277,-4.805 0,0 3.289,-0.469 6.773,1.715" /><path
         id="path118"
         style="fill:#c38a31;fill-opacity:1;fill-rule:evenodd;stroke:none"
         d="m 353.77,219.992 c 3.421,-2.191 19.23,4.133 21.91,7.356 3.613,4.34 -0.168,8.39 2.324,14.05 4.172,9.469 18.617,9.18 19.059,15.649 0.199,2.871 -2.625,3.328 -2.84,7.758 -0.254,5.14 3.422,7.199 2.332,10.199 -1.383,3.812 -8.078,2.656 -8.856,5.621 -0.871,3.328 7.324,5.695 9.961,14.156 0.184,0.578 2.024,6.707 -0.539,8.84 -2.574,2.141 -7.453,-1.504 -9.316,0.508 -1.489,1.605 1.203,4.398 0.449,8.965 -0.524,3.203 -2.676,6.871 -6.344,8.551 -4.527,2.07 -10.363,0.664 -13.547,-3.243 -2.062,-2.535 -0.457,-5.187 -2.492,-6.777 -2.101,-1.645 -4.246,0.398 -7.793,-0.531 -4.43,-1.16 -8.551,-6.281 -8.14,-10.492 0.414,-4.286 5.328,-5.543 4.937,-8.516 -0.336,-2.551 -4.824,-1.734 -8.672,-5.496 -2.687,-2.625 -4.906,-7.203 -4.211,-11.442 0.903,-5.496 6.055,-6.457 5.571,-10.671 -0.208,-1.778 -1.141,-1.766 -4.641,-7.442 -2.059,-3.336 -3.094,-5.004 -3.18,-6.051 -0.375,-4.589 5.496,-6.453 8.762,-12.308 1.098,-1.965 0.32,-8.426 0.879,-13.285 0,0 0.961,-3.2 4.387,-5.399" /><path
         id="path120"
         style="fill:#c38a31;fill-opacity:1;fill-rule:evenodd;stroke:none"
         d="m 287.898,278.172 c 2.93,1.25 5.977,11.508 6.692,17.93 -5.406,-3.594 -21.895,-7.067 -26.195,-3.243 -2.165,1.926 -4.086,4.973 -4.508,7.911 l -0.047,0.293 0.015,0.312 c 0.106,2.52 1.68,10.664 1.403,12.027 -1.985,5.407 -8.356,9.106 -6.832,15.383 0.535,2.207 3.301,5.117 4.777,6.832 1.238,1.438 4.207,4.098 5.082,5.379 0.153,0.547 -0.597,1.75 -1.484,3.324 -3.504,0.004 -6.223,-5.242 -8.883,-4.308 -3.23,1.129 -0.422,9.234 -5.82,16.129 -0.368,0.472 -4.321,5.41 -7.551,4.464 -3.238,-0.937 -3.082,-7.007 -5.801,-7.433 -2.18,-0.328 -2.914,3.449 -7.082,5.363 -2.922,1.356 -7.172,1.61 -10.672,-0.496 -4.316,-2.594 -6.539,-8.207 -5.187,-13.016 0.879,-3.121 3.984,-3.265 4.105,-5.839 0.125,-2.657 -2.789,-3.297 -4.082,-6.75 -1.613,-4.309 0.199,-10.575 3.875,-12.579 3.75,-2.039 7.625,1.325 9.836,-0.656 1.891,-1.687 -1.375,-4.961 -0.527,-10.234 0.597,-3.692 3.051,-8.078 6.926,-9.86 5.019,-2.312 8.792,1.426 11.96,-1.328 1.336,-1.156 0.79,-1.925 3.403,-7.976 1.539,-3.567 2.304,-5.352 3.113,-6.004 3.539,-2.863 8.461,0.965 15.152,0.406 2.235,-0.18 7.079,-4.426 11.375,-6.668 0,0 3.176,-0.976 6.957,0.637" /><path
         id="path122"
         style="fill:#c38a31;fill-opacity:1;fill-rule:evenodd;stroke:none"
         d="m 270.52,295.262 c 3.039,-2.703 19.644,1.074 22.793,3.84 4.25,3.718 1.148,8.308 4.496,13.507 5.601,8.7 19.824,6.157 21.269,12.473 0.649,2.809 -2.07,3.699 -1.594,8.109 0.559,5.118 4.504,6.575 3.903,9.711 -0.77,3.977 -7.563,3.887 -7.867,6.934 -0.34,3.43 8.128,4.48 12.054,12.422 0.27,0.547 3.047,6.312 0.848,8.82 -2.211,2.516 -7.598,-0.32 -9.125,1.957 -1.215,1.82 1.879,4.16 1.851,8.781 -0.019,3.247 -1.57,7.207 -4.929,9.442 -4.149,2.754 -10.129,2.277 -13.887,-1.082 -2.434,-2.18 -1.262,-5.055 -3.523,-6.305 -2.336,-1.293 -4.129,1.055 -7.782,0.695 -4.554,-0.453 -9.425,-4.867 -9.679,-9.093 -0.262,-4.293 4.394,-6.305 3.543,-9.184 -0.727,-2.461 -5.036,-0.957 -9.426,-4.07 -3.063,-2.172 -5.973,-6.344 -5.945,-10.637 0.031,-5.574 4.968,-7.328 3.828,-11.418 -0.481,-1.719 -1.399,-1.566 -5.746,-6.617 -2.555,-2.977 -3.84,-4.465 -4.082,-5.481 -1.09,-4.476 4.414,-7.234 6.726,-13.531 0.774,-2.109 -1.004,-8.371 -1.215,-13.258 0,0 0.453,-3.312 3.489,-6.015" /><path
         id="path124"
         style="fill:#c38a31;fill-opacity:1;fill-rule:evenodd;stroke:none"
         d="m 214.563,363.027 c 3.089,0.778 7.703,10.43 9.414,16.661 -5.899,-2.704 -22.731,-3.555 -26.379,0.898 -1.836,2.242 -3.262,5.551 -3.219,8.516 l 0.004,0.3 0.062,0.305 c 0.5,2.473 3.328,10.266 3.27,11.66 -1.117,5.653 -6.832,10.301 -4.344,16.262 0.875,2.098 4.063,4.535 5.789,6 1.445,1.223 4.793,3.391 5.86,4.519 0.238,0.516 -0.321,1.821 -0.95,3.516 -3.457,0.551 -6.961,-4.207 -9.445,-2.867 -3.016,1.617 1.027,9.187 -3.227,16.836 -0.289,0.527 -3.418,6.023 -6.757,5.597 -3.344,-0.421 -4.137,-6.445 -6.895,-6.433 -2.203,0.008 -2.332,3.855 -6.152,6.406 -2.676,1.785 -6.832,2.707 -10.621,1.176 -4.668,-1.891 -7.743,-7.086 -7.157,-12.047 0.375,-3.219 3.422,-3.848 3.137,-6.41 -0.285,-2.641 -3.269,-2.817 -5.086,-6.031 -2.265,-4 -1.457,-10.473 1.863,-13.024 3.387,-2.605 7.735,0.113 9.606,-2.191 1.605,-1.961 -2.129,-4.68 -2.117,-10.024 0.011,-3.734 1.75,-8.453 5.297,-10.82 4.601,-3.07 8.906,0.035 11.605,-3.184 1.137,-1.347 0.481,-2.027 2.113,-8.41 0.965,-3.765 1.442,-5.644 2.137,-6.418 3.047,-3.379 8.508,-0.371 15.027,-1.968 2.184,-0.528 6.301,-5.481 10.196,-8.364 0,0 2.98,-1.465 6.969,-0.461" /><path
         id="path126"
         style="fill:#c38a31;fill-opacity:1;fill-rule:evenodd;stroke:none"
         d="m 200.074,382.625 c 2.578,-3.145 19.567,-2.012 23.114,0.227 4.777,3.007 2.433,8.027 6.55,12.636 6.891,7.719 20.539,2.981 22.961,8.996 1.074,2.672 -1.472,3.977 -0.304,8.254 1.347,4.973 5.476,5.793 5.371,8.985 -0.141,4.05 -6.864,5.019 -6.684,8.082 0.199,3.433 8.723,3.148 13.848,10.383 0.351,0.496 3.996,5.753 2.211,8.578 -1.786,2.828 -7.551,0.867 -8.7,3.355 -0.918,1.988 2.5,3.817 3.204,8.387 0.484,3.207 -0.426,7.363 -3.399,10.094 -3.664,3.371 -9.644,3.836 -13.883,1.101 -2.746,-1.769 -2.035,-4.793 -4.465,-5.672 -2.507,-0.914 -3.914,1.692 -7.574,1.903 -4.57,0.265 -10.07,-3.332 -10.984,-7.461 -0.93,-4.207 3.351,-6.922 2.062,-9.629 -1.105,-2.321 -5.125,-0.156 -9.945,-2.547 -3.367,-1.664 -6.891,-5.328 -7.539,-9.578 -0.84,-5.508 3.762,-8.012 1.996,-11.871 -0.746,-1.625 -1.629,-1.332 -6.707,-5.641 -2.996,-2.539 -4.492,-3.805 -4.894,-4.773 -1.778,-4.25 3.23,-7.832 4.527,-14.418 0.437,-2.203 -2.301,-8.11 -3.274,-12.903 0,0 -0.07,-3.34 2.508,-6.488" /><path
         id="path128"
         style="fill:#c38a31;fill-opacity:1;fill-rule:evenodd;stroke:none"
         d="m 155.402,458.309 c 3.176,0.285 9.246,9.097 11.907,14.984 -6.25,-1.746 -23.004,0.043 -25.914,5.012 -1.461,2.5 -2.352,5.996 -1.844,8.918 l 0.047,0.293 0.109,0.293 c 0.883,2.363 4.895,9.621 5.051,11.004 -0.215,5.757 -5.133,11.242 -1.742,16.742 1.191,1.933 4.718,3.843 6.656,5.023 1.617,0.981 5.262,2.594 6.492,3.543 0.316,0.473 -0.031,1.848 -0.383,3.621 -3.332,1.086 -7.535,-3.062 -9.781,-1.355 -2.723,2.074 2.453,8.914 -0.551,17.136 -0.207,0.563 -2.437,6.481 -5.801,6.586 -3.367,0.106 -5.093,-5.718 -7.816,-5.281 -2.172,0.36 -1.699,4.18 -5.074,7.293 -2.363,2.184 -6.324,3.742 -10.305,2.824 -4.906,-1.136 -8.758,-5.785 -8.957,-10.777 -0.129,-3.238 2.781,-4.34 2.098,-6.824 -0.696,-2.563 -3.668,-2.27 -5.961,-5.16 -2.867,-3.598 -3.082,-10.118 -0.203,-13.157 2.937,-3.101 7.66,-1.097 9.148,-3.668 1.277,-2.187 -2.84,-4.289 -3.66,-9.566 -0.574,-3.695 0.406,-8.621 3.539,-11.516 4.059,-3.75 8.801,-1.359 10.961,-4.957 0.918,-1.511 0.16,-2.078 0.773,-8.64 0.364,-3.867 0.543,-5.805 1.11,-6.672 2.476,-3.817 8.344,-1.699 14.531,-4.297 2.074,-0.863 5.367,-6.398 8.758,-9.856 0,0 2.719,-1.914 6.812,-1.546" /><path
         id="path130"
         style="fill:#c38a31;fill-opacity:1;fill-rule:evenodd;stroke:none"
         d="m 144.16,479.934 c 2.055,-3.512 19.012,-5.047 22.863,-3.395 5.188,2.227 3.661,7.551 8.45,11.457 8.011,6.547 20.754,-0.269 24.082,5.293 1.484,2.469 -0.828,4.156 0.992,8.203 2.109,4.696 6.316,4.863 6.711,8.028 0.496,4.023 -5.992,6.035 -5.34,9.031 0.734,3.359 9.113,1.746 15.301,8.09 0.426,0.433 4.851,5.058 3.531,8.125 -1.32,3.074 -7.324,2.039 -8.07,4.679 -0.594,2.106 3.07,3.375 4.472,7.782 0.989,3.089 0.731,7.336 -1.769,10.5 -3.094,3.902 -8.934,5.296 -13.543,3.261 -2.988,-1.32 -2.762,-4.418 -5.301,-4.906 -2.617,-0.508 -3.598,2.281 -7.184,3.066 -4.468,0.973 -10.468,-1.718 -12.011,-5.656 -1.578,-4.004 2.226,-7.355 0.531,-9.832 -1.457,-2.117 -5.086,0.645 -10.223,-0.961 -3.586,-1.113 -7.64,-4.183 -8.945,-8.277 -1.695,-5.309 2.465,-8.5 0.113,-12.035 -0.988,-1.489 -1.816,-1.063 -7.507,-4.528 -3.352,-2.035 -5.032,-3.054 -5.583,-3.945 -2.417,-3.918 1.969,-8.246 2.219,-14.949 0.086,-2.246 -3.543,-7.649 -5.25,-12.235 0,0 -0.594,-3.289 1.461,-6.796" /><path
         id="path132"
         style="fill:#c38a31;fill-opacity:1;fill-rule:evenodd;stroke:none"
         d="m 111.879,561.672 c 3.18,-0.215 10.551,7.543 14.105,12.937 -6.449,-0.742 -22.718,3.645 -24.812,9.008 -1.051,2.699 -1.3829,6.285 -0.43,9.094 l 0.094,0.285 0.156,0.27 c 1.238,2.195 6.34,8.734 6.711,10.078 0.684,5.719 -3.316,11.906 0.895,16.808 1.48,1.723 5.265,3.059 7.363,3.918 1.75,0.715 5.602,1.743 6.965,2.485 0.387,0.418 0.262,1.832 0.183,3.64 -3.117,1.59 -7.918,-1.851 -9.867,0.192 -2.367,2.468 3.817,8.422 2.137,17.008 -0.113,0.589 -1.395,6.785 -4.699,7.41 -3.313,0.633 -5.926,-4.848 -8.547,-3.989 -2.09,0.692 -1.028,4.391 -3.8752,7.997 -1.9883,2.527 -5.6601,4.687 -9.7305,4.402 -5.0273,-0.356 -9.5585,-4.348 -10.5312,-9.246 -0.6367,-3.18 2.0664,-4.719 1.0039,-7.071 -1.0898,-2.418 -3.9805,-1.664 -6.6992,-4.16 -3.3945,-3.105 -4.625,-9.511 -2.2578,-12.965 2.414,-3.519 7.3945,-2.281 8.4609,-5.05 0.918,-2.364 -3.4726,-3.789 -5.1094,-8.879 -1.1445,-3.559 -0.9492,-8.582 1.6914,-11.926 3.4258,-4.344 8.4805,-2.723 10.0547,-6.613 0.668,-1.637 -0.1679,-2.075 -0.5898,-8.653 -0.2461,-3.879 -0.375,-5.816 0.0469,-6.765 1.8515,-4.157 7.9804,-2.981 13.6836,-6.516 1.9137,-1.176 4.3007,-7.16 7.1097,-11.105 0,0 2.386,-2.313 6.488,-2.594" /><path
         id="path134"
         style="fill:#c38a31;fill-opacity:1;fill-rule:evenodd;stroke:none"
         d="m 104.156,584.789 c 1.481,-3.785 17.985,-7.957 22.055,-6.926 5.469,1.387 4.793,6.883 10.137,9.996 8.937,5.207 20.453,-3.515 24.613,1.457 1.848,2.207 -0.168,4.235 2.262,7.946 2.82,4.308 6.996,3.816 7.882,6.883 1.122,3.894 -4.972,6.898 -3.859,9.753 1.254,3.204 9.274,0.297 16.375,5.594 0.492,0.363 5.582,4.238 4.762,7.473 -0.828,3.246 -6.914,3.164 -7.238,5.883 -0.258,2.175 3.558,2.855 5.636,6.988 1.457,2.898 1.867,7.137 -0.113,10.648 -2.441,4.34 -7.988,6.629 -12.863,5.34 -3.157,-0.836 -3.418,-3.929 -6,-4.019 -2.664,-0.09 -3.2,2.82 -6.617,4.156 -4.262,1.664 -10.606,-0.063 -12.75,-3.707 -2.184,-3.711 1.05,-7.617 -1.016,-9.793 -1.766,-1.867 -4.922,1.43 -10.242,0.652 -3.715,-0.547 -8.2,-2.941 -10.133,-6.777 -2.5,-4.981 1.105,-8.785 -1.766,-11.914 -1.211,-1.309 -1.965,-0.758 -8.125,-3.289 -3.633,-1.488 -5.449,-2.231 -6.129,-3.028 -3.004,-3.492 0.653,-8.449 -0.152,-15.109 -0.266,-2.23 -4.691,-7.004 -7.098,-11.262 0,0 -1.097,-3.156 0.379,-6.945" /><path
         id="path136"
         style="fill:#c38a31;fill-opacity:1;fill-rule:evenodd;stroke:none"
         d="m 85.0625,670.574 c 3.1055,-0.711 11.6016,5.797 15.9535,10.571 -6.4887,0.273 -21.8715,7.152 -23.098,12.781 -0.6172,2.828 -0.3867,6.426 0.9961,9.047 l 0.1406,0.265 0.1914,0.242 c 1.5703,1.973 7.6289,7.637 8.207,8.907 1.5742,5.539 -1.4062,12.277 3.5157,16.461 1.7304,1.468 5.6796,2.195 7.8789,2.718 1.8433,0.434 5.8083,0.84 7.2733,1.364 0.445,0.351 0.543,1.765 0.754,3.566 -2.832,2.059 -8.1133,-0.59 -9.7227,1.731 -1.9453,2.812 5.0897,7.718 4.7737,16.464 -0.02,0.602 -0.313,6.918 -3.4807,8.055 -3.1719,1.145 -6.6133,-3.859 -9.0625,-2.601 -1.9609,1.011 -0.332,4.5 -2.5781,8.5 -1.5703,2.808 -4.8594,5.515 -8.9258,5.871 -5.0195,0.437 -10.1172,-2.797 -11.8476,-7.481 -1.125,-3.043 1.3007,-4.984 -0.1133,-7.137 -1.4571,-2.222 -4.1914,-1.027 -7.2657,-3.066 -3.8398,-2.535 -6.0546,-8.668 -4.2578,-12.453 1.8321,-3.856 6.9453,-3.406 7.5664,-6.313 0.5352,-2.472 -4.0273,-3.199 -6.4375,-7.968 -1.6875,-3.336 -2.2773,-8.328 -0.1953,-12.047 2.7071,-4.821 7.9532,-4.012 8.8946,-8.102 0.4023,-1.719 -0.4883,-2.023 -1.9336,-8.453 -0.8516,-3.793 -1.2813,-5.687 -1.0118,-6.687 1.1797,-4.399 7.4141,-4.196 12.4961,-8.579 1.7071,-1.46 3.1289,-7.742 5.2891,-12.082 0,0 1.9922,-2.656 6,-3.574" /><path
         id="path138"
         style="fill:#c38a31;fill-opacity:1;fill-rule:evenodd;stroke:none"
         d="m 81.0508,694.613 c 0.8672,-3.972 16.5156,-10.675 20.6952,-10.293 5.621,0.512 5.813,6.051 11.574,8.289 9.645,3.746 19.657,-6.671 24.543,-2.41 2.172,1.895 0.496,4.211 3.473,7.496 3.461,3.813 7.512,2.672 8.867,5.563 1.715,3.672 -3.836,7.59 -2.289,10.238 1.742,2.969 9.207,-1.156 17.051,2.965 0.543,0.277 6.176,3.312 5.871,6.633 -0.309,3.336 -6.336,4.207 -6.231,6.945 0.086,2.188 3.961,2.262 6.661,6.02 1.89,2.636 2.961,6.75 1.558,10.535 -1.738,4.668 -6.855,7.793 -11.871,7.281 -3.25,-0.332 -3.992,-3.344 -6.555,-3.027 -2.648,0.328 -2.718,3.285 -5.882,5.136 -3.953,2.313 -10.489,1.602 -13.176,-1.664 -2.738,-3.324 -0.152,-7.687 -2.535,-9.515 -2.039,-1.563 -4.637,2.187 -10.016,2.25 -3.758,0.043 -8.562,-1.621 -11.066,-5.114 -3.25,-4.527 -0.285,-8.847 -3.61,-11.484 -1.402,-1.109 -2.054,-0.445 -8.5427,-1.98 -3.8164,-0.903 -5.7265,-1.352 -6.5234,-2.032 -3.5117,-2.98 -0.6758,-8.445 -2.5117,-14.902 -0.6133,-2.16 -5.7305,-6.18 -8.7735,-10.012 0,0 -1.582,-2.945 -0.7109,-6.918" /><path
         id="path140"
         style="fill:#c38a31;fill-opacity:1;fill-rule:evenodd;stroke:none"
         d="m 75.6094,782.328 c 2.957,-1.183 12.3633,3.914 17.4101,7.949 -6.3632,1.282 -20.4804,10.481 -20.8125,16.231 -0.1718,2.89 0.6211,6.406 2.3985,8.781 l 0.1797,0.242 0.2304,0.207 c 1.8555,1.707 8.7266,6.352 9.4961,7.512 2.4219,5.23 0.5313,12.348 6.0469,15.707 1.9414,1.188 5.9531,1.285 8.2109,1.457 1.8865,0.137 5.8675,-0.078 7.3945,0.207 0.496,0.277 0.813,1.664 1.301,3.402 -2.477,2.481 -8.1017,0.692 -9.3283,3.235 -1.4883,3.082 6.2303,6.828 7.2893,15.515 0.074,0.598 0.769,6.883 -2.18,8.5 -2.953,1.625 -7.1366,-2.777 -9.3593,-1.152 -1.7773,1.305 0.3789,4.496 -1.2148,8.801 -1.1094,3.019 -3.9336,6.207 -7.8985,7.195 -4.8867,1.215 -10.4296,-1.179 -12.8711,-5.539 -1.5859,-2.828 0.5079,-5.125 -1.2304,-7.031 -1.7813,-1.969 -4.2969,-0.356 -7.6563,-1.887 -4.1875,-1.91 -7.3359,-7.617 -6.1484,-11.633 1.207,-4.097 6.3203,-4.457 6.4844,-7.422 0.1445,-2.531 -4.4766,-2.531 -7.6055,-6.863 -2.1875,-3.031 -3.5508,-7.867 -2.0742,-11.867 1.914,-5.187 7.2226,-5.211 7.5156,-9.395 0.1289,-1.761 -0.8008,-1.921 -3.2344,-8.05 -1.4336,-3.61 -2.1523,-5.414 -2.0429,-6.446 0.4765,-4.527 6.664,-5.3 11,-10.425 1.457,-1.711 1.875,-8.137 3.3281,-12.758 0,0 1.5547,-2.938 5.3711,-4.473" /><path
         id="path142"
         style="fill:#c38a31;fill-opacity:1;fill-rule:evenodd;stroke:none"
         d="m 75.4063,806.699 c 0.2343,-4.058 14.6484,-13.125 18.832,-13.402 5.6328,-0.371 6.6877,5.066 12.7307,6.375 10.109,2.191 18.367,-9.664 23.859,-6.219 2.442,1.527 1.149,4.078 4.606,6.86 4.011,3.226 7.836,1.464 9.625,4.109 2.273,3.355 -2.598,8.094 -0.657,10.469 2.184,2.66 8.911,-2.582 17.305,0.257 0.574,0.196 6.621,2.305 6.836,5.637 0.219,3.344 -5.602,5.145 -5.066,7.832 0.429,2.149 4.265,1.617 7.515,4.906 2.285,2.305 3.988,6.204 3.192,10.161 -0.985,4.882 -5.555,8.769 -10.586,9.05 -3.262,0.184 -4.465,-2.679 -6.95,-1.964 -2.562,0.734 -2.171,3.668 -5.007,5.992 -3.539,2.902 -10.106,3.222 -13.274,0.418 -3.222,-2.856 -1.351,-7.571 -3.988,-9 -2.258,-1.227 -4.242,2.883 -9.543,3.785 -3.703,0.633 -8.711,-0.262 -11.727,-3.317 -3.921,-3.964 -1.668,-8.695 -5.363,-10.777 -1.562,-0.879 -2.101,-0.121 -8.746,-0.621 -3.9141,-0.297 -5.8711,-0.441 -6.7656,-0.988 -3.9336,-2.391 -1.9922,-8.239 -4.8086,-14.324 -0.9453,-2.036 -6.6289,-5.208 -10.2344,-8.516 0,0 -2.0195,-2.66 -1.7851,-6.723" /><path
         id="path144"
         style="fill:#c38a31;fill-opacity:1;fill-rule:evenodd;stroke:none"
         d="m 83.7539,894.188 c 2.7383,-1.633 12.8242,1.929 18.4411,5.125 -6.0856,2.261 -18.5895,13.558 -18.0192,19.289 0.2851,2.882 1.6211,6.23 3.7461,8.296 l 0.2109,0.211 0.2617,0.172 c 2.1016,1.395 9.6172,4.903 10.5586,5.934 3.2029,4.781 2.4489,12.109 8.4259,14.566 2.101,0.864 6.078,0.336 8.336,0.149 1.887,-0.157 5.785,-0.992 7.34,-0.946 0.531,0.196 1.058,1.512 1.816,3.157 -2.058,2.832 -7.898,1.949 -8.707,4.648 -0.988,3.277 7.223,5.774 9.625,14.188 0.164,0.578 1.836,6.675 -0.824,8.738 -2.66,2.066 -7.481,-1.629 -9.422,0.324 -1.551,1.566 1.078,4.379 0.176,8.883 -0.625,3.156 -2.918,6.746 -6.676,8.34 -4.637,1.965 -10.4844,0.465 -13.5782,-3.457 -2.0117,-2.543 -0.3046,-5.141 -2.3164,-6.75 -2.0703,-1.664 -4.3007,0.32 -7.8554,-0.668 -4.4336,-1.231 -8.4414,-6.375 -7.8946,-10.528 0.5469,-4.234 5.5469,-5.39 5.2422,-8.343 -0.2539,-2.524 -4.8164,-1.801 -8.5859,-5.59 -2.6328,-2.649 -4.7383,-7.215 -3.9063,-11.399 1.0821,-5.418 6.3204,-6.273 5.9571,-10.453 -0.1485,-1.761 -1.0938,-1.773 -4.4532,-7.445 -1.9804,-3.34 -2.9726,-5.008 -3.0273,-6.043 -0.2383,-4.547 5.7539,-6.281 9.2344,-12.02 1.1719,-1.918 0.582,-8.332 1.2929,-13.121 0,0 1.0743,-3.148 4.6016,-5.257" /><path
         id="path146"
         style="fill:#c38a31;fill-opacity:1;fill-rule:evenodd;stroke:none"
         d="m 87.3672,918.293 c -0.4024,-4.051 12.4101,-15.262 16.5038,-16.188 5.508,-1.25 7.399,3.958 13.57,4.305 10.329,0.586 16.633,-12.418 22.594,-9.875 2.649,1.129 1.774,3.852 5.621,6.051 4.469,2.562 7.969,0.227 10.149,2.555 2.769,2.964 -1.301,8.406 0.992,10.445 2.57,2.285 8.394,-3.945 17.129,-2.453 0.601,0.101 6.898,1.246 7.633,4.5 0.738,3.265 -4.727,5.957 -3.778,8.527 0.758,2.055 4.465,0.926 8.196,3.668 2.613,1.922 4.902,5.504 4.734,9.535 -0.207,4.977 -4.109,9.535 -9.035,10.598 -3.196,0.687 -4.832,-1.949 -7.172,-0.856 -2.418,1.129 -1.57,3.965 -4.008,6.708 -3.047,3.417 -9.48,4.761 -13.047,2.484 -3.629,-2.313 -2.519,-7.258 -5.347,-8.266 -2.426,-0.855 -3.739,3.512 -8.832,5.235 -3.559,1.203 -8.645,1.105 -12.106,-1.442 -4.488,-3.301 -3.004,-8.328 -6.98,-9.808 -1.676,-0.621 -2.094,0.211 -8.735,0.757 -3.914,0.321 -5.867,0.481 -6.836,0.086 -4.258,-1.754 -3.254,-7.828 -6.992,-13.398 -1.25,-1.867 -7.3593,-4.106 -11.4413,-6.813 0,0 -2.4102,-2.312 -2.8125,-6.355" /><path
         id="path148"
         style="fill:#c38a31;fill-opacity:1;fill-rule:evenodd;stroke:none"
         d="m 109.297,1003.39 c 2.445,-2.04 12.969,-0.1 19.016,2.18 -5.657,3.19 -16.239,16.3 -14.782,21.87 0.735,2.8 2.578,5.9 5,7.61 l 0.242,0.17 0.286,0.14 c 2.296,1.04 10.261,3.33 11.355,4.2 3.914,4.23 4.316,11.58 10.602,13.07 2.211,0.53 6.054,-0.62 8.257,-1.15 1.84,-0.45 5.559,-1.89 7.098,-2.09 0.559,0.11 1.289,1.33 2.289,2.84 -1.586,3.12 -7.496,3.16 -7.871,5.95 -0.461,3.39 8.035,4.57 11.727,12.51 0.254,0.54 2.859,6.3 0.55,8.76 -2.304,2.46 -7.64,-0.44 -9.257,1.79 -1.282,1.79 1.754,4.16 1.566,8.74 -0.121,3.22 -1.824,7.13 -5.285,9.29 -4.277,2.67 -10.285,2.1 -13.957,-1.29 -2.379,-2.2 -1.098,-5.03 -3.34,-6.31 -2.305,-1.32 -4.199,0.99 -7.863,0.57 -4.575,-0.52 -9.332,-4.97 -9.45,-9.16 -0.117,-4.27 4.641,-6.19 3.879,-9.06 -0.644,-2.45 -5.043,-1.02 -9.359,-4.18 -3.016,-2.2 -5.809,-6.38 -5.637,-10.64 0.219,-5.53 5.262,-7.19 4.246,-11.26 -0.421,-1.72 -1.359,-1.58 -5.562,-6.65 -2.481,-3 -3.7228,-4.49 -3.9376,-5.51 -0.9453,-4.45 4.6996,-7.1 7.2426,-13.31 0.855,-2.08 -0.731,-8.32 -0.778,-13.17 0,0 0.571,-3.27 3.723,-5.91" /><path
         id="path150"
         style="fill:#c38a31;fill-opacity:1;fill-rule:evenodd;stroke:none"
         d="m 116.637,1026.63 c -1.028,-3.93 9.871,-17 13.769,-18.56 5.242,-2.1 7.926,2.75 14.074,2.13 10.297,-1.04 14.485,-14.872 20.774,-13.294 2.793,0.703 2.351,3.524 6.5,5.104 4.812,1.83 7.902,-1.03 10.422,0.93 3.199,2.49 0.031,8.51 2.613,10.16 2.895,1.86 7.676,-5.21 16.535,-5.1 0.61,0.01 7.008,0.15 8.242,3.25 1.243,3.11 -3.734,6.62 -2.398,9.02 1.074,1.91 4.559,0.21 8.668,2.34 2.883,1.48 5.707,4.66 6.172,8.68 0.57,4.94 -2.57,10.05 -7.27,11.87 -3.047,1.18 -5.074,-1.16 -7.218,0.28 -2.211,1.49 -0.93,4.16 -2.911,7.25 -2.468,3.85 -8.617,6.19 -12.492,4.49 -3.949,-1.71 -3.629,-6.77 -6.574,-7.32 -2.531,-0.47 -3.141,4.05 -7.91,6.55 -3.324,1.75 -8.363,2.44 -12.18,0.47 -4.949,-2.56 -4.269,-7.75 -8.43,-8.59 -1.753,-0.36 -2.035,0.53 -8.507,2.1 -3.809,0.93 -5.719,1.4 -6.739,1.16 -4.48,-1.06 -4.437,-7.22 -9,-12.14 -1.527,-1.64 -7.914,-2.9 -12.363,-4.93 0,0 -2.746,-1.91 -3.777,-5.85" /><path
         id="path152"
         style="fill:#c38a31;fill-opacity:1;fill-rule:evenodd;stroke:none"
         d="m 151.609,1107.26 c 2.098,-2.4 12.797,-2.13 19.125,-0.83 -5.089,4.03 -13.492,18.65 -11.179,23.92 1.164,2.65 3.468,5.42 6.129,6.73 l 0.265,0.14 0.301,0.08 c 2.43,0.68 10.66,1.7 11.871,2.38 4.531,3.56 6.078,10.76 12.52,11.25 2.269,0.18 5.886,-1.56 7.976,-2.43 1.742,-0.73 5.192,-2.73 6.684,-3.17 0.566,0.02 1.476,1.11 2.703,2.44 -1.078,3.33 -6.906,4.29 -6.84,7.11 0.074,3.42 8.649,3.26 13.535,10.52 0.336,0.5 3.813,5.78 1.918,8.56 -1.894,2.79 -7.621,0.77 -8.863,3.22 -0.988,1.98 2.379,3.84 2.914,8.39 0.383,3.2 -0.688,7.32 -3.77,10 -3.804,3.31 -9.832,3.69 -13.984,0.91 -2.699,-1.8 -1.875,-4.8 -4.289,-5.71 -2.48,-0.94 -3.992,1.64 -7.68,1.8 -4.593,0.2 -9.992,-3.46 -10.761,-7.57 -0.782,-4.2 3.613,-6.84 2.41,-9.56 -1.02,-2.31 -5.137,-0.22 -9.891,-2.66 -3.324,-1.71 -6.738,-5.4 -7.238,-9.63 -0.645,-5.49 4.074,-7.92 2.437,-11.79 -0.687,-1.63 -1.593,-1.34 -6.539,-5.7 -2.918,-2.57 -4.375,-3.85 -4.746,-4.82 -1.633,-4.25 3.531,-7.75 5.067,-14.28 0.519,-2.18 -2.024,-8.1 -2.825,-12.88 0,0 0.051,-3.32 2.75,-6.42" /><path
         id="path154"
         style="fill:#c38a31;fill-opacity:1;fill-rule:evenodd;stroke:none"
         d="m 162.496,1129.07 c -1.633,-3.73 7.09,-18.35 10.695,-20.5 4.848,-2.89 8.258,1.48 14.235,-0.09 10.004,-2.64 11.98,-16.96 18.437,-16.38 2.871,0.26 2.875,3.11 7.215,4.02 5.043,1.06 7.649,-2.25 10.445,-0.71 3.547,1.97 1.36,8.4 4.165,9.63 3.152,1.38 6.769,-6.34 15.539,-7.63 0.601,-0.09 6.945,-0.95 8.648,1.93 1.711,2.87 -2.652,7.12 -0.957,9.27 1.355,1.72 4.535,-0.5 8.926,0.96 3.082,1.02 6.367,3.72 7.453,7.61 1.34,4.79 -0.965,10.33 -5.324,12.87 -2.821,1.64 -5.196,-0.37 -7.082,1.4 -1.95,1.82 -0.27,4.25 -1.743,7.61 -1.835,4.19 -7.543,7.46 -11.636,6.4 -4.168,-1.08 -4.641,-6.13 -7.641,-6.21 -2.57,-0.07 -2.469,4.5 -6.785,7.71 -3.012,2.24 -7.879,3.72 -11.953,2.37 -5.293,-1.76 -5.434,-6.99 -9.672,-7.17 -1.785,-0.07 -1.926,0.84 -8.074,3.41 -3.621,1.52 -5.43,2.28 -6.473,2.2 -4.594,-0.35 -5.516,-6.44 -10.793,-10.58 -1.766,-1.39 -8.269,-1.64 -12.98,-2.94 0,0 -3.008,-1.46 -4.645,-5.18" /><path
         id="path156"
         style="fill:#c38a31;fill-opacity:1;fill-rule:evenodd;stroke:none"
         d="m 209.652,1203.23 c 1.696,-2.7 12.301,-4.1 18.754,-3.81 -4.39,4.78 -10.402,20.52 -7.297,25.37 1.567,2.44 4.274,4.82 7.106,5.69 l 0.285,0.09 0.313,0.04 c 2.503,0.28 10.789,0 12.097,0.49 5.028,2.81 7.684,9.68 14.121,9.16 2.266,-0.19 5.571,-2.47 7.5,-3.65 1.61,-1 4.703,-3.52 6.106,-4.18 0.562,-0.07 1.633,0.86 3.051,1.99 -0.547,3.46 -6.149,5.32 -5.645,8.09 0.609,3.37 9.055,1.87 15.016,8.28 0.41,0.43 4.671,5.1 3.234,8.15 -1.434,3.05 -7.406,1.95 -8.25,4.57 -0.668,2.1 2.949,3.41 4.191,7.83 0.875,3.1 0.465,7.34 -2.16,10.46 -3.242,3.86 -9.136,5.18 -13.672,3.09 -2.945,-1.35 -2.601,-4.44 -5.125,-4.96 -2.601,-0.55 -3.687,2.23 -7.304,2.97 -4.508,0.92 -10.414,-1.85 -11.817,-5.8 -1.429,-4.02 2.5,-7.32 0.887,-9.81 -1.367,-2.13 -5.109,0.58 -10.188,-1.09 -3.55,-1.16 -7.496,-4.27 -8.652,-8.38 -1.5,-5.32 2.781,-8.46 0.559,-12.02 -0.93,-1.5 -1.778,-1.08 -7.348,-4.6 -3.281,-2.08 -4.926,-3.12 -5.445,-4.02 -2.274,-3.94 2.277,-8.21 2.773,-14.9 0.172,-2.24 -3.265,-7.69 -4.804,-12.28 0,0 -0.469,-3.29 1.714,-6.77" /><path
         id="path158"
         style="fill:#c38a31;fill-opacity:1;fill-rule:evenodd;stroke:none"
         d="m 223.816,1223.06 c -2.199,-3.42 4.133,-19.23 7.356,-21.91 4.34,-3.61 8.391,0.17 14.043,-2.32 9.473,-4.17 9.183,-18.62 15.652,-19.06 2.871,-0.2 3.324,2.62 7.754,2.84 5.145,0.25 7.199,-3.42 10.203,-2.33 3.809,1.38 2.66,8.08 5.621,8.85 3.332,0.87 5.696,-7.32 14.153,-9.96 0.582,-0.18 6.711,-2.02 8.843,0.54 2.141,2.58 -1.507,7.46 0.504,9.32 1.61,1.49 4.403,-1.2 8.969,-0.46 3.199,0.53 6.867,2.69 8.547,6.36 2.074,4.52 0.668,10.36 -3.242,13.54 -2.531,2.06 -5.188,0.46 -6.774,2.49 -1.644,2.1 0.399,4.25 -0.531,7.79 -1.16,4.43 -6.285,8.55 -10.492,8.14 -4.285,-0.41 -5.543,-5.32 -8.52,-4.93 -2.547,0.33 -1.734,4.83 -5.496,8.67 -2.621,2.69 -7.199,4.91 -11.433,4.21 -5.504,-0.9 -6.461,-6.05 -10.676,-5.57 -1.777,0.21 -1.77,1.14 -7.438,4.64 -3.339,2.06 -5.011,3.09 -6.054,3.18 -4.59,0.37 -6.45,-5.49 -12.309,-8.76 -1.961,-1.1 -8.43,-0.32 -13.289,-0.88 0,0 -3.195,-0.96 -5.391,-4.39" /><path
         id="path160"
         style="fill:#c38a31;fill-opacity:1;fill-rule:evenodd;stroke:none"
         d="m 281.988,1288.94 c 1.254,-2.94 11.512,-5.98 17.93,-6.7 -3.59,5.41 -7.066,21.9 -3.234,26.2 1.921,2.16 4.968,4.09 7.906,4.51 l 0.297,0.04 0.308,-0.01 c 2.524,-0.11 10.664,-1.68 12.032,-1.4 5.402,1.98 9.101,8.35 15.378,6.83 2.208,-0.54 5.118,-3.3 6.836,-4.78 1.43,-1.24 4.094,-4.2 5.375,-5.08 0.547,-0.16 1.75,0.6 3.325,1.49 0.004,3.5 -5.239,6.21 -4.309,8.87 1.129,3.23 9.238,0.43 16.129,5.82 0.469,0.37 5.41,4.32 4.465,7.56 -0.938,3.23 -7.008,3.08 -7.43,5.8 -0.336,2.18 3.445,2.91 5.363,7.08 1.348,2.92 1.606,7.17 -0.5,10.67 -2.593,4.32 -8.211,6.54 -13.015,5.19 -3.121,-0.88 -3.266,-3.99 -5.84,-4.1 -2.652,-0.14 -3.293,2.78 -6.75,4.07 -4.313,1.62 -10.574,-0.2 -12.578,-3.87 -2.043,-3.75 1.324,-7.62 -0.656,-9.83 -1.692,-1.89 -4.957,1.37 -10.239,0.52 -3.687,-0.6 -8.07,-3.05 -9.855,-6.93 -2.313,-5.01 1.426,-8.78 -1.324,-11.96 -1.157,-1.33 -1.93,-0.79 -7.981,-3.39 -3.566,-1.54 -5.348,-2.31 -6.004,-3.12 -2.863,-3.54 0.965,-8.46 0.406,-15.15 -0.179,-2.24 -4.425,-7.08 -6.664,-11.38 0,0 -0.98,-3.17 0.629,-6.95" /><path
         id="path162"
         style="fill:#c38a31;fill-opacity:1;fill-rule:evenodd;stroke:none"
         d="m 299.082,1306.31 c -2.703,-3.04 1.074,-19.64 3.836,-22.79 3.723,-4.25 8.312,-1.15 13.512,-4.49 8.699,-5.6 6.156,-19.83 12.472,-21.28 2.809,-0.64 3.7,2.08 8.11,1.6 5.117,-0.56 6.574,-4.51 9.711,-3.9 3.976,0.76 3.886,7.56 6.937,7.86 3.422,0.34 4.473,-8.12 12.418,-12.05 0.547,-0.27 6.313,-3.05 8.82,-0.85 2.516,2.21 -0.324,7.6 1.957,9.13 1.821,1.21 4.157,-1.88 8.786,-1.86 3.242,0.02 7.203,1.58 9.437,4.94 2.754,4.14 2.277,10.13 -1.086,13.88 -2.176,2.43 -5.051,1.27 -6.301,3.53 -1.296,2.33 1.059,4.12 0.696,7.77 -0.453,4.56 -4.871,9.43 -9.094,9.68 -4.297,0.27 -6.305,-4.39 -9.184,-3.54 -2.464,0.73 -0.957,5.04 -4.07,9.43 -2.172,3.06 -6.344,5.97 -10.637,5.94 -5.574,-0.03 -7.328,-4.97 -11.414,-3.83 -1.722,0.48 -1.57,1.4 -6.625,5.75 -2.972,2.56 -4.461,3.84 -5.476,4.09 -4.477,1.08 -7.231,-4.42 -13.532,-6.73 -2.109,-0.78 -8.375,1 -13.257,1.21 0,0 -3.309,-0.45 -6.016,-3.49" /><path
         id="path164"
         style="fill:#c38a31;fill-opacity:1;fill-rule:evenodd;stroke:none"
         d="m 366.848,1362.27 c 0.777,-3.09 10.433,-7.7 16.66,-9.41 -2.703,5.89 -3.555,22.73 0.902,26.37 2.238,1.84 5.547,3.27 8.512,3.22 h 0.301 l 0.304,-0.06 c 2.473,-0.5 10.266,-3.33 11.661,-3.27 5.652,1.11 10.3,6.83 16.261,4.34 2.098,-0.87 4.535,-4.06 6,-5.78 1.223,-1.45 3.387,-4.8 4.52,-5.86 0.515,-0.24 1.82,0.31 3.515,0.94 0.551,3.46 -4.203,6.96 -2.867,9.45 1.617,3.01 9.188,-1.03 16.84,3.22 0.523,0.3 6.02,3.42 5.594,6.76 -0.422,3.35 -6.442,4.14 -6.434,6.9 0.012,2.2 3.856,2.33 6.403,6.15 1.793,2.67 2.71,6.83 1.179,10.62 -1.886,4.67 -7.086,7.75 -12.043,7.16 -3.222,-0.38 -3.851,-3.43 -6.414,-3.14 -2.64,0.28 -2.812,3.27 -6.027,5.08 -4.004,2.27 -10.477,1.46 -13.031,-1.86 -2.602,-3.38 0.117,-7.73 -2.188,-9.6 -1.961,-1.61 -4.68,2.13 -10.023,2.11 -3.739,-0.01 -8.453,-1.75 -10.821,-5.29 -3.07,-4.6 0.032,-8.91 -3.183,-11.61 -1.348,-1.14 -2.024,-0.48 -8.41,-2.11 -3.762,-0.97 -5.645,-1.44 -6.418,-2.14 -3.379,-3.04 -0.371,-8.51 -1.969,-15.03 -0.527,-2.18 -5.481,-6.3 -8.363,-10.19 0,0 -1.465,-2.98 -0.461,-6.97" /><path
         id="path166"
         style="fill:#c38a31;fill-opacity:1;fill-rule:evenodd;stroke:none"
         d="m 386.445,1376.76 c -3.144,-2.58 -2.011,-19.56 0.227,-23.12 3.008,-4.77 8.027,-2.43 12.637,-6.55 7.718,-6.89 2.98,-20.54 8.996,-22.96 2.672,-1.07 3.972,1.48 8.254,0.31 4.968,-1.35 5.793,-5.48 8.98,-5.37 4.055,0.14 5.027,6.86 8.086,6.68 3.434,-0.2 3.148,-8.72 10.383,-13.84 0.496,-0.36 5.754,-4 8.574,-2.22 2.836,1.79 0.871,7.55 3.363,8.7 1.985,0.92 3.813,-2.5 8.383,-3.2 3.211,-0.49 7.363,0.43 10.094,3.4 3.371,3.66 3.832,9.64 1.105,13.88 -1.773,2.74 -4.797,2.03 -5.675,4.46 -0.914,2.51 1.691,3.92 1.902,7.58 0.269,4.57 -3.336,10.07 -7.465,10.98 -4.199,0.93 -6.918,-3.35 -9.625,-2.06 -2.32,1.11 -0.16,5.12 -2.547,9.95 -1.664,3.36 -5.328,6.89 -9.574,7.54 -5.512,0.83 -8.016,-3.77 -11.875,-2 -1.625,0.74 -1.332,1.63 -5.641,6.71 -2.539,2.99 -3.808,4.49 -4.773,4.89 -4.25,1.78 -7.832,-3.23 -14.418,-4.53 -2.203,-0.43 -8.109,2.31 -12.902,3.28 0,0 -3.34,0.07 -6.489,-2.51" /><path
         id="path168"
         style="fill:#c38a31;fill-opacity:1;fill-rule:evenodd;stroke:none"
         d="m 462.129,1421.43 c 0.285,-3.18 9.098,-9.24 14.984,-11.91 -1.746,6.25 0.043,23.01 5.016,25.92 2.5,1.46 5.992,2.35 8.914,1.85 l 0.293,-0.06 0.293,-0.1 c 2.363,-0.89 9.621,-4.9 11.004,-5.06 5.758,0.22 11.242,5.14 16.742,1.75 1.938,-1.19 3.844,-4.72 5.023,-6.66 0.981,-1.62 2.594,-5.26 3.543,-6.49 0.473,-0.32 1.848,0.03 3.622,0.38 1.085,3.33 -3.063,7.54 -1.356,9.78 2.074,2.72 8.918,-2.45 17.137,0.55 0.562,0.21 6.48,2.44 6.586,5.8 0.105,3.37 -5.719,5.1 -5.278,7.82 0.356,2.18 4.176,1.7 7.289,5.08 2.184,2.36 3.747,6.32 2.825,10.3 -1.133,4.91 -5.786,8.76 -10.778,8.96 -3.238,0.12 -4.336,-2.79 -6.824,-2.1 -2.562,0.69 -2.269,3.67 -5.16,5.96 -3.598,2.87 -10.117,3.09 -13.156,0.2 -3.102,-2.94 -1.098,-7.66 -3.664,-9.15 -2.192,-1.27 -4.289,2.84 -9.571,3.66 -3.695,0.58 -8.621,-0.4 -11.515,-3.53 -3.75,-4.06 -1.36,-8.81 -4.957,-10.97 -1.512,-0.91 -2.078,-0.16 -8.641,-0.77 -3.867,-0.36 -5.801,-0.54 -6.672,-1.1 -3.816,-2.48 -1.699,-8.35 -4.297,-14.54 -0.863,-2.07 -6.394,-5.36 -9.855,-8.76 0,0 -1.914,-2.72 -1.547,-6.81" /><path
         id="path170"
         style="fill:#c38a31;fill-opacity:1;fill-rule:evenodd;stroke:none"
         d="m 483.754,1432.67 c -3.512,-2.05 -5.047,-19.01 -3.395,-22.86 2.227,-5.19 7.551,-3.66 11.461,-8.45 6.543,-8.01 -0.273,-20.75 5.289,-24.08 2.473,-1.48 4.157,0.83 8.204,-0.99 4.695,-2.11 4.863,-6.32 8.031,-6.72 4.019,-0.49 6.035,6 9.027,5.34 3.363,-0.73 1.75,-9.11 8.09,-15.3 0.434,-0.42 5.059,-4.84 8.125,-3.53 3.074,1.32 2.039,7.33 4.68,8.07 2.105,0.6 3.375,-3.07 7.781,-4.47 3.094,-0.98 7.34,-0.73 10.5,1.77 3.906,3.09 5.297,8.93 3.262,13.54 -1.321,2.99 -4.418,2.76 -4.907,5.3 -0.507,2.62 2.286,3.6 3.067,7.19 0.976,4.47 -1.719,10.47 -5.656,12.01 -4.004,1.58 -7.356,-2.23 -9.829,-0.53 -2.117,1.46 0.641,5.09 -0.961,10.22 -1.117,3.59 -4.183,7.64 -8.277,8.95 -5.312,1.69 -8.504,-2.47 -12.039,-0.12 -1.488,0.99 -1.062,1.82 -4.523,7.51 -2.039,3.36 -3.059,5.03 -3.95,5.58 -3.918,2.42 -8.246,-1.97 -14.949,-2.22 -2.242,-0.08 -7.648,3.55 -12.234,5.26 0,0 -3.285,0.59 -6.797,-1.47" /><path
         id="path172"
         style="fill:#c38a31;fill-opacity:1;fill-rule:evenodd;stroke:none"
         d="m 565.496,1464.95 c -0.219,-3.18 7.543,-10.55 12.934,-14.1 -0.742,6.45 3.644,22.72 9.008,24.81 2.699,1.05 6.285,1.39 9.097,0.43 l 0.281,-0.09 0.27,-0.16 c 2.199,-1.24 8.738,-6.34 10.082,-6.71 5.715,-0.68 11.902,3.32 16.805,-0.9 1.722,-1.48 3.058,-5.26 3.918,-7.35 0.718,-1.76 1.742,-5.61 2.484,-6.97 0.418,-0.39 1.832,-0.27 3.641,-0.19 1.589,3.12 -1.852,7.92 0.191,9.87 2.473,2.37 8.422,-3.82 17.012,-2.13 0.586,0.11 6.781,1.39 7.406,4.7 0.633,3.3 -4.848,5.92 -3.988,8.54 0.691,2.09 4.39,1.03 7.996,3.87 2.527,1.99 4.687,5.66 4.402,9.74 -0.355,5.02 -4.347,9.55 -9.246,10.53 -3.18,0.63 -4.719,-2.07 -7.066,-1 -2.422,1.08 -1.668,3.97 -4.164,6.7 -3.106,3.39 -9.508,4.62 -12.965,2.25 -3.52,-2.41 -2.278,-7.39 -5.047,-8.46 -2.367,-0.92 -3.793,3.47 -8.883,5.11 -3.559,1.15 -8.582,0.95 -11.926,-1.69 -4.343,-3.43 -2.718,-8.48 -6.613,-10.06 -1.637,-0.66 -2.074,0.17 -8.652,0.59 -3.879,0.25 -5.817,0.38 -6.766,-0.05 -4.156,-1.85 -2.98,-7.97 -6.516,-13.68 -1.175,-1.91 -7.156,-4.3 -11.101,-7.11 0,0 -2.317,-2.39 -2.594,-6.49" /><path
         id="path174"
         style="fill:#c38a31;fill-opacity:1;fill-rule:evenodd;stroke:none"
         d="m 588.609,1472.68 c -3.785,-1.48 -7.957,-17.99 -6.925,-22.05 1.386,-5.48 6.882,-4.8 9.996,-10.14 5.207,-8.94 -3.516,-20.46 1.457,-24.61 2.211,-1.86 4.234,0.16 7.945,-2.27 4.309,-2.82 3.816,-7 6.883,-7.88 3.894,-1.12 6.902,4.97 9.754,3.86 3.203,-1.25 0.297,-9.27 5.594,-16.38 0.363,-0.49 4.242,-5.58 7.476,-4.76 3.242,0.83 3.16,6.92 5.879,7.24 2.176,0.26 2.855,-3.56 6.988,-5.64 2.903,-1.45 7.137,-1.87 10.649,0.11 4.34,2.45 6.629,8 5.34,12.87 -0.836,3.15 -3.93,3.42 -4.016,6 -0.094,2.66 2.816,3.2 4.152,6.61 1.664,4.27 -0.058,10.61 -3.707,12.75 -3.711,2.19 -7.617,-1.04 -9.793,1.02 -1.863,1.77 1.434,4.92 0.653,10.24 -0.543,3.72 -2.942,8.21 -6.778,10.14 -4.98,2.5 -8.785,-1.11 -11.91,1.76 -1.312,1.22 -0.762,1.97 -3.293,8.13 -1.488,3.63 -2.23,5.45 -3.027,6.12 -3.492,3.01 -8.446,-0.65 -15.11,0.16 -2.23,0.26 -7.003,4.69 -11.261,7.1 0,0 -3.153,1.1 -6.946,-0.38" /><path
         id="path176"
         style="fill:#c38a31;fill-opacity:1;fill-rule:evenodd;stroke:none"
         d="m 681.902,1441.08 c 0.301,-3.67 13.387,-11.6 17.137,-11.78 5.047,-0.23 5.867,4.71 11.242,6 8.996,2.17 16.641,-8.4 21.481,-5.18 2.148,1.43 0.933,3.71 3.965,6.29 3.519,2.99 6.976,1.47 8.519,3.89 1.953,3.08 -2.504,7.28 -0.816,9.46 1.89,2.44 8.023,-2.17 15.465,0.55 0.515,0.19 5.871,2.21 5.992,5.23 0.121,3.02 -5.121,4.54 -4.703,6.99 0.336,1.95 3.781,1.54 6.617,4.57 1.988,2.13 3.426,5.69 2.625,9.25 -0.985,4.4 -5.156,7.83 -9.664,7.99 -2.922,0.11 -3.934,-2.51 -6.172,-1.91 -2.309,0.62 -2.02,3.28 -4.61,5.33 -3.23,2.56 -9.113,2.73 -11.878,0.13 -2.821,-2.64 -1.047,-6.86 -3.372,-8.21 -1.992,-1.15 -3.855,2.53 -8.621,3.25 -3.324,0.5 -7.781,-0.4 -10.414,-3.22 -3.418,-3.66 -1.297,-7.89 -4.558,-9.85 -1.375,-0.82 -1.875,-0.14 -7.805,-0.72 -3.496,-0.34 -5.242,-0.5 -6.031,-1.01 -3.465,-2.24 -1.598,-7.49 -3.988,-13.05 -0.797,-1.86 -5.813,-4.83 -8.961,-7.89 0,0 -1.75,-2.44 -1.45,-6.11" /><path
         id="path178"
         style="fill:#c38a31;fill-opacity:1;fill-rule:evenodd;stroke:none"
         d="m 946.324,174.34 c 3.707,-11.469 5.344,-31.383 -8.429,-51.953 -1.622,-2.274 -3.282,-4.528 -4.977,-6.707 -7.832,1.039 -15.684,0.461 -23.781,-1.442 -2.453,-0.578 -4.957,-1.265 -7.449,-2.062 4.507,12.418 11.449,22.722 17.074,29.793 -7.832,-6.676 -19.489,-17.821 -27.914,-32.621 -0.399,-0.653 -0.774,-1.305 -1.125,-1.973 -2.332,-1.16 -4.575,-2.437 -6.676,-3.824 -0.039,1.539 -0.024,3.086 0.043,4.633 1.07,18.91 11.738,35.023 24.105,48.507 6.075,6.954 13.067,11.754 19.418,16.02 6.325,4.203 12.168,7.496 16.426,9.711 0.926,-1.777 2.172,-4.535 3.285,-8.082 z m -49.383,-85.5587 0.004,0.25 0.871,-0.2891 z m -12.449,5.1523 -0.273,-0.8906 -0.219,1.1133 0.492,-0.2227" /><path
         id="path180"
         style="fill:#c38a31;fill-opacity:1;fill-rule:evenodd;stroke:none"
         d="m 979.539,81.7188 c -6.402,-3.9844 -13.027,-6.9219 -19.867,-8.9063 -6.926,-1.9336 -13.117,-4.1602 -19.973,-4.7266 -13.461,-1.4609 -27.687,0.9063 -40.097,5.9805 -6.098,2.6719 -11.985,6.3359 -17.411,10.9805 6.727,-1.2696 14.454,-1.7188 23.926,-1.8985 16,-0.5156 28.586,2.1641 36.238,4.4532 -8.792,-0.3438 -22.32,0.2578 -38.195,4.7578 -7.051,1.9726 -13.387,4.5508 -18.211,6.7422 6.188,4.0934 14.828,7.6484 24.406,9.9644 9.641,2.204 20.34,2.942 32.262,-1.101 17.922,-5.668 29.571,-17.0939 36.922,-26.2462" /><path
         id="path182"
         style="fill:#c38a31;fill-opacity:1;fill-rule:evenodd;stroke:none"
         d="m 1038.63,206.156 c 5.46,-10.742 10.19,-30.156 -0.2,-52.625 -1.24,-2.504 -2.53,-4.992 -3.86,-7.406 -7.9,-0.199 -15.56,-2 -23.26,-5.145 -2.34,-0.953 -4.7,-2.027 -7.04,-3.203 2.51,12.973 7.75,24.235 12.2,32.102 -6.69,-7.82 -16.45,-20.656 -22.466,-36.59 -0.289,-0.703 -0.555,-1.41 -0.801,-2.125 -2.121,-1.508 -4.137,-3.125 -5.996,-4.824 -0.277,1.515 -0.504,3.043 -0.68,4.586 -1.906,18.844 6.114,36.429 16.223,51.679 4.91,7.817 11.06,13.657 16.67,18.864 5.59,5.14 10.85,9.304 14.71,12.16 1.19,-1.613 2.85,-4.141 4.5,-7.473 z m -35.39,-92.226 -0.03,0.246 0.9,-0.149 z m -13.095,3.14 -0.133,-0.922 -0.391,1.063 0.524,-0.141" /><path
         id="path184"
         style="fill:#c38a31;fill-opacity:1;fill-rule:evenodd;stroke:none"
         d="m 1085.93,119.875 c -5.7,-4.937 -11.79,-8.875 -18.23,-11.902 -6.54,-2.996 -12.31,-6.164 -18.99,-7.793 -13.07,-3.5511 -27.49,-3.4378 -40.54,-0.3714 -6.44,1.6874 -12.826,4.3864 -18.916,8.1214 6.848,-0.2 14.546,0.566 23.936,1.871 15.88,1.992 27.89,6.605 35.09,10.066 -8.63,-1.715 -22.08,-3.234 -38.47,-1.277 -7.27,0.851 -13.931,2.402 -19.037,3.816 5.469,5.008 13.447,9.871 22.547,13.657 9.17,3.683 19.63,6.089 32.03,3.96 18.6,-2.796 31.88,-12.257 40.58,-20.148" /><path
         id="path186"
         style="fill:#c38a31;fill-opacity:1;fill-rule:evenodd;stroke:none"
         d="m 1124.83,252.023 c 7.06,-9.753 14.78,-28.191 8.03,-52.011 -0.83,-2.664 -1.72,-5.321 -2.66,-7.914 -7.77,-1.434 -15.06,-4.41 -22.16,-8.723 -2.16,-1.309 -4.33,-2.738 -6.46,-4.262 0.46,13.203 3.87,25.149 7.04,33.614 -5.39,-8.77 -13.03,-22.977 -16.47,-39.653 -0.18,-0.742 -0.33,-1.48 -0.46,-2.226 -1.86,-1.821 -3.6,-3.731 -5.17,-5.703 -0.51,1.457 -0.97,2.929 -1.39,4.425 -4.83,18.313 0.34,36.938 7.94,53.582 3.63,8.485 8.79,15.215 13.52,21.239 4.71,5.949 9.25,10.886 12.62,14.308 1.43,-1.406 3.47,-3.644 5.62,-6.676 z m -20.53,-96.628 -0.07,0.242 0.91,-0.008 z m -13.42,1.054 v -0.929 l -0.54,0.988 0.54,-0.059" /><path
         id="path188"
         style="fill:#c38a31;fill-opacity:1;fill-rule:evenodd;stroke:none"
         d="m 1185.04,174.207 c -4.86,-5.773 -10.25,-10.613 -16.14,-14.609 -5.99,-3.981 -11.2,-8.016 -17.54,-10.668 -12.35,-5.551 -26.61,-7.7 -39.98,-6.707 -6.63,0.656 -13.36,2.324 -19.96,5.062 6.8,0.871 14.28,2.836 23.35,5.59 15.37,4.449 26.52,10.887 33.09,15.434 -8.26,-3.047 -21.31,-6.653 -37.8,-7.282 -7.31,-0.297 -14.13,0.192 -19.4,0.789 4.62,5.801 11.73,11.852 20.13,17.016 8.49,5.078 18.44,9.086 31.02,8.922 18.8,0.148 33.41,-7.117 43.23,-13.547" /><path
         id="path190"
         style="fill:#c38a31;fill-opacity:1;fill-rule:evenodd;stroke:none"
         d="m 1202.79,310.813 c 8.5,-8.532 19.01,-25.536 16.07,-50.114 -0.41,-2.765 -0.86,-5.523 -1.39,-8.234 -7.45,-2.633 -14.18,-6.715 -20.53,-12.086 -1.92,-1.629 -3.84,-3.379 -5.71,-5.219 -1.61,13.113 -0.1,25.445 1.69,34.301 -3.94,-9.504 -9.27,-24.731 -10.06,-41.738 -0.06,-0.762 -0.09,-1.516 -0.11,-2.274 -1.55,-2.09 -2.96,-4.246 -4.21,-6.437 -0.73,1.351 -1.42,2.738 -2.06,4.152 -7.63,17.328 -5.44,36.535 -0.55,54.16 2.26,8.953 6.31,16.406 10.03,23.09 3.73,6.617 7.45,12.203 10.23,16.109 1.63,-1.164 4,-3.054 6.6,-5.71 z m -5.16,-98.653 -0.11,0.227 0.91,0.136 z m -13.43,-1.058 0.16,-0.918 -0.7,0.89 0.54,0.028" /><path
         id="path192"
         style="fill:#c38a31;fill-opacity:1;fill-rule:evenodd;stroke:none"
         d="m 1274.43,243.367 c -3.89,-6.457 -8.47,-12.082 -13.66,-16.953 -5.29,-4.867 -9.8,-9.664 -15.65,-13.277 -11.33,-7.414 -25.08,-11.766 -38.44,-12.879 -6.65,-0.387 -13.55,0.203 -20.5,1.879 6.57,1.922 13.66,5.031 22.18,9.172 14.49,6.804 24.49,14.902 30.27,20.418 -7.68,-4.297 -20.01,-9.903 -36.19,-13.102 -7.18,-1.441 -14,-2.023 -19.29,-2.258 3.65,6.457 9.74,13.543 17.22,19.957 7.59,6.344 16.79,11.856 29.24,13.664 18.55,3.09 34.11,-1.804 44.82,-6.621" /><path
         id="path194"
         style="fill:#c38a31;fill-opacity:1;fill-rule:evenodd;stroke:none"
         d="m 1270.59,381.074 c 9.74,-7.101 22.77,-22.25 23.71,-46.984 0.03,-2.793 0.01,-5.594 -0.08,-8.352 -6.95,-3.765 -12.96,-8.847 -18.39,-15.148 -1.64,-1.91 -3.26,-3.938 -4.81,-6.047 -3.66,12.699 -4.1,25.113 -3.7,34.145 -2.41,-10.008 -5.29,-25.875 -3.41,-42.801 0.06,-0.762 0.14,-1.512 0.25,-2.262 -1.21,-2.305 -2.27,-4.66 -3.16,-7.016 -0.93,1.219 -1.83,2.481 -2.68,3.778 -10.25,15.922 -11.09,35.234 -9.01,53.41 0.83,9.191 3.65,17.187 6.29,24.375 2.65,7.117 5.44,13.215 7.58,17.508 1.8,-0.895 4.43,-2.391 7.41,-4.606 z m 10.34,-98.246 -0.14,0.207 0.87,0.274 z m -13.1,-3.148 0.3,-0.883 -0.83,0.773 0.53,0.11" /><path
         id="path196"
         style="fill:#c38a31;fill-opacity:1;fill-rule:evenodd;stroke:none"
         d="m 1351.9,325.668 c -2.84,-6.992 -6.47,-13.262 -10.83,-18.887 -4.48,-5.633 -8.18,-11.078 -13.39,-15.562 -10.03,-9.094 -22.93,-15.543 -35.95,-18.731 -6.51,-1.422 -13.42,-1.918 -20.54,-1.355 6.19,2.933 12.7,7.109 20.47,12.531 13.25,8.984 21.86,18.551 26.7,24.902 -6.91,-5.445 -18.21,-12.91 -33.7,-18.601 -6.86,-2.547 -13.5,-4.184 -18.69,-5.246 2.6,6.945 7.5,14.898 13.89,22.402 6.5,7.453 14.72,14.34 26.74,18.074 17.83,5.95 33.97,3.551 45.3,0.473" /><path
         id="path198"
         style="fill:#c38a31;fill-opacity:1;fill-rule:evenodd;stroke:none"
         d="m 1326.56,461.07 c 10.73,-5.484 25.98,-18.41 30.78,-42.695 0.46,-2.754 0.88,-5.52 1.22,-8.258 -6.27,-4.804 -11.41,-10.765 -15.79,-17.836 -1.33,-2.144 -2.61,-4.402 -3.81,-6.73 -5.59,11.972 -7.97,24.164 -9,33.144 -0.81,-10.257 -1.17,-26.382 3.33,-42.804 0.18,-0.743 0.38,-1.473 0.6,-2.196 -0.83,-2.465 -1.51,-4.953 -2.01,-7.425 -1.12,1.062 -2.2,2.168 -3.25,3.312 -12.61,14.125 -16.47,33.066 -17.25,51.344 -0.62,9.207 0.92,17.551 2.4,25.058 1.5,7.446 3.31,13.907 4.75,18.481 1.91,-0.606 4.74,-1.668 8.03,-3.395 z m 25.58,-95.414 -0.17,0.18 0.82,0.41 z m -12.44,-5.156 0.44,-0.828 -0.94,0.633 0.5,0.195" /><path
         id="path200"
         style="fill:#c38a31;fill-opacity:1;fill-rule:evenodd;stroke:none"
         d="m 1415.55,419.066 c -1.71,-7.347 -4.32,-14.105 -7.75,-20.343 -3.54,-6.266 -6.34,-12.223 -10.79,-17.465 -8.48,-10.551 -20.21,-18.938 -32.58,-24.125 -6.2,-2.426 -12.95,-3.996 -20.08,-4.551 5.66,3.859 11.44,9.008 18.27,15.578 11.68,10.949 18.68,21.742 22.47,28.774 -5.97,-6.461 -15.96,-15.602 -30.37,-23.645 -6.38,-3.59 -12.68,-6.25 -17.64,-8.105 1.47,7.265 5.07,15.89 10.21,24.3 5.26,8.375 12.3,16.461 23.59,22.032 16.68,8.668 33,8.824 44.67,7.55" /><path
         id="path202"
         style="fill:#c38a31;fill-opacity:1;fill-rule:evenodd;stroke:none"
         d="m 1369.34,548.844 c 11.45,-3.739 28.53,-14.121 37.07,-37.356 0.89,-2.648 1.74,-5.316 2.5,-7.968 -5.44,-5.727 -9.59,-12.418 -12.8,-20.086 -0.98,-2.329 -1.9,-4.758 -2.72,-7.243 -7.39,10.95 -11.65,22.622 -14.07,31.329 0.81,-10.258 2.97,-26.243 9.99,-41.758 0.29,-0.703 0.6,-1.391 0.93,-2.071 -0.43,-2.566 -0.71,-5.132 -0.83,-7.652 -1.26,0.879 -2.51,1.797 -3.72,2.766 -14.67,11.976 -21.44,30.082 -25.07,48.011 -2.06,9 -1.83,17.481 -1.55,25.129 0.32,7.586 1.09,14.25 1.8,18.993 1.98,-0.297 4.94,-0.911 8.47,-2.094 z m 40.19,-90.242 -0.2,0.152 0.75,0.531 z m -11.48,-7.039 0.56,-0.747 -1.04,0.477 0.48,0.27" /><path
         id="path204"
         style="fill:#c38a31;fill-opacity:1;fill-rule:evenodd;stroke:none"
         d="m 1463.79,521.277 c -0.54,-7.523 -2.06,-14.609 -4.47,-21.308 -2.51,-6.742 -4.34,-13.059 -7.92,-18.934 -6.72,-11.75 -17,-21.875 -28.4,-28.93 -5.75,-3.363 -12.17,-5.968 -19.12,-7.632 4.98,4.699 9.89,10.687 15.6,18.242 9.82,12.64 15.06,24.398 17.7,31.937 -4.89,-7.316 -13.33,-17.906 -26.3,-28.105 -5.74,-4.543 -11.55,-8.152 -16.16,-10.766 0.32,7.407 2.53,16.489 6.29,25.598 3.87,9.094 9.57,18.184 19.85,25.453 15.12,11.168 31.21,13.875 42.93,14.445" /><path
         id="path206"
         style="fill:#c38a31;fill-opacity:1;fill-rule:evenodd;stroke:none"
         d="m 1397.86,642.227 c 11.89,-1.903 30.38,-9.485 42.45,-31.094 1.3,-2.477 2.55,-4.981 3.72,-7.481 -4.48,-6.507 -7.53,-13.765 -9.51,-21.839 -0.6,-2.454 -1.12,-4.997 -1.54,-7.579 -9.02,9.653 -15.05,20.516 -18.8,28.739 2.39,-10.008 7.03,-25.453 16.39,-39.68 0.4,-0.648 0.82,-1.281 1.25,-1.898 -0.02,-2.606 0.1,-5.184 0.38,-7.688 -1.39,0.668 -2.76,1.383 -4.11,2.148 -16.36,9.536 -25.88,26.36 -32.27,43.5 -3.44,8.563 -4.55,16.977 -5.46,24.575 -0.88,7.543 -1.16,14.242 -1.2,19.043 2.01,0.015 5.03,-0.125 8.7,-0.746 z m 53.81,-82.844 -0.22,0.117 0.65,0.645 z m -10.24,-8.746 0.66,-0.653 -1.09,0.309 0.43,0.344" /><path
         id="path208"
         style="fill:#c38a31;fill-opacity:1;fill-rule:evenodd;stroke:none"
         d="m 1495.46,629.777 c 0.64,-7.519 0.25,-14.757 -1.08,-21.75 -1.43,-7.047 -2.25,-13.578 -4.86,-19.941 -4.81,-12.656 -13.38,-24.258 -23.53,-33.012 -5.15,-4.219 -11.09,-7.801 -17.69,-10.531 4.18,5.422 8.09,12.102 12.55,20.461 7.72,14.019 11.05,26.449 12.49,34.309 -3.69,-7.993 -10.37,-19.77 -21.58,-31.875 -4.96,-5.383 -10.13,-9.86 -14.28,-13.157 -0.84,7.364 -0.08,16.68 2.2,26.266 2.41,9.59 6.62,19.457 15.63,28.242 13.19,13.399 28.65,18.59 40.15,20.988" /><path
         id="path210"
         style="fill:#c38a31;fill-opacity:1;fill-rule:evenodd;stroke:none"
         d="m 1411.41,738.922 c 12.05,-0.02 31.5,-4.617 46.8,-24.074 1.67,-2.243 3.3,-4.516 4.84,-6.801 -3.41,-7.129 -5.28,-14.774 -5.97,-23.063 -0.21,-2.511 -0.33,-5.105 -0.34,-7.726 -10.42,8.129 -18.08,17.914 -23.06,25.449 3.93,-9.512 10.93,-24.043 22.39,-36.629 0.5,-0.582 1.01,-1.137 1.54,-1.683 0.37,-2.575 0.9,-5.102 1.57,-7.532 -1.48,0.442 -2.94,0.934 -4.39,1.477 -17.66,6.859 -29.69,21.988 -38.69,37.918 -4.73,7.922 -7.14,16.055 -9.23,23.414 -2.05,7.316 -3.37,13.891 -4.16,18.621 1.97,0.332 4.98,0.668 8.7,0.629 z m 66.11,-73.406 -0.23,0.086 0.54,0.734 z m -8.75,-10.243 0.77,-0.539 -1.13,0.137 0.36,0.402" /><path
         id="path212"
         style="fill:#c38a31;fill-opacity:1;fill-rule:evenodd;stroke:none"
         d="m 1509.76,741.891 c 1.81,-7.321 2.56,-14.532 2.33,-21.649 -0.3,-7.183 -0.1,-13.762 -1.68,-20.453 -2.77,-13.254 -9.41,-26.055 -18.07,-36.285 -4.43,-4.981 -9.73,-9.445 -15.83,-13.172 3.29,6.008 6.11,13.219 9.2,22.172 5.44,15.055 6.78,27.855 6.97,35.84 -2.39,-8.469 -7.15,-21.149 -16.33,-34.856 -4.06,-6.093 -8.47,-11.324 -12.04,-15.234 -1.98,7.148 -2.69,16.461 -1.93,26.289 0.87,9.848 3.48,20.254 11.01,30.34 10.93,15.297 25.4,22.844 36.37,27.008" /><path
         id="path214"
         style="fill:#c38a31;fill-opacity:1;fill-rule:evenodd;stroke:none"
         d="m 1409.67,836.543 c 11.91,1.871 31.83,0.371 50,-16.449 1.99,-1.957 3.96,-3.949 5.84,-5.965 -2.25,-7.574 -2.9,-15.418 -2.3,-23.711 0.2,-2.516 0.49,-5.098 0.88,-7.684 -11.56,6.395 -20.66,14.864 -26.76,21.524 5.37,-8.778 14.56,-22.035 27.85,-32.672 0.59,-0.496 1.18,-0.965 1.78,-1.422 0.78,-2.484 1.69,-4.898 2.73,-7.195 -1.52,0.207 -3.05,0.465 -4.57,0.773 -18.51,4.012 -32.76,17.071 -44.14,31.399 -5.91,7.082 -9.57,14.738 -12.78,21.683 -3.16,6.906 -5.5,13.196 -7.03,17.742 1.91,0.637 4.83,1.434 8.5,1.977 z m 76.78,-62.156 -0.24,0.047 0.42,0.808 z m -7.04,-11.489 0.84,-0.406 -1.13,-0.047 0.29,0.453" /><path
         id="path216"
         style="fill:#c38a31;fill-opacity:1;fill-rule:evenodd;stroke:none"
         d="m 1506.35,854.863 c 2.94,-6.949 4.79,-13.953 5.69,-21.015 0.82,-7.145 2.05,-13.61 1.54,-20.465 -0.66,-13.528 -5.22,-27.207 -12.18,-38.668 -3.6,-5.61 -8.13,-10.848 -13.56,-15.485 2.3,6.45 3.95,14.012 5.61,23.34 3.01,15.719 2.34,28.571 1.27,36.485 -1.04,-8.739 -3.74,-22.004 -10.67,-36.981 -3.06,-6.652 -6.59,-12.508 -9.51,-16.926 -3.08,6.747 -5.24,15.836 -6.02,25.665 -0.68,9.863 0.27,20.542 6.13,31.687 8.4,16.816 21.51,26.531 31.7,32.363" /><path
         id="path218"
         style="fill:#c38a31;fill-opacity:1;fill-rule:evenodd;stroke:none"
         d="m 1392.69,932.695 c 11.46,3.707 31.38,5.344 51.95,-8.429 2.27,-1.621 4.53,-3.278 6.7,-4.977 -1.04,-7.828 -0.46,-15.684 1.45,-23.777 0.57,-2.453 1.26,-4.957 2.06,-7.453 -12.42,4.511 -22.72,11.449 -29.8,17.074 6.68,-7.828 17.83,-19.485 32.62,-27.914 0.65,-0.395 1.31,-0.77 1.98,-1.125 1.16,-2.332 2.44,-4.574 3.83,-6.676 -1.54,-0.039 -3.09,-0.023 -4.64,0.047 -18.91,1.066 -35.03,11.738 -48.51,24.105 -6.95,6.075 -11.75,13.063 -16.02,19.418 -4.2,6.325 -7.49,12.168 -9.71,16.422 1.78,0.93 4.54,2.172 8.09,3.285 z m 85.55,-49.382 -0.24,0.007 0.29,0.868 z m -5.15,-12.446 0.89,-0.273 -1.11,-0.219 0.22,0.492" /><path
         id="path220"
         style="fill:#c38a31;fill-opacity:1;fill-rule:evenodd;stroke:none"
         d="m 1485.3,965.914 c 3.99,-6.402 6.93,-13.031 8.91,-19.867 1.93,-6.93 4.17,-13.121 4.72,-19.977 1.47,-13.461 -0.89,-27.687 -5.97,-40.093 -2.67,-6.102 -6.33,-11.985 -10.98,-17.418 1.27,6.73 1.72,14.457 1.9,23.933 0.51,15.996 -2.17,28.582 -4.46,36.238 0.35,-8.796 -0.26,-22.324 -4.75,-38.199 -1.98,-7.051 -4.56,-13.383 -6.75,-18.207 -4.09,6.184 -7.65,14.824 -9.96,24.403 -2.21,9.64 -2.94,20.339 1.1,32.261 5.67,17.926 17.09,29.571 26.24,36.926" /><path
         id="path222"
         style="fill:#c38a31;fill-opacity:1;fill-rule:evenodd;stroke:none"
         d="m 1360.86,1025 c 10.75,5.46 30.16,10.2 52.64,-0.2 2.5,-1.24 4.98,-2.53 7.4,-3.86 0.2,-7.9 2,-15.56 5.14,-23.26 0.96,-2.332 2.03,-4.7 3.21,-7.039 -12.97,2.515 -24.24,7.757 -32.1,12.209 7.81,-6.694 20.65,-16.463 36.58,-22.471 0.71,-0.289 1.42,-0.555 2.13,-0.801 1.51,-2.125 3.12,-4.137 4.82,-6 -1.51,-0.273 -3.04,-0.504 -4.58,-0.676 -18.85,-1.906 -36.43,6.114 -51.68,16.219 -7.82,4.91 -13.66,11.059 -18.87,16.669 -5.14,5.59 -9.3,10.85 -12.16,14.71 1.62,1.19 4.15,2.85 7.47,4.5 z m 92.23,-35.387 -0.24,-0.031 0.15,0.902 z m -3.14,-13.093 0.93,-0.133 -1.07,-0.395 0.14,0.528" /><path
         id="path224"
         style="fill:#c38a31;fill-opacity:1;fill-rule:evenodd;stroke:none"
         d="m 1447.15,1072.3 c 4.94,-5.7 8.87,-11.78 11.9,-18.23 3,-6.54 6.16,-12.3 7.79,-18.98 3.55,-13.07 3.45,-27.5 0.37,-40.543 -1.68,-6.445 -4.38,-12.828 -8.12,-18.918 0.2,6.844 -0.56,14.547 -1.87,23.93 -1.99,15.881 -6.6,27.891 -10.06,35.101 1.71,-8.64 3.23,-22.09 1.27,-38.476 -0.84,-7.27 -2.4,-13.93 -3.81,-19.036 -5.01,5.465 -9.87,13.446 -13.66,22.547 -3.69,9.175 -6.08,19.625 -3.96,32.035 2.8,18.59 12.26,31.88 20.15,40.57" /><path
         id="path226"
         style="fill:#c38a31;fill-opacity:1;fill-rule:evenodd;stroke:none"
         d="m 1315,1111.2 c 9.76,7.07 28.2,14.78 52.01,8.04 2.67,-0.84 5.32,-1.72 7.92,-2.66 1.43,-7.77 4.41,-15.06 8.72,-22.17 1.31,-2.16 2.74,-4.32 4.26,-6.45 -13.2,0.45 -25.14,3.86 -33.61,7.03 8.77,-5.38 22.97,-13.03 39.65,-16.47 0.75,-0.17 1.48,-0.32 2.23,-0.46 1.82,-1.86 3.73,-3.6 5.7,-5.17 -1.45,-0.51 -2.93,-0.97 -4.43,-1.38 -18.31,-4.83 -36.93,0.34 -53.57,7.93 -8.5,3.63 -15.22,8.79 -21.24,13.52 -5.96,4.72 -10.89,9.26 -14.32,12.62 1.41,1.43 3.65,3.47 6.68,5.62 z m 96.63,-20.53 -0.24,-0.06 v 0.91 z m -1.06,-13.42 0.93,0.01 -0.98,-0.55 0.05,0.54" /><path
         id="path228"
         style="fill:#c38a31;fill-opacity:1;fill-rule:evenodd;stroke:none"
         d="m 1392.82,1171.41 c 5.77,-4.86 10.61,-10.25 14.61,-16.14 3.98,-5.99 8.01,-11.19 10.67,-17.54 5.54,-12.34 7.69,-26.61 6.7,-39.98 -0.66,-6.63 -2.32,-13.36 -5.06,-19.95 -0.87,6.79 -2.83,14.28 -5.59,23.34 -4.45,15.38 -10.89,26.52 -15.43,33.09 3.04,-8.26 6.65,-21.31 7.28,-37.8 0.3,-7.31 -0.2,-14.13 -0.79,-19.39 -5.8,4.61 -11.86,11.73 -17.02,20.13 -5.08,8.48 -9.08,18.43 -8.92,31.01 -0.15,18.8 7.12,33.41 13.55,43.23" /><path
         id="path230"
         style="fill:#c38a31;fill-opacity:1;fill-rule:evenodd;stroke:none"
         d="m 1256.21,1189.16 c 8.54,8.51 25.54,19.01 50.11,16.07 2.77,-0.41 5.53,-0.86 8.24,-1.39 2.63,-7.45 6.71,-14.18 12.08,-20.53 1.63,-1.92 3.38,-3.84 5.22,-5.7 -13.11,-1.62 -25.44,-0.11 -34.3,1.69 9.51,-3.95 24.73,-9.28 41.74,-10.07 0.76,-0.05 1.52,-0.09 2.27,-0.1 2.09,-1.56 4.25,-2.97 6.44,-4.22 -1.35,-0.73 -2.74,-1.41 -4.15,-2.06 -17.33,-7.63 -36.54,-5.44 -54.16,-0.54 -8.95,2.25 -16.41,6.3 -23.09,10.03 -6.62,3.73 -12.2,7.44 -16.11,10.22 1.16,1.64 3.05,4 5.71,6.6 z m 98.65,-5.16 -0.22,-0.11 -0.14,0.91 z m 1.06,-13.43 0.92,0.16 -0.89,-0.69 -0.03,0.53" /><path
         id="path232"
         style="fill:#c38a31;fill-opacity:1;fill-rule:evenodd;stroke:none"
         d="m 1323.66,1260.8 c 6.45,-3.89 12.08,-8.46 16.95,-13.66 4.87,-5.29 9.66,-9.8 13.28,-15.64 7.41,-11.34 11.76,-25.09 12.88,-38.45 0.38,-6.65 -0.21,-13.55 -1.88,-20.5 -1.93,6.58 -5.03,13.66 -9.18,22.18 -6.8,14.49 -14.9,24.49 -20.41,30.27 4.29,-7.68 9.9,-20 13.1,-36.19 1.44,-7.18 2.02,-13.99 2.26,-19.28 -6.46,3.65 -13.55,9.73 -19.96,17.22 -6.34,7.58 -11.86,16.78 -13.67,29.24 -3.08,18.54 1.81,34.11 6.63,44.81" /><path
         id="path234"
         style="fill:#c38a31;fill-opacity:1;fill-rule:evenodd;stroke:none"
         d="m 1185.95,1256.96 c 7.1,9.74 22.25,22.77 46.98,23.72 2.8,0.03 5.6,0.01 8.36,-0.09 3.76,-6.94 8.85,-12.95 15.14,-18.39 1.91,-1.64 3.94,-3.26 6.05,-4.81 -12.7,-3.65 -25.12,-4.09 -34.14,-3.7 10,-2.41 25.87,-5.29 42.8,-3.41 0.76,0.06 1.51,0.15 2.25,0.25 2.31,-1.21 4.66,-2.26 7.03,-3.15 -1.23,-0.93 -2.49,-1.83 -3.78,-2.69 -15.93,-10.25 -35.24,-11.09 -53.41,-9.01 -9.2,0.83 -17.19,3.66 -24.38,6.29 -7.12,2.65 -13.21,5.44 -17.51,7.58 0.9,1.8 2.39,4.43 4.61,7.41 z m 98.25,10.34 -0.21,-0.14 -0.28,0.87 z m 3.14,-13.1 0.88,0.3 -0.76,-0.83 -0.12,0.53" /><path
         id="path236"
         style="fill:#c38a31;fill-opacity:1;fill-rule:evenodd;stroke:none"
         d="m 1241.36,1338.28 c 6.99,-2.84 13.26,-6.48 18.88,-10.84 5.64,-4.47 11.08,-8.17 15.56,-13.39 9.1,-10.02 15.55,-22.92 18.74,-35.94 1.42,-6.51 1.91,-13.43 1.35,-20.55 -2.93,6.19 -7.11,12.71 -12.53,20.48 -8.98,13.24 -18.55,21.85 -24.9,26.69 5.44,-6.91 12.91,-18.2 18.6,-33.69 2.55,-6.87 4.19,-13.5 5.24,-18.7 -6.94,2.6 -14.9,7.5 -22.4,13.89 -7.45,6.5 -14.33,14.73 -18.07,26.75 -5.95,17.83 -3.56,33.97 -0.47,45.3" /><path
         id="path238"
         style="fill:#c38a31;fill-opacity:1;fill-rule:evenodd;stroke:none"
         d="m 1105.95,1312.94 c 5.49,10.73 18.41,25.97 42.69,30.77 2.76,0.47 5.53,0.89 8.27,1.23 4.8,-6.27 10.76,-11.42 17.83,-15.8 2.15,-1.32 4.4,-2.6 6.73,-3.81 -11.97,-5.59 -24.17,-7.97 -33.14,-8.99 10.26,-0.82 26.38,-1.18 42.81,3.32 0.74,0.18 1.46,0.39 2.18,0.61 2.47,-0.83 4.97,-1.51 7.43,-2.02 -1.06,-1.12 -2.16,-2.2 -3.31,-3.25 -14.12,-12.61 -33.06,-16.46 -51.34,-17.25 -9.21,-0.62 -17.55,0.93 -25.06,2.4 -7.45,1.51 -13.91,3.31 -18.48,4.75 0.6,1.91 1.67,4.74 3.39,8.04 z m 95.42,25.58 -0.18,-0.17 -0.41,0.81 z m 5.15,-12.45 0.83,0.44 -0.63,-0.94 -0.2,0.5" /><path
         id="path240"
         style="fill:#c38a31;fill-opacity:1;fill-rule:evenodd;stroke:none"
         d="m 1147.95,1401.92 c 7.35,-1.71 14.11,-4.32 20.35,-7.75 6.27,-3.53 12.22,-6.34 17.47,-10.78 10.55,-8.49 18.94,-20.22 24.12,-32.58 2.43,-6.21 4,-12.96 4.55,-20.08 -3.86,5.66 -9.01,11.43 -15.58,18.26 -10.95,11.68 -21.74,18.68 -28.77,22.47 6.46,-5.97 15.6,-15.96 23.64,-30.37 3.59,-6.38 6.25,-12.68 8.11,-17.64 -7.27,1.48 -15.89,5.07 -24.3,10.21 -8.38,5.26 -16.46,12.3 -22.04,23.59 -8.66,16.68 -8.82,33 -7.55,44.67" /><path
         id="path242"
         style="fill:#c38a31;fill-opacity:1;fill-rule:evenodd;stroke:none"
         d="m 1018.18,1355.71 c 3.74,11.46 14.12,28.53 37.36,37.08 2.64,0.89 5.31,1.73 7.96,2.5 5.73,-5.45 12.42,-9.59 20.09,-12.81 2.32,-0.98 4.75,-1.89 7.24,-2.71 -10.95,-7.4 -22.62,-11.66 -31.33,-14.07 10.26,0.8 26.25,2.96 41.76,9.98 0.7,0.3 1.39,0.61 2.07,0.94 2.57,-0.44 5.13,-0.72 7.65,-0.83 -0.87,-1.27 -1.8,-2.51 -2.76,-3.72 -11.98,-14.68 -30.09,-21.44 -48.02,-25.08 -8.99,-2.05 -17.47,-1.83 -25.12,-1.54 -7.59,0.31 -14.25,1.08 -19,1.79 0.3,1.99 0.91,4.95 2.1,8.47 z m 90.24,40.19 -0.15,-0.19 -0.53,0.74 z m 7.04,-11.48 0.75,0.56 -0.48,-1.03 -0.27,0.47" /><path
         id="path244"
         style="fill:#c38a31;fill-opacity:1;fill-rule:evenodd;stroke:none"
         d="m 1045.75,1450.17 c 7.52,-0.54 14.61,-2.06 21.3,-4.47 6.74,-2.51 13.06,-4.35 18.94,-7.92 11.75,-6.73 21.87,-17.01 28.93,-28.4 3.36,-5.76 5.97,-12.18 7.63,-19.13 -4.7,4.99 -10.69,9.89 -18.25,15.61 -12.63,9.82 -24.39,15.05 -31.93,17.69 7.32,-4.89 17.91,-13.33 28.11,-26.3 4.54,-5.74 8.15,-11.55 10.76,-16.16 -7.4,0.33 -16.49,2.53 -25.6,6.29 -9.09,3.88 -18.18,9.57 -25.45,19.85 -11.17,15.12 -13.87,31.21 -14.44,42.94" /><path
         id="path246"
         style="fill:#c38a31;fill-opacity:1;fill-rule:evenodd;stroke:none"
         d="m 924.797,1384.23 c 1.902,11.9 9.48,30.38 31.094,42.46 2.476,1.29 4.98,2.55 7.48,3.72 6.504,-4.48 13.766,-7.53 21.84,-9.51 2.453,-0.6 4.996,-1.13 7.578,-1.55 -9.656,-9.02 -20.516,-15.05 -28.742,-18.8 10.012,2.4 25.457,7.04 39.683,16.4 0.65,0.4 1.28,0.81 1.9,1.25 2.6,-0.03 5.18,0.09 7.69,0.37 -0.67,-1.38 -1.39,-2.75 -2.15,-4.11 -9.54,-16.36 -26.361,-25.87 -43.502,-32.27 -8.563,-3.44 -16.977,-4.55 -24.574,-5.46 -7.543,-0.87 -14.242,-1.15 -19.043,-1.19 -0.016,2 0.125,5.02 0.746,8.69 z m 82.843,53.81 -0.12,-0.22 -0.64,0.65 z m 8.75,-10.24 0.65,0.67 -0.31,-1.09 -0.34,0.42" /><path
         id="path248"
         style="fill:#c38a31;fill-opacity:1;fill-rule:evenodd;stroke:none"
         d="m 937.246,1481.83 c 7.52,0.65 14.754,0.26 21.746,-1.08 7.051,-1.43 13.578,-2.25 19.946,-4.86 12.656,-4.8 24.262,-13.37 33.012,-23.53 4.22,-5.15 7.8,-11.09 10.53,-17.69 -5.42,4.19 -12.1,8.1 -20.46,12.56 -14.02,7.72 -26.45,11.05 -34.309,12.48 7.992,-3.69 19.769,-10.37 31.871,-21.58 5.378,-4.96 9.858,-10.13 13.158,-14.27 -7.36,-0.84 -16.677,-0.09 -26.263,2.2 -9.59,2.41 -19.457,6.61 -28.247,15.62 -13.394,13.2 -18.585,28.66 -20.984,40.15" /><path
         id="path250"
         style="fill:#c38a31;fill-opacity:1;fill-rule:evenodd;stroke:none"
         d="m 819.918,1473.9 c 6.484,2.85 13.043,4.62 19.68,5.44 6.711,0.74 12.773,1.9 19.242,1.31 12.75,-0.8 25.734,-5.49 36.672,-12.54 5.359,-3.65 10.383,-8.22 14.863,-13.68 -6.125,2.36 -13.277,4.09 -22.098,5.84 -14.871,3.18 -26.961,2.64 -34.394,1.67 8.25,-1.13 20.805,-3.98 35.055,-11.03 6.328,-3.11 11.914,-6.7 16.136,-9.66 -6.289,-2.98 -14.808,-5.04 -24.047,-5.71 -9.277,-0.56 -19.359,0.5 -29.972,6.45 -16.016,8.55 -25.438,21.7 -31.137,31.91" /><path
         id="path252"
         style="fill:#c38a31;fill-opacity:1;fill-rule:evenodd;stroke:none"
         d="m 703.746,88.8828 c 12.488,-4.0859 31.531,-10.6797 44.024,-14.7617 l 0.011,-0.0078 c 2.094,-0.7188 3.598,-2.7188 3.598,-5.6953 0,-2.9766 -2.25,-5.9063 -5.027,-5.9063 -0.649,0 -1.262,0.1406 -1.832,0.4024 l -40.676,21.8632 -0.098,4.1055" /><path
         id="path254"
         style="fill:#c38a31;fill-opacity:1;fill-rule:evenodd;stroke:none"
         d="M 871.402,88.8828 C 858.91,84.7969 839.867,78.2031 827.379,74.1211 l -0.016,-0.0078 c -2.09,-0.7188 -3.597,-2.7188 -3.597,-5.6953 0,-2.9766 2.254,-5.9063 5.031,-5.9063 0.644,0 1.262,0.1406 1.832,0.4024 l 40.672,21.8632 0.101,4.1055" /></g></g></svg>