<?xml version="1.0" encoding="UTF-8" standalone="no"?>
<svg
   xmlns:dc="http://purl.org/dc/elements/1.1/"
   xmlns:cc="http://creativecommons.org/ns#"
   xmlns:rdf="http://www.w3.org/1999/02/22-rdf-syntax-ns#"
   xmlns:svg="http://www.w3.org/2000/svg"
   xmlns="http://www.w3.org/2000/svg"
   viewBox="0 0 209.33333 208"
   height="208"
   width="209.33333"
   xml:space="preserve"
   id="svg2"
   version="1.1"><metadata
     id="metadata8"><rdf:RDF><cc:Work
         rdf:about=""><dc:format>image/svg+xml</dc:format><dc:type
           rdf:resource="http://purl.org/dc/dcmitype/StillImage" /></cc:Work></rdf:RDF></metadata><defs
     id="defs6" /><g
     transform="matrix(1.3333333,0,0,-1.3333333,0,208)"
     id="g10"><g
       transform="scale(0.1)"
       id="g12"><path
         id="path14"
         style="fill:#64604f;fill-opacity:1;fill-rule:evenodd;stroke:none"
         d="m 783.742,1559.75 c 430.518,0 779.528,-349.01 779.528,-779.535 C 1563.27,349.695 1214.26,0.691406 783.742,0.691406 353.219,0.691406 4.21484,349.695 4.21484,780.215 c 0,430.525 349.00416,779.535 779.52716,779.535" /><path
         id="path16"
         style="fill:#c38a31;fill-opacity:1;fill-rule:evenodd;stroke:none"
         d="m 783.742,1509.95 c 403.018,0 729.738,-326.71 729.738,-729.735 C 1513.48,377.191 1186.76,50.4766 783.742,50.4766 380.715,50.4766 54,377.191 54,780.215 54,1183.24 380.715,1509.95 783.742,1509.95" /><path
         id="path18"
         style="fill:#4e4a3d;fill-opacity:1;fill-rule:evenodd;stroke:none"
         d="m 783.742,1440.37 c 364.588,0 660.148,-295.56 660.148,-660.155 0,-364.594 -295.56,-660.152 -660.148,-660.152 -364.597,0 -660.156,295.558 -660.156,660.152 0,364.595 295.559,660.155 660.156,660.155" /><path
         id="path20"
         style="fill:none;stroke:#595647;stroke-width:28.3465004;stroke-linecap:butt;stroke-linejoin:miter;stroke-miterlimit:22.92560005;stroke-dasharray:none;stroke-opacity:1"
         d="M 783.652,1441.65 V 121.352" /><path
         id="path22"
         style="fill:none;stroke:#595647;stroke-width:28.3465004;stroke-linecap:butt;stroke-linejoin:miter;stroke-miterlimit:22.92560005;stroke-dasharray:none;stroke-opacity:1"
         d="M 714.648,1438.04 852.656,124.969" /><path
         id="path24"
         style="fill:none;stroke:#595647;stroke-width:28.3465004;stroke-linecap:butt;stroke-linejoin:miter;stroke-miterlimit:22.92560005;stroke-dasharray:none;stroke-opacity:1"
         d="M 646.398,1427.23 920.906,135.777" /><path
         id="path26"
         style="fill:none;stroke:#595647;stroke-width:28.3465004;stroke-linecap:butt;stroke-linejoin:miter;stroke-miterlimit:22.92560005;stroke-dasharray:none;stroke-opacity:1"
         d="M 579.656,1409.34 987.652,153.66" /><path
         id="path28"
         style="fill:none;stroke:#595647;stroke-width:28.3465004;stroke-linecap:butt;stroke-linejoin:miter;stroke-miterlimit:22.92560005;stroke-dasharray:none;stroke-opacity:1"
         d="M 515.148,1384.58 1052.16,178.426" /><path
         id="path30"
         style="fill:none;stroke:#595647;stroke-width:28.3465004;stroke-linecap:butt;stroke-linejoin:miter;stroke-miterlimit:22.92560005;stroke-dasharray:none;stroke-opacity:1"
         d="M 453.578,1353.21 1113.73,209.797" /><path
         id="path32"
         style="fill:none;stroke:#595647;stroke-width:28.3465004;stroke-linecap:butt;stroke-linejoin:miter;stroke-miterlimit:22.92560005;stroke-dasharray:none;stroke-opacity:1"
         d="M 395.629,1315.58 1171.68,247.43" /><path
         id="path34"
         style="fill:none;stroke:#595647;stroke-width:28.3465004;stroke-linecap:butt;stroke-linejoin:miter;stroke-miterlimit:22.92560005;stroke-dasharray:none;stroke-opacity:1"
         d="M 341.926,1272.09 1225.38,290.914" /><path
         id="path36"
         style="fill:none;stroke:#595647;stroke-width:28.3465004;stroke-linecap:butt;stroke-linejoin:miter;stroke-miterlimit:22.92560005;stroke-dasharray:none;stroke-opacity:1"
         d="M 293.066,1223.23 1274.24,339.777" /><path
         id="path38"
         style="fill:none;stroke:#595647;stroke-width:28.3465004;stroke-linecap:butt;stroke-linejoin:miter;stroke-miterlimit:22.92560005;stroke-dasharray:none;stroke-opacity:1"
         d="M 249.582,1169.53 1317.73,393.477" /><path
         id="path40"
         style="fill:none;stroke:#595647;stroke-width:28.3465004;stroke-linecap:butt;stroke-linejoin:miter;stroke-miterlimit:22.92560005;stroke-dasharray:none;stroke-opacity:1"
         d="M 211.949,1111.58 1355.36,451.43" /><path
         id="path42"
         style="fill:none;stroke:#595647;stroke-width:28.3465004;stroke-linecap:butt;stroke-linejoin:miter;stroke-miterlimit:22.92560005;stroke-dasharray:none;stroke-opacity:1"
         d="M 180.578,1050.01 1386.73,512.996" /><path
         id="path44"
         style="fill:none;stroke:#595647;stroke-width:28.3465004;stroke-linecap:butt;stroke-linejoin:miter;stroke-miterlimit:22.92560005;stroke-dasharray:none;stroke-opacity:1"
         d="M 155.813,985.504 1411.5,577.508" /><path
         id="path46"
         style="fill:none;stroke:#595647;stroke-width:28.3465004;stroke-linecap:butt;stroke-linejoin:miter;stroke-miterlimit:22.92560005;stroke-dasharray:none;stroke-opacity:1"
         d="M 137.93,918.758 1429.38,644.25" /><path
         id="path48"
         style="fill:none;stroke:#595647;stroke-width:28.3465004;stroke-linecap:butt;stroke-linejoin:miter;stroke-miterlimit:22.92560005;stroke-dasharray:none;stroke-opacity:1"
         d="M 127.121,850.508 1440.19,712.5" /><path
         id="path50"
         style="fill:none;stroke:#595647;stroke-width:28.3465004;stroke-linecap:butt;stroke-linejoin:miter;stroke-miterlimit:22.92560005;stroke-dasharray:none;stroke-opacity:1"
         d="M 123.504,781.504 H 1443.8" /><path
         id="path52"
         style="fill:none;stroke:#595647;stroke-width:28.3465004;stroke-linecap:butt;stroke-linejoin:miter;stroke-miterlimit:22.92560005;stroke-dasharray:none;stroke-opacity:1"
         d="M 127.121,712.5 1440.19,850.508" /><path
         id="path54"
         style="fill:none;stroke:#595647;stroke-width:28.3465004;stroke-linecap:butt;stroke-linejoin:miter;stroke-miterlimit:22.92560005;stroke-dasharray:none;stroke-opacity:1"
         d="M 137.93,644.25 1429.38,918.758" /><path
         id="path56"
         style="fill:none;stroke:#595647;stroke-width:28.3465004;stroke-linecap:butt;stroke-linejoin:miter;stroke-miterlimit:22.92560005;stroke-dasharray:none;stroke-opacity:1"
         d="M 155.813,577.508 1411.5,985.504" /><path
         id="path58"
         style="fill:none;stroke:#595647;stroke-width:28.3465004;stroke-linecap:butt;stroke-linejoin:miter;stroke-miterlimit:22.92560005;stroke-dasharray:none;stroke-opacity:1"
         d="M 180.578,512.996 1386.73,1050.01" /><path
         id="path60"
         style="fill:none;stroke:#595647;stroke-width:28.3465004;stroke-linecap:butt;stroke-linejoin:miter;stroke-miterlimit:22.92560005;stroke-dasharray:none;stroke-opacity:1"
         d="M 211.949,451.43 1355.36,1111.58" /><path
         id="path62"
         style="fill:none;stroke:#595647;stroke-width:28.3465004;stroke-linecap:butt;stroke-linejoin:miter;stroke-miterlimit:22.92560005;stroke-dasharray:none;stroke-opacity:1"
         d="M 249.582,393.477 1317.73,1169.53" /><path
         id="path64"
         style="fill:none;stroke:#595647;stroke-width:28.3465004;stroke-linecap:butt;stroke-linejoin:miter;stroke-miterlimit:22.92560005;stroke-dasharray:none;stroke-opacity:1"
         d="M 293.066,339.777 1274.24,1223.23" /><path
         id="path66"
         style="fill:none;stroke:#595647;stroke-width:28.3465004;stroke-linecap:butt;stroke-linejoin:miter;stroke-miterlimit:22.92560005;stroke-dasharray:none;stroke-opacity:1"
         d="M 341.926,290.918 1225.38,1272.09" /><path
         id="path68"
         style="fill:none;stroke:#595647;stroke-width:28.3465004;stroke-linecap:butt;stroke-linejoin:miter;stroke-miterlimit:22.92560005;stroke-dasharray:none;stroke-opacity:1"
         d="M 395.629,247.43 1171.68,1315.58" /><path
         id="path70"
         style="fill:none;stroke:#595647;stroke-width:28.3465004;stroke-linecap:butt;stroke-linejoin:miter;stroke-miterlimit:22.92560005;stroke-dasharray:none;stroke-opacity:1"
         d="M 453.578,209.797 1113.73,1353.21" /><path
         id="path72"
         style="fill:none;stroke:#595647;stroke-width:28.3465004;stroke-linecap:butt;stroke-linejoin:miter;stroke-miterlimit:22.92560005;stroke-dasharray:none;stroke-opacity:1"
         d="M 515.148,178.426 1052.16,1384.58" /><path
         id="path74"
         style="fill:none;stroke:#595647;stroke-width:28.3465004;stroke-linecap:butt;stroke-linejoin:miter;stroke-miterlimit:22.92560005;stroke-dasharray:none;stroke-opacity:1"
         d="M 579.656,153.664 987.652,1409.35" /><path
         id="path76"
         style="fill:none;stroke:#595647;stroke-width:28.3465004;stroke-linecap:butt;stroke-linejoin:miter;stroke-miterlimit:22.92560005;stroke-dasharray:none;stroke-opacity:1"
         d="M 646.398,135.781 920.906,1427.23" /><path
         id="path78"
         style="fill:none;stroke:#595647;stroke-width:28.3465004;stroke-linecap:butt;stroke-linejoin:miter;stroke-miterlimit:22.92560005;stroke-dasharray:none;stroke-opacity:1"
         d="M 714.648,124.973 852.656,1438.04" /><path
         id="path80"
         style="fill:none;stroke:#595647;stroke-width:28.3465004;stroke-linecap:butt;stroke-linejoin:miter;stroke-miterlimit:22.92560005;stroke-dasharray:none;stroke-opacity:1"
         d="M 783.652,121.355 V 1441.66" /><path
         id="path82"
         style="fill:#c38a31;fill-opacity:1;fill-rule:evenodd;stroke:none"
         d="m 786.488,1375.89 c 88.852,-104.63 126.903,-166.78 135.856,-288.43 3.015,-40.98 -9.078,-110.026 -24.656,-181.362 -57.165,-68.008 -93.641,-171.313 -93.641,-287.008 0,-3.211 0.031,-6.418 0.098,-9.613 l -0.004,-0.348 c 0,-47.68 7.539,-93.191 20.707,-134.828 11.972,-37.832 25.347,-69.836 40.562,-96.102 -13.789,-106.062 -22.023,-143.207 -78.922,-218.14 -56.898,74.933 -65.133,112.078 -78.922,218.14 15.215,26.266 28.59,58.27 40.559,96.102 13.172,41.637 20.707,87.148 20.707,134.828 v 0.348 c 0.063,3.195 0.098,6.402 0.098,9.613 0,115.695 -36.481,219 -93.641,287.008 -15.578,71.336 -27.672,140.382 -24.656,181.362 8.949,121.65 47.004,183.8 135.855,288.43" /><path
         id="path84"
         style="fill:#4e4a3d;fill-opacity:1;fill-rule:nonzero;stroke:none"
         d="m 792.406,1380.74 c 44.754,-52.71 76.762,-94.81 98.832,-139.3 22.2,-44.74 34.192,-91.56 38.746,-153.44 1.551,-21.08 -0.75,-49.14 -5.418,-80.95 -4.628,-31.519 -11.578,-66.784 -19.394,-102.57 -0.32,-1.488 -1.055,-2.781 -2.059,-3.789 -28.285,-33.8 -51.406,-76.57 -67.328,-125.378 -15.433,-47.309 -24.07,-100.27 -24.07,-156.223 l -0.008,-4.754 c 0.016,-1.488 0.043,-3.055 0.078,-4.711 l -0.004,-0.309 -0.004,-0.187 h 0.032 c 0,-23.008 1.785,-45.484 5.121,-67.231 3.472,-22.585 8.633,-44.429 15.23,-65.285 5.965,-18.871 12.219,-36.113 18.793,-51.734 6.594,-15.664 13.606,-29.945 21.078,-42.852 0.938,-1.613 1.219,-3.437 0.918,-5.14 -6.945,-53.364 -12.515,-89.469 -23.586,-121.887 -11.172,-32.727 -27.797,-61.363 -56.797,-99.555 -2.543,-3.355 -7.336,-4.015 -10.691,-1.465 -0.609,0.465 -1.137,1 -1.566,1.594 -28.938,38.125 -45.536,66.739 -56.696,99.426 -11.093,32.484 -16.664,68.668 -23.625,122.207 -0.226,1.742 0.153,3.418 0.969,4.82 h -0.012 c 7.473,12.907 14.485,27.188 21.078,42.852 6.575,15.621 12.825,32.863 18.793,51.734 6.598,20.856 11.762,42.696 15.231,65.285 3.336,21.747 5.121,44.223 5.121,67.231 h 0.027 v 0.348 l 0.004,0.148 h -0.004 c 0.032,1.656 0.055,3.23 0.071,4.711 l -0.008,4.754 c 0,55.953 -8.633,108.914 -24.067,156.223 -16.003,49.042 -39.265,91.996 -67.742,125.875 -0.828,0.988 -1.363,2.121 -1.617,3.3 l -0.031,-0.008 c -7.817,35.786 -14.766,71.047 -19.391,102.57 -4.668,31.81 -6.969,59.87 -5.418,80.95 4.555,61.88 16.547,108.7 38.746,153.44 22.082,44.52 54.114,86.64 98.91,139.39 2.731,3.23 7.559,3.63 10.786,0.9 0.355,-0.3 0.683,-0.64 0.972,-0.99 z m 85.114,-146.06 c -20.434,41.19 -50.028,80.7 -91.032,129.36 -41.008,-48.66 -70.597,-88.17 -91.031,-129.36 -21.277,-42.9 -32.793,-87.98 -37.187,-147.76 -1.465,-19.9 0.777,-46.86 5.293,-77.65 4.484,-30.551 11.218,-64.84 18.824,-99.766 29.199,-35.184 53,-79.324 69.359,-129.457 15.938,-48.848 24.852,-103.418 24.852,-160.957 l -0.055,-4.871 c -0.016,-1.711 -0.043,-3.336 -0.07,-4.867 v -0.223 h 0.031 c 0,-23.75 -1.844,-46.988 -5.305,-69.512 -3.594,-23.426 -8.941,-46.043 -15.765,-67.621 -6.004,-18.969 -12.43,-36.644 -19.336,-53.047 -6.5,-15.449 -13.364,-29.554 -20.621,-42.328 6.671,-51.113 12.113,-85.894 22.632,-116.707 9.821,-28.762 24.196,-54.367 48.379,-87.125 24.18,32.758 38.559,58.363 48.379,87.125 10.52,30.813 15.957,65.594 22.633,116.707 -7.262,12.766 -14.121,26.879 -20.625,42.328 -6.902,16.403 -13.336,34.078 -19.332,53.047 -6.828,21.582 -12.168,44.199 -15.77,67.629 -3.457,22.516 -5.3,45.754 -5.3,69.504 h 0.031 v 0.031 0.219 c -0.031,1.527 -0.055,3.144 -0.07,4.84 l -0.055,4.871 c 0,57.539 8.914,112.109 24.851,160.957 16.36,50.133 40.161,94.273 69.356,129.457 7.605,34.926 14.344,69.215 18.828,99.766 4.516,30.79 6.758,57.75 5.293,77.65 -4.394,59.78 -15.91,104.86 -37.187,147.76 z m -65.735,-625.231 -0.004,-0.133 0.004,0.133" /><path
         id="path86"
         style="fill:#4e4a3d;fill-opacity:1;fill-rule:nonzero;stroke:none"
         d="m 786.488,246.289 h -0.215 c -3.418,46.43 -5.41,100.711 -5.324,166.504 v 664.077 c -0.109,131.81 4.754,200.24 5.223,211.51 h 0.316 0.317 c 0.468,-11.27 5.332,-79.7 5.222,-211.51 V 412.793 C 792.113,347 790.121,292.719 786.703,246.289 h -0.215" /><path
         id="path88"
         style="fill:#c38a31;fill-opacity:1;fill-rule:evenodd;stroke:none"
         d="m 1059.9,989.336 c 290.96,0 239.98,-343.297 14.13,-309.379 50.52,65.129 -8.56,136.16 -99.608,109.133 -71.52,-21.231 -105.633,-116.258 -105.633,-191.711 0,-46.742 10.43,-89.672 27.836,-123.379 45.402,-85.43 149.395,-65.023 154.575,-14.297 35.01,-3.754 50.11,-40.465 44.15,-77.344 -16.42,-101.476 -149.123,-98.98 -206.131,-34.816 -25.086,28.242 -45.297,71.129 -63.949,131.93 -13.172,42.929 -20.707,89.859 -20.707,139.019 0,204.813 114.316,370.844 255.337,370.844" /><path
         id="path90"
         style="fill:#4e4a3d;fill-opacity:1;fill-rule:nonzero;stroke:none"
         d="m 1059.9,997.246 c 104.4,0 166.47,-43.324 193.23,-98.398 12.2,-25.106 17.03,-52.602 15.14,-79.524 -1.88,-26.926 -10.43,-53.332 -24.98,-76.265 -31.38,-49.461 -90.45,-82.911 -170.34,-70.914 -4.18,0.613 -7.1,4.609 -6.5,8.925 0.23,1.66 0.94,3.125 1.98,4.266 11.34,14.793 16.48,29.727 16.51,43.379 0.03,11.672 -3.68,22.508 -10.43,31.543 -6.9,9.25 -17.01,16.707 -29.57,21.387 -18.33,6.832 -41.83,7.738 -68.424,-0.149 -30.473,-9.047 -53.825,-32.699 -70.262,-62.535 -20.035,-36.352 -29.797,-81.742 -29.797,-121.582 0,-22.359 2.441,-43.785 6.922,-63.645 l 0.059,-0.289 c 4.628,-20.433 11.402,-39.215 19.886,-55.656 l 0.012,0.012 c 13.441,-25.293 32.289,-40.606 51.898,-48.196 14.485,-5.613 29.403,-7.042 42.848,-5.199 13.148,1.809 24.818,6.75 33.138,13.946 6.96,6.011 11.5,13.601 12.37,22.152 0.43,4.332 4.18,7.484 8.39,7.039 0.94,-0.094 1.99,-0.246 3.15,-0.434 18.26,-2.949 31.54,-13.847 39.71,-28.921 7.84,-14.473 10.82,-32.79 8.83,-51.391 l -0.03,-0.234 c -0.2,-1.844 -0.45,-3.68 -0.75,-5.497 -4.23,-26.203 -15.72,-46.066 -31.6,-60.171 -13.22,-11.747 -29.38,-19.403 -46.84,-23.348 -17.16,-3.875 -35.669,-4.156 -53.919,-1.207 -32.957,5.332 -65.125,21.332 -86.941,45.89 -13.059,14.7 -24.789,33.09 -35.617,55.579 -10.727,22.277 -20.59,48.566 -30.016,79.285 -6.828,22.25 -12.164,45.57 -15.766,69.726 -3.453,23.211 -5.3,47.18 -5.3,71.672 0,104.063 29.129,198.403 76.222,266.801 47.629,69.168 113.653,111.953 186.787,111.953 z m 179.57,-105.441 c -24.38,50.168 -81.92,89.629 -179.57,89.629 -67.884,0 -129.533,-40.239 -174.322,-105.282 -45.32,-65.824 -73.351,-156.91 -73.351,-257.66 0,-23.719 1.781,-46.898 5.121,-69.328 3.468,-23.289 8.629,-45.805 15.23,-67.316 9.227,-30.075 18.801,-55.637 29.113,-77.059 10.211,-21.211 21.133,-38.394 33.161,-51.934 19.418,-21.863 48.296,-36.14 78.015,-40.949 16.36,-2.644 32.953,-2.386 48.343,1.082 15.08,3.41 28.92,9.918 40.07,19.825 13.28,11.8 22.92,28.566 26.52,50.847 0.25,1.563 0.47,3.11 0.63,4.629 l 0.02,0.238 c 1.66,15.438 -0.7,30.422 -6.97,42.004 -5.26,9.707 -13.39,17.028 -24.3,20.059 -2.74,-9.418 -8.39,-17.66 -16.13,-24.348 -10.49,-9.062 -24.92,-15.25 -40.99,-17.457 -15.794,-2.172 -33.275,-0.504 -50.22,6.059 -22.758,8.812 -44.543,26.414 -59.926,55.355 l 0.016,0.012 -0.047,0.086 c -9.133,17.687 -16.406,37.777 -21.34,59.531 l -0.082,0.324 c -4.754,21.067 -7.344,43.696 -7.344,67.227 0,42.25 10.43,90.527 31.832,129.367 18.297,33.211 44.621,59.625 79.375,69.942 29.836,8.855 56.626,7.683 77.826,-0.219 15.35,-5.723 27.81,-14.985 36.46,-26.571 8.8,-11.796 13.65,-25.941 13.61,-41.183 -0.03,-13.652 -3.99,-28.113 -12.55,-42.442 66.78,-5.921 116.08,23.305 142.79,65.426 13.13,20.696 20.84,44.485 22.54,68.731 1.69,24.246 -2.62,48.922 -13.53,71.375" /><path
         id="path92"
         style="fill:#4e4a3d;fill-opacity:1;fill-rule:nonzero;stroke:none"
         d="M 822.684,694.293 C 807.023,638.738 809.059,578.309 822.898,523.645 886.504,272.367 1094.57,321.746 1057.52,453.988 1081.74,328.91 894.395,291.59 834.992,526.25 c -13.422,53.027 -15.433,111.531 -0.308,165.168 19.175,88.609 107.972,211.887 217.396,200.637 111.4,-13.028 132.68,-128.481 63.12,-194.418 87.93,60.113 55.7,212.793 -83.74,207.043 C 934.504,900.66 846.836,800.328 822.684,694.293" /><path
         id="path94"
         style="fill:#c38a31;fill-opacity:1;fill-rule:evenodd;stroke:none"
         d="m 512.93,989.336 c -290.957,0 -239.977,-343.297 -14.129,-309.379 -50.516,65.129 8.558,136.16 99.609,109.133 71.516,-21.231 105.633,-116.258 105.633,-191.711 0,-46.742 -10.434,-89.672 -27.84,-123.379 -45.398,-85.43 -149.394,-65.023 -154.574,-14.297 -35.004,-3.754 -50.113,-40.465 -44.145,-77.344 16.414,-101.476 149.121,-98.98 206.125,-34.816 25.086,28.242 45.297,71.129 63.954,131.93 13.171,42.929 20.707,89.859 20.707,139.019 0,204.813 -114.321,370.844 -255.34,370.844" /><path
         id="path96"
         style="fill:#4e4a3d;fill-opacity:1;fill-rule:nonzero;stroke:none"
         d="m 512.93,981.434 c -97.657,0 -155.196,-39.461 -179.571,-89.629 -10.91,-22.453 -15.218,-47.129 -13.527,-71.375 1.691,-24.246 9.41,-48.035 22.531,-68.731 26.723,-42.125 76.024,-71.347 142.789,-65.426 -8.554,14.329 -12.511,28.79 -12.543,42.442 -0.039,15.242 4.805,29.387 13.61,41.183 8.648,11.586 21.109,20.848 36.461,26.571 21.199,7.902 47.988,9.074 77.828,0.219 34.75,-10.317 61.074,-36.731 79.371,-69.942 21.398,-38.84 31.828,-87.117 31.828,-129.367 0,-23.531 -2.586,-46.16 -7.34,-67.227 l -0.082,-0.324 c -4.933,-21.754 -12.203,-41.844 -21.34,-59.531 l -0.043,-0.086 0.012,-0.012 c -15.383,-28.941 -37.168,-46.543 -59.926,-55.355 -16.941,-6.563 -34.425,-8.227 -50.215,-6.059 -16.074,2.207 -30.503,8.395 -40.992,17.457 -7.734,6.688 -13.39,14.93 -16.14,24.348 -10.907,-3.031 -19.028,-10.352 -24.289,-20.059 -6.27,-11.582 -8.629,-26.566 -6.973,-42.004 l 0.023,-0.238 c 0.164,-1.519 0.379,-3.066 0.625,-4.629 3.61,-22.281 13.243,-39.047 26.524,-50.847 11.152,-9.907 24.988,-16.415 40.066,-19.825 15.391,-3.468 31.988,-3.726 48.344,-1.082 29.719,4.809 58.598,19.086 78.016,40.949 12.027,13.54 22.949,30.723 33.164,51.934 10.312,21.422 19.882,46.984 29.109,77.059 6.598,21.511 11.762,44.027 15.23,67.316 3.34,22.43 5.118,45.609 5.118,69.328 0,100.75 -28.028,191.836 -73.344,257.66 C 642.461,941.195 580.816,981.434 512.93,981.434 Z M 319.695,898.848 c 26.762,55.074 88.828,98.398 193.235,98.398 73.133,0 139.16,-42.785 186.785,-111.953 47.09,-68.398 76.223,-162.738 76.223,-266.801 0,-24.492 -1.844,-48.461 -5.301,-71.672 -3.598,-24.156 -8.942,-47.476 -15.766,-69.726 -9.426,-30.719 -19.289,-57.004 -30.012,-79.285 -10.828,-22.489 -22.558,-40.879 -35.617,-55.579 -21.816,-24.558 -53.984,-40.558 -86.945,-45.89 -18.25,-2.949 -36.762,-2.668 -53.918,1.207 -17.461,3.945 -33.621,11.601 -46.836,23.348 -15.879,14.105 -27.371,33.968 -31.609,60.171 -0.297,1.817 -0.543,3.653 -0.746,5.497 l -0.028,0.234 c -1.996,18.601 0.996,36.918 8.832,51.391 8.164,15.074 21.446,25.972 39.711,28.921 1.149,0.188 2.207,0.34 3.149,0.434 4.203,0.445 7.957,-2.707 8.39,-7.039 0.871,-8.551 5.406,-16.141 12.367,-22.152 8.321,-7.196 19.985,-12.137 33.141,-13.946 13.441,-1.843 28.359,-0.414 42.848,5.199 19.609,7.59 38.453,22.903 51.894,48.196 l 0.012,-0.012 c 8.484,16.441 15.254,35.223 19.887,55.656 l 0.058,0.289 c 4.481,19.86 6.922,41.286 6.922,63.645 0,39.84 -9.758,85.23 -29.793,121.582 -16.437,29.836 -39.789,53.488 -70.265,62.535 -26.59,7.887 -50.094,6.981 -68.422,0.149 -12.567,-4.68 -22.668,-12.137 -29.571,-21.387 -6.75,-9.035 -10.461,-19.871 -10.433,-31.543 0.031,-13.652 5.172,-28.586 16.515,-43.379 1.036,-1.141 1.746,-2.606 1.977,-4.266 0.598,-4.316 -2.313,-8.312 -6.5,-8.925 -79.887,-11.997 -138.965,21.453 -170.336,70.914 -14.551,22.933 -23.109,49.339 -24.988,76.265 -1.883,26.922 2.941,54.418 15.14,79.524" /><path
         id="path98"
         style="fill:#4e4a3d;fill-opacity:1;fill-rule:nonzero;stroke:none"
         d="M 750.148,694.293 C 765.809,638.738 763.77,578.309 749.934,523.645 686.324,272.367 478.258,321.746 515.305,453.988 491.094,328.91 678.43,291.59 737.836,526.25 751.258,579.277 753.27,637.781 738.148,691.418 718.973,780.027 630.176,903.305 520.75,892.055 409.348,879.027 388.066,763.574 457.637,697.637 369.699,757.75 401.934,910.43 541.363,904.68 638.324,900.66 725.992,800.328 750.148,694.293" /><path
         id="path100"
         style="fill:#4e4a3d;fill-opacity:1;fill-rule:nonzero;stroke:none"
         d="m 608.273,466.59 c 20.446,22.848 33.59,31.648 64.25,35.848 34.993,3.789 70.215,-0.899 105.04,-4.215 52.464,-4.789 91.628,-6.864 143.941,4.609 30.445,7.742 52.43,17.25 78.726,34.309 29.08,20.004 48.05,44.691 69.04,72.699 -36.36,25.562 -72.719,51.121 -109.079,76.68 -10.769,-14.364 -20.48,-24.954 -35.398,-35.215 -11.867,-7.7 -21.484,-11.746 -35.219,-15.242 -33.402,-7.325 -65.207,-4.426 -98.914,-1.348 -48.004,4.574 -86.347,3.715 -135.086,-1.555 -28.972,-3.972 -50.609,-10.012 -77.011,-22.66 -29.356,-15.109 -48.79,-30.789 -70.633,-55.203 L 608.273,466.59" /><path
         id="path102"
         style="fill:#ffffff;fill-opacity:1;fill-rule:nonzero;stroke:none"
         d="m 560.996,520.266 c 14.602,15.16 27.274,25.011 46.125,34.679 19.387,9.278 35.195,13.532 56.465,16.446 42.277,4.574 79.019,0.039 120.887,-3.957 42.824,-3.907 77.601,-1.172 120.187,8.171 21.633,5.497 37.098,12.129 55.781,24.247 19.465,13.367 32.457,26.367 47.009,44.742 l -45.208,32.5 c -10.48,-13.231 -19.281,-22.153 -33.301,-31.774 -12.66,-8.207 -22.957,-12.558 -37.609,-16.285 -34.519,-7.566 -66.578,-4.703 -101.387,-1.531 -47.304,4.512 -85.441,3.664 -133.437,-1.531 -28.094,-3.848 -49.028,-9.668 -74.625,-21.934 -25.293,-12.973 -42.516,-26.191 -62.106,-46.531 13.746,-12.414 27.477,-24.828 41.219,-37.242" /><path
         id="path104"
         style="fill:#ed1c24;fill-opacity:1;fill-rule:nonzero;stroke:none"
         d="m 607.633,478.121 c 8.918,9.27 16.535,15.367 28.051,21.27 12.265,5.879 22.441,8.386 35.906,10.23 35.566,3.852 71.297,-0.812 106.691,-4.191 51.492,-4.696 90.133,-6.825 141.465,4.433 29.527,7.516 50.832,16.719 76.34,33.262 25.564,17.539 44.424,40.5 63.534,64.633 l -46.3,32.469 C 998.242,621.184 984.754,607.715 964.586,593.871 945.09,581.227 928.984,574.32 906.418,568.57 c -43.641,-9.562 -78.801,-12.351 -122.664,-8.347 -41.141,3.922 -77.723,8.48 -119.238,3.984 -20.371,-2.793 -35.508,-6.836 -54.075,-15.723 -18.003,-9.242 -30.078,-18.632 -44.023,-33.121 13.738,-12.41 27.48,-24.82 41.215,-37.242" /></g></g></svg>