<?xml version="1.0" encoding="UTF-8"?>
<svg id="Layer_1" xmlns="http://www.w3.org/2000/svg" version="1.1" viewBox="0 0 566.93 566.93">
  <!-- Generator: Adobe Illustrator 29.7.1, SVG Export Plug-In . SVG Version: 2.1.1 Build 8)  -->
  <defs>
    <style>
      .st0 {
        fill: none;
        stroke: #636256;
        stroke-miterlimit: 22.93;
        stroke-width: 10.3px;
      }

      .st1 {
        fill: #fff;
      }

      .st2, .st3 {
        fill: #57564a;
      }

      .st4 {
        fill: #e30613;
      }

      .st3, .st5, .st6 {
        fill-rule: evenodd;
      }

      .st5 {
        fill: #6f6d60;
      }

      .st6 {
        fill: #ca9a43;
      }
    </style>
  </defs>
  <path class="st5" d="M283.35.23c156.49,0,283.35,126.86,283.35,283.35s-126.86,283.35-283.35,283.35S0,440.07,0,283.58,126.86.23,283.35.23"/>
  <path class="st6" d="M283.35,18.33c146.49,0,265.25,118.76,265.25,265.25s-118.76,265.25-265.25,265.25S18.1,430.07,18.1,283.58,136.85,18.33,283.35,18.33"/>
  <path class="st3" d="M283.35,43.62c132.53,0,239.96,107.43,239.96,239.96s-107.43,239.96-239.96,239.96S43.39,416.11,43.39,283.58,150.82,43.62,283.35,43.62"/>
  <line class="st0" x1="283.32" y1="43.15" x2="283.32" y2="523.07"/>
  <line class="st0" x1="258.24" y1="44.47" x2="308.4" y2="521.75"/>
  <line class="st0" x1="233.43" y1="48.4" x2="333.21" y2="517.83"/>
  <line class="st0" x1="209.17" y1="54.9" x2="357.47" y2="511.33"/>
  <line class="st0" x1="185.72" y1="63.9" x2="380.92" y2="502.32"/>
  <line class="st0" x1="163.34" y1="75.3" x2="403.3" y2="490.92"/>
  <line class="st0" x1="142.27" y1="88.98" x2="424.36" y2="477.24"/>
  <line class="st0" x1="122.76" y1="104.79" x2="443.88" y2="461.44"/>
  <line class="st0" x1="105" y1="122.55" x2="461.64" y2="443.67"/>
  <line class="st0" x1="89.19" y1="142.07" x2="477.45" y2="424.16"/>
  <line class="st0" x1="75.51" y1="163.13" x2="491.13" y2="403.09"/>
  <line class="st0" x1="64.11" y1="185.51" x2="502.53" y2="380.71"/>
  <line class="st0" x1="55.1" y1="208.96" x2="511.53" y2="357.26"/>
  <line class="st0" x1="48.6" y1="233.22" x2="518.03" y2="333"/>
  <line class="st0" x1="44.68" y1="258.03" x2="521.96" y2="308.19"/>
  <line class="st0" x1="43.36" y1="283.11" x2="523.28" y2="283.11"/>
  <line class="st0" x1="44.68" y1="308.19" x2="521.96" y2="258.03"/>
  <line class="st0" x1="48.6" y1="333" x2="518.03" y2="233.22"/>
  <line class="st0" x1="55.1" y1="357.26" x2="511.53" y2="208.96"/>
  <line class="st0" x1="64.11" y1="380.71" x2="502.53" y2="185.51"/>
  <line class="st0" x1="75.51" y1="403.09" x2="491.13" y2="163.13"/>
  <line class="st0" x1="89.19" y1="424.15" x2="477.45" y2="142.07"/>
  <line class="st0" x1="105" y1="443.67" x2="461.64" y2="122.55"/>
  <line class="st0" x1="122.76" y1="461.43" x2="443.88" y2="104.79"/>
  <line class="st0" x1="142.27" y1="477.24" x2="424.36" y2="88.98"/>
  <line class="st0" x1="163.34" y1="490.92" x2="403.3" y2="75.3"/>
  <line class="st0" x1="185.72" y1="502.32" x2="380.92" y2="63.9"/>
  <line class="st0" x1="209.17" y1="511.32" x2="357.47" y2="54.9"/>
  <line class="st0" x1="233.43" y1="517.82" x2="333.21" y2="48.4"/>
  <line class="st0" x1="258.24" y1="521.75" x2="308.4" y2="44.47"/>
  <line class="st0" x1="283.32" y1="523.07" x2="283.32" y2="43.15"/>
  <path class="st6" d="M284.35,67.06c32.3,38.03,46.13,60.62,49.38,104.84,1.1,14.9-3.3,39.99-8.96,65.92-20.78,24.72-34.04,62.27-34.04,104.32,0,1.17.01,2.33.04,3.49v.13c0,17.33,2.74,33.87,7.53,49.01,4.35,13.75,9.21,25.39,14.74,34.93-5.01,38.55-8,52.05-28.69,79.29-20.68-27.24-23.67-40.74-28.69-79.29,5.53-9.55,10.39-21.18,14.74-34.93,4.79-15.13,7.53-31.68,7.53-49.01v-.13c.02-1.16.03-2.33.03-3.49,0-42.05-13.26-79.6-34.04-104.32-5.66-25.93-10.06-51.03-8.96-65.92,3.25-44.22,17.09-66.81,49.38-104.84"/>
  <path class="st2" d="M293.54,345.65v.05s0-.05,0-.05ZM317.44,118.39c-7.43-14.97-18.18-29.33-33.09-47.02-14.91,17.69-25.66,32.05-33.09,47.02-7.73,15.59-11.92,31.98-13.52,53.71-.53,7.23.28,17.03,1.92,28.23,1.63,11.1,4.08,23.57,6.84,36.26,10.61,12.79,19.26,28.83,25.21,47.06,5.79,17.76,9.03,37.59,9.03,58.51l-.02,1.77c0,.62-.01,1.21-.02,1.77v.08h.01c0,8.63-.67,17.08-1.93,25.27-1.31,8.52-3.25,16.74-5.73,24.58-2.18,6.89-4.52,13.32-7.03,19.28-2.36,5.62-4.86,10.74-7.5,15.39,2.43,18.58,4.4,31.22,8.23,42.42,3.57,10.46,8.8,19.76,17.59,31.67,8.79-11.91,14.02-21.21,17.59-31.67,3.82-11.2,5.8-23.84,8.23-42.42-2.64-4.64-5.13-9.77-7.5-15.39-2.51-5.96-4.85-12.39-7.03-19.28-2.48-7.85-4.42-16.07-5.73-24.58-1.26-8.18-1.93-16.63-1.93-25.26h.01v-.09c-.01-.56-.02-1.14-.02-1.76l-.02-1.77c0-20.91,3.24-40.75,9.03-58.51,5.95-18.22,14.6-34.27,25.21-47.06,2.76-12.7,5.21-25.16,6.84-36.26,1.64-11.19,2.46-20.99,1.92-28.23-1.6-21.73-5.78-38.11-13.52-53.71ZM286.5,65.29c16.27,19.16,27.9,34.46,35.92,50.63,8.07,16.26,12.43,33.28,14.08,55.77.56,7.66-.27,17.86-1.97,29.42-1.68,11.46-4.21,24.28-7.05,37.28-.12.54-.38,1.01-.75,1.38-10.28,12.29-18.69,27.83-24.47,45.57-5.61,17.2-8.75,36.45-8.75,56.79v1.73c0,.54.01,1.11.03,1.71v.11s0,.07,0,.07h.01c0,8.36.65,16.53,1.86,24.44,1.26,8.21,3.14,16.15,5.54,23.73,2.17,6.86,4.44,13.13,6.83,18.81,2.4,5.69,4.94,10.88,7.66,15.58.34.59.44,1.25.33,1.87-2.52,19.4-4.55,32.52-8.57,44.3-4.06,11.9-10.1,22.3-20.64,36.19-.93,1.22-2.67,1.46-3.89.53-.22-.17-.41-.36-.57-.58-10.52-13.86-16.55-24.26-20.61-36.14-4.03-11.81-6.06-24.96-8.59-44.42-.08-.63.05-1.24.35-1.75h0c2.72-4.69,5.26-9.88,7.66-15.58,2.39-5.68,4.66-11.95,6.83-18.81,2.4-7.58,4.27-15.52,5.54-23.73,1.21-7.9,1.86-16.07,1.86-24.44h.01v-.18s0,0,0,0c.01-.6.02-1.17.03-1.71v-1.73c0-20.34-3.14-39.59-8.75-56.79-5.82-17.83-14.27-33.44-24.62-45.75-.3-.36-.5-.77-.59-1.2h-.01c-2.84-13.01-5.37-25.82-7.05-37.28-1.7-11.56-2.53-21.76-1.97-29.42,1.65-22.49,6.01-39.51,14.08-55.77,8.03-16.18,19.67-31.49,35.95-50.67.99-1.17,2.75-1.32,3.92-.33.13.11.25.23.35.36Z"/>
  <path class="st2" d="M284.35,477.66h-.08c-1.24-16.88-1.97-36.61-1.93-60.52v-241.39c-.04-47.91,1.73-72.79,1.9-76.88h.23c.17,4.09,1.94,28.97,1.9,76.88v241.39c.03,23.91-.69,43.65-1.94,60.52h-.08Z"/>
  <path class="st6" d="M383.73,207.57c105.76,0,87.23,124.79,5.13,112.46,18.36-23.67-3.11-49.49-36.21-39.67-26,7.72-38.4,42.26-38.4,69.68,0,16.99,3.79,32.6,10.12,44.85,16.5,31.05,54.3,23.63,56.19,5.2,12.73,1.37,18.22,14.71,16.05,28.11-5.97,36.89-54.2,35.98-74.93,12.66-9.12-10.27-16.47-25.86-23.24-47.96-4.79-15.6-7.53-32.66-7.53-50.53,0-74.45,41.55-134.8,92.81-134.8"/>
  <path class="st2" d="M449,243.02c-8.86-18.23-29.78-32.58-65.27-32.58-24.68,0-47.08,14.63-63.36,38.27-16.47,23.93-26.66,57.04-26.66,93.66,0,8.62.65,17.05,1.86,25.2,1.26,8.47,3.14,16.65,5.53,24.47,3.36,10.93,6.83,20.22,10.58,28.01,3.71,7.71,7.68,13.96,12.05,18.88,7.06,7.95,17.56,13.14,28.36,14.88,5.95.96,11.98.87,17.57-.39,5.48-1.24,10.51-3.61,14.56-7.21,4.83-4.29,8.33-10.38,9.64-18.48.09-.57.17-1.13.23-1.68v-.09c.61-5.61-.25-11.06-2.53-15.27-1.91-3.53-4.87-6.19-8.83-7.29-1,3.42-3.05,6.42-5.87,8.85-3.81,3.3-9.06,5.54-14.9,6.35-5.74.79-12.09.18-18.25-2.2-8.27-3.2-16.19-9.6-21.78-20.12h0s-.02-.03-.02-.03c-3.32-6.43-5.96-13.73-7.76-21.64l-.03-.12c-1.73-7.66-2.67-15.88-2.67-24.44,0-15.36,3.79-32.91,11.57-47.02,6.65-12.07,16.22-21.67,28.85-25.42,10.85-3.22,20.58-2.79,28.29.08,5.58,2.08,10.11,5.45,13.25,9.66,3.2,4.29,4.96,9.43,4.95,14.97-.01,4.96-1.45,10.22-4.56,15.43,24.27,2.15,42.19-8.47,51.9-23.78,4.77-7.52,7.57-16.17,8.19-24.98.61-8.81-.95-17.78-4.92-25.94M383.73,204.69c37.95,0,60.51,15.75,70.24,35.77,4.44,9.13,6.19,19.12,5.5,28.91-.68,9.79-3.79,19.39-9.08,27.72-11.4,17.98-32.88,30.14-61.92,25.78-1.52-.22-2.58-1.68-2.36-3.24.08-.6.34-1.14.72-1.55,4.12-5.38,5.99-10.81,6-15.77.01-4.24-1.34-8.18-3.79-11.47-2.51-3.36-6.18-6.07-10.75-7.77-6.66-2.48-15.21-2.81-24.87.05-11.08,3.29-19.57,11.89-25.54,22.73-7.28,13.21-10.83,29.71-10.83,44.19,0,8.13.89,15.92,2.52,23.13l.02.11c1.68,7.43,4.14,14.25,7.23,20.23h0c4.89,9.19,11.74,14.75,18.86,17.51,5.27,2.04,10.69,2.56,15.57,1.89,4.78-.66,9.02-2.45,12.05-5.07,2.53-2.19,4.18-4.94,4.49-8.05.16-1.58,1.52-2.72,3.05-2.56.34.03.73.09,1.14.16,6.64,1.07,11.47,5.03,14.43,10.51,2.85,5.26,3.94,11.92,3.21,18.68v.08c-.08.67-.18,1.34-.28,2-1.54,9.52-5.72,16.74-11.49,21.87-4.8,4.27-10.68,7.05-17.03,8.49-6.24,1.41-12.96,1.51-19.6.44-11.98-1.94-23.67-7.75-31.6-16.68-4.75-5.34-9.01-12.03-12.95-20.2-3.9-8.1-7.48-17.65-10.91-28.82-2.48-8.09-4.42-16.56-5.73-25.34-1.26-8.44-1.93-17.15-1.93-26.05,0-37.83,10.59-72.12,27.71-96.98,17.31-25.14,41.31-40.69,67.89-40.69Z"/>
  <path class="st2" d="M297.51,314.81c-5.69,20.19-4.95,42.16.08,62.03,23.12,91.34,98.75,73.39,85.28,25.32,8.8,45.46-59.3,59.03-80.89-26.27-4.88-19.28-5.61-40.54-.11-60.04,6.97-32.21,39.25-77.02,79.02-72.93,40.49,4.74,48.23,46.7,22.94,70.67,31.96-21.85,20.25-77.35-30.43-75.26-35.24,1.46-67.11,37.93-75.89,76.47"/>
  <path class="st6" d="M184.91,207.57c-105.76,0-87.23,124.79-5.13,112.46-18.36-23.67,3.11-49.49,36.21-39.67,25.99,7.72,38.4,42.26,38.4,69.68,0,16.99-3.79,32.6-10.12,44.85-16.5,31.05-54.3,23.63-56.19,5.2-12.72,1.37-18.22,14.71-16.05,28.11,5.97,36.89,54.2,35.98,74.93,12.66,9.12-10.27,16.46-25.86,23.25-47.96,4.79-15.6,7.53-32.66,7.53-50.53,0-74.45-41.55-134.8-92.81-134.8"/>
  <path class="st2" d="M114.67,240.46c9.73-20.02,32.29-35.77,70.24-35.77,26.58,0,50.58,15.55,67.89,40.69,17.12,24.86,27.71,59.15,27.71,96.98,0,8.9-.67,17.62-1.93,26.05-1.31,8.78-3.25,17.26-5.73,25.34-3.43,11.17-7.01,20.72-10.91,28.82-3.94,8.17-8.2,14.86-12.95,20.2-7.93,8.93-19.62,14.74-31.6,16.68-6.63,1.07-13.36.97-19.6-.44-6.35-1.43-12.22-4.22-17.02-8.49-5.77-5.13-9.95-12.35-11.49-21.87-.11-.66-.2-1.33-.27-2v-.08c-.74-6.76.35-13.42,3.2-18.68,2.97-5.48,7.8-9.44,14.44-10.51.42-.07.8-.12,1.14-.16,1.53-.16,2.89.98,3.05,2.56.32,3.11,1.96,5.87,4.5,8.05,3.03,2.62,7.26,4.41,12.05,5.07,4.89.67,10.31.15,15.58-1.89,7.13-2.76,13.98-8.33,18.86-17.52h0c3.08-5.97,5.54-12.8,7.23-20.23l.02-.11c1.63-7.22,2.52-15.01,2.52-23.13,0-14.48-3.55-30.98-10.83-44.19-5.98-10.85-14.46-19.44-25.54-22.73-9.66-2.87-18.21-2.54-24.87-.05-4.57,1.7-8.24,4.41-10.75,7.77-2.45,3.28-3.8,7.22-3.79,11.47.01,4.96,1.88,10.39,6,15.77.38.41.64.95.72,1.55.22,1.57-.84,3.02-2.36,3.24-29.04,4.36-50.51-7.8-61.92-25.78-5.29-8.34-8.4-17.93-9.08-27.72-.68-9.79,1.07-19.78,5.5-28.91M184.91,210.44c-35.5,0-56.41,14.34-65.27,32.58-3.97,8.16-5.53,17.13-4.92,25.94.62,8.81,3.42,17.46,8.19,24.98,9.71,15.31,27.63,25.93,51.9,23.78-3.11-5.21-4.55-10.46-4.56-15.43-.01-5.54,1.75-10.68,4.95-14.97,3.14-4.21,7.67-7.58,13.25-9.66,7.71-2.87,17.44-3.3,28.29-.08,12.63,3.75,22.2,13.35,28.85,25.42,7.78,14.12,11.57,31.67,11.57,47.02,0,8.55-.94,16.78-2.67,24.44l-.03.12c-1.79,7.91-4.44,15.21-7.76,21.64l-.02.03h0c-5.59,10.52-13.51,16.92-21.78,20.13-6.16,2.39-12.51,2.99-18.25,2.2-5.84-.8-11.09-3.05-14.9-6.35-2.81-2.43-4.87-5.43-5.87-8.85-3.96,1.1-6.92,3.76-8.83,7.29-2.28,4.21-3.14,9.66-2.54,15.27v.09c.07.55.15,1.11.24,1.68,1.31,8.1,4.81,14.19,9.64,18.48,4.05,3.6,9.08,5.97,14.56,7.21,5.59,1.26,11.63,1.36,17.57.39,10.8-1.75,21.3-6.94,28.36-14.88,4.37-4.92,8.34-11.17,12.06-18.88,3.75-7.79,7.23-17.08,10.58-28.01,2.4-7.82,4.27-16,5.54-24.47,1.21-8.15,1.86-16.58,1.86-25.2,0-36.62-10.19-69.73-26.66-93.66-16.28-23.64-38.69-38.27-63.36-38.27Z"/>
  <path class="st2" d="M271.14,314.81c5.69,20.19,4.95,42.16-.08,62.03-23.12,91.34-98.75,73.39-85.28,25.32-8.8,45.46,59.29,59.03,80.89-26.27,4.88-19.28,5.61-40.54.11-60.04-6.97-32.21-39.25-77.02-79.02-72.93-40.49,4.74-48.23,46.7-22.94,70.67-31.96-21.85-20.25-77.35,30.43-75.26,35.24,1.46,67.11,37.93,75.89,76.47"/>
  <path class="st2" d="M219.57,397.58c7.43-8.31,12.21-11.5,23.35-13.03,12.72-1.38,25.52.33,38.18,1.53,19.07,1.74,33.31,2.49,52.32-1.68,11.07-2.81,19.06-6.27,28.62-12.47,10.57-7.27,17.47-16.24,25.1-26.43-13.22-9.29-26.43-18.58-39.65-27.87-3.91,5.22-7.44,9.07-12.87,12.8-4.31,2.8-7.81,4.27-12.8,5.54-12.14,2.66-23.7,1.61-35.95.49-17.45-1.66-31.39-1.35-49.1.57-10.53,1.44-18.4,3.64-27.99,8.24-10.67,5.49-17.73,11.19-25.67,20.07l36.47,32.24Z"/>
  <path class="st1" d="M202.38,378.07c5.31-5.51,9.91-9.09,16.77-12.61,7.05-3.37,12.79-4.92,20.52-5.98,15.37-1.66,28.72-.02,43.94,1.44,15.57,1.42,28.21.43,43.69-2.97,7.86-2,13.48-4.41,20.28-8.81,7.07-4.86,11.8-9.58,17.09-16.26l-16.43-11.81c-3.81,4.81-7.01,8.05-12.1,11.55-4.6,2.98-8.35,4.57-13.67,5.92-12.55,2.75-24.2,1.71-36.85.56-17.19-1.64-31.06-1.33-48.5.56-10.21,1.4-17.82,3.51-27.13,7.97-9.19,4.72-15.45,9.52-22.57,16.91,5,4.51,9.99,9.03,14.98,13.54"/>
  <path class="st4" d="M219.34,393.39c3.24-3.37,6.01-5.59,10.2-7.73,4.46-2.14,8.16-3.05,13.05-3.72,12.93-1.4,25.91.3,38.78,1.52,18.72,1.71,32.76,2.48,51.42-1.61,10.73-2.73,18.48-6.08,27.75-12.09,9.29-6.38,16.15-14.72,23.09-23.49l-16.83-11.8c-5.48,6.92-10.39,11.82-17.72,16.85-7.09,4.6-12.94,7.11-21.14,9.2-15.86,3.48-28.64,4.49-44.59,3.03-14.95-1.43-28.25-3.08-43.34-1.45-7.4,1.02-12.91,2.49-19.66,5.72-6.54,3.36-10.93,6.77-16,12.04,4.99,4.51,9.99,9.02,14.98,13.54"/>
</svg>