<?xml version="1.0" encoding="UTF-8"?>
<svg id="Layer_1" xmlns="http://www.w3.org/2000/svg" xmlns:xlink="http://www.w3.org/1999/xlink" version="1.1" viewBox="0 0 566.93 850.39">
  <!-- Generator: Adobe Illustrator 29.7.1, SVG Export Plug-In . SVG Version: 2.1.1 Build 8)  -->
  <defs>
    <style>
      .st0 {
        stroke: #636256;
        stroke-width: 10.31px;
      }

      .st0, .st1, .st2 {
        fill: none;
      }

      .st0, .st2 {
        stroke-miterlimit: 22.93;
      }

      .st3 {
        clip-path: url(#clippath-1);
      }

      .st4 {
        clip-path: url(#clippath-3);
      }

      .st5 {
        clip-path: url(#clippath-4);
      }

      .st6 {
        clip-path: url(#clippath-2);
      }

      .st7 {
        clip-path: url(#clippath-7);
      }

      .st8 {
        clip-path: url(#clippath-6);
      }

      .st9 {
        clip-path: url(#clippath-5);
      }

      .st10 {
        fill: #fff;
      }

      .st1 {
        clip-rule: evenodd;
      }

      .st11, .st12 {
        fill: #57564a;
      }

      .st13 {
        fill: #e30613;
      }

      .st12, .st14, .st15 {
        fill-rule: evenodd;
      }

      .st2 {
        stroke: #b68c3d;
        stroke-width: 2.06px;
      }

      .st14 {
        fill: #6f6d60;
      }

      .st16 {
        clip-path: url(#clippath);
      }

      .st15 {
        fill: #ca9a43;
      }
    </style>
    <clipPath id="clippath">
      <path class="st1" d="M84.13,738.97c.28.77.22,1.52-.55,2.09-1.46,1.09-3.74,1.35-5.47,1.7-3.72.77-8.51,1.21-11.32,4.15-2.94,3.07-2.05,7.67.64,10.53,3.57,3.8,9.02,5.98,13.91,7.27,5.42,1.43,7.89.32,13.38.04,3.17-.16,6.56-.21,9.61.82,1.99.68,6.16,3.03,5.78,5.69-.53,3.68-7.65,9.68-8.77,16.58-1.36,8.36,21.25,7.24,25.03,6.43,4.14-.32,27.99-15.83,4.57-17.59-1.83-.07-3.64-.14-5.39-.39-1.88-.27-4.07-.65-6.09-1.45-2.13-.85-4.03-4.14-5.16-6.26-.16-.24-.32-.48-.45-.75-1.19-2.29-.77-4.52.48-6.33.24-.44.52-.87.84-1.27l-.24-.69c-1.1-3.19-2.47-7.02-4.71-9.96-2.24-2.94-5.33-4.99-10.72-6.83-4.2-1.43-9.8-2.74-15.36-3.78"/>
    </clipPath>
    <clipPath id="clippath-1">
      <path class="st1" d="M132.6,709.6c.15-.25.31-.48.46-.7-.17.21-.32.45-.46.7M144.74,732.46c.56-.18,1.16-.34,1.81-.51l-.04-.04c-2.35-2.54-3.3-2.88-5.02-3.49-.39-.14-.82-.29-1.31-.48.91,1,1.9,2.03,2.99,3.07.5.48,1.02.97,1.56,1.45Z"/>
    </clipPath>
    <clipPath id="clippath-2">
      <path class="st1" d="M212.28,726.12c.34-1.86.69-3.76.98-5.67-1.59-.82-3.25-1.53-4.82-2.05-4.19-1.4-7.62-1.5-10.31-1.11-2.69.39-4.63,1.26-6.92,1.83-2.29.58-4.94.87-7.54,1.21-2.6.34-5.16.72-7.93.29-2.78-.43-5.77-1.69-9.25-3.09-3.48-1.4-7.45-2.95-10.22-4.2-2.78-1.26-4.36-2.22-6.19-3.15-1.79-.91-3.8-1.77-7.27-2.49-.47.06-.93.13-1.36.21-3.16.56-6.36,1.61-7,5.3-.87,5.02,2.72,8.44,6.75,10.38,5.87,2.83,9.61,5.44,15.76,7.01,8.95,1.87,14.78,10.31,21.59,16.07,2.68-4.09-2.8-9.85-4.41-13.53-2.27-5.19-.46-7.36,3.27-8.88,5.05-2.05,10.17-1.39,14.63,1.73,4.73,3.31,8.16,8.33,11.49,13.03,3.04,4.29,7.31,9.89,11.92,12.64-1.1-12.06-6.08-9.43-3.17-25.53"/>
    </clipPath>
    <clipPath id="clippath-3">
      <path class="st1" d="M120.63,772.92h.05c4.77.63,10.13.1,14.77,1.4,2.21.62,5.2,2.02,4.57,4.56-.44,1.78-1.9,3.35-2.95,4.84-1.94,2.76-3.53,5.88-1.16,8.89,3.23,4.1,8.57,3.74,13.1,2.05,5.41-2.02,11.05-6.71,17.06-6.75,1.82-.01,5.46.15,4.97,2.49-.38,1.83-2.03,3.62-3.15,5.09-2.43,3.17-5.95,6.86-6.08,10.99-.14,4.31,3.9,7.05,8.13,7.26,5.61.27,11.57-1.96,16.42-4.46,5.38-2.76,9.13-7.57,13.34-11.63,2.43-2.35,5.11-4.77,8.3-6.16,2.09-.91,7.13-2.11,8.75.1,1.14,1.56-.04,4.63-.44,6.26-.52,2.11-1.14,4.24-1.23,6.41-.08,1.84.28,3.61,1.37,5.15,2.88,4.1,22.27-3.78,41.86-11.97l.43-19.04c-13.99,2.72-95.6-2.87-117.22-11.16-4.91-1.88-13.83-.21-18,1.33-2.22.82-3.19,2.12-2.92,4.34"/>
    </clipPath>
    <clipPath id="clippath-4">
      <path class="st1" d="M375.76,734c6.64-5.44,13.27-10.89,19.91-16.33,8.31-8.37,16.61-16.75,24.92-25.13,5.74-3.33,11.49-6.65,17.23-9.98,2.69-1.56,5.37-3.13,8.06-4.7-6.58,22.61-12.87,42.13-30.72,56.55-12.11-1.85-28.24-.82-39.4-.41"/>
    </clipPath>
    <clipPath id="clippath-5">
      <path class="st1" d="M452.94,745.26c13.85-9.33,27.69-18.66,41.54-27.99,17.33-12.41,25.36-20.42,40.05-35.52-7.21,21.36-19.17,43.95-33.64,63.07-16.81,22.21-37.48,39.26-65.4,36.76,11.43-7.58,22.85-15.16,34.28-22.74,1.59-1.07,4.47-3.43,6.06-4.5-1.59-1.43-19.08-7.72-22.89-9.08"/>
    </clipPath>
    <clipPath id="clippath-6">
      <path class="st1" d="M320.75,779.63c6.95-.54,13.9-1.08,20.85-1.61,11.23-1.18,22.46-2.36,33.69-3.54,7.25-1.68,14.49-3.35,21.73-5.03,4.6-1.18,9.19-2.37,13.79-3.55,7.14-1.65,14.27-3.3,21.41-4.95,12.51-2,25.03-4,37.54-6.01-7.99,5.63-15.99,11.26-23.98,16.89-17.18,11.98-35.84,21.65-57.35,26.86-20.62,4.23-40.58,3.7-60.22.97-3.34-.26-6.69-.52-10.03-.78.85-6.42,1.71-12.84,2.56-19.25"/>
    </clipPath>
    <clipPath id="clippath-7">
      <path class="st1" d="M292.2,729.48h10.6c.92,0,1.76.36,2.36.93.61.57.98,1.36.98,2.22v80.48c0,.86-.38,1.65-.98,2.22-.6.57-1.44.92-2.36.92h-10.6c-.92,0-1.76-.35-2.36-.92-.6-.57-.98-1.36-.98-2.23v-80.48c0-.86.37-1.65.98-2.22.61-.57,1.45-.93,2.37-.93M284.32,729.48h-10.6c-.92,0-1.76.36-2.36.93-.61.57-.98,1.36-.98,2.22v80.48c0,.86.38,1.65.98,2.22.6.57,1.44.92,2.36.92h10.6c.92,0,1.76-.35,2.36-.92.6-.57.98-1.36.98-2.23v-80.48c0-.86-.37-1.65-.98-2.22-.61-.57-1.45-.93-2.37-.93ZM314.17,735.06h-6.84v78.05c0,.24-.02.47-.06.69h6.9c2.21,0,4.01-1.7,4.01-3.78v-71.19c0-2.08-1.81-3.78-4.01-3.78ZM262.34,735.06h6.84v78.05c0,.24.02.47.06.69h-6.9c-2.21,0-4.01-1.7-4.01-3.78v-71.19c0-2.08,1.81-3.78,4.01-3.78Z"/>
    </clipPath>
  </defs>
  <path class="st12" d="M438.79,787.61c.06.45.09.91.09,1.38,0,2.65-1,5.04-2.63,6.86l2.13,1.83-7.83,4.87c-10.55,6.57-24.5,6.21-35.71,1.5l-.8-.34c-11.45,2.8-23.49,3.7-35.58,3.65,7.94,2.69,15.88,5.37,23.85,7.97l.77.25.16.1c5.65,2.33,8.73,7.87,8.73,13.96,0,7.55-5.83,14.94-13.72,14.94-1.86,0-3.68-.4-5.36-1.18l-.19-.09-50.52-27.15c-1.99,2.15-4.87,3.49-8.01,3.49h-4.72c-1.85,1.59-4.21,2.46-6.66,2.46h-10.6c-1.36,0-2.7-.27-3.94-.78-1.24.51-2.58.78-3.94.78h-10.6c-2.44,0-4.81-.87-6.66-2.46h-4.72c-3.08,0-5.9-1.28-7.88-3.36l-50.27,27.02c-.93.43-1.83.75-2.83.97-1.06.28-2.15.42-3.25.42-5.02,0-9.35-3.05-11.74-7.36-3.04-5.48-2.97-12.18,2.51-18.23,7.46-4.97,12.29-5.95,20.73-8.79-.98-2.18-1.37-4.54-1.27-6.99.08-1.92.43-3.7.86-5.5-1.76,1.1-3.4,2.67-4.8,4.02-4.95,4.78-8.64,9.54-14.94,12.78-6.03,3.1-12.98,5.53-19.84,5.2-7.77-.38-14.82-6-14.57-14.22.1-3.28,1.18-5.94,2.69-8.4-2.42,1.25-4.77,2.53-6.36,3.12-6.37,2.38-13.46,2.42-18.61-1.93-1.77.91-3.63,1.65-5.29,1.9-4.07.81-10.1.76-14.13.47-6.47-.46-15.11-2.04-18-8.74-.81-1.88-1.02-3.9-.7-5.92.47-2.86,1.58-5.53,3-8.04,1.19-2.09,2.57-4.01,3.96-5.96.15-.21.34-.47.55-.77,0,0,0,0-.01,0-2.08-.7-4.94-.58-7.11-.47-6.09.31-9.03,1.43-15.44-.26-6.24-1.64-12.63-4.4-17.12-9.18-5.18-5.51-6.02-14.16-.59-19.84,2.16-2.25,4.55-3.5,7.11-4.33-2.21-.58-4.29-1.1-5.49-1.58-7.11-2.86-12.48-8.8-11.6-16.91.72-6.59,5.44-9.93,11.32-11.49-2.07-2.63-5.12-5.27-7.08-7.76-3.78-4.8-7.03-10.49-5.4-16.83.48-1.86,1.3-3.48,2.39-4.84-.28-.44-.56-.89-.82-1.34-5.59-1.52-10.38-2.07-15.46-5.4-4.97-3.25-9.66-7.47-12.39-12.82-3.15-6.18-2.31-14.33,3.89-18.28.69-.44,1.37-.79,2.05-1.08-.05-.04-.1-.08-.15-.12-8.86-7.46-3.1-18.85,7.4-19.66-.93-2.33-2.12-4.6-3.08-6.9-2.2-5.3-1.13-8.92,1.28-13.78,3.31-6.7,10.79-7.95,16.94-4.45,5.23,2.97,6.7,5.53,9.61,8.93,4.83-3.98,11.11-7.47,16.94-3.91,2.34,1.43,3.77,3.59,4.65,6.03,4.08-5.34,11.17-5.76,16.94-2.17,5.08,3.16,8.78,7.9,12.41,12.54.46.59.91,1.19,1.36,1.78,2.06-2.75,4.56-5.11,8.07-5.84,6.22-1.29,11.09,3.28,14.68,7.7.51.62.98,1.27,1.43,1.93l.64.96.29,1.12c.4,1.57.82,3.14,1.31,4.68,1.29,4.05,1.76,8.29,1.68,12.53,3.93-2.8,8.68-2.32,13.2,1.8,2.59,2.36,4.6,5.24,5.91,8.5,1.46,3.64,1.13,8.02.96,11.87-.19,4.33-1.11,6.64-2.37,9.42,1.08,1.52,1.86,3.21,2.24,5.05.48-1.08,1.01-2.15,1.6-3.19,4.95-8.62,14.68-6.21,21.36-1.54,6.51,4.55,9.06,10.62,10.06,17.24,3.29-1.98,7.41-2.01,11.97.2,6.96,3.38,11.35,9.61,12.53,17.23.87,5.61.17,11.1-.78,16.6,7-.51,15.08,3.29,19.81,7.4,1.01.87,1.95,1.82,2.82,2.82.27-.16.56-.32.85-.47,3.14-1.6,6.68-1.54,10.11-.73,1.9-3.09,5.37-5.12,9.24-5.12h2.29c.52-1.04,1.23-2,2.09-2.81,1.89-1.78,4.4-2.76,6.99-2.76h10.6c1.36,0,2.7.27,3.94.78,1.24-.51,2.58-.78,3.94-.78h10.6c2.59,0,5.1.98,6.99,2.76.87.82,1.57,1.77,2.09,2.81h2.29c2.98,0,5.72,1.2,7.69,3.16,2.47-.2,4.96-.14,7.4.22,18.55-28.91,46.52-50.48,80.07-58.29,7.26-34.72,28.73-59.42,59.14-77.45l7.65-4.54,2.32,8.59c.37,1.37.75,2.73,1.14,4.1,5.25-5.79,11.15-11.07,17.19-15.88l7.22-5.74,3.31,8.61c2.25,5.86,3.88,11.88,4.49,18.04,8.1-3.73,16.91-6.86,24.95-10.31l8.18-3.52,1.2,8.82c3.99,29.36,1.48,48.45-12.03,71.08l11.17-2.42-4.4,11.64c-10.47,27.67-28.29,60.16-48.42,81.8-15.33,16.48-32.12,21.41-53.64,22.3"/>
  <path class="st15" d="M491.32,629.12c.15-6.27.97-12.11,3.38-18.16l-1.83,9.13-.71,8.44.67-.63c6.88-5.96,4.57-4.97,12.24-9.48.77-7.78-.49-15.81-4.1-25.18-8.66,6.89-16.91,14.75-23.05,23.34,3.51,11.09,5.66,14.37,5.38,20.53,2.51-2.51,4-5.42,8-7.98"/>
  <path class="st15" d="M510.03,656.05c6.24-7.71,11.36-15.85,15.49-24.38-4.6,6.98-9.39,13.69-14.98,19.2.33-2.02.63-8.01.9-9.98-6.73,3.15-18.24,9.71-29.7,17.06.43-6.69,1.78-10.41,1.72-18.63,8.49-9.99,15.59-16.25,25.59-21.58,7.58-4.05,17.02-7.26,30.36-12.99,4.76,35.04-.66,52.99-18.71,78.18l-18.68,5.63c2.86-9.71,6.21-22.93,8-32.51"/>
  <path class="st15" d="M499.69,689.26c4.74-15.24,8.29-31.16,10.29-45.69-13.42,6.29-40.67,22.65-64.1,42.17-9.94,26.4-14.61,34.75-30.04,49.35,2.44.61,1.3.56,3.53.71,1.47-.48,6.87-8.22,14.71-15.15,5.47-4.83,16.76-11.65,23.22-14.09,12.12-10.81,25.42-28.25,38.32-40.39-9.23,12.24-19.17,24.27-30.22,35.96,8.68-3.21,26.29-11.61,34.3-12.87M434.49,763.26c25.17-6.21,36.67-15.17,44.83-27.5-.99.76-2.23,1.55-3.43,1.84-.83.48-1.6.72-2.47,1.09-.85.85-1.68,1-2.52,1.84l-1.81,1.82c-1.04,1.04-2.32,1.61-3.35,2.68-.66.64-1.31,1.11-2.17,1.45-.88.73-1.95,1.23-3.13,1.42-2.8,2.27-6.96,1.79-9.17-1.08-7.28,7.39-14.75,14.58-16.77,16.45Z"/>
  <path class="st15" d="M434.25,781.61c28.73-.49,41.84-8.02,53.23-20.27,18.65-20.05,36.55-51.86,47.04-79.59-26.12,5.67-90.4,23.42-113.65,54.29,7.43,1.47,15.16,3.55,23.46,6.27,11.77-4.52,22.21-10.91,32.65-17.03,13.28-7.79,25.22-16.91,38.5-24.7-19.03,16.02-39.73,31.09-63.74,44.27,3.11,1.11,22.32,7.22,22.11,10.08-.22,2.96-34.53,23.76-39.6,26.68"/>
  <path class="st15" d="M148.17,764.18l111.79,9.22c.9.07,1.63.83,1.63,1.68s-.73,1.48-1.63,1.41l-111.79-9.22c-.9-.07-1.63-.83-1.63-1.68s.73-1.48,1.63-1.41M216.08,732.39c-4.88,4.54-1.74,8.26,0,13.85.96,3.07,1.92,6.16,1.6,9.26l-.23,2.16-2-1.09c-4.53-2.47-7.39-8.13-10.35-12.07l-2.1-2.74c-3.41-4.4-6.99-9.01-11.7-12.02-2.25-1.44-5.64-3.78-8.12-4.05-2.45-.26-4.98.05-7.5.99-1.71.64-2.95,1.36-3.45,2.36-.51,1-.36,2.46.68,4.64.42.88,1.11,1.91,1.84,3,2.4,3.59,5.8,10.6,3.09,14.38l-.91,1.27-1.27-.98c-2.23-1.72-4.06-5.15-6.3-7.25-5.29-4.95-11.29-8.83-17.81-10.08-1.62-.28-3.41-.72-5.15-1.16-.59.07-1.19.16-1.8.29-12.54,2.65-10,7.35-6.09,15.55.44.93.96,1.83,1.57,2.67-1.68.24-4.73,1.45-5.37,1.62-2.15.56-4.37.89-6.55,1.3-5.16.99-10.81,2-15.33,4.68-3.27,1.93-5.44,5.32-3.44,8.86,2.08,3.66,7.31,4.58,11.27,5.1,4.77.63,10.13.09,14.77,1.39,2.21.62,5.2,2.02,4.57,4.56-.44,1.78-1.9,3.35-2.95,4.84-1.94,2.76-3.53,5.88-1.16,8.89,3.23,4.1,8.57,3.74,13.1,2.05,5.41-2.02,11.05-6.71,17.06-6.75,1.82-.01,5.46.15,4.97,2.49-.38,1.83-2.03,3.62-3.15,5.09-2.43,3.17-5.95,6.86-6.08,10.99-.14,4.31,3.9,7.05,8.13,7.26,5.61.27,11.57-1.96,16.42-4.46,5.38-2.76,9.13-7.57,13.34-11.63,2.43-2.35,5.11-4.77,8.3-6.16,2.09-.91,7.13-2.11,8.75.1,1.14,1.56-.04,4.63-.44,6.26-.52,2.11-1.14,4.24-1.23,6.41-.08,1.84.28,3.61,1.37,5.15,2.88,4.1,23.69-3.78,43.28-11.97l-.99-9.74v-44.93c-.38-.3-.82-.59-1.35-.84-3.08-1.49-8.28-3.59-11.35-2.03-2.26,1.16-3.25,2.55-1.42,5.41,1.13,1.75,3.59,5.6,3.33,8.28-4.12-4.92-7.31-10.27-10.27-14-.85-1.07-1.79-2.06-2.83-2.96-5.65-4.91-15.11-7.68-18.8-4.25Z"/>
  <path class="st15" d="M96.83,671.61c-.56-.58-.96-2.64-1.34-3.22-3.03-3.55-14.15-9.42-16.15-15.88-.76-1.68-.61-3.26-.61-5.06,0-7.56,9.09-7.78,14.1-7.4.16-.62.14-2.75.14-3.38-.1-.24-.18-.48-.25-.73-.48-.93-.71-2.11-.94-3.16-.66-1.55-1.46-2.95-2.12-4.64-.66-1.45-1.49-3.08-1.67-4.65-.27-1.06-1.25-2.05-1.25-3.13-.12-.53.96-2.77-1.42,3.05-2.06,3.74-5.72,4.43-6.3,3.37-2.26-4.12,5.12-34.63-15-15.55-.45.77-.85,1.58-1.16,2.43-.88-1.15-3.01-2.87-3.4-3.27-3.99-4.15-4.77-6.87-10-9.84-2.72-1.55-5.97-1.59-7.53,1.57-1.62,3.28-2.43,4.98-1.1,8.19,1.61,3.88,3.24,6.52,4.33,10.61.52,1.95.84,4.85-1.17,5.57-1.41.5-3.1.14-4.57.05-5.67-.35-8.97,4.25-4.8,7.75,3.7,3.11,9.32,2.08,11.91,6.58.79,1.36,2.23,4.17.42,4.89-1.42.57-3.34.17-4.83.02-3.21-.33-7.24-1.25-10.12.59-3.01,1.91-3.16,6.23-1.5,9.5,2.21,4.34,6.29,7.77,10.07,10.24,4.19,2.75,9.08,3.31,13.66,4.57,2.64.72,5.44,1.6,7.76,3.35,1.25.94,3.49,3.29,3.78,5.35,3.28-.04,4.89,0,7.86,1.58.39.13.77.31,1.13.54.58.19,1.63,1.7,2.14,2.02v-1.06c.06-.74.44-2.43.69-3.15.22-1.86.95-3.31,2.15-4.62l-24.32-47.52c-.86-1.67,1.26-3.11,2.11-1.45l24.21,47.29c1.85-1.43,3.63-1.17,6.04-1.17.92,0,2.28.34,3.12.77,2.81.49,2.85,3.25,5.91-1.01"/>
  <path class="st15" d="M136.31,690.19c-2.11-3.07-3.9-9.85-2.61-13.79,1.24-3.8,6.67-6.47,10.07-5.55,2.96.79,5.73,2.33,8.36,4.08,1.87-4.99,3.76-6.71,4-12.11.12-2.67.43-6.77-.48-9.06-.9-2.26-2.3-4.29-4.19-6.02-2.94-2.68-4.59-2.43-6.8,1.08-.51.8-1.01,1.92-1.54,3.09-1.75,3.87-5.76,10.3-9.98,9.83l-1.42-.16.2-1.58c.35-2.79,2.24-6.08,2.88-9.07,1.52-7.06,1.87-14.19-.11-20.47-.51-1.54-.97-3.32-1.42-5.05-.32-.48-.67-.95-1.05-1.42-7.78-9.56-10.35-5.02-15.07,2.45-.54.84-1.02,1.74-1.4,2.69-.95-1.34-3.29-3.38-3.71-3.85-1.41-1.58-2.69-3.35-4-5.03-3.13-3.99-6.49-8.38-10.66-10.97-3.01-1.88-6.68-2.07-8.57,1.42-1.96,3.62-.3,8.62,1.08,12.31,1.67,4.46,4.53,8.83,5.6,13.5.51,2.23.76,5.51-1.53,6.24-1.61.51-3.51.02-5.17-.15-3.07-.31-6.26-.14-7.56,3.41-1.78,4.84.93,9.3,4.33,12.39,4.06,3.69,10.33,6.24,13.09,11.44.83,1.57,2.35,4.81.28,5.55-1.62.58-3.78.04-5.46-.2-3.61-.52-8.13-1.75-11.46.2-3.47,2.02-3.81,6.89-2.05,10.67,1.94,4.15,4.01,6.19,7.5,8.95.15-2.25.35-6.07.59-6.8.79-2.39,1.59-5.06,2.7-7.32,2.31-4.7,10.88-2.22,14.31-.15,12.92,7.8,9.09,29.64,10.46,31.7.47-1.34.62-2.44,1.17-4.91.57-2.57,1.12-5.09,1.49-6.21,1.77-5.39,6.5-8.33,10.23-6.82l-21.57-50.45c-.84-1.97,1.61-3.49,2.44-1.54l22.5,52.61c4.4,2,8.09,4.57,9.98,9.42.7-.31,1.64-.72,2.49-1.22,3.8-2.29-7.17-12-7.95-13.14"/>
  <path class="st15" d="M70.98,690.4l51.58,59.64c.55.63.53,1.65-.03,2.27-.56.62-1.47.61-2.02-.02l-51.58-59.64c-.55-.63-.53-1.65.03-2.27.56-.62,1.47-.61,2.02.02M137.69,739.31c-.05-.44,0-.83.13-1.18.57-2.74,3.03-4.75,8.72-6.17l-.04-.04c-2.35-2.54-3.3-2.88-5.02-3.49-.94-.33-2.07-.74-3.67-1.51-2.41-1.16-4.69-2.83-6.12-5.04-1.24-1.91-1.85-4.2-1.39-6.86,1.03-6.03,4.47-8.61,9.83-9.89-1.41-4.79-6.1-6.43-10.75-8.31-3.73-1.51-8.11.59-9.88,5.98-1.25,3.83-1.06,11.37-5.73,12.48-1.45-11.1.89-26.45-10.07-33.06-3.43-2.07-9.33-4.55-11.64.16-1.11,2.26-1.91,4.93-2.7,7.32-.32.96-.57,7.33-.71,8.33-7.43-5.26-9.95-14.68-23.21-17.28-3.46-.69-7.15.4-8.15,4.28-1.03,4.01,1.86,8.04,4.16,10.96,2.77,3.52,6.71,6.56,8.94,10.49,1.07,1.87,2.13,4.81.04,6.27-1.47,1.02-3.48,1.23-5.17,1.65-3.12.77-6.24,2.04-6.64,5.76-.55,5.07,3.25,8.24,7.4,9.9,4.95,1.99,11.81,2.17,15.85,6,1.22,1.16,3.54,3.61,1.67,5.01-1.46,1.09-3.74,1.35-5.47,1.7-3.72.77-8.51,1.21-11.32,4.15-2.94,3.07-2.05,7.67.64,10.53,3.57,3.8,9.02,5.98,13.91,7.27,5.42,1.43,7.89.32,13.38.04,3.17-.16,6.56-.21,9.61.82,1.99.68,6.16,3.03,5.78,5.69-.53,3.68-7.65,9.68-8.77,16.58-1.36,8.36,21.25,7.24,25.03,6.43,4.15-.32,27.99-15.83,4.57-17.59-1.83-.07-3.65-.14-5.39-.39-1.88-.27-4.07-.65-6.09-1.45-2.13-.85-4.03-4.14-5.16-6.26-.16-.24-.32-.48-.45-.75-1.19-2.29-.77-4.52.48-6.33.81-1.48,2.07-2.76,3.54-3.71,4.19-2.73,9.26-3.79,13.96-4.77l2.16-.44c1.43-.28,2.87-.56,4.2-.94l.84-.31c.64-.25,1.48-.57,2.31-.84-.21-.41-.41-.82-.58-1.22l-.21-.5c-1.14-2.61-2.12-4.87-2.57-6.91-.2-.91-.3-1.76-.28-2.55Z"/>
  <path class="st15" d="M428.23,785.96c2.15,0,3.89,1.64,3.89,3.66s-1.74,3.66-3.89,3.66-3.89-1.64-3.89-3.66,1.74-3.66,3.89-3.66"/>
  <path class="st15" d="M337.22,773.34c31.45-3.37,63.55-9.01,95-12.38-18.98,3.71-37.96,9.82-56.94,13.52-13.3,2.6-27.21,3.31-39.45,3.77.83-2.94.56-1.98,1.39-4.92M308.14,755.39c71.83-24.54,97.8-27.19,162.58-.43-71.8,50.06-82.94,49.65-160.88,43.25l-1.7-42.82Z"/>
  <path class="st15" d="M257.6,801.97c-17.28,5.65-43.64,14.78-60.92,20.43v.04c-2.88.99-5,4.13-5,7.85,0,4.51,3.11,8.18,6.96,8.18.89,0,1.75-.2,2.53-.56l56.29-30.25.14-5.68Z"/>
  <path class="st15" d="M319.29,801.97c17.28,5.65,43.64,14.78,60.92,20.43h.02c2.89,1,4.98,3.77,4.98,7.89s-3.11,8.18-6.96,8.18c-.89,0-1.75-.2-2.53-.56l-56.29-30.25-.14-5.68Z"/>
  <path class="st15" d="M262.34,734.79h6.84v78.05c0,.24.02.47.06.69h-6.9c-2.21,0-4.01-1.7-4.01-3.78v-71.19c0-2.08,1.81-3.78,4.01-3.78"/>
  <path class="st15" d="M314.17,734.79h-6.84v78.05c0,.24-.02.47-.06.69h6.9c2.21,0,4.01-1.7,4.01-3.78v-71.19c0-2.08-1.81-3.78-4.01-3.78"/>
  <path class="st15" d="M284.32,729.22h-10.6c-.92,0-1.76.36-2.36.93-.61.57-.98,1.36-.98,2.22v80.48c0,.86.38,1.65.98,2.22.6.57,1.44.93,2.36.93h10.6c.92,0,1.76-.35,2.36-.92.6-.57.98-1.36.98-2.23v-80.48c0-.86-.38-1.65-.98-2.22-.61-.57-1.45-.93-2.37-.93"/>
  <path class="st15" d="M292.2,729.22h10.6c.92,0,1.76.36,2.36.93.61.57.98,1.36.98,2.22v80.48c0,.86-.38,1.65-.98,2.22-.61.57-1.44.93-2.36.93h-10.6c-.92,0-1.76-.35-2.36-.92-.6-.57-.98-1.36-.98-2.23v-80.48c0-.86.38-1.65.98-2.22.61-.57,1.45-.93,2.37-.93"/>
  <path class="st15" d="M143.31,679.48l34.64,37.34c.57.61.57,1.64.02,2.27-.55.63-1.45.64-2.02.03l-34.64-37.34c-.57-.61-.57-1.64-.02-2.27.55-.63,1.45-.64,2.02-.03M212.28,726.12c1.03-5.72,2.22-11.74,1.32-17.56-.85-5.49-3.9-9.79-8.8-12.18-3.63-1.76-6.4-1.62-8.51,3.63-1.49,3.73-1.79,11.27-6.51,12.06-.74-11.17,2.58-26.33-7.93-33.67-3.29-2.3-9.02-5.17-11.62-.64-1.25,2.18-2.22,4.79-3.17,7.12-.38.94-.69,1.91-.9,2.91-1.22-.99-3.98-2.25-4.5-2.57-1.74-1.09-3.36-2.39-5.01-3.6-3.93-2.86-8.17-6.03-12.89-7.29-3.4-.92-7.16-.08-8.4,3.71-1.28,3.93,1.34,8.15,3.45,11.22,2.54,3.7,6.27,7.01,8.25,11.07.94,1.94,1.82,4.95-.36,6.26-1.53.92-3.55.99-5.26,1.29-3.16.56-6.36,1.61-7,5.3-.87,5.02,2.72,8.44,6.75,10.39,5.87,2.83,9.61,5.43,15.76,7.01,8.95,1.87,14.78,10.31,21.6,16.07,2.68-4.09-2.8-9.85-4.41-13.53-2.27-5.19-.46-7.36,3.27-8.88,5.05-2.05,10.17-1.39,14.63,1.73,4.73,3.31,8.16,8.33,11.49,13.03,3.04,4.29,7.31,9.89,11.92,12.64-1.09-12.06-6.08-9.43-3.17-25.53Z"/>
  <path class="st15" d="M362.67,733.42l27.18-16.33,30.74-24.54-25.97,26.18-19.74,15.99c5.85-.79,11.52-1.25,17.15-1.34,8.85-.14,13.9-.53,23.02,1.14,9.53-9.01,15.41-16.13,20.21-26.39,3.64-7.78,6.34-17.39,11.36-31.01-49.55-4.07-94.1,23.33-118,68.81,15.86-4.99,29.42-8.55,42.02-10.58l-7.99-1.92Z"/>
  <path class="st15" d="M441.53,676.07l6.23-14.81,11.83-32.12-7,30.7-6.85,24.46c4.31-4.03,8.68-7.68,13.22-11.02,7.13-5.24,11.78-10.25,20.18-14.16,2.31-12.99,3.46-14.62,1.44-25.77-1.53-8.45-4.89-17.85-8.68-31.86-30.42,18.04-50.53,42.35-56.59,76.24,4.95-1.02,22.25-2.73,26.21-1.66M442.63,687.3l.04-.04"/>
  <path class="st15" d="M407.25,794.95l9.75,1.22-7.58-2.1c2.82-1.17,5.68-2.45,8.6-3.85,2.63,1.8,5.42,4.18,8.97,7.22-8.34,5.19-19.92,5.04-29.51,1.01,3.23-1.03,6.48-2.19,9.78-3.5"/>
  <path class="st15" d="M312.63,751.39c2.03-2.57,8.99-7.41,11.01-9.98-1.9,1.81-8.75,5.87-10.65,7.68.45-3.02-2.79-4.01-2.48-7.24,2.28-1.91,10.01-4.98,18.01-3.71.15,9.82-10.99,12.79-19.39,18.93.79-3.3,2.92-2.17,3.5-5.67"/>
  <path class="st15" d="M84.13,738.97c.28.77.22,1.52-.55,2.09-1.46,1.09-3.74,1.35-5.47,1.7-3.72.77-8.51,1.21-11.32,4.15-2.94,3.07-2.05,7.67.64,10.53,3.57,3.8,9.02,5.98,13.91,7.27,5.42,1.43,7.89.32,13.38.04,3.17-.16,6.56-.21,9.61.82,1.99.68,6.16,3.03,5.78,5.69-.53,3.68-7.65,9.68-8.77,16.58-1.36,8.36,21.25,7.24,25.03,6.43,4.14-.32,27.99-15.83,4.57-17.59-1.83-.07-3.64-.14-5.39-.39-1.88-.27-4.07-.65-6.09-1.45-2.13-.85-4.03-4.14-5.16-6.26-.16-.24-.32-.48-.45-.75-1.19-2.29-.77-4.52.48-6.33.24-.44.52-.87.84-1.27l-.24-.69c-1.1-3.19-2.47-7.02-4.71-9.96-2.24-2.94-5.33-4.99-10.72-6.83-4.2-1.43-9.8-2.74-15.36-3.78"/>
  <g class="st16">
    <line class="st2" x1="178.41" y1="841.19" x2="152.93" y2="670.18"/>
    <line class="st2" x1="176.09" y1="841.6" x2="150.61" y2="670.6"/>
    <line class="st2" x1="173.77" y1="842.02" x2="148.29" y2="671.01"/>
    <line class="st2" x1="171.45" y1="842.43" x2="145.97" y2="671.43"/>
    <line class="st2" x1="169.13" y1="842.85" x2="143.65" y2="671.84"/>
    <line class="st2" x1="166.81" y1="843.26" x2="141.33" y2="672.26"/>
    <line class="st2" x1="164.49" y1="843.68" x2="139.01" y2="672.67"/>
    <line class="st2" x1="162.17" y1="844.09" x2="136.69" y2="673.09"/>
    <line class="st2" x1="159.85" y1="844.51" x2="134.37" y2="673.5"/>
    <line class="st2" x1="157.53" y1="844.92" x2="132.05" y2="673.92"/>
    <line class="st2" x1="155.21" y1="845.34" x2="129.73" y2="674.33"/>
    <line class="st2" x1="152.89" y1="845.76" x2="127.41" y2="674.75"/>
    <line class="st2" x1="150.57" y1="846.17" x2="125.09" y2="675.17"/>
    <line class="st2" x1="148.25" y1="846.59" x2="122.77" y2="675.58"/>
    <line class="st2" x1="145.93" y1="847" x2="120.45" y2="676"/>
    <line class="st2" x1="143.61" y1="847.42" x2="118.13" y2="676.41"/>
    <line class="st2" x1="141.29" y1="847.83" x2="115.81" y2="676.83"/>
    <line class="st2" x1="138.97" y1="848.25" x2="113.49" y2="677.24"/>
    <line class="st2" x1="136.65" y1="848.66" x2="111.17" y2="677.66"/>
    <line class="st2" x1="134.33" y1="849.08" x2="108.85" y2="678.07"/>
    <line class="st2" x1="132.01" y1="849.49" x2="106.53" y2="678.49"/>
    <line class="st2" x1="129.69" y1="849.91" x2="104.21" y2="678.9"/>
    <line class="st2" x1="127.37" y1="850.32" x2="101.89" y2="679.32"/>
    <line class="st2" x1="125.05" y1="850.74" x2="99.57" y2="679.73"/>
    <line class="st2" x1="122.73" y1="851.15" x2="97.25" y2="680.15"/>
    <line class="st2" x1="120.41" y1="851.57" x2="94.93" y2="680.56"/>
    <line class="st2" x1="118.09" y1="851.99" x2="92.61" y2="680.98"/>
    <line class="st2" x1="115.77" y1="852.4" x2="90.29" y2="681.4"/>
    <line class="st2" x1="113.44" y1="852.82" x2="87.97" y2="681.81"/>
    <line class="st2" x1="111.12" y1="853.23" x2="85.65" y2="682.23"/>
    <line class="st2" x1="108.8" y1="853.65" x2="83.33" y2="682.64"/>
    <line class="st2" x1="106.48" y1="854.06" x2="81.01" y2="683.06"/>
    <line class="st2" x1="104.16" y1="854.48" x2="78.68" y2="683.47"/>
    <line class="st2" x1="101.84" y1="854.89" x2="76.36" y2="683.89"/>
    <line class="st2" x1="99.52" y1="855.31" x2="74.04" y2="684.3"/>
    <line class="st2" x1="97.2" y1="855.72" x2="71.72" y2="684.72"/>
    <line class="st2" x1="94.88" y1="856.14" x2="69.4" y2="685.13"/>
    <line class="st2" x1="92.56" y1="856.55" x2="67.08" y2="685.55"/>
    <line class="st2" x1="90.24" y1="856.97" x2="64.76" y2="685.96"/>
    <line class="st2" x1="87.92" y1="857.38" x2="62.44" y2="686.38"/>
    <line class="st2" x1="85.6" y1="857.8" x2="60.12" y2="686.79"/>
    <line class="st2" x1="83.28" y1="858.22" x2="57.8" y2="687.21"/>
    <line class="st2" x1="80.96" y1="858.63" x2="55.48" y2="687.63"/>
    <line class="st2" x1="78.64" y1="859.05" x2="53.16" y2="688.04"/>
    <line class="st2" x1="76.32" y1="859.46" x2="50.84" y2="688.46"/>
    <line class="st2" x1="74" y1="859.88" x2="48.52" y2="688.87"/>
    <line class="st2" x1="71.68" y1="860.29" x2="46.2" y2="689.29"/>
    <line class="st2" x1="69.36" y1="860.71" x2="43.88" y2="689.7"/>
    <line class="st2" x1="67.04" y1="861.12" x2="41.56" y2="690.12"/>
    <line class="st2" x1="64.72" y1="861.54" x2="39.24" y2="690.53"/>
  </g>
  <path class="st15" d="M132.6,709.6c.15-.25.31-.48.46-.7-.17.21-.32.45-.46.7M144.74,732.46c.56-.18,1.16-.34,1.81-.51l-.04-.04c-2.35-2.54-3.3-2.88-5.02-3.49-.39-.14-.82-.29-1.31-.48.91,1,1.9,2.03,2.99,3.07.5.48,1.02.97,1.56,1.45Z"/>
  <g class="st3">
    <line class="st2" x1="100.69" y1="657.6" x2="132.17" y2="827.41"/>
    <line class="st2" x1="102.99" y1="657.09" x2="134.47" y2="826.89"/>
    <line class="st2" x1="105.3" y1="656.58" x2="136.78" y2="826.38"/>
    <line class="st2" x1="107.6" y1="656.06" x2="139.08" y2="825.87"/>
    <line class="st2" x1="109.9" y1="655.55" x2="141.38" y2="825.35"/>
    <line class="st2" x1="112.21" y1="655.04" x2="143.69" y2="824.84"/>
    <line class="st2" x1="114.51" y1="654.53" x2="145.99" y2="824.33"/>
    <line class="st2" x1="116.82" y1="654.01" x2="148.3" y2="823.81"/>
    <line class="st2" x1="119.12" y1="653.5" x2="150.6" y2="823.3"/>
    <line class="st2" x1="121.42" y1="652.99" x2="152.9" y2="822.79"/>
    <line class="st2" x1="123.73" y1="652.47" x2="155.21" y2="822.27"/>
    <line class="st2" x1="126.03" y1="651.96" x2="157.51" y2="821.76"/>
    <line class="st2" x1="128.33" y1="651.45" x2="159.82" y2="821.25"/>
    <line class="st2" x1="130.64" y1="650.93" x2="162.12" y2="820.73"/>
    <line class="st2" x1="132.94" y1="650.42" x2="164.42" y2="820.22"/>
    <line class="st2" x1="135.25" y1="649.91" x2="166.73" y2="819.71"/>
    <line class="st2" x1="137.55" y1="649.39" x2="169.03" y2="819.19"/>
    <line class="st2" x1="139.85" y1="648.88" x2="171.34" y2="818.68"/>
    <line class="st2" x1="142.16" y1="648.37" x2="173.64" y2="818.17"/>
    <line class="st2" x1="144.46" y1="647.85" x2="175.94" y2="817.66"/>
    <line class="st2" x1="146.77" y1="647.34" x2="178.25" y2="817.14"/>
  </g>
  <path class="st15" d="M212.28,726.12c.34-1.86.69-3.76.98-5.67-1.59-.82-3.25-1.53-4.82-2.05-4.19-1.4-7.62-1.5-10.31-1.11-2.69.39-4.63,1.26-6.92,1.83-2.29.58-4.94.87-7.54,1.21-2.6.34-5.16.72-7.93.29-2.78-.43-5.77-1.69-9.25-3.09-3.48-1.4-7.45-2.95-10.22-4.2-2.78-1.26-4.36-2.22-6.19-3.15-1.79-.91-3.8-1.77-7.27-2.49-.47.06-.93.13-1.36.21-3.16.56-6.36,1.61-7,5.3-.87,5.02,2.72,8.44,6.75,10.38,5.87,2.83,9.61,5.44,15.76,7.01,8.95,1.87,14.78,10.31,21.59,16.07,2.68-4.09-2.8-9.85-4.41-13.53-2.27-5.19-.46-7.36,3.27-8.88,5.05-2.05,10.17-1.39,14.63,1.73,4.73,3.31,8.16,8.33,11.49,13.03,3.04,4.29,7.31,9.89,11.92,12.64-1.1-12.06-6.08-9.43-3.17-25.53"/>
  <g class="st6">
    <line class="st2" x1="102.99" y1="657.09" x2="134.47" y2="826.89"/>
    <line class="st2" x1="105.3" y1="656.58" x2="136.78" y2="826.38"/>
    <line class="st2" x1="107.6" y1="656.06" x2="139.08" y2="825.87"/>
    <line class="st2" x1="109.9" y1="655.55" x2="141.38" y2="825.35"/>
    <line class="st2" x1="112.21" y1="655.04" x2="143.69" y2="824.84"/>
    <line class="st2" x1="114.51" y1="654.53" x2="145.99" y2="824.33"/>
    <line class="st2" x1="116.82" y1="654.01" x2="148.3" y2="823.81"/>
    <line class="st2" x1="119.12" y1="653.5" x2="150.6" y2="823.3"/>
    <line class="st2" x1="121.42" y1="652.99" x2="152.9" y2="822.79"/>
    <line class="st2" x1="123.73" y1="652.47" x2="155.21" y2="822.27"/>
    <line class="st2" x1="126.03" y1="651.96" x2="157.51" y2="821.76"/>
    <line class="st2" x1="128.33" y1="651.45" x2="159.82" y2="821.25"/>
    <line class="st2" x1="130.64" y1="650.93" x2="162.12" y2="820.73"/>
    <line class="st2" x1="132.94" y1="650.42" x2="164.42" y2="820.22"/>
    <line class="st2" x1="135.25" y1="649.91" x2="166.73" y2="819.71"/>
    <line class="st2" x1="137.55" y1="649.39" x2="169.03" y2="819.19"/>
    <line class="st2" x1="139.85" y1="648.88" x2="171.34" y2="818.68"/>
    <line class="st2" x1="142.16" y1="648.37" x2="173.64" y2="818.17"/>
    <line class="st2" x1="144.46" y1="647.85" x2="175.94" y2="817.66"/>
    <line class="st2" x1="146.77" y1="647.34" x2="178.25" y2="817.14"/>
    <line class="st2" x1="149.07" y1="646.83" x2="180.55" y2="816.63"/>
    <line class="st2" x1="151.37" y1="646.31" x2="182.85" y2="816.12"/>
    <line class="st2" x1="153.68" y1="645.8" x2="185.16" y2="815.6"/>
    <line class="st2" x1="155.98" y1="645.29" x2="187.46" y2="815.09"/>
    <line class="st2" x1="158.29" y1="644.77" x2="189.77" y2="814.58"/>
    <line class="st2" x1="160.59" y1="644.26" x2="192.07" y2="814.06"/>
    <line class="st2" x1="162.89" y1="643.75" x2="194.37" y2="813.55"/>
    <line class="st2" x1="165.2" y1="643.24" x2="196.68" y2="813.04"/>
    <line class="st2" x1="167.5" y1="642.72" x2="198.98" y2="812.52"/>
    <line class="st2" x1="169.81" y1="642.21" x2="201.29" y2="812.01"/>
    <line class="st2" x1="172.11" y1="641.7" x2="203.59" y2="811.5"/>
    <line class="st2" x1="174.41" y1="641.18" x2="205.89" y2="810.98"/>
    <line class="st2" x1="176.72" y1="640.67" x2="208.2" y2="810.47"/>
    <line class="st2" x1="179.02" y1="640.16" x2="210.5" y2="809.96"/>
    <line class="st2" x1="181.32" y1="639.64" x2="212.81" y2="809.44"/>
    <line class="st2" x1="183.63" y1="639.13" x2="215.11" y2="808.93"/>
    <line class="st2" x1="185.93" y1="638.62" x2="217.41" y2="808.42"/>
    <line class="st2" x1="188.24" y1="638.1" x2="219.72" y2="807.9"/>
    <line class="st2" x1="190.54" y1="637.59" x2="222.02" y2="807.39"/>
    <line class="st2" x1="192.84" y1="637.08" x2="224.33" y2="806.88"/>
    <line class="st2" x1="195.15" y1="636.56" x2="226.63" y2="806.36"/>
    <line class="st2" x1="197.45" y1="636.05" x2="228.93" y2="805.85"/>
    <line class="st2" x1="199.76" y1="635.54" x2="231.24" y2="805.34"/>
    <line class="st2" x1="202.06" y1="635.02" x2="233.54" y2="804.82"/>
    <line class="st2" x1="204.36" y1="634.51" x2="235.85" y2="804.31"/>
    <line class="st2" x1="206.67" y1="634" x2="238.15" y2="803.8"/>
    <line class="st2" x1="208.97" y1="633.49" x2="240.45" y2="803.29"/>
    <line class="st2" x1="211.28" y1="632.97" x2="242.76" y2="802.77"/>
    <line class="st2" x1="213.58" y1="632.46" x2="245.06" y2="802.26"/>
    <line class="st2" x1="215.88" y1="631.95" x2="247.36" y2="801.75"/>
  </g>
  <path class="st15" d="M120.63,772.92h.05c4.77.63,10.13.1,14.77,1.4,2.21.62,5.2,2.02,4.57,4.56-.44,1.78-1.9,3.35-2.95,4.84-1.94,2.76-3.53,5.88-1.16,8.89,3.23,4.1,8.57,3.74,13.1,2.05,5.41-2.02,11.05-6.71,17.06-6.75,1.82-.01,5.46.15,4.97,2.49-.38,1.83-2.03,3.62-3.15,5.09-2.43,3.17-5.95,6.86-6.08,10.99-.14,4.31,3.9,7.05,8.13,7.26,5.61.27,11.57-1.96,16.42-4.46,5.38-2.76,9.13-7.57,13.34-11.63,2.43-2.35,5.11-4.77,8.3-6.16,2.09-.91,7.13-2.11,8.75.1,1.14,1.56-.04,4.63-.44,6.26-.52,2.11-1.14,4.24-1.23,6.41-.08,1.84.28,3.61,1.37,5.15,2.88,4.1,22.27-3.78,41.86-11.97l.43-19.04c-13.99,2.72-95.6-2.87-117.22-11.16-4.91-1.88-13.83-.21-18,1.33-2.22.82-3.19,2.12-2.92,4.34"/>
  <g class="st4">
    <line class="st2" x1="257.4" y1="891.9" x2="270.34" y2="710.08"/>
    <line class="st2" x1="254.69" y1="891.71" x2="267.63" y2="709.89"/>
    <line class="st2" x1="251.99" y1="891.52" x2="264.93" y2="709.7"/>
    <line class="st2" x1="249.28" y1="891.33" x2="262.23" y2="709.5"/>
    <line class="st2" x1="246.58" y1="891.13" x2="259.52" y2="709.31"/>
    <line class="st2" x1="243.88" y1="890.94" x2="256.82" y2="709.12"/>
    <line class="st2" x1="241.17" y1="890.75" x2="254.11" y2="708.93"/>
    <line class="st2" x1="238.47" y1="890.56" x2="251.41" y2="708.73"/>
    <line class="st2" x1="235.76" y1="890.36" x2="248.71" y2="708.54"/>
    <line class="st2" x1="233.06" y1="890.17" x2="246" y2="708.35"/>
    <line class="st2" x1="230.35" y1="889.98" x2="243.3" y2="708.16"/>
    <line class="st2" x1="227.65" y1="889.79" x2="240.59" y2="707.96"/>
    <line class="st2" x1="224.95" y1="889.59" x2="237.89" y2="707.77"/>
    <line class="st2" x1="222.24" y1="889.4" x2="235.19" y2="707.58"/>
    <line class="st2" x1="219.54" y1="889.21" x2="232.48" y2="707.39"/>
    <line class="st2" x1="216.83" y1="889.02" x2="229.78" y2="707.19"/>
    <line class="st2" x1="214.13" y1="888.82" x2="227.07" y2="707"/>
    <line class="st2" x1="211.43" y1="888.63" x2="224.37" y2="706.81"/>
    <line class="st2" x1="208.72" y1="888.44" x2="221.66" y2="706.62"/>
    <line class="st2" x1="206.02" y1="888.25" x2="218.96" y2="706.42"/>
    <line class="st2" x1="203.31" y1="888.05" x2="216.26" y2="706.23"/>
    <line class="st2" x1="200.61" y1="887.86" x2="213.55" y2="706.04"/>
    <line class="st2" x1="197.9" y1="887.67" x2="210.85" y2="705.85"/>
    <line class="st2" x1="195.2" y1="887.48" x2="208.14" y2="705.65"/>
    <line class="st2" x1="192.5" y1="887.28" x2="205.44" y2="705.46"/>
    <line class="st2" x1="189.79" y1="887.09" x2="202.74" y2="705.27"/>
    <line class="st2" x1="187.09" y1="886.9" x2="200.03" y2="705.08"/>
    <line class="st2" x1="184.38" y1="886.71" x2="197.33" y2="704.88"/>
    <line class="st2" x1="181.68" y1="886.51" x2="194.62" y2="704.69"/>
    <line class="st2" x1="178.98" y1="886.32" x2="191.92" y2="704.5"/>
    <line class="st2" x1="176.27" y1="886.13" x2="189.22" y2="704.31"/>
    <line class="st2" x1="173.57" y1="885.94" x2="186.51" y2="704.11"/>
    <line class="st2" x1="170.86" y1="885.74" x2="183.81" y2="703.92"/>
    <line class="st2" x1="168.16" y1="885.55" x2="181.1" y2="703.73"/>
    <line class="st2" x1="165.45" y1="885.36" x2="178.4" y2="703.54"/>
    <line class="st2" x1="162.75" y1="885.17" x2="175.69" y2="703.34"/>
    <line class="st2" x1="160.05" y1="884.97" x2="172.99" y2="703.15"/>
    <line class="st2" x1="157.34" y1="884.78" x2="170.29" y2="702.96"/>
    <line class="st2" x1="154.64" y1="884.59" x2="167.58" y2="702.77"/>
    <line class="st2" x1="151.93" y1="884.4" x2="164.88" y2="702.57"/>
    <line class="st2" x1="149.23" y1="884.2" x2="162.17" y2="702.38"/>
    <line class="st2" x1="146.53" y1="884.01" x2="159.47" y2="702.19"/>
    <line class="st2" x1="143.82" y1="883.82" x2="156.77" y2="702"/>
    <line class="st2" x1="141.12" y1="883.63" x2="154.06" y2="701.8"/>
    <line class="st2" x1="138.41" y1="883.43" x2="151.36" y2="701.61"/>
    <line class="st2" x1="135.71" y1="883.24" x2="148.65" y2="701.42"/>
    <line class="st2" x1="133" y1="883.05" x2="145.95" y2="701.23"/>
    <line class="st2" x1="130.3" y1="882.86" x2="143.24" y2="701.03"/>
    <line class="st2" x1="127.6" y1="882.66" x2="140.54" y2="700.84"/>
    <line class="st2" x1="124.89" y1="882.47" x2="137.84" y2="700.65"/>
    <line class="st2" x1="122.19" y1="882.28" x2="135.13" y2="700.46"/>
    <line class="st2" x1="119.48" y1="882.09" x2="132.43" y2="700.26"/>
    <line class="st2" x1="116.78" y1="881.89" x2="129.72" y2="700.07"/>
    <line class="st2" x1="114.08" y1="881.7" x2="127.02" y2="699.88"/>
    <line class="st2" x1="111.37" y1="881.51" x2="124.32" y2="699.69"/>
  </g>
  <g class="st5">
    <line class="st2" x1="521.9" y1="709.23" x2="389.92" y2="596.95"/>
    <line class="st2" x1="520.23" y1="711.19" x2="388.25" y2="598.92"/>
    <line class="st2" x1="518.56" y1="713.15" x2="386.59" y2="600.88"/>
    <line class="st2" x1="516.89" y1="715.12" x2="384.92" y2="602.84"/>
    <line class="st2" x1="515.22" y1="717.08" x2="383.25" y2="604.8"/>
    <line class="st2" x1="513.55" y1="719.04" x2="381.58" y2="606.77"/>
    <line class="st2" x1="511.88" y1="721.01" x2="379.91" y2="608.73"/>
    <line class="st2" x1="510.21" y1="722.97" x2="378.24" y2="610.69"/>
    <line class="st2" x1="508.54" y1="724.93" x2="376.57" y2="612.66"/>
    <line class="st2" x1="506.87" y1="726.89" x2="374.9" y2="614.62"/>
    <line class="st2" x1="505.2" y1="728.86" x2="373.23" y2="616.58"/>
    <line class="st2" x1="503.53" y1="730.82" x2="371.56" y2="618.54"/>
    <line class="st2" x1="501.86" y1="732.78" x2="369.89" y2="620.51"/>
    <line class="st2" x1="500.19" y1="734.75" x2="368.22" y2="622.47"/>
    <line class="st2" x1="498.52" y1="736.71" x2="366.55" y2="624.43"/>
    <line class="st2" x1="496.85" y1="738.67" x2="364.88" y2="626.4"/>
    <line class="st2" x1="495.18" y1="740.63" x2="363.21" y2="628.36"/>
    <line class="st2" x1="493.51" y1="742.6" x2="361.54" y2="630.32"/>
    <line class="st2" x1="491.84" y1="744.56" x2="359.87" y2="632.28"/>
    <line class="st2" x1="490.17" y1="746.52" x2="358.2" y2="634.25"/>
    <line class="st2" x1="488.5" y1="748.48" x2="356.53" y2="636.21"/>
    <line class="st2" x1="486.83" y1="750.45" x2="354.86" y2="638.17"/>
    <line class="st2" x1="485.16" y1="752.41" x2="353.19" y2="640.13"/>
    <line class="st2" x1="483.49" y1="754.37" x2="351.52" y2="642.1"/>
    <line class="st2" x1="481.82" y1="756.34" x2="349.85" y2="644.06"/>
    <line class="st2" x1="480.15" y1="758.3" x2="348.18" y2="646.02"/>
    <line class="st2" x1="478.48" y1="760.26" x2="346.51" y2="647.99"/>
    <line class="st2" x1="476.81" y1="762.22" x2="344.84" y2="649.95"/>
    <line class="st2" x1="475.14" y1="764.19" x2="343.17" y2="651.91"/>
    <line class="st2" x1="473.47" y1="766.15" x2="341.5" y2="653.87"/>
    <line class="st2" x1="471.8" y1="768.11" x2="339.83" y2="655.84"/>
    <line class="st2" x1="470.13" y1="770.07" x2="338.16" y2="657.8"/>
    <line class="st2" x1="468.46" y1="772.04" x2="336.49" y2="659.76"/>
    <line class="st2" x1="466.79" y1="774" x2="334.82" y2="661.72"/>
    <line class="st2" x1="465.12" y1="775.96" x2="333.15" y2="663.69"/>
    <line class="st2" x1="463.45" y1="777.93" x2="331.48" y2="665.65"/>
    <line class="st2" x1="461.78" y1="779.89" x2="329.81" y2="667.61"/>
    <line class="st2" x1="460.11" y1="781.85" x2="328.14" y2="669.58"/>
    <line class="st2" x1="458.44" y1="783.81" x2="326.47" y2="671.54"/>
    <line class="st2" x1="456.77" y1="785.78" x2="324.8" y2="673.5"/>
    <line class="st2" x1="455.11" y1="787.74" x2="323.13" y2="675.46"/>
    <line class="st2" x1="453.44" y1="789.7" x2="321.46" y2="677.43"/>
    <line class="st2" x1="451.77" y1="791.66" x2="319.79" y2="679.39"/>
    <line class="st2" x1="450.1" y1="793.63" x2="318.12" y2="681.35"/>
    <line class="st2" x1="448.43" y1="795.59" x2="316.45" y2="683.31"/>
    <line class="st2" x1="446.76" y1="797.55" x2="314.78" y2="685.28"/>
    <line class="st2" x1="445.09" y1="799.52" x2="313.11" y2="687.24"/>
    <line class="st2" x1="443.42" y1="801.48" x2="311.44" y2="689.2"/>
    <line class="st2" x1="441.75" y1="803.44" x2="309.77" y2="691.17"/>
    <line class="st2" x1="440.08" y1="805.4" x2="308.1" y2="693.13"/>
    <line class="st2" x1="438.41" y1="807.37" x2="306.43" y2="695.09"/>
    <line class="st2" x1="436.74" y1="809.33" x2="304.76" y2="697.05"/>
    <line class="st2" x1="435.07" y1="811.29" x2="303.09" y2="699.02"/>
    <line class="st2" x1="433.4" y1="813.26" x2="301.43" y2="700.98"/>
    <line class="st2" x1="431.73" y1="815.22" x2="299.76" y2="702.94"/>
  </g>
  <g class="st9">
    <line class="st2" x1="379.79" y1="767.52" x2="542.6" y2="826.81"/>
    <line class="st2" x1="380.68" y1="765.1" x2="543.49" y2="824.39"/>
    <line class="st2" x1="381.56" y1="762.67" x2="544.37" y2="821.97"/>
    <line class="st2" x1="382.44" y1="760.25" x2="545.25" y2="819.55"/>
    <line class="st2" x1="383.32" y1="757.83" x2="546.13" y2="817.13"/>
    <line class="st2" x1="384.2" y1="755.41" x2="547.01" y2="814.71"/>
    <line class="st2" x1="385.09" y1="752.99" x2="547.89" y2="812.28"/>
    <line class="st2" x1="385.97" y1="750.57" x2="548.78" y2="809.86"/>
    <line class="st2" x1="386.85" y1="748.15" x2="549.66" y2="807.44"/>
    <line class="st2" x1="387.73" y1="745.73" x2="550.54" y2="805.02"/>
    <line class="st2" x1="388.61" y1="743.3" x2="551.42" y2="802.6"/>
    <line class="st2" x1="389.49" y1="740.88" x2="552.3" y2="800.18"/>
    <line class="st2" x1="390.38" y1="738.46" x2="553.19" y2="797.76"/>
    <line class="st2" x1="391.26" y1="736.04" x2="554.07" y2="795.34"/>
    <line class="st2" x1="392.14" y1="733.62" x2="554.95" y2="792.91"/>
    <line class="st2" x1="393.02" y1="731.2" x2="555.83" y2="790.49"/>
    <line class="st2" x1="393.9" y1="728.78" x2="556.71" y2="788.07"/>
    <line class="st2" x1="394.79" y1="726.35" x2="557.6" y2="785.65"/>
    <line class="st2" x1="395.67" y1="723.93" x2="558.48" y2="783.23"/>
    <line class="st2" x1="396.55" y1="721.51" x2="559.36" y2="780.81"/>
    <line class="st2" x1="397.43" y1="719.09" x2="560.24" y2="778.39"/>
    <line class="st2" x1="398.31" y1="716.67" x2="561.12" y2="775.97"/>
    <line class="st2" x1="399.2" y1="714.25" x2="562" y2="773.54"/>
    <line class="st2" x1="400.08" y1="711.83" x2="562.89" y2="771.12"/>
    <line class="st2" x1="400.96" y1="709.4" x2="563.77" y2="768.7"/>
    <line class="st2" x1="401.84" y1="706.98" x2="564.65" y2="766.28"/>
    <line class="st2" x1="402.72" y1="704.56" x2="565.53" y2="763.86"/>
    <line class="st2" x1="403.6" y1="702.14" x2="566.41" y2="761.44"/>
    <line class="st2" x1="404.49" y1="699.72" x2="567.3" y2="759.02"/>
    <line class="st2" x1="405.37" y1="697.3" x2="568.18" y2="756.59"/>
    <line class="st2" x1="406.25" y1="694.88" x2="569.06" y2="754.17"/>
    <line class="st2" x1="407.13" y1="692.46" x2="569.94" y2="751.75"/>
    <line class="st2" x1="408.01" y1="690.03" x2="570.82" y2="749.33"/>
    <line class="st2" x1="408.9" y1="687.61" x2="571.7" y2="746.91"/>
    <line class="st2" x1="409.78" y1="685.19" x2="572.59" y2="744.49"/>
    <line class="st2" x1="410.66" y1="682.77" x2="573.47" y2="742.07"/>
    <line class="st2" x1="411.54" y1="680.35" x2="574.35" y2="739.64"/>
    <line class="st2" x1="412.42" y1="677.93" x2="575.23" y2="737.22"/>
    <line class="st2" x1="413.3" y1="675.51" x2="576.11" y2="734.8"/>
    <line class="st2" x1="414.19" y1="673.08" x2="577" y2="732.38"/>
    <line class="st2" x1="415.07" y1="670.66" x2="577.88" y2="729.96"/>
    <line class="st2" x1="415.95" y1="668.24" x2="578.76" y2="727.54"/>
    <line class="st2" x1="416.83" y1="665.82" x2="579.64" y2="725.12"/>
    <line class="st2" x1="417.71" y1="663.4" x2="580.52" y2="722.69"/>
    <line class="st2" x1="418.6" y1="660.98" x2="581.41" y2="720.27"/>
    <line class="st2" x1="419.48" y1="658.56" x2="582.29" y2="717.85"/>
    <line class="st2" x1="420.36" y1="656.13" x2="583.17" y2="715.43"/>
    <line class="st2" x1="421.24" y1="653.71" x2="584.05" y2="713.01"/>
    <line class="st2" x1="422.12" y1="651.29" x2="584.93" y2="710.59"/>
    <line class="st2" x1="423.01" y1="648.87" x2="585.82" y2="708.17"/>
    <line class="st2" x1="423.89" y1="646.45" x2="586.7" y2="705.75"/>
    <line class="st2" x1="424.77" y1="644.03" x2="587.58" y2="703.32"/>
    <line class="st2" x1="425.65" y1="641.61" x2="588.46" y2="700.9"/>
    <line class="st2" x1="426.53" y1="639.19" x2="589.34" y2="698.48"/>
    <line class="st2" x1="427.42" y1="636.76" x2="590.22" y2="696.06"/>
  </g>
  <g class="st8">
    <line class="st2" x1="295.48" y1="714.99" x2="344.7" y2="900.58"/>
    <line class="st2" x1="298.24" y1="714.26" x2="347.46" y2="899.85"/>
    <line class="st2" x1="301" y1="713.53" x2="350.22" y2="899.12"/>
    <line class="st2" x1="303.76" y1="712.79" x2="352.98" y2="898.38"/>
    <line class="st2" x1="306.52" y1="712.06" x2="355.74" y2="897.65"/>
    <line class="st2" x1="309.28" y1="711.33" x2="358.5" y2="896.92"/>
    <line class="st2" x1="312.04" y1="710.6" x2="361.26" y2="896.19"/>
    <line class="st2" x1="314.8" y1="709.87" x2="364.02" y2="895.46"/>
    <line class="st2" x1="317.56" y1="709.13" x2="366.78" y2="894.73"/>
    <line class="st2" x1="320.32" y1="708.4" x2="369.54" y2="893.99"/>
    <line class="st2" x1="323.08" y1="707.67" x2="372.3" y2="893.26"/>
    <line class="st2" x1="325.84" y1="706.94" x2="375.06" y2="892.53"/>
    <line class="st2" x1="328.6" y1="706.21" x2="377.82" y2="891.8"/>
    <line class="st2" x1="331.36" y1="705.47" x2="380.58" y2="891.07"/>
    <line class="st2" x1="334.12" y1="704.74" x2="383.34" y2="890.33"/>
    <line class="st2" x1="336.88" y1="704.01" x2="386.1" y2="889.6"/>
    <line class="st2" x1="339.64" y1="703.28" x2="388.86" y2="888.87"/>
    <line class="st2" x1="342.4" y1="702.55" x2="391.62" y2="888.14"/>
    <line class="st2" x1="345.16" y1="701.81" x2="394.38" y2="887.41"/>
    <line class="st2" x1="347.92" y1="701.08" x2="397.14" y2="886.67"/>
    <line class="st2" x1="350.68" y1="700.35" x2="399.9" y2="885.94"/>
    <line class="st2" x1="353.44" y1="699.62" x2="402.66" y2="885.21"/>
    <line class="st2" x1="356.2" y1="698.89" x2="405.42" y2="884.48"/>
    <line class="st2" x1="358.96" y1="698.15" x2="408.18" y2="883.75"/>
    <line class="st2" x1="361.72" y1="697.42" x2="410.94" y2="883.01"/>
    <line class="st2" x1="364.48" y1="696.69" x2="413.7" y2="882.28"/>
    <line class="st2" x1="367.24" y1="695.96" x2="416.46" y2="881.55"/>
    <line class="st2" x1="370" y1="695.23" x2="419.22" y2="880.82"/>
    <line class="st2" x1="372.76" y1="694.49" x2="421.98" y2="880.09"/>
    <line class="st2" x1="375.52" y1="693.76" x2="424.74" y2="879.35"/>
    <line class="st2" x1="378.28" y1="693.03" x2="427.5" y2="878.62"/>
    <line class="st2" x1="381.04" y1="692.3" x2="430.26" y2="877.89"/>
    <line class="st2" x1="383.8" y1="691.57" x2="433.02" y2="877.16"/>
    <line class="st2" x1="386.56" y1="690.83" x2="435.78" y2="876.43"/>
    <line class="st2" x1="389.32" y1="690.1" x2="438.54" y2="875.69"/>
    <line class="st2" x1="392.08" y1="689.37" x2="441.3" y2="874.96"/>
    <line class="st2" x1="394.84" y1="688.64" x2="444.06" y2="874.23"/>
    <line class="st2" x1="397.61" y1="687.91" x2="446.82" y2="873.5"/>
    <line class="st2" x1="400.37" y1="687.17" x2="449.58" y2="872.77"/>
    <line class="st2" x1="403.13" y1="686.44" x2="452.34" y2="872.03"/>
    <line class="st2" x1="405.89" y1="685.71" x2="455.1" y2="871.3"/>
    <line class="st2" x1="408.65" y1="684.98" x2="457.86" y2="870.57"/>
    <line class="st2" x1="411.41" y1="684.25" x2="460.62" y2="869.84"/>
    <line class="st2" x1="414.17" y1="683.51" x2="463.38" y2="869.11"/>
    <line class="st2" x1="416.93" y1="682.78" x2="466.14" y2="868.37"/>
    <line class="st2" x1="419.69" y1="682.05" x2="468.9" y2="867.64"/>
    <line class="st2" x1="422.45" y1="681.32" x2="471.66" y2="866.91"/>
    <line class="st2" x1="425.21" y1="680.59" x2="474.43" y2="866.18"/>
    <line class="st2" x1="427.97" y1="679.85" x2="477.19" y2="865.45"/>
    <line class="st2" x1="430.73" y1="679.12" x2="479.94" y2="864.71"/>
    <line class="st2" x1="433.49" y1="678.39" x2="482.71" y2="863.98"/>
    <line class="st2" x1="436.25" y1="677.66" x2="485.47" y2="863.25"/>
    <line class="st2" x1="439.01" y1="676.93" x2="488.23" y2="862.52"/>
    <line class="st2" x1="441.77" y1="676.19" x2="490.99" y2="861.79"/>
    <line class="st2" x1="444.53" y1="675.46" x2="493.75" y2="861.05"/>
  </g>
  <g class="st7">
    <line class="st2" x1="374.16" y1="779.92" x2="200.89" y2="779.92"/>
    <line class="st2" x1="374.16" y1="782.5" x2="200.89" y2="782.5"/>
    <line class="st2" x1="374.16" y1="785.08" x2="200.89" y2="785.08"/>
    <line class="st2" x1="374.16" y1="787.65" x2="200.89" y2="787.65"/>
    <line class="st2" x1="374.16" y1="790.23" x2="200.89" y2="790.23"/>
    <line class="st2" x1="374.16" y1="792.81" x2="200.89" y2="792.81"/>
    <line class="st2" x1="374.16" y1="795.38" x2="200.89" y2="795.38"/>
    <line class="st2" x1="374.16" y1="797.96" x2="200.89" y2="797.96"/>
    <line class="st2" x1="374.16" y1="800.54" x2="200.89" y2="800.54"/>
    <line class="st2" x1="374.16" y1="803.11" x2="200.89" y2="803.11"/>
    <line class="st2" x1="374.16" y1="805.69" x2="200.89" y2="805.69"/>
    <line class="st2" x1="374.16" y1="808.27" x2="200.89" y2="808.27"/>
    <line class="st2" x1="374.16" y1="810.84" x2="200.89" y2="810.84"/>
    <line class="st2" x1="374.16" y1="813.42" x2="200.89" y2="813.42"/>
    <line class="st2" x1="374.16" y1="816" x2="200.89" y2="816"/>
  </g>
  <path class="st14" d="M283.46,5.67c156.55,0,283.46,126.91,283.46,283.47s-126.91,283.46-283.46,283.46S0,445.69,0,289.14,126.91,5.67,283.46,5.67"/>
  <path class="st15" d="M283.46,23.78c146.55,0,265.36,118.81,265.36,265.36s-118.8,265.36-265.36,265.36S18.1,435.69,18.1,289.14,136.91,23.78,283.46,23.78"/>
  <path class="st12" d="M283.46,49.08c132.58,0,240.05,107.48,240.05,240.06s-107.48,240.06-240.05,240.06S43.41,421.72,43.41,289.14,150.88,49.08,283.46,49.08"/>
  <line class="st0" x1="283.43" y1="48.61" x2="283.43" y2="528.72"/>
  <line class="st0" x1="258.34" y1="49.93" x2="308.53" y2="527.41"/>
  <line class="st0" x1="233.52" y1="53.86" x2="333.34" y2="523.48"/>
  <line class="st0" x1="209.25" y1="60.36" x2="357.61" y2="516.98"/>
  <line class="st0" x1="185.79" y1="69.37" x2="381.07" y2="507.97"/>
  <line class="st0" x1="163.41" y1="80.78" x2="403.46" y2="496.56"/>
  <line class="st0" x1="142.33" y1="94.46" x2="424.53" y2="482.88"/>
  <line class="st0" x1="122.81" y1="110.27" x2="444.06" y2="467.07"/>
  <line class="st0" x1="105.04" y1="128.04" x2="461.83" y2="449.3"/>
  <line class="st0" x1="89.22" y1="147.57" x2="477.64" y2="429.77"/>
  <line class="st0" x1="75.54" y1="168.64" x2="491.33" y2="408.7"/>
  <line class="st0" x1="64.13" y1="191.03" x2="502.73" y2="386.31"/>
  <line class="st0" x1="55.13" y1="214.49" x2="511.74" y2="362.85"/>
  <line class="st0" x1="48.62" y1="238.76" x2="518.24" y2="338.58"/>
  <line class="st0" x1="44.69" y1="263.58" x2="522.17" y2="313.76"/>
  <line class="st0" x1="43.38" y1="288.67" x2="523.49" y2="288.67"/>
  <line class="st0" x1="44.69" y1="313.76" x2="522.17" y2="263.58"/>
  <line class="st0" x1="48.62" y1="338.58" x2="518.24" y2="238.76"/>
  <line class="st0" x1="55.13" y1="362.85" x2="511.74" y2="214.49"/>
  <line class="st0" x1="64.13" y1="386.31" x2="502.73" y2="191.03"/>
  <line class="st0" x1="75.54" y1="408.7" x2="491.33" y2="168.64"/>
  <line class="st0" x1="89.22" y1="429.77" x2="477.64" y2="147.57"/>
  <line class="st0" x1="105.04" y1="449.3" x2="461.83" y2="128.04"/>
  <line class="st0" x1="122.81" y1="467.06" x2="444.06" y2="110.27"/>
  <line class="st0" x1="142.33" y1="482.88" x2="424.53" y2="94.46"/>
  <line class="st0" x1="163.41" y1="496.56" x2="403.46" y2="80.78"/>
  <line class="st0" x1="185.79" y1="507.97" x2="381.07" y2="69.37"/>
  <line class="st0" x1="209.25" y1="516.97" x2="357.61" y2="60.36"/>
  <line class="st0" x1="233.52" y1="523.48" x2="333.34" y2="53.86"/>
  <line class="st0" x1="258.34" y1="527.41" x2="308.53" y2="49.93"/>
  <line class="st0" x1="283.43" y1="528.72" x2="283.43" y2="48.61"/>
  <path class="st15" d="M284.46,72.53c32.31,38.05,46.15,60.65,49.4,104.88,1.1,14.9-3.3,40.01-8.97,65.95-20.79,24.73-34.05,62.3-34.05,104.37,0,1.17.01,2.33.04,3.5v.13c0,17.34,2.74,33.89,7.53,49.03,4.35,13.76,9.22,25.4,14.75,34.95-5.01,38.57-8.01,52.08-28.7,79.32-20.69-27.25-23.68-40.76-28.7-79.32,5.53-9.55,10.4-21.19,14.75-34.95,4.79-15.14,7.53-31.69,7.53-49.03v-.13c.02-1.16.04-2.33.04-3.5,0-42.07-13.27-79.64-34.05-104.37-5.67-25.94-10.06-51.05-8.97-65.95,3.25-44.24,17.09-66.84,49.4-104.88"/>
  <path class="st11" d="M293.66,351.23v.05s0-.05,0-.05ZM317.57,123.88c-7.43-14.98-18.19-29.35-33.1-47.04-14.91,17.7-25.67,32.06-33.1,47.04-7.74,15.6-11.92,31.99-13.52,53.73-.53,7.24.28,17.04,1.93,28.24,1.63,11.11,4.08,23.58,6.85,36.28,10.62,12.79,19.27,28.85,25.22,47.08,5.8,17.76,9.04,37.61,9.04,58.53l-.02,1.77c0,.62-.01,1.21-.02,1.77v.08h.01c0,8.64-.67,17.09-1.93,25.28-1.31,8.52-3.25,16.74-5.73,24.59-2.18,6.9-4.52,13.32-7.03,19.29-2.36,5.62-4.86,10.75-7.5,15.39,2.43,18.59,4.4,31.23,8.23,42.44,3.57,10.46,8.8,19.77,17.59,31.68,8.79-11.91,14.02-21.22,17.59-31.68,3.83-11.2,5.8-23.85,8.23-42.44-2.64-4.64-5.13-9.77-7.5-15.39-2.51-5.97-4.85-12.39-7.03-19.29-2.48-7.85-4.42-16.07-5.73-24.59-1.26-8.19-1.93-16.64-1.93-25.27h.01v-.09c-.01-.56-.02-1.14-.02-1.76l-.02-1.77c0-20.92,3.24-40.77,9.04-58.53,5.95-18.23,14.6-34.28,25.22-47.08,2.76-12.7,5.21-25.17,6.85-36.28,1.64-11.2,2.46-21,1.93-28.24-1.6-21.74-5.79-38.13-13.52-53.73ZM286.62,70.76c16.27,19.17,27.91,34.48,35.94,50.65,8.07,16.27,12.43,33.3,14.09,55.8.56,7.67-.27,17.87-1.97,29.43-1.68,11.46-4.21,24.29-7.05,37.3-.12.54-.38,1.01-.75,1.38-10.29,12.29-18.69,27.84-24.48,45.59-5.61,17.2-8.75,36.46-8.75,56.81v1.73c0,.54.01,1.11.03,1.71v.11s0,.07,0,.07h.01c0,8.37.65,16.54,1.86,24.45,1.26,8.21,3.14,16.16,5.54,23.74,2.17,6.86,4.44,13.13,6.83,18.81,2.4,5.7,4.95,10.89,7.67,15.58.34.59.44,1.25.33,1.87-2.53,19.4-4.55,32.53-8.58,44.32-4.06,11.9-10.11,22.31-20.65,36.2-.93,1.22-2.67,1.46-3.89.53-.22-.17-.41-.37-.57-.58-10.52-13.86-16.56-24.27-20.62-36.15-4.03-11.81-6.06-24.97-8.59-44.44-.08-.63.05-1.24.35-1.75h0c2.72-4.69,5.27-9.89,7.66-15.58,2.39-5.68,4.66-11.95,6.83-18.81,2.4-7.58,4.28-15.53,5.54-23.74,1.21-7.91,1.86-16.08,1.86-24.45h.01v-.18s0,0,0,0c.01-.6.02-1.17.03-1.71v-1.73c0-20.35-3.14-39.6-8.75-56.81-5.82-17.83-14.28-33.45-24.63-45.77-.3-.36-.5-.77-.59-1.2h-.01c-2.84-13.01-5.37-25.83-7.05-37.3-1.7-11.57-2.53-21.77-1.97-29.43,1.66-22.5,6.02-39.53,14.09-55.8,8.03-16.19,19.68-31.5,35.97-50.69.99-1.17,2.75-1.32,3.92-.33.13.11.25.23.35.36Z"/>
  <path class="st11" d="M284.46,483.29h-.08c-1.24-16.88-1.97-36.62-1.94-60.55v-241.48c-.04-47.93,1.73-72.82,1.9-76.91h.23c.17,4.09,1.94,28.98,1.9,76.91v241.48c.03,23.92-.69,43.66-1.94,60.55h-.08Z"/>
  <path class="st15" d="M383.89,213.09c105.8,0,87.26,124.84,5.14,112.5,18.37-23.68-3.11-49.51-36.22-39.68-26.01,7.72-38.41,42.28-38.41,69.71,0,17,3.79,32.61,10.12,44.87,16.51,31.07,54.33,23.64,56.21,5.2,12.73,1.37,18.22,14.71,16.05,28.12-5.97,36.9-54.23,35.99-74.96,12.66-9.12-10.27-16.47-25.87-23.25-47.97-4.79-15.61-7.53-32.68-7.53-50.55,0-74.48,41.57-134.85,92.85-134.85"/>
  <path class="st11" d="M449.18,248.56c-8.86-18.24-29.79-32.59-65.3-32.59-24.69,0-47.1,14.63-63.39,38.28-16.48,23.94-26.67,57.06-26.67,93.69,0,8.63.65,17.05,1.86,25.21,1.26,8.47,3.14,16.66,5.54,24.48,3.36,10.94,6.84,20.23,10.59,28.02,3.71,7.71,7.68,13.96,12.06,18.89,7.06,7.95,17.56,13.14,28.37,14.89,5.95.96,11.98.87,17.58-.39,5.48-1.24,10.51-3.61,14.57-7.21,4.83-4.29,8.33-10.39,9.64-18.49.09-.57.17-1.13.23-1.68v-.09c.61-5.61-.25-11.06-2.53-15.27-1.91-3.53-4.87-6.19-8.83-7.29-1,3.42-3.05,6.42-5.87,8.85-3.81,3.3-9.06,5.55-14.91,6.35-5.74.79-12.1.18-18.26-2.2-8.28-3.2-16.2-9.61-21.79-20.13h0s-.02-.03-.02-.03c-3.32-6.43-5.97-13.74-7.76-21.65l-.03-.12c-1.73-7.66-2.67-15.89-2.67-24.45,0-15.36,3.79-32.92,11.57-47.04,6.65-12.08,16.23-21.68,28.86-25.43,10.85-3.22,20.59-2.79,28.3.08,5.58,2.08,10.11,5.45,13.26,9.66,3.2,4.29,4.96,9.43,4.95,14.98-.01,4.96-1.45,10.22-4.56,15.43,24.28,2.15,42.21-8.47,51.92-23.79,4.77-7.52,7.58-16.17,8.19-24.99.62-8.82-.95-17.79-4.92-25.95M383.89,210.22c37.96,0,60.53,15.75,70.27,35.78,4.44,9.13,6.19,19.13,5.51,28.92-.68,9.79-3.79,19.39-9.09,27.73-11.41,17.99-32.89,30.15-61.94,25.79-1.52-.22-2.58-1.68-2.36-3.25.08-.6.34-1.14.72-1.55,4.12-5.38,5.99-10.81,6.01-15.77.01-4.24-1.34-8.18-3.79-11.47-2.51-3.36-6.18-6.07-10.75-7.78-6.66-2.48-15.21-2.81-24.88.05-11.08,3.29-19.57,11.89-25.55,22.74-7.28,13.22-10.83,29.72-10.83,44.21,0,8.13.89,15.92,2.52,23.14l.02.11c1.68,7.43,4.15,14.26,7.23,20.24h0c4.89,9.19,11.74,14.76,18.87,17.52,5.27,2.04,10.69,2.56,15.58,1.89,4.78-.66,9.02-2.45,12.05-5.07,2.53-2.19,4.18-4.95,4.5-8.06.16-1.58,1.52-2.72,3.05-2.56.34.03.73.09,1.14.16,6.64,1.07,11.47,5.04,14.44,10.52,2.85,5.26,3.94,11.92,3.21,18.69v.08c-.08.67-.18,1.34-.28,2-1.54,9.53-5.72,16.75-11.49,21.88-4.81,4.27-10.68,7.06-17.03,8.49-6.24,1.41-12.97,1.51-19.61.44-11.99-1.94-23.68-7.76-31.62-16.69-4.75-5.35-9.01-12.03-12.95-20.21-3.9-8.1-7.49-17.66-10.91-28.83-2.48-8.09-4.42-16.57-5.73-25.35-1.26-8.44-1.93-17.16-1.93-26.06,0-37.84,10.59-72.15,27.72-97.02,17.32-25.15,41.33-40.71,67.92-40.71Z"/>
  <path class="st11" d="M297.63,320.38c-5.69,20.2-4.95,42.18.08,62.05,23.13,91.37,98.79,73.42,85.32,25.33,8.81,45.48-59.32,59.05-80.92-26.28-4.88-19.28-5.61-40.56-.11-60.06,6.97-32.22,39.26-77.05,79.05-72.96,40.51,4.74,48.25,46.72,22.95,70.7,31.98-21.86,20.26-77.38-30.45-75.29-35.26,1.46-67.14,37.95-75.92,76.5"/>
  <path class="st15" d="M184.99,213.09c-105.8,0-87.26,124.84-5.14,112.5-18.37-23.68,3.11-49.51,36.22-39.68,26.01,7.72,38.41,42.28,38.41,69.71,0,17-3.79,32.61-10.12,44.87-16.51,31.07-54.33,23.64-56.21,5.2-12.73,1.37-18.22,14.71-16.05,28.12,5.97,36.9,54.23,35.99,74.96,12.66,9.12-10.27,16.47-25.87,23.26-47.97,4.79-15.61,7.53-32.68,7.53-50.55,0-74.48-41.57-134.85-92.85-134.85"/>
  <path class="st11" d="M114.72,246c9.73-20.03,32.3-35.78,70.27-35.78,26.59,0,50.6,15.56,67.92,40.71,17.12,24.87,27.72,59.18,27.72,97.02,0,8.91-.67,17.62-1.93,26.06-1.31,8.78-3.25,17.26-5.73,25.35-3.43,11.17-7.01,20.73-10.91,28.83-3.94,8.18-8.2,14.87-12.95,20.21-7.93,8.93-19.63,14.75-31.62,16.69-6.64,1.07-13.37.97-19.61-.44-6.35-1.43-12.23-4.22-17.03-8.49-5.77-5.13-9.95-12.35-11.49-21.88-.11-.66-.2-1.33-.27-2v-.08c-.74-6.76.35-13.43,3.2-18.69,2.97-5.48,7.8-9.44,14.44-10.52.42-.07.8-.12,1.15-.16,1.53-.16,2.89.98,3.05,2.56.32,3.11,1.97,5.87,4.5,8.06,3.03,2.62,7.27,4.41,12.05,5.07,4.89.67,10.31.15,15.58-1.89,7.13-2.76,13.98-8.33,18.87-17.53h0c3.09-5.97,5.55-12.8,7.23-20.23l.02-.11c1.63-7.22,2.52-15.01,2.52-23.14,0-14.49-3.55-30.99-10.83-44.21-5.98-10.85-14.47-19.45-25.55-22.74-9.67-2.87-18.22-2.54-24.88-.05-4.57,1.7-8.24,4.41-10.75,7.78-2.45,3.29-3.8,7.23-3.79,11.47.01,4.96,1.88,10.39,6.01,15.77.38.41.64.95.72,1.55.22,1.57-.84,3.02-2.36,3.25-29.05,4.36-50.53-7.8-61.94-25.79-5.29-8.34-8.4-17.94-9.09-27.73-.68-9.79,1.07-19.79,5.51-28.92M184.99,215.97c-35.51,0-56.44,14.35-65.3,32.59-3.97,8.16-5.53,17.14-4.92,25.95.62,8.82,3.42,17.47,8.19,24.99,9.72,15.32,27.64,25.94,51.92,23.79-3.11-5.21-4.55-10.47-4.56-15.43-.01-5.54,1.75-10.69,4.95-14.98,3.15-4.21,7.68-7.58,13.26-9.66,7.71-2.87,17.45-3.3,28.3-.08,12.64,3.75,22.21,13.36,28.86,25.43,7.78,14.12,11.57,31.68,11.57,47.04,0,8.56-.94,16.79-2.67,24.45l-.03.12c-1.79,7.91-4.44,15.22-7.76,21.65l-.02.03h0c-5.59,10.53-13.52,16.93-21.79,20.13-6.16,2.39-12.52,2.99-18.26,2.2-5.85-.8-11.09-3.05-14.91-6.35-2.81-2.43-4.87-5.43-5.87-8.85-3.97,1.1-6.92,3.76-8.83,7.29-2.28,4.21-3.14,9.66-2.54,15.27v.09c.07.55.15,1.12.24,1.68,1.31,8.1,4.81,14.2,9.64,18.49,4.05,3.6,9.09,5.97,14.57,7.21,5.6,1.26,11.63,1.36,17.58.39,10.81-1.75,21.31-6.94,28.37-14.89,4.37-4.92,8.35-11.17,12.06-18.89,3.75-7.79,7.23-17.09,10.59-28.02,2.4-7.82,4.28-16.01,5.54-24.48,1.21-8.16,1.86-16.58,1.86-25.21,0-36.64-10.19-69.76-26.67-93.69-16.29-23.65-38.7-38.28-63.39-38.28Z"/>
  <path class="st11" d="M271.25,320.38c5.7,20.2,4.95,42.18-.08,62.05-23.13,91.37-98.79,73.42-85.32,25.33-8.8,45.48,59.32,59.05,80.92-26.28,4.88-19.28,5.61-40.56.11-60.06-6.97-32.22-39.26-77.05-79.05-72.96-40.51,4.74-48.25,46.72-22.95,70.7-31.98-21.86-20.26-77.38,30.45-75.29,35.26,1.46,67.14,37.95,75.92,76.5"/>
  <path class="st11" d="M219.66,403.18c7.44-8.31,12.21-11.51,23.36-13.04,12.72-1.38,25.53.33,38.2,1.53,19.08,1.74,33.32,2.5,52.34-1.68,11.07-2.82,19.06-6.27,28.63-12.48,10.57-7.27,17.47-16.25,25.11-26.44-13.22-9.29-26.44-18.59-39.67-27.88-3.91,5.22-7.45,9.07-12.87,12.81-4.31,2.8-7.81,4.27-12.81,5.54-12.15,2.66-23.71,1.61-35.97.49-17.46-1.66-31.4-1.35-49.12.57-10.54,1.44-18.4,3.64-28.01,8.24-10.67,5.5-17.74,11.2-25.68,20.07l36.49,32.26Z"/>
  <path class="st10" d="M202.47,383.66c5.31-5.51,9.92-9.09,16.77-12.61,7.05-3.37,12.8-4.92,20.53-5.98,15.37-1.66,28.73-.02,43.96,1.44,15.57,1.42,28.22.43,43.71-2.97,7.87-2,13.49-4.41,20.28-8.82,7.08-4.86,11.8-9.59,17.09-16.27l-16.44-11.82c-3.81,4.81-7.01,8.06-12.11,11.55-4.6,2.99-8.35,4.57-13.68,5.92-12.55,2.75-24.21,1.71-36.87.56-17.2-1.64-31.07-1.33-48.52.56-10.22,1.4-17.83,3.52-27.14,7.98-9.2,4.72-15.46,9.52-22.58,16.92,5,4.51,9.99,9.03,14.99,13.54"/>
  <path class="st13" d="M219.43,398.99c3.24-3.37,6.01-5.59,10.2-7.73,4.46-2.14,8.16-3.05,13.06-3.72,12.93-1.4,25.93.3,38.8,1.52,18.72,1.71,32.78,2.48,51.44-1.61,10.74-2.73,18.48-6.08,27.76-12.1,9.3-6.38,16.15-14.73,23.1-23.5l-16.83-11.81c-5.48,6.92-10.39,11.82-17.72,16.86-7.09,4.6-12.95,7.11-21.15,9.2-15.87,3.48-28.65,4.49-44.61,3.04-14.96-1.43-28.26-3.08-43.36-1.45-7.41,1.02-12.91,2.49-19.66,5.72-6.55,3.36-10.94,6.78-16.01,12.04,5,4.51,9.99,9.03,14.99,13.54"/>
</svg>