<?xml version="1.0" encoding="UTF-8" standalone="no"?>
<svg
   xmlns:dc="http://purl.org/dc/elements/1.1/"
   xmlns:cc="http://creativecommons.org/ns#"
   xmlns:rdf="http://www.w3.org/1999/02/22-rdf-syntax-ns#"
   xmlns:svg="http://www.w3.org/2000/svg"
   xmlns="http://www.w3.org/2000/svg"
   viewBox="0 0 209.33333 208"
   height="208"
   width="209.33333"
   xml:space="preserve"
   id="svg2"
   version="1.1"><metadata
     id="metadata8"><rdf:RDF><cc:Work
         rdf:about=""><dc:format>image/svg+xml</dc:format><dc:type
           rdf:resource="http://purl.org/dc/dcmitype/StillImage" /></cc:Work></rdf:RDF></metadata><defs
     id="defs6" /><g
     transform="matrix(1.3333333,0,0,-1.3333333,0,208)"
     id="g10"><g
       transform="scale(0.1)"
       id="g12"><path
         id="path14"
         style="fill:#64604f;fill-opacity:1;fill-rule:evenodd;stroke:none"
         d="m 781.137,1559.75 c 430.523,0 779.523,-349.01 779.523,-779.535 0,-430.52 -349,-779.523594 -779.523,-779.523594 C 350.613,0.691406 1.60938,349.695 1.60938,780.215 c 0,430.525 349.00362,779.535 779.52762,779.535" /><path
         id="path16"
         style="fill:#4e4a3d;fill-opacity:1;fill-rule:nonzero;stroke:none"
         d="m 781.137,1509.95 c 403.023,0 729.733,-326.71 729.733,-729.735 0,-403.024 -326.71,-729.7384 -729.733,-729.7384 -403.028,0 -729.7386,326.7144 -729.7386,729.7384 0,403.025 326.7106,729.735 729.7386,729.735" /><path
         id="path18"
         style="fill:#4e4a3d;fill-opacity:1;fill-rule:evenodd;stroke:none"
         d="m 781.137,1440.37 c 364.593,0 660.153,-295.56 660.153,-660.155 0,-364.594 -295.56,-660.152 -660.153,-660.152 -364.594,0 -660.157,295.558 -660.157,660.152 0,364.595 295.563,660.155 660.157,660.155" /><path
         id="path20"
         style="fill:none;stroke:#595647;stroke-width:28.3465004;stroke-linecap:butt;stroke-linejoin:miter;stroke-miterlimit:22.92560005;stroke-dasharray:none;stroke-opacity:1"
         d="M 781.047,1441.65 V 121.352" /><path
         id="path22"
         style="fill:none;stroke:#595647;stroke-width:28.3465004;stroke-linecap:butt;stroke-linejoin:miter;stroke-miterlimit:22.92560005;stroke-dasharray:none;stroke-opacity:1"
         d="M 712.047,1438.04 850.051,124.969" /><path
         id="path24"
         style="fill:none;stroke:#595647;stroke-width:28.3465004;stroke-linecap:butt;stroke-linejoin:miter;stroke-miterlimit:22.92560005;stroke-dasharray:none;stroke-opacity:1"
         d="M 643.797,1427.23 918.301,135.777" /><path
         id="path26"
         style="fill:none;stroke:#595647;stroke-width:28.3465004;stroke-linecap:butt;stroke-linejoin:miter;stroke-miterlimit:22.92560005;stroke-dasharray:none;stroke-opacity:1"
         d="M 577.051,1409.34 985.047,153.66" /><path
         id="path28"
         style="fill:none;stroke:#595647;stroke-width:28.3465004;stroke-linecap:butt;stroke-linejoin:miter;stroke-miterlimit:22.92560005;stroke-dasharray:none;stroke-opacity:1"
         d="M 512.543,1384.58 1049.56,178.426" /><path
         id="path30"
         style="fill:none;stroke:#595647;stroke-width:28.3465004;stroke-linecap:butt;stroke-linejoin:miter;stroke-miterlimit:22.92560005;stroke-dasharray:none;stroke-opacity:1"
         d="M 450.973,1353.21 1111.13,209.797" /><path
         id="path32"
         style="fill:none;stroke:#595647;stroke-width:28.3465004;stroke-linecap:butt;stroke-linejoin:miter;stroke-miterlimit:22.92560005;stroke-dasharray:none;stroke-opacity:1"
         d="M 393.023,1315.58 1169.08,247.43" /><path
         id="path34"
         style="fill:none;stroke:#595647;stroke-width:28.3465004;stroke-linecap:butt;stroke-linejoin:miter;stroke-miterlimit:22.92560005;stroke-dasharray:none;stroke-opacity:1"
         d="M 339.324,1272.09 1222.78,290.914" /><path
         id="path36"
         style="fill:none;stroke:#595647;stroke-width:28.3465004;stroke-linecap:butt;stroke-linejoin:miter;stroke-miterlimit:22.92560005;stroke-dasharray:none;stroke-opacity:1"
         d="M 290.461,1223.23 1271.64,339.777" /><path
         id="path38"
         style="fill:none;stroke:#595647;stroke-width:28.3465004;stroke-linecap:butt;stroke-linejoin:miter;stroke-miterlimit:22.92560005;stroke-dasharray:none;stroke-opacity:1"
         d="M 246.977,1169.53 1315.13,393.477" /><path
         id="path40"
         style="fill:none;stroke:#595647;stroke-width:28.3465004;stroke-linecap:butt;stroke-linejoin:miter;stroke-miterlimit:22.92560005;stroke-dasharray:none;stroke-opacity:1"
         d="M 209.344,1111.58 1352.76,451.43" /><path
         id="path42"
         style="fill:none;stroke:#595647;stroke-width:28.3465004;stroke-linecap:butt;stroke-linejoin:miter;stroke-miterlimit:22.92560005;stroke-dasharray:none;stroke-opacity:1"
         d="M 177.973,1050.01 1384.13,512.996" /><path
         id="path44"
         style="fill:none;stroke:#595647;stroke-width:28.3465004;stroke-linecap:butt;stroke-linejoin:miter;stroke-miterlimit:22.92560005;stroke-dasharray:none;stroke-opacity:1"
         d="M 153.207,985.504 1408.89,577.508" /><path
         id="path46"
         style="fill:none;stroke:#595647;stroke-width:28.3465004;stroke-linecap:butt;stroke-linejoin:miter;stroke-miterlimit:22.92560005;stroke-dasharray:none;stroke-opacity:1"
         d="M 135.324,918.758 1426.78,644.25" /><path
         id="path48"
         style="fill:none;stroke:#595647;stroke-width:28.3465004;stroke-linecap:butt;stroke-linejoin:miter;stroke-miterlimit:22.92560005;stroke-dasharray:none;stroke-opacity:1"
         d="M 124.516,850.508 1437.58,712.5" /><path
         id="path50"
         style="fill:none;stroke:#595647;stroke-width:28.3465004;stroke-linecap:butt;stroke-linejoin:miter;stroke-miterlimit:22.92560005;stroke-dasharray:none;stroke-opacity:1"
         d="M 120.898,781.504 H 1441.2" /><path
         id="path52"
         style="fill:none;stroke:#595647;stroke-width:28.3465004;stroke-linecap:butt;stroke-linejoin:miter;stroke-miterlimit:22.92560005;stroke-dasharray:none;stroke-opacity:1"
         d="M 124.516,712.5 1437.58,850.508" /><path
         id="path54"
         style="fill:none;stroke:#595647;stroke-width:28.3465004;stroke-linecap:butt;stroke-linejoin:miter;stroke-miterlimit:22.92560005;stroke-dasharray:none;stroke-opacity:1"
         d="M 135.324,644.25 1426.78,918.758" /><path
         id="path56"
         style="fill:none;stroke:#595647;stroke-width:28.3465004;stroke-linecap:butt;stroke-linejoin:miter;stroke-miterlimit:22.92560005;stroke-dasharray:none;stroke-opacity:1"
         d="M 153.207,577.508 1408.89,985.504" /><path
         id="path58"
         style="fill:none;stroke:#595647;stroke-width:28.3465004;stroke-linecap:butt;stroke-linejoin:miter;stroke-miterlimit:22.92560005;stroke-dasharray:none;stroke-opacity:1"
         d="M 177.973,512.996 1384.13,1050.01" /><path
         id="path60"
         style="fill:none;stroke:#595647;stroke-width:28.3465004;stroke-linecap:butt;stroke-linejoin:miter;stroke-miterlimit:22.92560005;stroke-dasharray:none;stroke-opacity:1"
         d="M 209.344,451.43 1352.76,1111.58" /><path
         id="path62"
         style="fill:none;stroke:#595647;stroke-width:28.3465004;stroke-linecap:butt;stroke-linejoin:miter;stroke-miterlimit:22.92560005;stroke-dasharray:none;stroke-opacity:1"
         d="M 246.977,393.477 1315.13,1169.53" /><path
         id="path64"
         style="fill:none;stroke:#595647;stroke-width:28.3465004;stroke-linecap:butt;stroke-linejoin:miter;stroke-miterlimit:22.92560005;stroke-dasharray:none;stroke-opacity:1"
         d="M 290.461,339.777 1271.64,1223.23" /><path
         id="path66"
         style="fill:none;stroke:#595647;stroke-width:28.3465004;stroke-linecap:butt;stroke-linejoin:miter;stroke-miterlimit:22.92560005;stroke-dasharray:none;stroke-opacity:1"
         d="M 339.324,290.918 1222.78,1272.09" /><path
         id="path68"
         style="fill:none;stroke:#595647;stroke-width:28.3465004;stroke-linecap:butt;stroke-linejoin:miter;stroke-miterlimit:22.92560005;stroke-dasharray:none;stroke-opacity:1"
         d="M 393.023,247.43 1169.08,1315.58" /><path
         id="path70"
         style="fill:none;stroke:#595647;stroke-width:28.3465004;stroke-linecap:butt;stroke-linejoin:miter;stroke-miterlimit:22.92560005;stroke-dasharray:none;stroke-opacity:1"
         d="M 450.973,209.797 1111.13,1353.21" /><path
         id="path72"
         style="fill:none;stroke:#595647;stroke-width:28.3465004;stroke-linecap:butt;stroke-linejoin:miter;stroke-miterlimit:22.92560005;stroke-dasharray:none;stroke-opacity:1"
         d="M 512.543,178.426 1049.56,1384.58" /><path
         id="path74"
         style="fill:none;stroke:#595647;stroke-width:28.3465004;stroke-linecap:butt;stroke-linejoin:miter;stroke-miterlimit:22.92560005;stroke-dasharray:none;stroke-opacity:1"
         d="M 577.051,153.664 985.047,1409.35" /><path
         id="path76"
         style="fill:none;stroke:#595647;stroke-width:28.3465004;stroke-linecap:butt;stroke-linejoin:miter;stroke-miterlimit:22.92560005;stroke-dasharray:none;stroke-opacity:1"
         d="M 643.797,135.781 918.301,1427.23" /><path
         id="path78"
         style="fill:none;stroke:#595647;stroke-width:28.3465004;stroke-linecap:butt;stroke-linejoin:miter;stroke-miterlimit:22.92560005;stroke-dasharray:none;stroke-opacity:1"
         d="M 712.047,124.973 850.051,1438.04" /><path
         id="path80"
         style="fill:none;stroke:#595647;stroke-width:28.3465004;stroke-linecap:butt;stroke-linejoin:miter;stroke-miterlimit:22.92560005;stroke-dasharray:none;stroke-opacity:1"
         d="M 781.047,121.355 V 1441.66" /><path
         id="path82"
         style="fill:#005d28;fill-opacity:1;fill-rule:nonzero;stroke:none"
         d="m 787.215,1377.98 c 44.754,-52.71 76.765,-94.8 98.836,-139.3 22.195,-44.74 34.191,-91.56 38.742,-153.44 1.551,-21.08 -0.75,-49.14 -5.418,-80.94 -4.629,-31.527 -11.578,-66.792 -19.395,-102.577 -0.32,-1.489 -1.054,-2.782 -2.054,-3.789 C 869.637,864.133 846.52,821.363 830.594,772.555 815.16,725.246 806.523,672.285 806.523,616.332 l -0.003,-4.754 c 0.011,-1.488 0.043,-3.055 0.074,-4.711 l -0.004,-0.308 v -0.188 h 0.031 c 0,-23.008 1.781,-45.484 5.117,-67.23 3.473,-22.59 8.633,-44.434 15.231,-65.286 5.969,-18.871 12.219,-36.113 18.793,-51.734 6.593,-15.664 13.605,-29.945 21.082,-42.851 0.933,-1.614 1.215,-3.438 0.914,-5.141 -6.945,-53.363 -12.516,-89.469 -23.586,-121.887 -11.168,-32.726 -27.797,-61.363 -56.793,-99.554 -2.547,-3.356 -7.336,-4.016 -10.691,-1.469 -0.614,0.469 -1.137,1.004 -1.571,1.597 -28.933,38.125 -45.535,66.739 -56.695,99.426 -11.09,32.485 -16.664,68.664 -23.621,122.207 -0.231,1.742 0.148,3.418 0.965,4.821 h -0.008 c 7.472,12.906 14.48,27.187 21.074,42.851 6.578,15.621 12.828,32.863 18.793,51.734 6.598,20.852 11.762,42.696 15.23,65.286 3.336,21.746 5.122,44.222 5.122,67.23 h 0.027 v 0.348 l 0.004,0.148 h -0.004 c 0.031,1.656 0.059,3.231 0.07,4.711 l -0.004,4.754 c 0,55.953 -8.632,108.914 -24.07,156.223 -16,49.043 -39.266,91.996 -67.742,125.871 -0.828,0.992 -1.363,2.125 -1.613,3.304 l -0.032,-0.007 c -7.816,35.785 -14.765,71.047 -19.394,102.577 -4.668,31.8 -6.965,59.86 -5.418,80.94 4.554,61.88 16.547,108.7 38.746,153.44 22.082,44.52 54.117,86.64 98.91,139.39 2.731,3.23 7.559,3.63 10.785,0.9 0.356,-0.3 0.688,-0.64 0.973,-0.99 z m 85.113,-146.06 c -20.433,41.19 -50.023,80.7 -91.031,129.37 -41.004,-48.67 -70.594,-88.18 -91.031,-129.37 -21.278,-42.9 -32.789,-87.98 -37.188,-147.76 -1.461,-19.89 0.777,-46.86 5.297,-77.65 4.48,-30.549 11.219,-64.838 18.824,-99.764 29.196,-35.183 53,-79.324 69.36,-129.457 15.933,-48.848 24.847,-103.418 24.847,-160.957 l -0.054,-4.871 c -0.016,-1.711 -0.039,-3.336 -0.067,-4.867 v -0.223 h 0.031 c 0,-23.75 -1.847,-46.988 -5.304,-69.512 -3.598,-23.425 -8.946,-46.043 -15.77,-67.621 -6,-18.968 -12.426,-36.644 -19.332,-53.05 -6.504,-15.446 -13.367,-29.551 -20.621,-42.325 6.672,-51.113 12.109,-85.894 22.629,-116.707 9.82,-28.761 24.199,-54.367 48.379,-87.125 24.18,32.758 38.562,58.364 48.379,87.125 10.519,30.813 15.961,65.594 22.633,116.707 -7.258,12.766 -14.118,26.879 -20.621,42.325 -6.907,16.406 -13.34,34.082 -19.336,53.05 -6.825,21.582 -12.168,44.2 -15.766,67.629 -3.457,22.516 -5.305,45.754 -5.305,69.504 h 0.032 v 0.031 0.219 c -0.028,1.527 -0.055,3.145 -0.067,4.84 l -0.058,4.871 c 0,57.539 8.914,112.109 24.851,160.957 16.359,50.133 40.16,94.274 69.359,129.457 7.602,34.926 14.34,69.215 18.825,99.764 4.519,30.79 6.757,57.76 5.297,77.65 -4.399,59.78 -15.915,104.86 -37.192,147.76 z m -65.734,-625.229 -0.004,-0.132 0.004,0.132" /><path
         id="path84"
         style="fill:#005d28;fill-opacity:1;fill-rule:nonzero;stroke:none"
         d="m 781.297,243.531 h -0.215 c -3.414,46.43 -5.41,100.711 -5.324,166.504 v 664.075 c -0.11,131.82 4.754,200.25 5.222,211.5 h 0.317 0.32 c 0.465,-11.25 5.332,-79.68 5.219,-211.5 V 410.035 c 0.09,-65.793 -1.906,-120.074 -5.324,-166.504 h -0.215" /><path
         id="path86"
         style="fill:#005d28;fill-opacity:1;fill-rule:nonzero;stroke:none"
         d="m 1054.71,994.488 c 104.4,0 166.47,-43.324 193.23,-98.398 12.2,-25.106 17.02,-52.602 15.14,-79.524 -1.87,-26.925 -10.43,-53.332 -24.98,-76.265 -31.37,-49.461 -90.46,-82.91 -170.34,-70.914 -4.19,0.609 -7.1,4.609 -6.5,8.926 0.22,1.66 0.94,3.125 1.98,4.265 11.34,14.793 16.48,29.727 16.51,43.379 0.03,11.668 -3.68,22.508 -10.43,31.543 -6.91,9.25 -17,16.703 -29.57,21.387 -18.33,6.828 -41.832,7.738 -68.422,-0.149 -30.476,-9.047 -53.828,-32.699 -70.265,-62.535 -20.032,-36.351 -29.797,-81.742 -29.797,-121.582 0,-22.359 2.441,-43.785 6.922,-63.644 l 0.062,-0.289 c 4.629,-20.434 11.398,-39.215 19.883,-55.657 l 0.012,0.012 c 13.441,-25.293 32.289,-40.605 51.898,-48.195 14.488,-5.614 29.402,-7.043 42.848,-5.2 13.159,1.809 24.819,6.75 33.139,13.946 6.96,6.011 11.5,13.597 12.37,22.152 0.43,4.332 4.19,7.484 8.39,7.039 0.94,-0.094 2,-0.246 3.14,-0.433 18.27,-2.95 31.55,-13.848 39.71,-28.922 7.84,-14.473 10.83,-32.789 8.84,-51.391 l -0.03,-0.234 c -0.2,-1.844 -0.45,-3.68 -0.75,-5.496 -4.24,-26.204 -15.72,-46.067 -31.6,-60.172 -13.22,-11.746 -29.38,-19.403 -46.84,-23.348 -17.16,-3.875 -35.67,-4.156 -53.916,-1.207 -32.961,5.332 -65.129,21.332 -86.946,45.891 -13.058,14.699 -24.789,33.09 -35.617,55.578 -10.726,22.277 -20.586,48.566 -30.011,79.285 -6.829,22.25 -12.168,45.57 -15.77,69.727 -3.453,23.21 -5.297,47.175 -5.297,71.671 0,104.063 29.125,198.403 76.223,266.801 47.629,69.168 113.652,111.953 186.784,111.953 z m 179.57,-105.441 c -24.37,50.164 -81.92,89.629 -179.57,89.629 -67.886,0 -129.534,-40.238 -174.319,-105.281 -45.325,-65.825 -73.356,-156.911 -73.356,-257.661 0,-23.718 1.785,-46.898 5.125,-69.328 3.469,-23.293 8.629,-45.808 15.227,-67.316 9.23,-30.074 18.801,-55.637 29.113,-77.059 10.211,-21.211 21.133,-38.394 33.16,-51.933 19.422,-21.864 48.297,-36.145 78.02,-40.95 16.355,-2.644 32.95,-2.386 48.34,1.082 15.08,3.411 28.92,9.918 40.07,19.825 13.28,11.8 22.91,28.566 26.52,50.847 0.25,1.559 0.46,3.11 0.63,4.629 l 0.02,0.239 c 1.66,15.437 -0.7,30.418 -6.97,42.003 -5.26,9.707 -13.39,17.028 -24.29,20.059 -2.75,-9.418 -8.4,-17.664 -16.14,-24.348 -10.49,-9.062 -24.91,-15.254 -40.993,-17.457 -15.793,-2.172 -33.269,-0.504 -50.219,6.059 -22.753,8.812 -44.543,26.414 -59.921,55.355 l 0.011,0.012 -0.043,0.086 c -9.136,17.688 -16.406,37.777 -21.343,59.531 l -0.082,0.321 c -4.754,21.07 -7.34,43.699 -7.34,67.23 0,42.25 10.425,90.527 31.828,129.367 18.297,33.207 44.625,59.625 79.379,69.942 29.836,8.855 56.623,7.683 77.823,-0.219 15.35,-5.723 27.81,-14.984 36.46,-26.574 8.8,-11.793 13.65,-25.938 13.61,-41.18 -0.03,-13.652 -3.99,-28.113 -12.55,-42.441 66.77,-5.922 116.07,23.304 142.79,65.425 13.13,20.696 20.84,44.481 22.53,68.731 1.7,24.246 -2.6,48.922 -13.52,71.375" /><path
         id="path88"
         style="fill:#005d28;fill-opacity:1;fill-rule:nonzero;stroke:none"
         d="m 817.492,691.535 c -15.66,-55.555 -13.621,-115.984 0.219,-170.648 63.602,-251.278 271.669,-201.899 234.619,-69.66 24.22,-125.075 -163.127,-162.395 -222.529,72.265 -13.422,53.028 -15.434,111.531 -0.309,165.168 19.176,88.61 107.977,211.887 217.398,200.637 111.4,-13.027 132.68,-128.484 63.11,-194.418 87.94,60.113 55.71,212.793 -83.72,207.039 C 929.316,897.902 841.645,797.566 817.492,691.535" /><path
         id="path90"
         style="fill:#005d28;fill-opacity:1;fill-rule:nonzero;stroke:none"
         d="M 744.957,691.535 C 760.621,635.98 758.578,575.551 744.742,520.887 681.137,269.609 473.066,318.988 510.117,451.227 485.906,326.152 673.242,288.832 732.648,523.492 746.07,576.52 748.078,635.023 732.957,688.66 713.781,777.27 624.984,900.547 515.559,889.297 404.156,876.27 382.879,760.813 452.449,694.879 c -87.941,60.113 -55.703,212.793 83.723,207.039 96.961,-4.016 184.633,-104.352 208.785,-210.383" /><path
         id="path92"
         style="fill:#005d28;fill-opacity:1;fill-rule:nonzero;stroke:none"
         d="m 603.086,463.832 c 20.445,22.848 33.586,31.648 64.246,35.848 34.992,3.789 70.215,-0.899 105.039,-4.215 52.465,-4.789 91.633,-6.863 143.945,4.605 30.442,7.746 52.426,17.254 78.727,34.313 29.077,20.004 48.047,44.691 69.037,72.699 -36.36,25.563 -72.721,51.121 -109.08,76.68 -10.766,-14.364 -20.477,-24.957 -35.398,-35.215 -11.864,-7.699 -21.481,-11.746 -35.219,-15.242 -33.403,-7.325 -65.203,-4.426 -98.914,-1.348 -48.004,4.574 -86.344,3.715 -135.082,-1.555 -28.977,-3.972 -50.614,-10.015 -77.016,-22.66 -29.355,-15.109 -48.785,-30.789 -70.629,-55.203 l 100.344,-88.707" /><path
         id="path94"
         style="fill:#64604f;fill-opacity:1;fill-rule:evenodd;stroke:none"
         d="m 780.555,1387.8 c 90.043,-106.04 128.601,-169.01 137.675,-292.3 3.059,-41.52 -9.199,-111.504 -24.988,-183.789 -57.926,-68.918 -94.894,-173.609 -94.894,-290.852 0,-3.254 0.035,-6.504 0.101,-9.742 l -0.004,-0.351 c 0,-48.321 7.641,-94.442 20.989,-136.633 12.129,-38.34 25.683,-70.774 41.101,-97.391 -13.976,-107.48 -22.316,-145.121 -79.98,-221.062 -57.66,75.941 -66.004,113.582 -79.981,221.062 15.418,26.617 28.977,59.051 41.106,97.391 13.347,42.191 20.984,88.312 20.984,136.633 v 0.351 c 0.063,3.238 0.098,6.488 0.098,9.742 0,117.243 -36.969,221.934 -94.891,290.852 -15.789,72.285 -28.047,142.269 -24.992,183.789 9.074,123.29 47.633,186.26 137.676,292.3" /><path
         id="path96"
         style="fill:#bdbcbc;fill-opacity:1;fill-rule:nonzero;stroke:none"
         d="m 786.555,1392.71 c 45.351,-53.42 77.789,-96.08 100.156,-141.16 22.496,-45.35 34.648,-92.8 39.262,-155.5 1.57,-21.36 -0.758,-49.8 -5.493,-82.03 -4.687,-31.95 -11.73,-67.68 -19.652,-103.946 -0.324,-1.511 -1.066,-2.824 -2.086,-3.844 C 870.078,871.977 846.648,828.637 830.512,779.176 814.871,731.23 806.117,677.563 806.117,620.859 v -4.816 c 0.012,-1.512 0.039,-3.098 0.074,-4.777 l -0.003,-0.313 -0.004,-0.187 h 0.031 c 0,-23.317 1.808,-46.094 5.191,-68.133 3.516,-22.891 8.742,-45.024 15.43,-66.16 6.051,-19.121 12.387,-36.594 19.047,-52.43 6.683,-15.867 13.789,-30.34 21.363,-43.422 0.949,-1.637 1.231,-3.48 0.926,-5.211 -7.035,-54.078 -12.68,-90.664 -23.899,-123.515 -11.324,-33.165 -28.168,-62.184 -57.554,-100.887 -2.582,-3.403 -7.434,-4.07 -10.836,-1.492 -0.621,0.476 -1.153,1.023 -1.59,1.621 -29.324,38.636 -46.148,67.633 -57.453,100.758 -11.242,32.921 -16.887,69.582 -23.942,123.843 -0.23,1.766 0.153,3.461 0.977,4.883 h -0.008 c 7.574,13.082 14.676,27.555 21.36,43.422 6.664,15.836 13,33.309 19.043,52.43 6.687,21.136 11.921,43.269 15.437,66.16 3.379,22.039 5.188,44.816 5.188,68.133 h 0.031 v 0.351 0.149 0 c 0.031,1.679 0.054,3.277 0.07,4.777 l -0.008,4.816 c 0,56.704 -8.75,110.371 -24.39,158.317 -16.215,49.695 -39.793,93.226 -68.649,127.558 -0.84,1 -1.383,2.149 -1.64,3.344 l -0.028,-0.004 c -7.922,36.266 -14.968,71.996 -19.652,103.946 -4.734,32.23 -7.063,60.67 -5.492,82.03 4.613,62.7 16.769,110.15 39.265,155.5 22.379,45.11 54.84,87.79 100.235,141.25 2.765,3.27 7.66,3.68 10.929,0.91 0.36,-0.3 0.692,-0.64 0.989,-1 z m 86.25,-148.02 c -20.707,41.74 -50.696,81.78 -92.25,131.1 -41.555,-49.32 -71.539,-89.36 -92.25,-131.1 -21.559,-43.47 -33.231,-89.16 -37.684,-149.73 -1.484,-20.17 0.785,-47.49 5.367,-78.7 4.539,-30.955 11.367,-65.705 19.075,-101.096 29.585,-35.656 53.71,-80.387 70.285,-131.195 16.152,-49.5 25.187,-104.801 25.187,-163.11 l -0.058,-4.937 c -0.016,-1.734 -0.039,-3.383 -0.071,-4.93 v -0.226 h 0.032 c 0,-24.067 -1.872,-47.621 -5.375,-70.442 -3.645,-23.742 -9.059,-46.66 -15.981,-68.531 -6.078,-19.219 -12.59,-37.133 -19.59,-53.758 -6.59,-15.652 -13.543,-29.949 -20.898,-42.894 6.761,-51.797 12.273,-87.039 22.937,-118.266 9.949,-29.148 24.52,-55.094 49.024,-88.297 24.504,33.203 39.078,59.149 49.027,88.297 10.66,31.227 16.172,66.469 22.938,118.266 -7.36,12.941 -14.309,27.242 -20.903,42.894 -6.996,16.625 -13.515,34.539 -19.59,53.758 -6.922,21.871 -12.332,44.793 -15.98,68.535 -3.504,22.817 -5.371,46.371 -5.371,70.438 h 0.031 v 0.031 0.219 c -0.031,1.55 -0.059,3.191 -0.07,4.906 l -0.063,4.937 c 0,58.309 9.039,113.61 25.188,163.11 16.578,50.808 40.699,95.539 70.285,131.195 7.707,35.391 14.531,70.141 19.078,101.096 4.582,31.21 6.852,58.53 5.363,78.7 -4.453,60.57 -16.121,106.26 -37.683,149.73 z m -66.614,-633.6 -0.003,-0.137 0.003,0.137" /><path
         id="path98"
         style="fill:#bdbcbc;fill-opacity:1;fill-rule:nonzero;stroke:none"
         d="m 780.555,243.066 h -0.219 c -3.461,47.051 -5.484,102.059 -5.395,168.735 v 672.969 c -0.109,133.58 4.821,202.92 5.293,214.34 h 0.321 0.324 c 0.473,-11.42 5.398,-80.76 5.289,-214.34 V 411.801 c 0.09,-66.676 -1.934,-121.684 -5.395,-168.735 h -0.218" /><path
         id="path100"
         style="fill:#64604f;fill-opacity:1;fill-rule:evenodd;stroke:none"
         d="m 1057.63,996.063 c 294.85,0 243.19,-347.891 14.31,-313.52 51.2,65.996 -8.67,137.977 -100.932,110.59 C 898.531,771.621 863.961,675.32 863.961,598.859 c 0,-47.371 10.566,-90.875 28.207,-125.035 46.012,-86.574 151.392,-65.89 156.642,-14.484 35.48,-3.809 50.79,-41.008 44.74,-78.379 -16.64,-102.84 -151.12,-100.309 -208.886,-35.285 -25.426,28.621 -45.906,72.082 -64.809,133.699 -13.347,43.5 -20.984,91.059 -20.984,140.879 0,207.551 115.848,375.809 258.759,375.809" /><path
         id="path102"
         style="fill:none;stroke:#bdbcbc;stroke-width:2.16000009;stroke-linecap:butt;stroke-linejoin:miter;stroke-miterlimit:10;stroke-dasharray:none;stroke-opacity:1"
         d="m 1057.63,996.063 c 294.85,0 243.19,-347.891 14.31,-313.52 51.2,65.996 -8.67,137.977 -100.932,110.59 C 898.531,771.621 863.961,675.32 863.961,598.859 c 0,-47.371 10.566,-90.875 28.207,-125.035 46.012,-86.574 151.392,-65.89 156.642,-14.484 35.48,-3.809 50.79,-41.008 44.74,-78.379 -16.64,-102.84 -151.12,-100.309 -208.886,-35.285 -25.426,28.621 -45.906,72.082 -64.809,133.699 -13.347,43.5 -20.984,91.059 -20.984,140.879 0,207.551 115.848,375.809 258.759,375.809 z" /><path
         id="path104"
         style="fill:#bdbcbc;fill-opacity:1;fill-rule:nonzero;stroke:none"
         d="m 1057.63,1004.08 c 105.8,0 168.7,-43.904 195.82,-99.717 12.36,-25.445 17.25,-53.304 15.34,-80.59 -1.9,-27.285 -10.58,-54.043 -25.32,-77.289 -31.79,-50.117 -91.66,-84.015 -172.62,-71.863 -4.24,0.621 -7.19,4.672 -6.58,9.047 0.23,1.684 0.95,3.172 2,4.324 11.5,14.992 16.7,30.125 16.74,43.961 0.03,11.824 -3.74,22.805 -10.58,31.965 -6.99,9.375 -17.23,16.93 -29.97,21.672 -18.57,6.922 -42.39,7.844 -69.331,-0.152 -30.883,-9.168 -54.547,-33.133 -71.207,-63.372 -20.301,-36.839 -30.192,-82.839 -30.192,-123.207 0,-22.664 2.473,-44.375 7.012,-64.504 l 0.063,-0.289 c 4.691,-20.707 11.554,-39.742 20.152,-56.398 l 0.012,0.008 c 13.621,-25.629 32.722,-41.149 52.594,-48.84 14.679,-5.688 29.792,-7.137 43.417,-5.266 13.33,1.832 25.15,6.836 33.59,14.129 7.05,6.094 11.64,13.785 12.53,22.449 0.44,4.391 4.24,7.586 8.5,7.137 0.95,-0.097 2.03,-0.25 3.19,-0.441 18.51,-2.989 31.97,-14.031 40.24,-29.313 7.95,-14.664 10.97,-33.226 8.95,-52.078 l -0.02,-0.23 c -0.21,-1.871 -0.46,-3.735 -0.76,-5.578 -4.29,-26.551 -15.94,-46.68 -32.03,-60.977 -13.4,-11.898 -29.77,-19.66 -47.47,-23.656 -17.38,-3.926 -36.141,-4.215 -54.637,-1.227 -33.395,5.406 -65.997,21.617 -88.106,46.508 -13.234,14.895 -25.121,33.531 -36.098,56.32 -10.867,22.578 -20.859,49.219 -30.414,80.348 -6.918,22.547 -12.328,46.184 -15.976,70.66 -3.504,23.52 -5.371,47.813 -5.371,72.633 0,105.457 29.519,201.059 77.246,270.371 48.261,70.098 115.172,113.455 189.286,113.455 z m 181.98,-106.853 c -24.71,50.839 -83.02,90.828 -181.98,90.828 -68.794,0 -131.271,-40.774 -176.657,-106.692 -45.926,-66.707 -74.332,-159.011 -74.332,-261.109 0,-24.039 1.804,-47.531 5.191,-70.258 3.516,-23.601 8.742,-46.422 15.43,-68.215 9.355,-30.48 19.051,-56.383 29.504,-78.093 10.347,-21.497 21.414,-38.907 33.605,-52.629 19.68,-22.157 48.942,-36.625 79.059,-41.5 16.578,-2.676 33.4,-2.418 49,1.101 15.27,3.453 29.3,10.051 40.6,20.09 13.45,11.957 23.22,28.949 26.87,51.527 0.26,1.578 0.47,3.149 0.64,4.688 l 0.02,0.242 c 1.68,15.645 -0.71,30.828 -7.06,42.566 -5.34,9.84 -13.57,17.258 -24.62,20.329 -2.79,-9.543 -8.51,-17.899 -16.36,-24.672 -10.63,-9.188 -25.24,-15.457 -41.532,-17.692 -16.008,-2.203 -33.718,-0.511 -50.89,6.137 -23.063,8.934 -45.141,26.77 -60.731,56.102 l 0.012,0.007 -0.043,0.09 c -9.254,17.922 -16.625,38.281 -21.625,60.328 l -0.082,0.328 c -4.82,21.348 -7.441,44.282 -7.441,68.129 0,42.813 10.566,91.739 32.253,131.102 18.543,33.648 45.223,60.418 80.438,70.871 30.238,8.973 57.381,7.789 78.871,-0.219 15.55,-5.797 28.18,-15.187 36.95,-26.929 8.92,-11.95 13.83,-26.286 13.79,-41.731 -0.03,-13.836 -4.04,-28.488 -12.72,-43.012 67.67,-6 117.63,23.618 144.71,66.305 13.3,20.969 21.11,45.078 22.83,69.649 1.71,24.566 -2.65,49.578 -13.7,72.332" /><path
         id="path106"
         style="fill:#bdbcbc;fill-opacity:1;fill-rule:nonzero;stroke:none"
         d="m 817.234,697.07 c -15.871,-56.3 -13.804,-117.539 0.219,-172.933 64.457,-254.645 275.307,-204.602 237.767,-70.594 24.54,-126.75 -165.314,-164.57 -225.513,73.234 -13.598,53.735 -15.637,113.028 -0.312,167.379 19.433,89.793 109.418,214.723 220.305,203.321 112.9,-13.204 134.46,-130.204 63.96,-197.02 89.12,60.918 56.45,215.641 -84.85,209.813 -98.255,-4.071 -187.099,-105.75 -211.576,-213.2" /><path
         id="path108"
         style="fill:#64604f;fill-opacity:1;fill-rule:evenodd;stroke:none"
         d="m 503.332,996.063 c -294.848,0 -243.187,-347.891 -14.312,-313.52 -51.196,65.996 8.668,137.977 100.937,110.59 72.473,-21.512 107.047,-117.813 107.047,-194.274 0,-47.371 -10.566,-90.875 -28.211,-125.035 -46.008,-86.574 -151.395,-65.89 -156.641,-14.484 -35.476,-3.809 -50.785,-41.008 -44.742,-78.379 16.641,-102.84 151.121,-100.309 208.891,-35.285 25.422,28.621 45.902,72.082 64.808,133.699 13.348,43.5 20.985,91.059 20.985,140.879 0,207.551 -115.852,375.809 -258.762,375.809" /><path
         id="path110"
         style="fill:#bdbcbc;fill-opacity:1;fill-rule:nonzero;stroke:none"
         d="m 503.332,988.055 c -98.961,0 -157.269,-39.989 -181.977,-90.828 -11.054,-22.754 -15.417,-47.766 -13.703,-72.332 1.715,-24.571 9.536,-48.68 22.832,-69.649 27.079,-42.691 77.039,-72.305 144.704,-66.305 -8.672,14.524 -12.684,29.176 -12.715,43.012 -0.039,15.445 4.871,29.781 13.797,41.731 8.761,11.742 21.386,21.132 36.941,26.929 21.488,8.008 48.633,9.192 78.871,0.219 35.219,-10.453 61.895,-37.223 80.438,-70.871 21.687,-39.363 32.253,-88.289 32.253,-131.102 0,-23.847 -2.617,-46.781 -7.437,-68.129 l -0.082,-0.328 c -5.004,-22.047 -12.371,-42.406 -21.629,-60.328 l -0.047,-0.09 0.016,-0.007 c -15.586,-29.332 -37.668,-47.168 -60.727,-56.102 -17.172,-6.648 -34.887,-8.332 -50.89,-6.137 -16.289,2.235 -30.911,8.504 -41.539,17.692 -7.84,6.773 -13.571,15.129 -16.356,24.672 -11.051,-3.071 -19.285,-10.489 -24.617,-20.329 -6.356,-11.738 -8.742,-26.921 -7.067,-42.566 l 0.028,-0.242 c 0.168,-1.539 0.383,-3.11 0.633,-4.688 3.656,-22.578 13.418,-39.57 26.875,-51.527 11.304,-10.039 25.328,-16.637 40.605,-20.09 15.598,-3.519 32.418,-3.777 48.992,-1.101 30.117,4.875 59.379,19.343 79.059,41.5 12.191,13.722 23.258,31.132 33.609,52.629 10.449,21.71 20.149,47.613 29.5,78.093 6.688,21.793 11.918,44.614 15.434,68.215 3.387,22.727 5.187,46.219 5.187,70.258 0,102.098 -28.406,194.402 -74.328,261.109 -45.39,65.918 -107.863,106.692 -176.66,106.692 z m -195.82,-83.692 c 27.121,55.813 90.019,99.717 195.82,99.717 74.113,0 141.023,-43.357 189.285,-113.455 47.727,-69.312 77.246,-164.914 77.246,-270.371 0,-24.82 -1.867,-49.113 -5.371,-72.633 -3.644,-24.476 -9.058,-48.113 -15.976,-70.66 -9.551,-31.129 -19.547,-57.77 -30.414,-80.348 -10.973,-22.789 -22.864,-41.425 -36.094,-56.32 -22.11,-24.891 -54.711,-41.102 -88.11,-46.508 -18.496,-2.988 -37.25,-2.699 -54.64,1.227 -17.692,3.996 -34.07,11.758 -47.465,23.656 -16.09,14.297 -27.734,34.426 -32.027,60.977 -0.301,1.843 -0.555,3.707 -0.758,5.578 l -0.028,0.23 c -2.023,18.852 1.004,37.414 8.95,52.078 8.273,15.282 21.73,26.324 40.242,29.313 1.164,0.187 2.234,0.344 3.191,0.441 4.258,0.449 8.067,-2.746 8.5,-7.137 0.887,-8.664 5.477,-16.355 12.532,-22.449 8.433,-7.293 20.253,-12.297 33.582,-14.129 13.632,-1.871 28.742,-0.422 43.425,5.266 19.871,7.691 38.973,23.211 52.59,48.84 l 0.016,-0.008 c 8.594,16.656 15.457,35.691 20.148,56.398 l 0.063,0.289 c 4.543,20.129 7.011,41.84 7.011,64.504 0,40.368 -9.89,86.368 -30.187,123.207 -16.66,30.239 -40.324,54.204 -71.211,63.372 -26.945,7.996 -50.766,7.074 -69.336,0.152 -12.738,-4.742 -22.969,-12.297 -29.965,-21.672 -6.84,-9.16 -10.601,-20.141 -10.578,-31.965 0.035,-13.836 5.246,-28.969 16.738,-43.961 1.047,-1.152 1.774,-2.64 2.004,-4.324 0.606,-4.375 -2.343,-8.426 -6.586,-9.047 -80.953,-12.152 -140.824,21.746 -172.617,71.863 -14.746,23.246 -23.422,50.004 -25.324,77.289 -1.906,27.286 2.984,55.145 15.344,80.59" /><path
         id="path112"
         style="fill:#bdbcbc;fill-opacity:1;fill-rule:nonzero;stroke:none"
         d="m 743.727,697.07 c 15.871,-56.3 13.804,-117.539 -0.219,-172.933 -64.457,-254.645 -275.309,-204.602 -237.766,-70.594 -24.535,-126.75 165.313,-164.57 225.512,73.234 13.598,53.735 15.637,113.028 0.312,167.379 C 712.137,783.949 622.148,908.879 511.258,897.477 398.367,884.273 376.801,767.273 447.301,700.457 358.184,761.375 390.852,916.098 532.148,910.27 630.406,906.199 719.25,804.52 743.727,697.07" /><path
         id="path114"
         style="fill:#bdbcbc;fill-opacity:1;fill-rule:nonzero;stroke:none"
         d="m 599.953,466.313 c 20.723,23.16 34.039,32.078 65.113,36.332 35.457,3.839 71.153,-0.911 106.446,-4.274 53.164,-4.851 92.851,-6.957 145.867,4.672 30.851,7.848 53.129,17.48 79.781,34.77 29.47,20.269 48.7,45.289 69.97,73.671 -36.85,25.903 -73.7,51.805 -110.548,77.711 -10.91,-14.558 -20.75,-25.293 -35.867,-35.691 -12.024,-7.801 -21.774,-11.902 -35.695,-15.445 -33.848,-7.418 -66.079,-4.485 -100.239,-1.364 -48.644,4.637 -87.504,3.758 -136.89,-1.578 -29.364,-4.027 -51.293,-10.148 -78.047,-22.961 -29.75,-15.316 -49.442,-31.203 -71.578,-55.945 l 101.687,-89.898" /><path
         id="path116"
         style="fill:#ffffff;fill-opacity:1;fill-rule:nonzero;stroke:none"
         d="m 552.043,520.711 c 14.801,15.363 27.641,25.348 46.742,35.144 19.645,9.399 35.668,13.711 57.223,16.665 42.84,4.636 80.074,0.039 122.504,-4.012 43.402,-3.953 78.644,-1.184 121.801,8.285 21.917,5.57 37.589,12.285 56.527,24.57 19.723,13.543 32.89,26.719 47.64,45.344 l -45.82,32.934 c -10.617,-13.407 -19.535,-22.453 -33.746,-32.2 -12.828,-8.32 -23.262,-12.73 -38.113,-16.503 -34.977,-7.668 -67.469,-4.766 -102.746,-1.551 -47.934,4.57 -86.578,3.711 -135.219,-1.555 -28.473,-3.898 -49.684,-9.797 -75.625,-22.227 -25.633,-13.144 -43.086,-26.539 -62.938,-47.152 13.93,-12.582 27.848,-25.16 41.77,-37.742" /><path
         id="path118"
         style="fill:#ed1c24;fill-opacity:1;fill-rule:nonzero;stroke:none"
         d="m 599.305,478 c 9.039,9.398 16.758,15.574 28.425,21.555 12.434,5.957 22.743,8.5 36.391,10.371 36.039,3.898 72.246,-0.824 108.117,-4.25 52.18,-4.758 91.34,-6.918 143.364,4.492 29.918,7.613 51.511,16.945 77.355,33.707 25.913,17.777 45.023,41.039 64.383,65.5 l -46.91,32.902 c -15.285,-19.297 -28.953,-32.945 -49.391,-46.976 -19.758,-12.813 -36.082,-19.813 -58.949,-25.637 -44.223,-9.691 -79.852,-12.516 -124.309,-8.461 -41.687,3.977 -78.758,8.594 -120.832,4.039 -20.64,-2.832 -35.984,-6.929 -54.793,-15.933 -18.246,-9.364 -30.484,-18.887 -44.617,-33.563 13.922,-12.578 27.848,-25.16 41.766,-37.746" /></g></g></svg>