<?xml version="1.0" encoding="UTF-8"?>
<svg id="Layer_1" xmlns="http://www.w3.org/2000/svg" version="1.1" viewBox="0 0 566.93 566.93">
  <!-- Generator: Adobe Illustrator 29.7.1, SVG Export Plug-In . SVG Version: 2.1.1 Build 8)  -->
  <defs>
    <style>
      .st0 {
        stroke: #636256;
        stroke-miterlimit: 22.93;
        stroke-width: 10.31px;
      }

      .st0, .st1 {
        fill: none;
      }

      .st2 {
        fill: #c6c6c6;
      }

      .st3 {
        fill: #fff;
      }

      .st4, .st5 {
        fill: #57564a;
      }

      .st6 {
        fill: #e30613;
      }

      .st5, .st7 {
        fill-rule: evenodd;
      }

      .st8 {
        fill: #005f27;
      }

      .st1 {
        stroke: #c6c6c6;
        stroke-miterlimit: 10;
        stroke-width: .79px;
      }

      .st7 {
        fill: #6f6d60;
      }
    </style>
  </defs>
  <path class="st7" d="M283.24,0c156.55,0,283.46,126.91,283.46,283.47s-126.91,283.46-283.46,283.46S-.23,440.02-.23,283.47,126.68,0,283.24,0"/>
  <path class="st4" d="M283.24,18.11c146.55,0,265.36,118.81,265.36,265.36s-118.8,265.36-265.36,265.36S17.88,430.02,17.88,283.47,136.68,18.11,283.24,18.11"/>
  <path class="st5" d="M283.24,43.41c132.58,0,240.05,107.48,240.05,240.06s-107.48,240.06-240.05,240.06S43.18,416.04,43.18,283.47,150.66,43.41,283.24,43.41"/>
  <line class="st0" x1="283.2" y1="42.94" x2="283.2" y2="523.05"/>
  <line class="st0" x1="258.11" y1="44.26" x2="308.3" y2="521.74"/>
  <line class="st0" x1="233.29" y1="48.19" x2="333.11" y2="517.81"/>
  <line class="st0" x1="209.02" y1="54.69" x2="357.39" y2="511.3"/>
  <line class="st0" x1="185.57" y1="63.7" x2="380.84" y2="502.3"/>
  <line class="st0" x1="163.18" y1="75.1" x2="403.23" y2="490.89"/>
  <line class="st0" x1="142.1" y1="88.79" x2="424.31" y2="477.21"/>
  <line class="st0" x1="122.58" y1="104.6" x2="443.83" y2="461.39"/>
  <line class="st0" x1="104.81" y1="122.37" x2="461.6" y2="443.63"/>
  <line class="st0" x1="89" y1="141.9" x2="477.41" y2="424.1"/>
  <line class="st0" x1="75.31" y1="162.97" x2="491.1" y2="403.02"/>
  <line class="st0" x1="63.9" y1="185.36" x2="502.51" y2="380.64"/>
  <line class="st0" x1="54.9" y1="208.82" x2="511.51" y2="357.18"/>
  <line class="st0" x1="48.4" y1="233.09" x2="518.01" y2="332.91"/>
  <line class="st0" x1="44.47" y1="257.9" x2="521.94" y2="308.09"/>
  <line class="st0" x1="43.15" y1="283" x2="523.26" y2="283"/>
  <line class="st0" x1="44.47" y1="308.09" x2="521.94" y2="257.9"/>
  <line class="st0" x1="48.4" y1="332.91" x2="518.01" y2="233.09"/>
  <line class="st0" x1="54.9" y1="357.18" x2="511.51" y2="208.82"/>
  <line class="st0" x1="63.9" y1="380.64" x2="502.51" y2="185.36"/>
  <line class="st0" x1="75.31" y1="403.02" x2="491.1" y2="162.97"/>
  <line class="st0" x1="89" y1="424.1" x2="477.41" y2="141.89"/>
  <line class="st0" x1="104.81" y1="443.62" x2="461.6" y2="122.37"/>
  <line class="st0" x1="122.58" y1="461.39" x2="443.83" y2="104.6"/>
  <line class="st0" x1="142.1" y1="477.2" x2="424.31" y2="88.79"/>
  <line class="st0" x1="163.18" y1="490.89" x2="403.23" y2="75.1"/>
  <line class="st0" x1="185.57" y1="502.3" x2="380.84" y2="63.69"/>
  <line class="st0" x1="209.02" y1="511.3" x2="357.39" y2="54.69"/>
  <line class="st0" x1="233.29" y1="517.81" x2="333.11" y2="48.19"/>
  <line class="st0" x1="258.11" y1="521.74" x2="308.3" y2="44.26"/>
  <line class="st0" x1="283.2" y1="523.05" x2="283.2" y2="42.94"/>
  <path class="st8" d="M292.49,346.56v.05s0-.05,0-.05ZM316.4,119.21c-7.43-14.98-18.19-29.35-33.1-47.04-14.91,17.7-25.67,32.06-33.1,47.04-7.74,15.6-11.92,31.99-13.52,53.73-.53,7.24.28,17.04,1.93,28.24,1.63,11.11,4.08,23.58,6.85,36.28,10.62,12.79,19.27,28.85,25.22,47.08,5.8,17.76,9.04,37.61,9.04,58.53l-.02,1.77c0,.62-.01,1.21-.02,1.77v.08h.01c0,8.64-.67,17.09-1.93,25.28-1.31,8.52-3.25,16.74-5.73,24.59-2.18,6.9-4.52,13.32-7.03,19.29-2.36,5.62-4.86,10.75-7.5,15.39,2.43,18.59,4.4,31.23,8.23,42.44,3.57,10.46,8.8,19.77,17.59,31.68,8.79-11.91,14.02-21.22,17.59-31.68,3.83-11.2,5.8-23.85,8.23-42.44-2.64-4.64-5.13-9.77-7.5-15.39-2.51-5.97-4.85-12.39-7.03-19.29-2.48-7.85-4.42-16.07-5.73-24.59-1.26-8.19-1.93-16.64-1.93-25.27h.01v-.09c-.01-.56-.02-1.14-.02-1.76l-.02-1.77c0-20.92,3.24-40.77,9.04-58.53,5.95-18.23,14.6-34.28,25.22-47.08,2.76-12.7,5.22-25.17,6.85-36.28,1.64-11.2,2.46-21,1.93-28.24-1.6-21.74-5.79-38.13-13.52-53.73ZM285.45,66.09c16.27,19.17,27.91,34.48,35.94,50.65,8.07,16.27,12.43,33.3,14.09,55.8.56,7.67-.27,17.87-1.97,29.44-1.68,11.46-4.21,24.29-7.05,37.3-.12.54-.38,1.01-.75,1.38-10.29,12.29-18.69,27.84-24.48,45.59-5.61,17.2-8.75,36.46-8.75,56.81v1.73c0,.54.01,1.11.03,1.71v.11s0,.07,0,.07h.01c0,8.37.65,16.54,1.86,24.45,1.26,8.21,3.14,16.16,5.54,23.74,2.17,6.86,4.44,13.13,6.83,18.81,2.4,5.7,4.95,10.89,7.67,15.58.34.59.44,1.25.33,1.87-2.53,19.4-4.55,32.53-8.58,44.32-4.06,11.9-10.11,22.31-20.65,36.2-.93,1.22-2.67,1.46-3.89.53-.22-.17-.41-.37-.57-.58-10.52-13.86-16.56-24.27-20.62-36.15-4.03-11.81-6.06-24.97-8.59-44.44-.08-.63.05-1.24.35-1.75h0c2.72-4.69,5.27-9.89,7.66-15.58,2.39-5.68,4.66-11.95,6.83-18.81,2.4-7.58,4.28-15.53,5.54-23.74,1.21-7.91,1.86-16.08,1.86-24.45h.01v-.18s0,0,0,0c.01-.6.02-1.17.03-1.71v-1.73c0-20.35-3.14-39.6-8.75-56.81-5.82-17.83-14.28-33.45-24.63-45.77-.3-.36-.5-.77-.59-1.2h-.01c-2.84-13.01-5.37-25.83-7.05-37.3-1.7-11.57-2.53-21.77-1.97-29.44,1.66-22.5,6.02-39.53,14.09-55.8,8.03-16.19,19.68-31.5,35.97-50.69.99-1.17,2.75-1.32,3.92-.33.13.11.25.23.35.36Z"/>
  <path class="st8" d="M283.3,478.62h-.08c-1.24-16.88-1.97-36.62-1.94-60.55v-241.48c-.04-47.93,1.73-72.82,1.9-76.91h.23c.17,4.09,1.94,28.98,1.9,76.91v241.48c.03,23.92-.69,43.66-1.94,60.55h-.08Z"/>
  <path class="st8" d="M448.02,243.89c-8.86-18.24-29.79-32.59-65.3-32.59-24.69,0-47.1,14.63-63.39,38.28-16.48,23.94-26.67,57.06-26.67,93.69,0,8.63.65,17.05,1.86,25.21,1.26,8.47,3.14,16.66,5.54,24.48,3.36,10.94,6.84,20.23,10.59,28.02,3.71,7.71,7.68,13.96,12.06,18.89,7.06,7.95,17.56,13.14,28.37,14.89,5.95.96,11.98.87,17.58-.39,5.48-1.24,10.51-3.61,14.57-7.21,4.83-4.29,8.33-10.39,9.64-18.49.09-.57.17-1.13.23-1.68v-.09c.61-5.61-.25-11.06-2.53-15.27-1.91-3.53-4.87-6.19-8.83-7.29-1,3.42-3.05,6.42-5.87,8.85-3.81,3.3-9.06,5.55-14.91,6.35-5.74.79-12.1.18-18.26-2.2-8.28-3.2-16.2-9.61-21.79-20.13h0s-.02-.03-.02-.03c-3.32-6.43-5.97-13.74-7.76-21.65l-.03-.12c-1.73-7.66-2.67-15.89-2.67-24.45,0-15.36,3.79-32.92,11.57-47.04,6.65-12.08,16.23-21.68,28.86-25.43,10.85-3.22,20.59-2.79,28.3.08,5.58,2.08,10.11,5.45,13.26,9.66,3.2,4.29,4.96,9.43,4.95,14.98-.01,4.96-1.45,10.22-4.56,15.43,24.28,2.15,42.21-8.47,51.92-23.79,4.77-7.52,7.58-16.17,8.19-24.99.62-8.82-.95-17.79-4.92-25.95M382.72,205.55c37.96,0,60.53,15.75,70.27,35.78,4.44,9.13,6.19,19.13,5.51,28.92-.68,9.79-3.79,19.39-9.09,27.73-11.41,17.99-32.89,30.15-61.94,25.79-1.52-.22-2.58-1.68-2.36-3.25.08-.6.34-1.14.72-1.55,4.12-5.38,5.99-10.81,6.01-15.77.01-4.24-1.34-8.18-3.79-11.47-2.51-3.36-6.18-6.07-10.75-7.78-6.66-2.48-15.21-2.82-24.88.05-11.08,3.29-19.57,11.89-25.55,22.74-7.28,13.22-10.83,29.72-10.83,44.21,0,8.13.89,15.92,2.52,23.14l.02.11c1.68,7.43,4.15,14.26,7.23,20.24h0c4.89,9.19,11.74,14.76,18.87,17.52,5.27,2.04,10.69,2.56,15.58,1.89,4.78-.66,9.02-2.45,12.05-5.07,2.53-2.19,4.18-4.95,4.5-8.06.16-1.58,1.52-2.72,3.05-2.56.34.04.73.09,1.14.16,6.64,1.07,11.47,5.04,14.44,10.52,2.85,5.26,3.94,11.92,3.21,18.69v.08c-.08.67-.18,1.34-.28,2-1.54,9.53-5.72,16.75-11.49,21.88-4.81,4.27-10.68,7.06-17.03,8.49-6.24,1.41-12.97,1.51-19.61.44-11.99-1.94-23.68-7.76-31.62-16.69-4.75-5.35-9.01-12.03-12.95-20.21-3.9-8.1-7.49-17.66-10.91-28.83-2.48-8.09-4.42-16.57-5.73-25.35-1.26-8.44-1.93-17.16-1.93-26.06,0-37.84,10.59-72.15,27.72-97.02,17.32-25.15,41.33-40.71,67.92-40.71Z"/>
  <path class="st8" d="M296.46,315.71c-5.69,20.2-4.95,42.18.08,62.05,23.13,91.37,98.79,73.42,85.32,25.33,8.81,45.48-59.32,59.05-80.92-26.28-4.88-19.28-5.61-40.56-.11-60.06,6.97-32.22,39.26-77.05,79.05-72.96,40.51,4.74,48.25,46.72,22.95,70.7,31.98-21.86,20.26-77.38-30.45-75.29-35.26,1.46-67.14,37.95-75.92,76.5"/>
  <path class="st8" d="M270.08,315.71c5.7,20.2,4.95,42.18-.08,62.05-23.13,91.37-98.79,73.42-85.32,25.33-8.8,45.48,59.32,59.05,80.92-26.28,4.88-19.28,5.61-40.56.11-60.06-6.97-32.22-39.26-77.05-79.05-72.96-40.51,4.74-48.25,46.72-22.95,70.7-31.98-21.86-20.26-77.38,30.45-75.29,35.26,1.46,67.14,37.95,75.92,76.5"/>
  <path class="st8" d="M218.49,398.51c7.44-8.31,12.21-11.51,23.36-13.03,12.72-1.38,25.53.33,38.2,1.53,19.08,1.74,33.32,2.5,52.34-1.68,11.07-2.82,19.06-6.27,28.63-12.48,10.57-7.27,17.47-16.25,25.11-26.44-13.22-9.29-26.44-18.59-39.67-27.88-3.91,5.22-7.45,9.07-12.87,12.81-4.32,2.8-7.81,4.27-12.81,5.54-12.15,2.66-23.71,1.61-35.97.49-17.46-1.66-31.4-1.35-49.12.57-10.54,1.44-18.4,3.64-28.01,8.24-10.67,5.5-17.74,11.2-25.68,20.07l36.49,32.26Z"/>
  <path class="st7" d="M283.02,62.53c32.74,38.56,46.76,61.46,50.06,106.29,1.11,15.1-3.35,40.55-9.09,66.83-21.06,25.06-34.51,63.13-34.51,105.76,0,1.18.01,2.36.04,3.54v.13c0,17.57,2.78,34.34,7.63,49.68,4.41,13.94,9.34,25.74,14.95,35.41-5.08,39.08-8.12,52.77-29.08,80.39-20.97-27.61-24-41.3-29.08-80.39,5.61-9.68,10.54-21.47,14.95-35.41,4.85-15.34,7.63-32.11,7.63-49.68v-.13c.02-1.18.03-2.36.03-3.54,0-42.63-13.44-80.7-34.51-105.76-5.74-26.29-10.2-51.73-9.09-66.83,3.3-44.83,17.32-67.73,50.06-106.29"/>
  <path class="st2" d="M292.35,344.97v.05s0-.05,0-.05ZM316.57,114.57c-7.53-15.18-18.43-29.74-33.55-47.67-15.11,17.93-26.01,32.49-33.55,47.67-7.84,15.81-12.08,32.42-13.7,54.45-.54,7.33.29,17.27,1.95,28.62,1.65,11.26,4.13,23.89,6.94,36.76,10.76,12.97,19.53,29.23,25.56,47.71,5.87,18,9.16,38.11,9.16,59.31l-.02,1.8c0,.63-.01,1.23-.03,1.79v.08h.01c0,8.75-.68,17.32-1.95,25.61-1.33,8.63-3.3,16.97-5.81,24.92-2.21,6.99-4.58,13.5-7.12,19.55-2.4,5.69-4.93,10.89-7.6,15.6,2.46,18.84,4.46,31.65,8.34,43.01,3.62,10.6,8.92,20.03,17.83,32.11,8.91-12.07,14.21-21.51,17.83-32.11,3.88-11.36,5.88-24.17,8.34-43.01-2.68-4.71-5.2-9.91-7.6-15.6-2.54-6.05-4.91-12.56-7.12-19.55-2.52-7.95-4.48-16.29-5.81-24.92-1.27-8.3-1.95-16.86-1.95-25.61h.01v-.09c-.01-.56-.02-1.16-.03-1.78l-.02-1.8c0-21.2,3.29-41.31,9.16-59.31,6.03-18.47,14.8-34.74,25.56-47.71,2.8-12.87,5.28-25.51,6.94-36.76,1.67-11.35,2.49-21.28,1.95-28.62-1.62-22.03-5.86-38.64-13.7-54.45ZM285.21,60.74c16.49,19.42,28.29,34.94,36.42,51.33,8.18,16.49,12.6,33.74,14.28,56.54.57,7.77-.28,18.11-2,29.83-1.71,11.62-4.27,24.61-7.15,37.8-.12.55-.39,1.03-.76,1.4-10.42,12.46-18.94,28.22-24.81,46.2-5.69,17.43-8.87,36.95-8.87,57.57v1.75c0,.55.01,1.13.03,1.74v.11s0,.07,0,.07h.01c0,8.48.66,16.76,1.89,24.77,1.28,8.32,3.18,16.37,5.61,24.06,2.2,6.95,4.5,13.31,6.93,19.07,2.43,5.77,5.01,11.03,7.77,15.79.35.6.45,1.27.34,1.9-2.56,19.66-4.61,32.97-8.69,44.92-4.12,12.06-10.24,22.61-20.93,36.69-.94,1.24-2.7,1.48-3.94.54-.23-.17-.42-.37-.58-.59-10.66-14.05-16.78-24.59-20.89-36.64-4.09-11.97-6.14-25.3-8.71-45.03-.08-.64.06-1.26.36-1.78h0c2.75-4.76,5.34-10.02,7.77-15.79,2.42-5.76,4.73-12.11,6.92-19.07,2.43-7.69,4.33-15.73,5.61-24.06,1.23-8.01,1.89-16.3,1.89-24.78h.01v-.18s0,0,0,0c.01-.61.02-1.19.03-1.74v-1.75c0-20.62-3.18-40.13-8.87-57.57-5.9-18.07-14.47-33.9-24.96-46.39-.31-.36-.5-.78-.6-1.22h-.01c-2.88-13.19-5.44-26.18-7.15-37.8-1.72-11.72-2.57-22.06-2-29.83,1.68-22.8,6.1-40.06,14.28-56.54,8.14-16.4,19.94-31.93,36.45-51.37,1.01-1.19,2.78-1.34,3.97-.33.13.11.25.24.36.36Z"/>
  <path class="st2" d="M283.02,478.79h-.08c-1.26-17.11-1.99-37.11-1.96-61.36v-244.72c-.04-48.57,1.75-73.79,1.92-77.94h.24c.17,4.15,1.96,29.37,1.92,77.94v244.72c.03,24.25-.7,44.25-1.96,61.36h-.08Z"/>
  <path class="st7" d="M383.78,204.97c107.22,0,88.43,126.51,5.21,114.01,18.62-24-3.15-50.17-36.7-40.22-26.35,7.82-38.93,42.84-38.93,70.65,0,17.23,3.84,33.05,10.26,45.47,16.73,31.48,55.05,23.96,56.96,5.27,12.9,1.38,18.47,14.91,16.27,28.5-6.05,37.4-54.95,36.48-75.96,12.83-9.25-10.41-16.69-26.21-23.57-48.62-4.85-15.82-7.63-33.11-7.63-51.23,0-75.47,42.13-136.66,94.09-136.66Z"/>
  <path class="st1" d="M383.78,204.97c107.22,0,88.43,126.51,5.21,114.01,18.62-24-3.15-50.17-36.7-40.22-26.35,7.82-38.93,42.84-38.93,70.65,0,17.23,3.84,33.05,10.26,45.47,16.73,31.48,55.05,23.96,56.96,5.27,12.9,1.38,18.47,14.91,16.27,28.5-6.05,37.4-54.95,36.48-75.96,12.83-9.25-10.41-16.69-26.21-23.57-48.62-4.85-15.82-7.63-33.11-7.63-51.23,0-75.47,42.13-136.66,94.09-136.66Z"/>
  <path class="st2" d="M449.95,240.92c-8.98-18.49-30.19-33.03-66.17-33.03-25.02,0-47.73,14.83-64.24,38.8-16.7,24.26-27.03,57.82-27.03,94.95,0,8.74.66,17.28,1.89,25.55,1.28,8.58,3.18,16.88,5.61,24.81,3.4,11.08,6.93,20.5,10.73,28.4,3.76,7.82,7.79,14.15,12.22,19.14,7.16,8.06,17.8,13.32,28.75,15.09,6.03.97,12.14.88,17.82-.4,5.56-1.26,10.66-3.65,14.76-7.31,4.89-4.35,8.44-10.53,9.77-18.74.09-.58.17-1.15.23-1.7v-.09c.62-5.69-.25-11.21-2.56-15.48-1.94-3.58-4.93-6.28-8.95-7.39-1.01,3.47-3.1,6.51-5.95,8.97-3.87,3.34-9.18,5.62-15.1,6.43-5.82.8-12.26.19-18.51-2.23-8.39-3.25-16.41-9.73-22.08-20.4h0s-.02-.03-.02-.03c-3.37-6.52-6.05-13.92-7.86-21.94l-.03-.12c-1.75-7.76-2.71-16.1-2.71-24.77,0-15.57,3.84-33.36,11.73-47.67,6.74-12.24,16.44-21.97,29.25-25.77,11-3.26,20.87-2.83,28.68.08,5.66,2.11,10.25,5.52,13.43,9.79,3.25,4.35,5.03,9.56,5.02,15.18-.01,5.03-1.47,10.36-4.62,15.64,24.61,2.18,42.77-8.59,52.62-24.11,4.84-7.62,7.68-16.39,8.3-25.33.62-8.93-.96-18.03-4.98-26.3M383.78,202.06c38.47,0,61.35,15.96,71.21,36.26,4.5,9.25,6.27,19.38,5.58,29.31-.69,9.92-3.85,19.65-9.21,28.1-11.56,18.23-33.33,30.55-62.77,26.13-1.54-.23-2.61-1.7-2.4-3.29.08-.61.35-1.15.73-1.57,4.18-5.45,6.07-10.95,6.09-15.99.01-4.3-1.36-8.29-3.84-11.62-2.54-3.41-6.27-6.16-10.9-7.88-6.75-2.52-15.42-2.85-25.21.05-11.23,3.33-19.84,12.05-25.89,23.04-7.38,13.4-10.98,30.12-10.98,44.8,0,8.24.9,16.14,2.55,23.46l.02.11c1.71,7.53,4.2,14.45,7.33,20.51h0c4.95,9.32,11.9,14.96,19.13,17.76,5.34,2.07,10.83,2.6,15.79,1.92,4.85-.67,9.15-2.49,12.21-5.14,2.56-2.22,4.24-5.01,4.56-8.16.16-1.6,1.54-2.76,3.09-2.59.35.03.74.09,1.16.16,6.73,1.09,11.63,5.1,14.63,10.66,2.89,5.33,3.99,12.08,3.26,18.94v.08c-.08.68-.18,1.36-.29,2.03-1.56,9.66-5.8,16.97-11.65,22.17-4.87,4.33-10.82,7.15-17.26,8.6-6.32,1.43-13.14,1.53-19.87.45-12.14-1.97-24-7.86-32.04-16.91-4.81-5.42-9.14-12.19-13.13-20.48-3.95-8.21-7.59-17.9-11.06-29.22-2.52-8.2-4.48-16.79-5.81-25.69-1.27-8.55-1.95-17.39-1.95-26.41,0-38.35,10.73-73.11,28.09-98.32,17.55-25.49,41.88-41.26,68.83-41.26Z"/>
  <path class="st2" d="M296.36,313.7c-5.77,20.47-5.02,42.74.08,62.88,23.44,92.6,100.11,74.4,86.46,25.67,8.92,46.09-60.11,59.84-82-26.63-4.95-19.54-5.69-41.1-.11-60.87,7.07-32.65,39.79-78.08,80.11-73.93,41.05,4.8,48.89,47.35,23.26,71.64,32.4-22.15,20.53-78.42-30.85-76.3-35.73,1.48-68.04,38.45-76.94,77.53"/>
  <path class="st7" d="M182.22,204.97c-107.22,0-88.43,126.51-5.21,114.01-18.62-24,3.15-50.17,36.71-40.22,26.35,7.82,38.93,42.84,38.93,70.65,0,17.23-3.84,33.05-10.26,45.47-16.73,31.48-55.05,23.96-56.96,5.27-12.9,1.38-18.47,14.91-16.27,28.5,6.05,37.4,54.95,36.48,75.96,12.83,9.24-10.41,16.69-26.21,23.57-48.62,4.85-15.82,7.63-33.11,7.63-51.23,0-75.47-42.13-136.66-94.09-136.66"/>
  <path class="st2" d="M111.01,238.32c9.86-20.29,32.73-36.26,71.21-36.26,26.95,0,51.28,15.77,68.83,41.26,17.35,25.2,28.09,59.97,28.09,98.32,0,9.03-.68,17.86-1.95,26.41-1.33,8.9-3.29,17.5-5.81,25.69-3.47,11.32-7.11,21.01-11.06,29.22-3.99,8.29-8.31,15.06-13.12,20.48-8.04,9.05-19.89,14.95-32.04,16.91-6.72,1.09-13.55.98-19.87-.45-6.43-1.45-12.39-4.28-17.26-8.6-5.85-5.2-10.09-12.52-11.65-22.17-.11-.67-.2-1.35-.28-2.03v-.08c-.75-6.85.36-13.61,3.24-18.94,3.01-5.56,7.9-9.57,14.63-10.66.42-.07.81-.12,1.16-.16,1.55-.16,2.93,1,3.09,2.59.32,3.15,1.99,5.95,4.56,8.16,3.07,2.65,7.36,4.47,12.21,5.14,4.96.68,10.45.15,15.79-1.92,7.23-2.8,14.17-8.44,19.12-17.76h0c3.13-6.05,5.62-12.98,7.33-20.51l.02-.11c1.65-7.32,2.55-15.21,2.55-23.46,0-14.68-3.6-31.41-10.98-44.8-6.06-11-14.66-19.71-25.9-23.04-9.8-2.91-18.46-2.57-25.21-.05-4.63,1.72-8.35,4.47-10.9,7.88-2.49,3.33-3.86,7.32-3.85,11.62.01,5.03,1.91,10.53,6.09,15.99.38.42.64.96.73,1.57.22,1.59-.85,3.06-2.4,3.29-29.44,4.42-51.21-7.91-62.77-26.13-5.36-8.45-8.52-18.18-9.21-28.1-.69-9.92,1.08-20.05,5.58-29.31M182.22,207.89c-35.99,0-57.19,14.54-66.17,33.03-4.02,8.27-5.61,17.37-4.98,26.3.62,8.93,3.47,17.7,8.3,25.33,9.85,15.52,28.01,26.29,52.62,24.11-3.15-5.28-4.61-10.61-4.62-15.64-.01-5.62,1.77-10.83,5.02-15.18,3.19-4.27,7.78-7.68,13.43-9.79,7.81-2.91,17.69-3.34,28.68-.08,12.81,3.8,22.51,13.54,29.25,25.77,7.89,14.31,11.73,32.1,11.73,47.67,0,8.67-.95,17.01-2.71,24.77l-.03.12c-1.82,8.02-4.5,15.42-7.86,21.94l-.02.03h0c-5.67,10.67-13.7,17.16-22.08,20.4-6.24,2.42-12.69,3.03-18.51,2.23-5.92-.81-11.24-3.09-15.11-6.43-2.85-2.46-4.94-5.5-5.95-8.97-4.02,1.12-7.01,3.81-8.95,7.39-2.31,4.27-3.18,9.79-2.57,15.48v.09c.07.56.15,1.13.24,1.7,1.33,8.21,4.88,14.39,9.77,18.74,4.11,3.65,9.21,6.05,14.76,7.31,5.67,1.28,11.79,1.37,17.82.4,10.95-1.77,21.59-7.03,28.75-15.09,4.43-4.99,8.46-11.32,12.22-19.14,3.8-7.9,7.33-17.31,10.73-28.4,2.43-7.93,4.33-16.22,5.61-24.81,1.23-8.26,1.89-16.81,1.89-25.55,0-37.13-10.33-70.69-27.03-94.95-16.5-23.97-39.22-38.8-64.24-38.8Z"/>
  <path class="st2" d="M269.63,313.7c5.77,20.47,5.02,42.74-.08,62.88-23.44,92.6-100.11,74.4-86.46,25.67-8.92,46.09,60.11,59.84,82-26.63,4.95-19.54,5.69-41.1.11-60.87-7.07-32.65-39.79-78.08-80.11-73.93-41.05,4.8-48.89,47.35-23.26,71.64-32.41-22.15-20.53-78.42,30.85-76.3,35.73,1.48,68.04,38.45,76.94,77.53"/>
  <path class="st2" d="M217.35,397.61c7.53-8.42,12.38-11.66,23.68-13.21,12.89-1.4,25.87.33,38.71,1.55,19.33,1.76,33.77,2.53,53.04-1.7,11.22-2.85,19.32-6.36,29.01-12.64,10.71-7.37,17.71-16.47,25.44-26.79-13.4-9.42-26.8-18.84-40.2-28.26-3.97,5.29-7.55,9.2-13.04,12.98-4.37,2.84-7.92,4.33-12.98,5.62-12.31,2.7-24.03,1.63-36.45.5-17.69-1.69-31.82-1.37-49.78.57-10.68,1.46-18.65,3.69-28.38,8.35-10.82,5.57-17.98,11.35-26.03,20.34l36.98,32.69Z"/>
  <path class="st3" d="M199.93,377.83c5.38-5.59,10.05-9.22,17-12.78,7.14-3.42,12.97-4.99,20.81-6.06,15.58-1.69,29.12-.01,44.55,1.46,15.78,1.44,28.6.43,44.29-3.01,7.97-2.03,13.67-4.47,20.56-8.93,7.17-4.92,11.96-9.72,17.32-16.49l-16.66-11.98c-3.86,4.88-7.1,8.17-12.27,11.71-4.67,3.03-8.46,4.63-13.86,6-12.72,2.79-24.53,1.73-37.36.56-17.43-1.66-31.48-1.35-49.17.56-10.35,1.42-18.07,3.56-27.5,8.08-9.32,4.78-15.67,9.65-22.89,17.15,5.06,4.57,10.13,9.15,15.19,13.72"/>
  <path class="st6" d="M217.12,393.36c3.29-3.42,6.09-5.66,10.34-7.84,4.52-2.17,8.27-3.09,13.23-3.77,13.1-1.42,26.27.3,39.32,1.55,18.97,1.73,33.21,2.52,52.13-1.63,10.88-2.77,18.73-6.16,28.13-12.26,9.42-6.46,16.37-14.92,23.41-23.82l-17.06-11.97c-5.56,7.02-10.53,11.98-17.96,17.08-7.18,4.66-13.12,7.21-21.44,9.32-16.08,3.53-29.04,4.55-45.2,3.08-15.16-1.45-28.64-3.12-43.94-1.47-7.51,1.03-13.09,2.52-19.93,5.79-6.63,3.41-11.08,6.87-16.22,12.21,5.06,4.57,10.13,9.15,15.19,13.72"/>
</svg>