<?xml version="1.0" encoding="UTF-8" standalone="no"?>
<svg
   xmlns:dc="http://purl.org/dc/elements/1.1/"
   xmlns:cc="http://creativecommons.org/ns#"
   xmlns:rdf="http://www.w3.org/1999/02/22-rdf-syntax-ns#"
   xmlns:svg="http://www.w3.org/2000/svg"
   xmlns="http://www.w3.org/2000/svg"
   viewBox="0 0 209.33333 208"
   height="208"
   width="209.33333"
   xml:space="preserve"
   id="svg2"
   version="1.1"><metadata
     id="metadata8"><rdf:RDF><cc:Work
         rdf:about=""><dc:format>image/svg+xml</dc:format><dc:type
           rdf:resource="http://purl.org/dc/dcmitype/StillImage" /></cc:Work></rdf:RDF></metadata><defs
     id="defs6" /><g
     transform="matrix(1.3333333,0,0,-1.3333333,0,208)"
     id="g10"><g
       transform="scale(0.1)"
       id="g12"><path
         id="path14"
         style="fill:#64604f;fill-opacity:1;fill-rule:evenodd;stroke:none"
         d="m 782.922,1559.75 c 430.528,0 779.528,-349.01 779.528,-779.535 0,-430.52 -349,-779.523594 -779.528,-779.523594 C 352.398,0.691406 3.39453,349.695 3.39453,780.215 c 0,430.525 349.00347,779.535 779.52747,779.535" /><path
         id="path16"
         style="fill:#4e4a3d;fill-opacity:1;fill-rule:nonzero;stroke:none"
         d="m 782.922,1509.95 c 403.028,0 729.738,-326.71 729.738,-729.735 0,-403.024 -326.71,-729.7384 -729.738,-729.7384 -403.027,0 -729.7384,326.7144 -729.7384,729.7384 0,403.025 326.7114,729.735 729.7384,729.735" /><path
         id="path18"
         style="fill:#4e4a3d;fill-opacity:1;fill-rule:evenodd;stroke:none"
         d="m 782.922,1440.37 c 364.598,0 660.148,-295.56 660.148,-660.155 0,-364.594 -295.55,-660.152 -660.148,-660.152 -364.594,0 -660.152,295.558 -660.152,660.152 0,364.595 295.558,660.155 660.152,660.155" /><path
         id="path20"
         style="fill:none;stroke:#595647;stroke-width:28.3465004;stroke-linecap:butt;stroke-linejoin:miter;stroke-miterlimit:22.92560005;stroke-dasharray:none;stroke-opacity:1"
         d="M 782.836,1441.65 V 121.352" /><path
         id="path22"
         style="fill:none;stroke:#595647;stroke-width:28.3465004;stroke-linecap:butt;stroke-linejoin:miter;stroke-miterlimit:22.92560005;stroke-dasharray:none;stroke-opacity:1"
         d="M 713.832,1438.04 851.84,124.969" /><path
         id="path24"
         style="fill:none;stroke:#595647;stroke-width:28.3465004;stroke-linecap:butt;stroke-linejoin:miter;stroke-miterlimit:22.92560005;stroke-dasharray:none;stroke-opacity:1"
         d="M 645.582,1427.23 920.09,135.777" /><path
         id="path26"
         style="fill:none;stroke:#595647;stroke-width:28.3465004;stroke-linecap:butt;stroke-linejoin:miter;stroke-miterlimit:22.92560005;stroke-dasharray:none;stroke-opacity:1"
         d="M 578.836,1409.34 986.832,153.66" /><path
         id="path28"
         style="fill:none;stroke:#595647;stroke-width:28.3465004;stroke-linecap:butt;stroke-linejoin:miter;stroke-miterlimit:22.92560005;stroke-dasharray:none;stroke-opacity:1"
         d="M 514.328,1384.58 1051.34,178.426" /><path
         id="path30"
         style="fill:none;stroke:#595647;stroke-width:28.3465004;stroke-linecap:butt;stroke-linejoin:miter;stroke-miterlimit:22.92560005;stroke-dasharray:none;stroke-opacity:1"
         d="M 452.762,1353.21 1112.91,209.797" /><path
         id="path32"
         style="fill:none;stroke:#595647;stroke-width:28.3465004;stroke-linecap:butt;stroke-linejoin:miter;stroke-miterlimit:22.92560005;stroke-dasharray:none;stroke-opacity:1"
         d="M 394.809,1315.58 1170.86,247.43" /><path
         id="path34"
         style="fill:none;stroke:#595647;stroke-width:28.3465004;stroke-linecap:butt;stroke-linejoin:miter;stroke-miterlimit:22.92560005;stroke-dasharray:none;stroke-opacity:1"
         d="M 341.109,1272.09 1224.56,290.914" /><path
         id="path36"
         style="fill:none;stroke:#595647;stroke-width:28.3465004;stroke-linecap:butt;stroke-linejoin:miter;stroke-miterlimit:22.92560005;stroke-dasharray:none;stroke-opacity:1"
         d="M 292.25,1223.23 1273.43,339.777" /><path
         id="path38"
         style="fill:none;stroke:#595647;stroke-width:28.3465004;stroke-linecap:butt;stroke-linejoin:miter;stroke-miterlimit:22.92560005;stroke-dasharray:none;stroke-opacity:1"
         d="M 248.762,1169.53 1316.91,393.477" /><path
         id="path40"
         style="fill:none;stroke:#595647;stroke-width:28.3465004;stroke-linecap:butt;stroke-linejoin:miter;stroke-miterlimit:22.92560005;stroke-dasharray:none;stroke-opacity:1"
         d="M 211.129,1111.58 1354.54,451.43" /><path
         id="path42"
         style="fill:none;stroke:#595647;stroke-width:28.3465004;stroke-linecap:butt;stroke-linejoin:miter;stroke-miterlimit:22.92560005;stroke-dasharray:none;stroke-opacity:1"
         d="M 179.758,1050.01 1385.91,512.996" /><path
         id="path44"
         style="fill:none;stroke:#595647;stroke-width:28.3465004;stroke-linecap:butt;stroke-linejoin:miter;stroke-miterlimit:22.92560005;stroke-dasharray:none;stroke-opacity:1"
         d="M 154.996,985.504 1410.68,577.508" /><path
         id="path46"
         style="fill:none;stroke:#595647;stroke-width:28.3465004;stroke-linecap:butt;stroke-linejoin:miter;stroke-miterlimit:22.92560005;stroke-dasharray:none;stroke-opacity:1"
         d="M 137.109,918.758 1428.56,644.25" /><path
         id="path48"
         style="fill:none;stroke:#595647;stroke-width:28.3465004;stroke-linecap:butt;stroke-linejoin:miter;stroke-miterlimit:22.92560005;stroke-dasharray:none;stroke-opacity:1"
         d="M 126.305,850.508 1439.37,712.5" /><path
         id="path50"
         style="fill:none;stroke:#595647;stroke-width:28.3465004;stroke-linecap:butt;stroke-linejoin:miter;stroke-miterlimit:22.92560005;stroke-dasharray:none;stroke-opacity:1"
         d="M 122.688,781.504 H 1442.99" /><path
         id="path52"
         style="fill:none;stroke:#595647;stroke-width:28.3465004;stroke-linecap:butt;stroke-linejoin:miter;stroke-miterlimit:22.92560005;stroke-dasharray:none;stroke-opacity:1"
         d="M 126.305,712.5 1439.37,850.508" /><path
         id="path54"
         style="fill:none;stroke:#595647;stroke-width:28.3465004;stroke-linecap:butt;stroke-linejoin:miter;stroke-miterlimit:22.92560005;stroke-dasharray:none;stroke-opacity:1"
         d="M 137.109,644.25 1428.56,918.758" /><path
         id="path56"
         style="fill:none;stroke:#595647;stroke-width:28.3465004;stroke-linecap:butt;stroke-linejoin:miter;stroke-miterlimit:22.92560005;stroke-dasharray:none;stroke-opacity:1"
         d="M 154.996,577.508 1410.68,985.504" /><path
         id="path58"
         style="fill:none;stroke:#595647;stroke-width:28.3465004;stroke-linecap:butt;stroke-linejoin:miter;stroke-miterlimit:22.92560005;stroke-dasharray:none;stroke-opacity:1"
         d="M 179.758,512.996 1385.91,1050.01" /><path
         id="path60"
         style="fill:none;stroke:#595647;stroke-width:28.3465004;stroke-linecap:butt;stroke-linejoin:miter;stroke-miterlimit:22.92560005;stroke-dasharray:none;stroke-opacity:1"
         d="M 211.129,451.43 1354.54,1111.58" /><path
         id="path62"
         style="fill:none;stroke:#595647;stroke-width:28.3465004;stroke-linecap:butt;stroke-linejoin:miter;stroke-miterlimit:22.92560005;stroke-dasharray:none;stroke-opacity:1"
         d="M 248.762,393.477 1316.91,1169.53" /><path
         id="path64"
         style="fill:none;stroke:#595647;stroke-width:28.3465004;stroke-linecap:butt;stroke-linejoin:miter;stroke-miterlimit:22.92560005;stroke-dasharray:none;stroke-opacity:1"
         d="m 292.25,339.777 981.18,883.453" /><path
         id="path66"
         style="fill:none;stroke:#595647;stroke-width:28.3465004;stroke-linecap:butt;stroke-linejoin:miter;stroke-miterlimit:22.92560005;stroke-dasharray:none;stroke-opacity:1"
         d="M 341.109,290.918 1224.56,1272.09" /><path
         id="path68"
         style="fill:none;stroke:#595647;stroke-width:28.3465004;stroke-linecap:butt;stroke-linejoin:miter;stroke-miterlimit:22.92560005;stroke-dasharray:none;stroke-opacity:1"
         d="M 394.809,247.43 1170.86,1315.58" /><path
         id="path70"
         style="fill:none;stroke:#595647;stroke-width:28.3465004;stroke-linecap:butt;stroke-linejoin:miter;stroke-miterlimit:22.92560005;stroke-dasharray:none;stroke-opacity:1"
         d="M 452.762,209.797 1112.91,1353.21" /><path
         id="path72"
         style="fill:none;stroke:#595647;stroke-width:28.3465004;stroke-linecap:butt;stroke-linejoin:miter;stroke-miterlimit:22.92560005;stroke-dasharray:none;stroke-opacity:1"
         d="M 514.328,178.426 1051.34,1384.58" /><path
         id="path74"
         style="fill:none;stroke:#595647;stroke-width:28.3465004;stroke-linecap:butt;stroke-linejoin:miter;stroke-miterlimit:22.92560005;stroke-dasharray:none;stroke-opacity:1"
         d="M 578.836,153.664 986.832,1409.35" /><path
         id="path76"
         style="fill:none;stroke:#595647;stroke-width:28.3465004;stroke-linecap:butt;stroke-linejoin:miter;stroke-miterlimit:22.92560005;stroke-dasharray:none;stroke-opacity:1"
         d="M 645.582,135.781 920.09,1427.23" /><path
         id="path78"
         style="fill:none;stroke:#595647;stroke-width:28.3465004;stroke-linecap:butt;stroke-linejoin:miter;stroke-miterlimit:22.92560005;stroke-dasharray:none;stroke-opacity:1"
         d="M 713.832,124.973 851.84,1438.04" /><path
         id="path80"
         style="fill:none;stroke:#595647;stroke-width:28.3465004;stroke-linecap:butt;stroke-linejoin:miter;stroke-miterlimit:22.92560005;stroke-dasharray:none;stroke-opacity:1"
         d="M 782.836,121.355 V 1441.66" /><path
         id="path82"
         style="fill:#bdbbbc;fill-opacity:1;fill-rule:evenodd;stroke:none"
         d="m 785.668,1375.89 c 88.855,-104.63 126.906,-166.78 135.859,-288.43 3.016,-40.98 -9.082,-110.026 -24.66,-181.362 -57.16,-68.008 -93.64,-171.313 -93.64,-287.008 0,-3.211 0.035,-6.418 0.101,-9.613 l -0.004,-0.348 c 0,-47.68 7.535,-93.191 20.707,-134.828 11.969,-37.832 25.348,-69.836 40.563,-96.102 -13.793,-106.062 -22.024,-143.207 -78.926,-218.14 -56.898,74.933 -65.129,112.078 -78.922,218.14 15.215,26.266 28.59,58.27 40.563,96.102 13.168,41.637 20.707,87.148 20.707,134.828 v 0.348 c 0.062,3.195 0.097,6.402 0.097,9.613 0,115.695 -36.484,219 -93.64,287.008 -15.578,71.336 -27.676,140.382 -24.66,181.362 8.953,121.65 47.003,183.8 135.855,288.43" /><path
         id="path84"
         style="fill:#4e4a3d;fill-opacity:1;fill-rule:nonzero;stroke:none"
         d="m 791.59,1380.74 c 44.754,-52.71 76.762,-94.81 98.832,-139.3 22.199,-44.74 34.191,-91.56 38.742,-153.44 1.551,-21.08 -0.75,-49.14 -5.418,-80.95 -4.629,-31.519 -11.578,-66.784 -19.394,-102.57 -0.321,-1.488 -1.055,-2.781 -2.055,-3.789 -28.289,-33.8 -51.406,-76.57 -67.332,-125.378 -15.434,-47.309 -24.07,-100.27 -24.07,-156.223 l -0.004,-4.754 c 0.011,-1.488 0.043,-3.055 0.074,-4.711 l -0.004,-0.309 v -0.187 h 0.031 c 0,-23.008 1.781,-45.484 5.117,-67.231 3.473,-22.585 8.633,-44.429 15.231,-65.285 5.969,-18.871 12.219,-36.113 18.797,-51.734 6.59,-15.664 13.601,-29.945 21.078,-42.852 0.933,-1.613 1.215,-3.437 0.914,-5.14 C 865.184,323.523 859.613,287.418 848.543,255 837.375,222.273 820.75,193.637 791.75,155.445 c -2.547,-3.355 -7.336,-4.015 -10.691,-1.465 -0.614,0.465 -1.137,1 -1.571,1.594 -28.933,38.125 -45.535,66.739 -56.695,99.426 -11.09,32.484 -16.664,68.668 -23.621,122.207 -0.227,1.742 0.148,3.418 0.965,4.82 h -0.008 c 7.473,12.907 14.48,27.188 21.074,42.852 6.578,15.621 12.828,32.863 18.793,51.734 6.598,20.856 11.762,42.696 15.234,65.285 3.336,21.747 5.118,44.223 5.118,67.231 h 0.027 v 0.348 l 0.004,0.148 h -0.004 c 0.031,1.656 0.059,3.23 0.07,4.711 l -0.004,4.754 c 0,55.953 -8.632,108.914 -24.07,156.223 -16,49.042 -39.266,91.996 -67.742,125.875 -0.828,0.988 -1.363,2.121 -1.613,3.3 l -0.032,-0.008 c -7.816,35.786 -14.765,71.047 -19.394,102.57 -4.668,31.81 -6.965,59.87 -5.414,80.95 4.551,61.88 16.543,108.7 38.742,153.44 22.082,44.52 54.117,86.64 98.91,139.39 2.731,3.23 7.559,3.63 10.785,0.9 0.356,-0.3 0.688,-0.64 0.977,-0.99 z m 85.113,-146.06 c -20.437,41.19 -50.027,80.7 -91.035,129.36 -41.004,-48.66 -70.594,-88.17 -91.031,-129.36 -21.278,-42.9 -32.789,-87.98 -37.188,-147.76 -1.461,-19.9 0.778,-46.86 5.297,-77.65 4.481,-30.551 11.219,-64.84 18.824,-99.766 29.196,-35.184 53,-79.324 69.36,-129.457 15.933,-48.848 24.851,-103.418 24.851,-160.957 l -0.058,-4.871 c -0.016,-1.711 -0.039,-3.336 -0.067,-4.867 v -0.223 h 0.032 c 0,-23.75 -1.848,-46.988 -5.305,-69.512 -3.598,-23.426 -8.945,-46.043 -15.77,-67.621 -6,-18.969 -12.425,-36.644 -19.332,-53.047 -6.504,-15.449 -13.367,-29.554 -20.621,-42.328 6.672,-51.113 12.113,-85.894 22.629,-116.707 9.82,-28.762 24.199,-54.367 48.379,-87.125 24.18,32.758 38.562,58.363 48.379,87.125 10.519,30.813 15.961,65.594 22.633,116.707 -7.258,12.766 -14.117,26.879 -20.621,42.328 -6.907,16.403 -13.336,34.078 -19.336,53.047 -6.825,21.582 -12.168,44.199 -15.766,67.629 -3.457,22.516 -5.305,45.754 -5.305,69.504 h 0.032 v 0.031 0.219 c -0.028,1.527 -0.055,3.144 -0.067,4.84 l -0.058,4.871 c 0,57.539 8.918,112.109 24.851,160.957 16.36,50.133 40.16,94.273 69.36,129.457 7.601,34.926 14.339,69.215 18.824,99.766 4.519,30.79 6.758,57.75 5.297,77.65 -4.399,59.78 -15.914,104.86 -37.188,147.76 z m -65.738,-625.231 -0.004,-0.133 0.004,0.133" /><path
         id="path86"
         style="fill:#4e4a3d;fill-opacity:1;fill-rule:nonzero;stroke:none"
         d="m 785.668,246.289 h -0.215 c -3.414,46.43 -5.41,100.711 -5.32,166.504 v 664.077 c -0.113,131.81 4.75,200.24 5.219,211.51 h 0.316 0.32 c 0.465,-11.27 5.332,-79.7 5.219,-211.51 V 412.793 C 791.297,347 789.301,292.719 785.883,246.289 h -0.215" /><path
         id="path88"
         style="fill:#bdbbbc;fill-opacity:1;fill-rule:evenodd;stroke:none"
         d="m 1059.08,989.336 c 290.96,0 239.98,-343.297 14.13,-309.379 50.52,65.129 -8.56,136.16 -99.605,109.133 -71.519,-21.231 -105.632,-116.258 -105.632,-191.711 0,-46.742 10.425,-89.672 27.836,-123.379 45.402,-85.43 149.391,-65.023 154.571,-14.297 35.01,-3.754 50.11,-40.465 44.15,-77.344 -16.42,-101.476 -149.124,-98.98 -206.132,-34.816 -25.085,28.242 -45.296,71.129 -63.949,131.93 -13.172,42.929 -20.707,89.859 -20.707,139.019 0,204.813 114.321,370.844 255.338,370.844" /><path
         id="path90"
         style="fill:#4e4a3d;fill-opacity:1;fill-rule:nonzero;stroke:none"
         d="m 1059.08,997.246 c 104.4,0 166.47,-43.324 193.23,-98.398 12.21,-25.106 17.03,-52.602 15.14,-79.524 -1.87,-26.926 -10.43,-53.332 -24.98,-76.265 -31.37,-49.461 -90.45,-82.911 -170.34,-70.914 -4.18,0.613 -7.1,4.609 -6.5,8.925 0.23,1.66 0.94,3.125 1.98,4.266 11.34,14.793 16.48,29.727 16.52,43.379 0.02,11.672 -3.69,22.508 -10.44,31.543 -6.9,9.25 -17,16.707 -29.57,21.387 -18.33,6.832 -41.83,7.738 -68.421,-0.149 -30.476,-9.047 -53.828,-32.699 -70.265,-62.535 -20.032,-36.352 -29.797,-81.742 -29.797,-121.582 0,-22.359 2.441,-43.785 6.926,-63.645 l 0.058,-0.289 c 4.629,-20.433 11.399,-39.215 19.883,-55.656 l 0.012,0.012 c 13.441,-25.293 32.289,-40.606 51.902,-48.196 14.484,-5.613 29.398,-7.042 42.844,-5.199 13.158,1.809 24.818,6.75 33.148,13.946 6.95,6.011 11.49,13.601 12.36,22.152 0.43,4.332 4.19,7.484 8.39,7.039 0.95,-0.094 2,-0.246 3.14,-0.434 18.27,-2.949 31.55,-13.847 39.72,-28.921 7.84,-14.473 10.82,-32.79 8.83,-51.391 l -0.03,-0.234 c -0.2,-1.844 -0.45,-3.68 -0.75,-5.497 -4.23,-26.203 -15.72,-46.066 -31.6,-60.171 -13.22,-11.747 -29.38,-19.403 -46.84,-23.348 -17.16,-3.875 -35.669,-4.156 -53.915,-1.207 -32.957,5.332 -65.129,21.332 -86.945,45.89 -13.059,14.7 -24.79,33.09 -35.618,55.579 -10.726,22.277 -20.586,48.566 -30.011,79.285 -6.828,22.25 -12.168,45.57 -15.766,69.726 -3.457,23.211 -5.301,47.18 -5.301,71.672 0,104.063 29.129,198.403 76.223,266.801 47.629,69.168 113.652,111.953 186.783,111.953 z m 179.57,-105.441 c -24.37,50.168 -81.91,89.629 -179.57,89.629 -67.885,0 -129.533,-40.239 -174.318,-105.282 -45.321,-65.824 -73.352,-156.91 -73.352,-257.66 0,-23.719 1.781,-46.898 5.121,-69.328 3.469,-23.289 8.629,-45.805 15.227,-67.316 9.23,-30.075 18.805,-55.637 29.113,-77.059 10.211,-21.211 21.133,-38.394 33.16,-51.934 19.422,-21.863 48.297,-36.14 78.02,-40.949 16.355,-2.644 32.949,-2.386 48.339,1.082 15.08,3.41 28.92,9.918 40.07,19.825 13.28,11.8 22.92,28.566 26.52,50.847 0.25,1.563 0.47,3.11 0.63,4.629 l 0.02,0.238 c 1.66,15.438 -0.7,30.422 -6.97,42.004 -5.26,9.707 -13.39,17.028 -24.29,20.059 -2.75,-9.418 -8.4,-17.66 -16.14,-24.348 -10.49,-9.062 -24.91,-15.25 -40.988,-17.457 -15.797,-2.172 -33.273,-0.504 -50.219,6.059 -22.757,8.812 -44.546,26.414 -59.925,55.355 l 0.015,0.012 -0.047,0.086 c -9.136,17.687 -16.406,37.777 -21.343,59.531 l -0.082,0.324 c -4.754,21.067 -7.34,43.696 -7.34,67.227 0,42.25 10.429,90.527 31.828,129.367 18.301,33.211 44.625,59.625 79.379,69.942 29.832,8.855 56.622,7.683 77.822,-0.219 15.35,-5.723 27.81,-14.985 36.46,-26.571 8.8,-11.796 13.65,-25.941 13.61,-41.183 -0.03,-13.652 -3.99,-28.113 -12.55,-42.442 66.78,-5.921 116.08,23.305 142.8,65.426 13.12,20.696 20.83,44.485 22.53,68.731 1.69,24.246 -2.61,48.922 -13.53,71.375" /><path
         id="path92"
         style="fill:#4e4a3d;fill-opacity:1;fill-rule:nonzero;stroke:none"
         d="M 821.863,694.293 C 806.203,638.738 808.242,578.309 822.082,523.645 885.684,272.367 1093.75,321.746 1056.7,453.988 1080.92,328.91 893.574,291.59 834.172,526.25 c -13.422,53.027 -15.434,111.531 -0.309,165.168 19.176,88.609 107.977,211.887 217.397,200.637 111.4,-13.028 132.69,-128.481 63.12,-194.418 87.93,60.113 55.7,212.793 -83.73,207.043 C 933.688,900.66 846.016,800.328 821.863,694.293" /><path
         id="path94"
         style="fill:#bdbbbc;fill-opacity:1;fill-rule:evenodd;stroke:none"
         d="m 512.113,989.336 c -290.957,0 -239.98,-343.297 -14.129,-309.379 -50.515,65.129 8.555,136.16 99.606,109.133 71.515,-21.231 105.633,-116.258 105.633,-191.711 0,-46.742 -10.43,-89.672 -27.836,-123.379 -45.403,-85.43 -149.395,-65.023 -154.574,-14.297 -35.008,-3.754 -50.114,-40.465 -44.149,-77.344 16.418,-101.476 149.121,-98.98 206.129,-34.816 25.086,28.242 45.293,71.129 63.949,131.93 13.172,42.929 20.711,89.859 20.711,139.019 0,204.813 -114.324,370.844 -255.34,370.844" /><path
         id="path96"
         style="fill:#4e4a3d;fill-opacity:1;fill-rule:nonzero;stroke:none"
         d="m 512.113,981.434 c -97.656,0 -155.199,-39.461 -179.574,-89.629 -10.91,-22.453 -15.215,-47.129 -13.527,-71.375 1.695,-24.246 9.414,-48.035 22.535,-68.731 26.723,-42.125 76.019,-71.347 142.789,-65.426 -8.555,14.329 -12.516,28.79 -12.547,42.442 -0.035,15.242 4.809,29.387 13.613,41.183 8.649,11.586 21.106,20.848 36.457,26.571 21.204,7.902 47.989,9.074 77.829,0.219 34.753,-10.317 61.078,-36.731 79.371,-69.942 21.402,-38.84 31.832,-87.117 31.832,-129.367 0,-23.531 -2.586,-46.16 -7.34,-67.227 l -0.082,-0.324 c -4.938,-21.754 -12.207,-41.844 -21.344,-59.531 l -0.043,-0.086 0.016,-0.012 c -15.383,-28.941 -37.172,-46.543 -59.926,-55.355 -16.945,-6.563 -34.43,-8.227 -50.219,-6.059 -16.074,2.207 -30.504,8.395 -40.992,17.457 -7.734,6.688 -13.391,14.93 -16.141,24.348 -10.902,-3.031 -19.027,-10.352 -24.285,-20.059 -6.273,-11.582 -8.633,-26.566 -6.976,-42.004 l 0.027,-0.238 c 0.164,-1.519 0.375,-3.066 0.625,-4.629 3.605,-22.281 13.242,-39.047 26.519,-50.847 11.153,-9.907 24.989,-16.415 40.071,-19.825 15.387,-3.468 31.984,-3.726 48.344,-1.082 29.714,4.809 58.593,19.086 78.011,40.949 12.032,13.54 22.953,30.723 33.164,51.934 10.313,21.422 19.883,46.984 29.11,77.059 6.601,21.511 11.761,44.027 15.23,67.316 3.34,22.43 5.121,45.609 5.121,69.328 0,100.75 -28.027,191.836 -73.347,257.66 C 641.645,941.195 580,981.434 512.113,981.434 Z M 318.879,898.848 c 26.762,55.074 88.828,98.398 193.234,98.398 73.129,0 139.157,-42.785 186.782,-111.953 47.093,-68.398 76.222,-162.738 76.222,-266.801 0,-24.492 -1.84,-48.461 -5.297,-71.672 -3.597,-24.156 -8.941,-47.476 -15.769,-69.726 -9.426,-30.719 -19.289,-57.004 -30.008,-79.285 -10.828,-22.489 -22.563,-40.879 -35.617,-55.579 -21.821,-24.558 -53.988,-40.558 -86.949,-45.89 -18.25,-2.949 -36.758,-2.668 -53.914,1.207 -17.461,3.945 -33.622,11.601 -46.836,23.348 -15.879,14.105 -27.372,33.968 -31.61,60.171 -0.297,1.817 -0.547,3.653 -0.746,5.497 l -0.027,0.234 c -1.996,18.601 0.992,36.918 8.828,51.391 8.168,15.074 21.445,25.972 39.715,28.921 1.148,0.188 2.203,0.34 3.148,0.434 4.199,0.445 7.957,-2.707 8.387,-7.039 0.875,-8.551 5.406,-16.141 12.367,-22.152 8.324,-7.196 19.984,-12.137 33.141,-13.946 13.445,-1.843 28.359,-0.414 42.847,5.199 19.614,7.59 38.457,22.903 51.895,48.196 l 0.016,-0.012 c 8.484,16.441 15.253,35.223 19.882,55.656 l 0.063,0.289 c 4.48,19.86 6.922,41.286 6.922,63.645 0,39.84 -9.762,85.23 -29.793,121.582 -16.442,29.836 -39.789,53.488 -70.27,62.535 -26.59,7.887 -50.094,6.981 -68.418,0.149 -12.57,-4.68 -22.668,-12.137 -29.57,-21.387 -6.75,-9.035 -10.465,-19.871 -10.438,-31.543 0.032,-13.652 5.176,-28.586 16.516,-43.379 1.035,-1.141 1.75,-2.606 1.981,-4.266 0.593,-4.316 -2.317,-8.312 -6.5,-8.925 -79.887,-11.997 -138.969,21.453 -170.336,70.914 -14.551,22.933 -23.114,49.339 -24.993,76.265 -1.879,26.922 2.946,54.418 15.145,79.524" /><path
         id="path98"
         style="fill:#4e4a3d;fill-opacity:1;fill-rule:nonzero;stroke:none"
         d="M 749.328,694.293 C 764.992,638.738 762.949,578.309 749.113,523.645 685.508,272.367 477.438,321.746 514.488,453.988 490.277,328.91 677.613,291.59 737.02,526.25 c 13.421,53.027 15.429,111.531 0.312,165.168 C 718.152,780.027 629.355,903.305 519.93,892.055 408.527,879.027 387.25,763.574 456.82,697.637 368.879,757.75 401.117,910.43 540.543,904.68 637.504,900.66 725.176,800.328 749.328,694.293" /><path
         id="path100"
         style="fill:#4e4a3d;fill-opacity:1;fill-rule:nonzero;stroke:none"
         d="m 607.457,466.59 c 20.445,22.848 33.586,31.648 64.25,35.848 34.988,3.789 70.211,-0.899 105.035,-4.215 52.465,-4.789 91.633,-6.864 143.946,4.609 30.441,7.742 52.425,17.25 78.726,34.309 29.076,20.004 48.046,44.691 69.036,72.699 -36.36,25.562 -72.72,51.121 -109.079,76.68 -10.766,-14.364 -20.476,-24.954 -35.394,-35.215 -11.868,-7.7 -21.485,-11.746 -35.223,-15.242 -33.399,-7.325 -65.203,-4.426 -98.91,-1.348 -48.008,4.574 -86.348,3.715 -135.086,-1.555 -28.977,-3.972 -50.613,-10.012 -77.016,-22.66 -29.355,-15.109 -48.785,-30.789 -70.629,-55.203 L 607.457,466.59" /><path
         id="path102"
         style="fill:#ffffff;fill-opacity:1;fill-rule:nonzero;stroke:none"
         d="m 560.176,520.266 c 14.605,15.16 27.277,25.011 46.129,34.679 19.383,9.278 35.191,13.532 56.465,16.446 42.273,4.574 79.015,0.039 120.886,-3.957 42.824,-3.907 77.598,-1.172 120.188,8.171 21.629,5.497 37.094,12.129 55.781,24.247 19.461,13.367 32.453,26.367 47.005,44.742 l -45.208,32.5 c -10.477,-13.231 -19.281,-22.153 -33.301,-31.774 -12.66,-8.207 -22.957,-12.558 -37.609,-16.285 -34.516,-7.566 -66.574,-4.703 -101.387,-1.531 -47.301,4.512 -85.437,3.664 -133.434,-1.531 -28.097,-3.848 -49.031,-9.668 -74.625,-21.934 -25.296,-12.973 -42.519,-26.191 -62.105,-46.531 13.742,-12.414 27.477,-24.828 41.215,-37.242" /><path
         id="path104"
         style="fill:#ed1c24;fill-opacity:1;fill-rule:nonzero;stroke:none"
         d="m 606.816,478.121 c 8.918,9.27 16.532,15.367 28.051,21.27 12.266,5.879 22.442,8.386 35.906,10.23 35.563,3.852 71.293,-0.812 106.692,-4.191 51.488,-4.696 90.133,-6.825 141.465,4.433 29.523,7.516 50.832,16.719 76.336,33.262 25.574,17.539 44.424,40.5 63.534,64.633 l -46.29,32.469 C 997.422,621.184 983.938,607.715 963.766,593.871 944.27,581.227 928.164,574.32 905.598,568.57 c -43.641,-9.562 -78.797,-12.351 -122.664,-8.347 -41.141,3.922 -77.719,8.48 -119.235,3.984 -20.371,-2.793 -35.511,-6.836 -54.074,-15.723 -18.004,-9.242 -30.078,-18.632 -44.027,-33.121 13.742,-12.41 27.48,-24.82 41.218,-37.242" /></g></g></svg>